<?xml version="1.0" encoding="utf-8"?>
<!-- Generator: Adobe Illustrator 15.0.2, SVG Export Plug-In . SVG Version: 6.00 Build 0)  -->
<!DOCTYPE svg PUBLIC "-//W3C//DTD SVG 1.1//EN" "http://www.w3.org/Graphics/SVG/1.1/DTD/svg11.dtd">
<svg version="1.1" id="Layer_1" xmlns="http://www.w3.org/2000/svg" xmlns:xlink="http://www.w3.org/1999/xlink" x="0px" y="0px"
	 width="320px" height="320px" viewBox="0 0 320 320" enable-background="new 0 0 320 320" xml:space="preserve">
<path fill="#D1D3D4" d="M167.68,290.561c-1.6-2.561-9.92-8.32-10.88-10.561s-2.88-7.68-2.88-7.68c-3.2-3.2-7.04-14.721-8.64-24
	c-1.28-6.4-0.64-15.36-0.64-22.721c-0.32-25.6-22.72-29.439-29.12-52.16c-0.96-3.52-1.6-7.359-1.92-11.199
	c-0.96-16.64,0.96-6.72-3.52-21.76c-2.56-8-3.52-16.64-2.88-24.96c0.96-9.92,4.48-19.52,11.2-27.52c1.6-1.6,2.88-3.2,4.16-4.8
	c9.28-10.56,6.4-6.08,5.12-18.88c-0.32-4.16,1.6-7.68,4.48-10.56c3.84-4.16,5.12-3.84,5.12-9.6c0.32-6.72,2.56-11.52,10.56-15.68
	c3.2-1.6,6.08-3.2,7.68-10.88c0-0.32,0-0.32,0.32-1.28c0.32-2.24,0.96-4.48,1.92-6.4c4.48-9.6,12.48-6.72,22.4-3.2
	c7.04,2.56,15.359,5.44,23.68,3.52c1.92-0.32,3.52-0.96,5.439-1.6C210.88,8,212.8,7.04,214.4,6.4c0.319,0,0.319-0.32,1.279-0.64
	c9.28-4.8,14.721-9.28,21.44,0.64c1.28,1.92,2.88,4.16,5.12,6.72c5.119,5.76,7.359,6.08,9.6,6.4c5.12,0.64,7.04,3.2,7.68,8.32
	c0.961,7.68,4.16,10.88,10.881,14.4c7.039,3.84,9.92,8,9.92,15.04c0,7.36,1.6,14.4,4.479,21.44c4.479,11.52,7.36,19.2-1.28,40.96
	c-2.24,5.76-2.879,9.92-2.24,13.12c0.641,2.88,1.921,5.12,3.521,7.04c9.601,11.52,5.12,19.52,0.32,28.48
	c-2.24,4.16-4.479,8.32-5.44,13.119c-1.6,4.801-1.279,10.561-1.279,15.041c0,4.479,0.32,9.6-2.561,13.439
	c-2.88,3.84-7.359,10.561-10.561,16.641c-9.6,18.879-5.76,31.039-29.119,44.16c-3.52,1.92-6.721,3.84-7.36,8.639
	c-0.64,5.44,2.56,12.16-5.44,15.361c-8.959,3.52-3.84,3.199-9.6,15.359c-2.88,5.76-10.24,13.12-15.359,8.96
	c-8.641-6.72-20.16,7.36-27.521-16C170.88,303.04,169.6,292.8,167.68,290.561z"/>
<path fill="#D1D3D4" d="M157.44,290.561c-1.6-2.561-9.92-8.32-10.88-10.561s-2.88-7.68-2.88-7.68c-3.2-3.2-7.04-14.721-8.64-24
	c-1.28-6.4-0.64-15.36-0.64-22.721c-0.32-25.6-22.72-29.439-29.12-52.16c-0.96-3.52-1.6-7.359-1.92-11.199
	c-0.96-16.64,0.96-6.72-3.52-21.76c-2.56-8-3.52-16.64-2.88-24.96c0.96-9.92,4.48-19.52,11.2-27.52c1.6-1.6,2.88-3.2,4.16-4.8
	c9.28-10.56,6.4-6.08,5.12-18.88c-0.32-4.16,1.6-7.68,4.48-10.56c3.84-3.84,4.8-4.16,5.12-8.96c-0.96,0-1.92,0-3.2,0.32
	c-1.92,0.32-3.84,0.64-9.92-2.56c-2.88-1.6-4.8-2.88-6.4-4.16c-8.64-6.4-11.84-0.96-18.24,6.08c-0.64,0.64-0.64,0.64-0.96,0.96
	c-1.28,1.28-2.24,2.56-3.52,3.52c-1.28,0.96-2.56,2.24-3.84,3.2c-6.4,4.16-14.4,4.16-21.12,4.16c-9.28,0-16.96,0-17.6,9.6
	c-0.32,1.92,0,3.84,0.32,5.76c0,0.64,0,0.64,0,0.96c0.96,7.04-0.96,9.28-3.2,11.52c-5.44,6.08-6.08,10.56-4.16,16.32
	c1.6,4.8,0.64,5.12-1.6,9.6c-1.28,3.2-2.24,7.04-0.64,10.24c4.8,10.24,6.08,5.44,1.28,17.28c-0.64,1.6-1.28,3.52-2.24,5.44
	c-3.52,8.96-3.52,17.92-0.96,26.56c1.92,7.041,5.44,14.08,9.92,19.84c8.32,11.201,3.84,3.201,9.6,16.961
	c1.28,3.199,2.88,6.08,4.8,8.64c12.16,17.28,32,13.76,40,34.88c2.24,6.08,4.48,14.08,7.36,18.88c4.16,7.36,10.88,15.681,14.72,17.28
	c0,0,3.2,3.84,4.8,5.76c1.6,1.6,10.24,4.16,12.48,5.76c2.24,1.601,6.4,9.601,6.4,9.601c10.88,14.08,16.64,6.72,23.04,5.12
	c-1.6-2.24-3.52-5.12-4.8-9.92C160.32,303.04,159.04,292.8,157.44,290.561z"/>
</svg>
