<?xml version="1.0" encoding="utf-8"?>
<!-- Generator: Adobe Illustrator 17.1.0, SVG Export Plug-In . SVG Version: 6.00 Build 0)  -->
<!DOCTYPE svg PUBLIC "-//W3C//DTD SVG 1.1//EN" "http://www.w3.org/Graphics/SVG/1.1/DTD/svg11.dtd">
<svg version="1.1" id="Layer_1" xmlns="http://www.w3.org/2000/svg" xmlns:xlink="http://www.w3.org/1999/xlink" x="0px" y="0px"
	 viewBox="0 0 80 80" enable-background="new 0 0 80 80" xml:space="preserve">
<g>
	<g>
		<path fill="#E96057" d="M47.5,64.6L47.5,64.6C47.5,64.6,47.5,64.6,47.5,64.6L47.5,64.6z"/>
		<path fill="#E96057" d="M47.3,64.6L47.3,64.6L47.3,64.6h-0.1h0c0,0,0.1,0,0.3,0L47.3,64.6L47.3,64.6z"/>
	</g>
	<path fill="#E96057" d="M56.1,31c-5,0.5-16.8,0.6-21.3-0.1c1.9,5.8,0.4,27.8,1.4,29.2c0.9,1.4,4.1,1.1,8.7,1.1
		c4.6,0,8.8-0.1,9.9-1.6C55.8,58,53.4,35.5,56.1,31z M52.6,55.4c-0.9,1.2-4.1,1.3-7.7,1.3s-6.1,0.3-6.8-0.8
		c-0.7-1.1,0.2-18.2-0.9-22.7c3.5,0.5,12.4,0.5,16.3,0.1C51.9,37,53.5,54.2,52.6,55.4z"/>
	<path fill="#E96057" d="M43.1,41.7h4.6c0,0,0-5-2.3-5S43.1,41.7,43.1,41.7z"/>
	<path fill="#E96057" d="M47.7,43.3h-4.6c0,0,0,5,2.3,5S47.7,43.3,47.7,43.3z"/>
	<path fill="#E96057" d="M43.1,62.3h3.6c0,0-0.1,3.2-0.3,5c-0.2,1.8-0.6,4.5-1.2,5.1c-0.6,0.6-2.3,0.4-2.6-0.2
		c-0.3-0.7,0.3-3.2,0.5-5.1C43.4,65.3,43.1,62.3,43.1,62.3z"/>
	<path fill="#E96057" d="M25.2,68.7c1.1,6.7,4.7,10.9,9.6,11.3c0.2,0,0.5,0,0.7,0c3.8,0,7.3-2.4,8.5-6c0,0-0.6,0-1-0.2
		s-0.7-0.4-0.7-0.4c-1,3-4.1,5-7.3,4.8c-1.9-0.1-6.6-1.4-8-9.8c-0.6-3.8,1-7.3,5.3-10.8c0.7-0.6,1.6-1.2,2.4-1.8v-2.1
		C28.4,57.7,24.1,62.4,25.2,68.7z"/>
	<path fill="#E96057" d="M29,9.6c-4.9,0.1-8.3,0.9-11.2,2.2c-4.4,1.9-5.3,4.7-5.3,6.6l0,0c0.1,2.1,0.2,4.6,0.2,4.7l1.8-0.1
		c0,0-0.1-2.5-0.2-4.7c0-2.1,1.4-3.8,4.2-5c2.7-1.2,5.9-1.9,10.5-2c0.2,0,0.4,0,0.5,0c0-0.5,0-1.1,0.1-1.8C29.4,9.6,29.2,9.6,29,9.6
		z"/>
	<path fill="#E96057" d="M68.5,27.9c-0.1-2.9-1.6-5.7-4.3-8.2c-0.8-0.8-1.8-1.5-2.8-2.2c0,0.7-0.1,1.4-0.2,2.1
		c3.5,2.5,5.4,5.4,5.5,8.4c0.3,5.6-4.6,9.9-11,13.8l0,2.1C63,39.6,68.8,34.7,68.5,27.9z"/>
	<path fill="#E96057" d="M60.7,14.9c-0.1-5.6-0.6-12.5-1.4-13.4c-0.7-0.9-4.9-1.3-13.4-1.4C37.4,0,35.1-0.3,32.6,1.2
		c-2.5,1.5-2.3,13-2.3,13s0,12.9,3,14.2c3,1.3,24.1,1,25.1,0C59.4,27.5,60.8,20.4,60.7,14.9z M55,24.8c-0.8,0.7-16.4,0.9-18.6,0
		c-2.2-0.9-2.2-10.5-2.2-10.5s-0.2-8.5,1.7-9.6s3.6-0.9,9.9-0.8c6.3,0.1,9.4,0.3,9.9,1c0.5,0.7,0.9,5.8,1,9.9
		C56.8,18.9,55.8,24.1,55,24.8z"/>
	<path fill="#E96057" d="M15.4,25.6c0,0-0.8-0.7-1.9-0.7s-2,0.7-2,0.7v7.7c0,0,0.9-0.7,2-0.7s1.9,0.7,1.9,0.7V25.6z"/>
	<path fill="#E96057" d="M13.9,33.7v4.5c0.3,0,0.5,0.1,0.7,0.2v-4.5C14.4,33.8,14.2,33.8,13.9,33.7z"/>
	<path fill="#E96057" d="M12.4,33.9v7.7c0.3-0.1,0.7-0.2,1.1-0.2v-7.7C13.1,33.7,12.7,33.8,12.4,33.9z"/>
	<path fill="#E96057" d="M49.4,13.3L49.4,13.3c-0.1-0.1-1.9-2.1-2.7-3.6c-0.6-0.9-1.2-2.8-1.2-2.8s-0.7,2-1.1,2.7
		c-0.6,1.3-2.9,3.8-2.9,3.8v0C40.6,14.3,40,15.6,40,17c0,3,2.4,5.4,5.4,5.4c3,0,5.4-2.4,5.4-5.4C50.9,15.6,50.3,14.2,49.4,13.3z"/>
</g>
</svg>
