<?xml version="1.0" encoding="utf-8"?>
<!-- Generator: Adobe Illustrator 17.1.0, SVG Export Plug-In . SVG Version: 6.00 Build 0)  -->
<!DOCTYPE svg PUBLIC "-//W3C//DTD SVG 1.1//EN" "http://www.w3.org/Graphics/SVG/1.1/DTD/svg11.dtd">
<svg version="1.1" id="Layer_1" xmlns="http://www.w3.org/2000/svg" xmlns:xlink="http://www.w3.org/1999/xlink" x="0px" y="0px"
	 viewBox="0 0 80 80" enable-background="new 0 0 80 80" xml:space="preserve">
<g>
	<g>
		<path fill="#E96057" d="M72.7,80H80V64.6C75.2,67.1,75.1,74.8,72.7,80z"/>
		<path fill="#E96057" d="M67.3,75.1c0-0.7-0.2-1.5-0.8-1.6c-0.7-0.2-1.3,0.7-1.5,1.4c-0.5,1.7-0.9,3.4-1.1,5.1h3.7
			c0-0.3-0.1-0.7-0.1-1C67.4,77.7,67.3,76.4,67.3,75.1z"/>
		<path fill="#E96057" d="M74,44c0,0.4,0,0.8,0.2,1.1c0.4,0.7,1.1,1,1.6,1.6c0.8,1.1,0.1,2.8-1,3.5c-1.2,0.7-2.6,0.7-4,0.5
			c-1.2-0.2-2.4-0.5-3.6-0.9c-0.9-0.3-1.7-0.7-2.6-0.9c-2.6-0.6-5.7,0.1-6.4-1c-0.7-1.2,0.3-2.6,1.4-3.3c0.7-0.4,1.6-0.6,2.4-0.8H44
			v11.1c0.8-0.3,1.8,0.3,2.4,1c0.6,0.8,1.1,1.8,2,2.2c1,0.4,2.2,0,3.1-0.6c0.9-0.6,1.6-1.5,2.6-2c0.9-0.5,2.2-0.7,3.1,0
			c0.4,0.4,0.6,1,0.8,1.5c0.2,1,0.3,2.2-0.5,3c-0.4,0.4-1.7,0.5-2.2,0.7c-2.2,0.8-0.8,3.2-3.5,4.1c-1.3,0.4-3.6-1.3-3.8,0
			c-0.2,1,0.5,1.9,0.7,2.8c0.3,1.2,0.1,1.8-0.8,2.7c-0.9,0.9-2.3,1.2-3.4,0.6c-0.2-0.1-0.3-0.2-0.5-0.4V80h9.4
			c0.3-0.5,0.6-1,0.8-1.6c0.3-1.1,0.1-2.4,0.1-3.5c0-1.2,0.5-2.5,1.6-2.9c0.4-0.1,0.9-0.1,1.3-0.3c1-0.4,1.4-1.7,1.5-2.8
			c0.1-1.1,0.2-2.3,1-3.1c0.5-0.5,1.1-0.6,1.8-0.7c2.2-0.3,4.6,0.4,6.5-0.6c3.6-1.9,2.6-8,6-10.2c1.2-0.8,2.8-0.8,4.2-1.3
			c0.6-0.2,1.2-0.5,1.7-0.8V44H74z"/>
		<path fill="#E96057" d="M73.9,67.1c0.7-0.2,1.3-0.7,1.5-1.4c0.1-0.4,0.1-0.8,0.1-1.2c0.1-1,0.8-1.8,1.5-2.6
			c0.6-0.8,0.3-3.6-0.9-4.1c-1.2-0.5-1.4,1-1.6,1.8c-0.3,0.8-0.3,1.7-0.6,2.5c-0.3,0.9-0.9,1.6-1.4,2.4c-0.5,0.8-1.9,2-0.9,2.8
			S73.2,67.3,73.9,67.1z"/>
	</g>
	<path fill="#E96057" d="M0,27.9L0,36h7.3c-0.2-0.6-1.1-0.6-1.9-1.1s-0.3-2.5-2.2-2.8c-0.7-0.1-0.9-0.4-1.1-0.8
		c-0.5-0.8,0.1-1.7-0.9-2.7C0.9,28.4,0.4,28.2,0,27.9z"/>
	<path fill="#E96057" d="M0,44v6.5c1,0.3,2.1,0.7,3.1,1C4.4,52,6,52.4,7,51.4c0.7-0.7,0.7-1,1.1-1.9c0.4-1.2,1.5-2.1,2.7-2.3
		c1.2-0.2,2.6,0.4,3.1,1.6c0.9,2.1-1.2,4.4-0.9,6.6c0.1,0.8,0.5,1.6,0.7,2.4c0.3,1.8-0.8,3.7-2.5,4.3c-1.8,0.6-3.9-0.2-5.7,0.2
		c-0.3,0.1-0.7,0.2-1,0.2c-1-0.1-1.5-1.3-1.5-2.3c0-1,0.2-2.1-0.3-2.9C2.1,56.4,1,56.1,0,56v24h36V44H0z M25.3,49.1
		c0.1-0.7,1-1.8,2.1-2.4c3.8-2,5.8,1.4,5.9,2.6c0,0.4,0.1,0.9-0.2,1.5c-0.5,0.9-1.5,2.4-2.7,2.7C27.4,54.2,24.7,51.2,25.3,49.1z
		 M28.7,60.3c2.6,1.5,3.7,4.7,4.4,7.5c0.6,2.5-2.5,2.6-2,4.7c0.6,2.7-2.1,5-4.8,4.4c-1.6-0.4-2.8-1.6-4.5-1.8
		c-1.6-0.1-2.9,0.9-4.4,1.3c0.1,0,0.3-0.1,0.3-0.1c0.1,0,0.1,0,0,0c-0.1,0-0.2,0-0.3,0.1c-0.3,0.1-0.5,0.1-0.6,0.1c-0.1,0-0.1,0,0,0
		c0.1,0,0.3-0.1,0.6-0.1c-3.2,0.7-6.3-1.7-6.3-5c-0.1-3.9,3.6-5.3,6.6-6.7c1.3-0.6,2.6-1.4,3.6-2.6c1-1.2,0.4-3.2,1.3-4.2
		C24.4,55.8,27,59.4,28.7,60.3z"/>
	<path fill="#E96057" d="M0,0v16.4c0.5,0.5,1,0.9,1.4,1.5c1.5,2.1,0.2,5.3,1.8,7.3c0.4,0.5,0.9,0.8,1.2,1.3c1,1.4,0.3,3.5,1.4,4.8
		c1.2,1.4,3.7-0.1,5.3,0.8c0.5,0.3,0.8,1.5,1.3,1.7c1.1,0.6,2.5,0.3,3.7,0.4c1.4,0.1,2.7,0.7,3.9,1.4c0.3,0.2,0.7,0.3,1,0.5H36V0H0z
		 M11.7,13.4c-2.2,0.8-0.8,3.6-1.6,5.3c-0.5,1-1.5,3.6-3.3,2.2c-1.6-1.2-1.5-3.1-1.2-4.7c0,0.2-0.1,0.3-0.1,0.4c0,0.1,0,0.1,0,0
		c0-0.1,0-0.2,0.1-0.4c0-0.2,0-0.3,0.1-0.3c0-0.1,0-0.2,0,0c0,0.1,0,0.2-0.1,0.3c0.3-1.6,0.8-3.3,0-4.9c-0.7-1.4-2.7-2.7-2-4.4
		c1-2.5,5-2.8,7.9-2.7c3.2,0.2,4.6,1,7.5,1.9c4.2,1.3,8.6-2.6,12.7-0.7c2,0.9-0.4,2.9-1.7,3.5c-2,1-3.5,0.3-5.6,0.5
		c-4.5,0.4,0.5,6.9-7.3,5.7C15.3,14.8,13.9,12.5,11.7,13.4z M26,32.6c-2.9-0.6-5.2-3.4-8.2-3.2c-1.1,0.1-5.5,0.5-4.9-1.8
		c0.4-1.6,3-2.6,4.4-3.2c1.2-0.4,2.5-0.5,3.5-1.4c1-1,0.8-2.5,1.8-3.5c1.9-2,2.6,1.4,5,0.8c0.9-0.2,4.5-3.4,4.2,0.3
		c-0.1,1.5-1.5,2.6-1.4,4.2c0.1,1.2,1.2,1.6,1.8,2.4c0,0,0,0,0,0c0,0,0,0,0,0c0,0,0,0,0,0c0,0,0-0.1,0,0c0,0,0,0,0,0c0,0,0,0,0,0
		c0,0,0,0.1,0.1,0.1c0,0,0.1,0.1,0.1,0.1c0.1,0.2,0.3,0.4,0,0c0,0-0.1-0.1-0.1-0.1c0,0,0,0,0-0.1C34.9,30.9,27.9,33,26,32.6z"/>
	<g>
		<g>
			<path fill="#E96057" d="M80,15.7c-0.9-0.5-1.8-1.3-2.7-1.9c-1.8-1.1-4-1.6-6.1-1.2c-0.5-0.7-0.1-1.6,0.3-2.3
				c0.4-0.7,0.9-1.5,0.6-2.3c-0.3-0.9-1.4-1.1-2.2-1.7c-1.1-0.8-1.4-2.4-1.1-3.7c0.2-1,0.8-1.9,1.3-2.7H44v36h6.5
				c-0.2-0.2-0.4-0.4-0.5-0.6c-0.8-2,0-3.1,0.6-4.7c0.8-2.2-1.8-3.9,0.3-6.2c1.6-1.8,4.1-3.6,6.2-3.7c1.5-0.1,2.2,1.1,2.2,3.1
				c0,1.5-0.6,2.9-0.7,4.4c-0.2,3.1,1.7,2.9,3.3,4.8c0.9,1,1,2,0.6,2.9H80V15.7z M66.8,12.8c-0.4,1-1.1,1.9-2.2,2
				c-0.5,0.1-1.1-0.1-1.6-0.3c-1.7-0.6-3.4-1.2-5-1.7c-1.3-0.4-2.9-0.8-3.8,0.1c-0.7,0.7-0.8,1.8-1.1,2.7c-0.5,1.2-1.5,2.1-2.7,2.3
				c-1.2,0.2-2.6-0.5-3.1-1.6c-0.9-2.1,1.2-4.3,1-6.6c-0.1-0.8-0.5-1.6-0.7-2.4c-0.3-1.8,0.8-3.7,2.6-4.3C52,2.4,54,3.3,55.9,2.9
				c0.3-0.1,0.7-0.2,1-0.2c1,0.1,1.5,1.3,1.5,2.3c0,1-0.2,2.1,0.3,2.9c0.5,1,1.7,1.3,2.8,1.4c1.1,0,2.2-0.2,3.3,0
				c1.1,0.1,2.2,0.8,2.4,1.9C67.3,11.7,67.1,12.3,66.8,12.8z"/>
		</g>
		<path fill="#E96057" d="M79.6,2.2c-0.8,1.5-1.3,0.6-2.6,1c-1.3,0.4-0.2,4.7-0.1,5c0.2,0.4,0.4,0.7,0.7,0.9
			c0.8,0.7,1.6,1.3,2.4,1.8V1.7C79.8,1.9,79.7,2,79.6,2.2z"/>
	</g>
</g>
</svg>
