<?xml version="1.0" encoding="utf-8"?>
<!-- Generator: Adobe Illustrator 17.1.0, SVG Export Plug-In . SVG Version: 6.00 Build 0)  -->
<!DOCTYPE svg PUBLIC "-//W3C//DTD SVG 1.1//EN" "http://www.w3.org/Graphics/SVG/1.1/DTD/svg11.dtd">
<svg version="1.1" id="Layer_1" xmlns="http://www.w3.org/2000/svg" xmlns:xlink="http://www.w3.org/1999/xlink" x="0px" y="0px"
	 viewBox="0 0 80 80" enable-background="new 0 0 80 80" xml:space="preserve">
<g>
	<g>
		<path fill="#E96057" d="M78.6,62.4c1.9,8.9-10.9-1-13.1-5c-2.3-3.9,2.9-3.7,2.9-3.7c-8.2-0.6-5.1,5.8,0.3,10.4
			c-3.6,0-7.6-4.4-9.7-9.1c-2.3-5.3,7.1-4.6,7.1-4.6c-10.5-1.4-9.5,3.8-7.6,7.4c1.1,2.2,2.6,3.9,4.1,5.2
			c-8.5-2.4-12.1-7.8-11.9-11.7c0.3-4.2,9.6-4.9,9.6-4.9c-17.4-1-11.8,12-5.2,15.8c1.1,0.6,2.1,1.1,3,1.5c-7.2-0.7-20.4-8.2-19-13.3
			c1.6-6,13.6-7.9,13.6-7.9c-6.6-0.9-24,5.8-11.8,15.7c4.2,3.4,8.3,5.3,11.8,6.3c-3.1,0.4-6.9,0.4-6.9,0.4
			c-18.6-1.3-20.4-9.4-16.8-15.2c3.5-5.8,10.4-8.5,10.4-8.5c-7.3,1.3-23.7,15.3-6.7,22.2c4.5,1.8,8.6,2.8,12.2,3.3
			c-3.1,0.6-7.7,1.4-11.8,1.8c-6.8,0.6-16.1-0.7-17.3-9.1C14.5,50.9,24,43.1,24,43.1C10.3,51.4,11.8,67.6,24.3,70
			c8.7,1.6,20-0.5,26-2c-0.9,0.7-4.7,3.1-18.2,7.7c-16.5,5.7-25.8-0.2-28.4-8c-2.6-7.8-0.1-18,14.1-24.3c14.2-6.3,43.8-7,58.2,14.4
			c0,0-8-20-42.6-19.6C-1.1,38.6-7,66.9,7.2,76c14.2,9.1,27.1,1.3,47.3-9.2l-0.5-0.1c2.6-0.3,4.5-0.9,5.5-1.2c1.9,0,3.2-0.2,3.7-0.3
			c1,0.1,1.9,0.1,2.4,0.1c1.4,0.6,3.8,0.7,5.6,0.7c1.3,0.8,2.6,1.5,3.9,1.9C83.4,70.6,78.6,62.4,78.6,62.4z"/>
		<path fill="#E96057" d="M73.1,57.5c-3.6-1.3-4.3,0.7-2.3,3.2c2,2.5,4.9,3.4,4.9,3.4c-2.1-0.9-2.3-2.1-4.3-4.5
			C69.6,57.3,73.1,57.5,73.1,57.5z"/>
		<path fill="#E96057" d="M46.5,56.7C46.6,56.7,46.6,56.7,46.5,56.7C46.6,56.7,46.6,56.7,46.5,56.7z"/>
		<path fill="#E96057" d="M30.7,65.7c0.1,0.1,0.2,0.1,0.2,0.1C30.8,65.7,30.8,65.7,30.7,65.7z"/>
		<path fill="#E96057" d="M16.2,46.8c0.2-0.2,0.4-0.4,0.5-0.6C16.8,46.2,16.6,46.4,16.2,46.8z"/>
	</g>
	<g>
		<path fill="#E96057" d="M58.5,2.7c0.7-0.3,1.2-0.5,2.4-0.5c3.6,0,6.2,4.1,6.2,4.1l0.7,1.1l-3.2,0.7c-0.6-1.2-1.2-2.3-1.5-2.8
			c-0.6-1.2-1.6-1.9-2.5-2.2c-0.8-0.3-1.5-0.3-2-0.2C58.5,2.8,58.4,2.7,58.5,2.7z"/>
		<path fill="#E96057" d="M58,2.5c0,1.1-0.1,1.8,1.3,3.3c0.1,0.1,3.4,3.9,4.9,3.6l3.9-0.9c0.7-0.1,1.6,0.3,2.2,1.5
			c0.4,0.9,0.2,0.3,0.6,1.4c0.7,1.6,1.5,4.9,0.5,7.9c-0.4,1.3-1,2.1-1.6,2.6c0.2-1.1-0.1-2.2-1.4-3.2c0,0-0.7-0.7-2,0.5
			c-0.3,0.2-0.6,0.6-1.2,1.1l-0.5,0.5c0-0.1-0.1-0.1-0.1-0.2l-7.1-15C56.5,3.3,58,2.1,58,2.5z"/>
		<path fill="#E96057" d="M66.2,24.3c-0.2-1-0.9-1.7-1.8-1.9l1.2-1.2c0.4-0.4,0.7-0.7,0.9-0.9c1-1,1.6-0.4,1.6-0.4
			c3,2.4-0.7,5.6-0.7,5.6C67,25.8,66.5,26,65.9,26C66.2,25.5,66.3,24.8,66.2,24.3z"/>
		<path fill="#E96057" d="M65.3,24.7c0.3,1.3-0.5,2.7-2.4,2.8l-1.6,0c-0.2-1.2-0.6-2.6-1.3-3.8l2.5-0.8C64,22.5,65,23.4,65.3,24.7z"
			/>
		<path fill="#E96057" d="M61,31.1c0.7,0,1.5,0.1,2.4,0.3l2.3,0.4c1,0.1,1.4,0.6,1.3,1.2c0,0-0.2,1.2-1.7,0.8c0,0-3.6-1.1-3.9-1.2
			c-0.6-0.2-1.1-0.3-1.7-0.4c0.2-0.1,0.4-0.2,0.5-0.3C60.6,31.6,60.8,31.4,61,31.1z"/>
		<path fill="#E96057" d="M61.6,30c0,0,0-0.1,0-0.1c0-0.5,0-0.9-0.1-1.4c2.6-0.4,6.6-1.2,6.6-1.2c1.7-0.2,1.7,1.1,1.7,1.1
			c-0.1,0.5-0.3,1.2-2,1.3L61.6,30z"/>
		<path fill="#E96057" d="M36.1,2.8c0,0,3.4-3.5,6.9-2.7c1.2,0.3,1.6,0.6,2.2,1c0.1,0.1,0,0.2-0.1,0.2c-0.4-0.1-1.1-0.3-2-0.2
			c-0.9,0.1-2,0.6-2.9,1.6c-0.4,0.4-1.2,1.4-2.1,2.4l-3-1.4L36.1,2.8z"/>
		<path fill="#E96057" d="M31.3,6.8C32,6,31.6,6.4,32.2,5.7c0.8-1,1.8-1.2,2.4-0.9l3.6,1.7c1.4,0.6,5.5-2.4,5.6-2.4
			c1.8-1.1,1.8-1.9,2-2.9c0.1-0.4,1.3,1.1-0.2,3.1l-10.2,13c0,0.1-0.1,0.1-0.1,0.2l-0.4-0.6c-0.4-0.6-0.7-1.1-0.9-1.3
			c-1-1.5-1.8-0.9-1.8-0.9c-1.5,0.7-2,1.8-2.1,2.8c-0.5-0.6-0.9-1.5-1-2.9C28.7,11.3,30.2,8.2,31.3,6.8z"/>
		<path fill="#E96057" d="M32.9,22.3c-0.5-0.1-1-0.4-1.3-0.9c0,0-3-3.9,0.5-5.6c0,0,0.7-0.4,1.5,0.8c0.2,0.2,0.4,0.6,0.7,1.1
			l0.9,1.4c-1,0-1.8,0.6-2.2,1.5C32.8,21.1,32.7,21.7,32.9,22.3z"/>
		<path fill="#E96057" d="M30.4,23c0,0,3.7,1.7,6.1,2.6c-0.1,0.4-0.3,0.9-0.4,1.3c0,0,0,0.1,0,0.1l-6-1.7c-1.6-0.5-1.7-1.2-1.6-1.7
			C28.6,23.7,28.8,22.4,30.4,23z"/>
		<path fill="#E96057" d="M31.9,27.9l2.4,0.2c0.9,0.1,1.6,0.2,2.4,0.3c0.1,0.3,0.3,0.6,0.5,0.8c0.1,0.1,0.3,0.3,0.4,0.4
			c-0.6,0-1.1,0-1.7,0.1c-0.3,0-4.1,0.3-4.1,0.3c-1.5,0.1-1.4-1.2-1.4-1.2C30.3,28.2,30.8,27.8,31.9,27.9z"/>
		<path fill="#E96057" d="M37.1,24.7l-1.6-0.4c-1.9-0.5-2.3-2.1-1.7-3.2c0.6-1.2,1.8-1.8,3.1-1.1l2.3,1.3
			C38.2,22.3,37.5,23.6,37.1,24.7z"/>
		<path fill="#E96057" d="M23,17.5c0.5-0.1,1.1,0.1,1.4,0.3c0.1,0.1,0.1,0.2-0.1,0.3c-0.8,0.1-1.8,0.4,0.9,2.4
			c0.8,0.6,2.1,1.5,3.2,2.2c-0.4,0.2-0.5,0.7-0.5,0.7c0,0.1,0,0.1,0,0.2l-4.9-3.1C21,19.1,21.8,17.7,23,17.5z"/>
		<path fill="#E96057" d="M22.9,32.4c0,0.2,0.2,0.9,0.1,0.9c-0.4,0.1-0.8-1.3-0.9-1.6c-0.1-1,0.4-2,2.2-2.3l5.1-0.7c0,0,0,0.1,0,0.1
			c0,0,0,0.5,0.3,0.9c-1.3,0.2-2.9,0.5-3.9,0.7C23.2,30.9,22.8,31.6,22.9,32.4z"/>
		<path fill="#E96057" d="M29.5,35.1c-3,1.4-1.7,3.2-1.4,3.8c0.1,0.3,0,0.4-0.2,0.3c-0.4-0.2-1.1-1.1-1.4-1.5
			c-0.3-0.5-1.1-1.8,1.4-3l4.4-1.9c0,0.1,0,0.1,0,0.2c0,0,0.1,0.4,0.4,0.6C31.6,34.1,30.3,34.7,29.5,35.1z"/>
		<path fill="#E96057" d="M33.1,32.7c-0.2-0.5,0.4-1.1,1-1.3l4.2-0.8c0,0,0,0,0,0c0.4,0.4,0.8,0.8,1.2,1.1c-0.4,0.1-4.6,1.6-4.6,1.6
			C33.2,33.8,33.1,32.7,33.1,32.7z"/>
		<path fill="#E96057" d="M41.1,33.2c0.3,0.3,0.7,0.6,1,0.9c-0.3,0.2-3.6,2.1-3.6,2.1c-0.9,0.5-1.5,0.3-2-0.3
			c-0.5-0.6-0.4-1.8,0.9-2C37.4,33.9,40.5,33.3,41.1,33.2z"/>
		<path fill="#E96057" d="M32.1,37.5c-0.2,0-0.4,0-0.6,0c0.1-0.2,0.2-0.5,0.5-0.6c0,0,1.8-2.2,3.3-1.4c0.1,0.7,0.5,1.4,1.1,1.4
			c0,0.1,0.3,0.5-0.5,1.2c-0.2,0.1-0.4,0.3-0.8,0.6l-0.8,0.7C34,38.3,33.1,37.6,32.1,37.5z"/>
		<path fill="#E96057" d="M28.1,44.9c-1.5-2.5,1.9-7.1,3.8-6.5c1.2,0.3,2.1,1.5,1.7,2.9c0,0-0.5,2.1-2.9,3.9c-0.1,0.1-0.2,0-0.2-0.1
			c0,0,1.4-3.9,0.8-3.7c-0.5,0.2-2.9,3.6-2.9,3.6C28.4,45,28.2,45,28.1,44.9z"/>
		<path fill="#E96057" d="M62.1,42c0.2,0.1,0.4,0.2,0.5,0.3c0-0.3,0-0.5-0.1-0.8c0,0-0.5-2.8-2.3-2.8c-0.4,0.6-1.1,1-1.6,0.8
			c-0.1,0-0.5,0.3-0.1,1.3c0.1,0.2,0.2,0.5,0.4,0.9l0.4,1C60,41.9,61.1,41.7,62.1,42z"/>
		<path fill="#E96057" d="M60.8,49.7c2.5-1.6,2.8-4.2,2.8-4.2c0.2-1.2-0.6-2.3-1.8-2.6c-1.2-0.3-2.6,0.4-2.8,1.8
			c0,0-0.5,2.1,0.8,4.8c0.1,0.1,0.2,0.1,0.2,0c0,0,0.6-3.3,0.9-3.2l-0.4,3.3C60.5,49.7,60.7,49.8,60.8,49.7z"/>
		<path fill="#E96057" d="M46.8,35.9c-1-0.1-2-0.6-2.7-1.3c-1.6-1.6-4.6-4.5-5.9-5.9c-0.5-0.5-0.7-1.2-0.6-1.8
			c0.7-3.4,2.8-6.1,5.7-7.7l0.2-2.2c0-0.3,0.3-0.6,0.7-0.5c0.3,0,0.4,0.2,0.5,0.7l0.3,1.3c0.6-0.2,1.2-0.4,1.8-0.5
			c-0.3-1.3-0.9-3.5-2.2-5.2c-0.1-0.1-0.1-0.3,0.1-0.3c0.1-0.1,0.3,0,0.4,0.1c1.4,1.6,2.3,4.1,2.7,5.3c0.8-0.1,1.5-0.1,2.3,0
			c0.9,0.1,1.7,0.3,2.5,0.6c0.6-1.1,2.1-3.3,3.8-4.6c0.1-0.1,0.3-0.1,0.4,0c0.1,0.1,0.1,0.3,0,0.3c-1.7,1.4-2.8,3.5-3.3,4.6
			c0.6,0.3,1.1,0.6,1.7,0.9l0.6-1.3c0.2-0.4,0.3-0.6,0.7-0.5c0.3,0,0.6,0.3,0.5,0.7L56.7,21c2.3,2.2,3.6,5.2,3.6,8.5
			c0,0.7-0.4,1.3-1,1.6c-1.7,1-5.2,3.2-7.2,4.4c-0.9,0.5-1.9,0.8-3,0.7L46.8,35.9z"/>
		<path fill="#E96057" d="M55.5,34.8c0.6,0.2,3.4,1.5,3.4,1.5c1.2,0.5,1,1.7,0.4,2.1s-1.2,0.5-2-0.1c0,0-2.8-2.5-3-2.8
			C54.7,35.3,55.2,35,55.5,34.8z"/>
		<path fill="#E96057" d="M63.3,36c0,0-0.4,1.1-1.9,0.2c0,0-3.8-2.3-4.2-2.5c0.5-0.3,0.9-0.6,1.4-0.9c0,0,0,0,0,0l3.9,1.8
			C63.2,34.8,63.6,35.6,63.3,36z"/>
		<path fill="#E96057" d="M68.6,42.4c-0.4,0.4-1.3,1.1-1.7,1.2c-0.2,0-0.3-0.1-0.1-0.3c0.4-0.5,2-1.9-0.5-4
			c-0.7-0.6-1.8-1.5-2.8-2.2c0.4-0.1,0.5-0.5,0.5-0.5c0-0.1,0.1-0.1,0.1-0.2l3.9,2.8C70,40.8,68.9,42,68.6,42.4z"/>
		<path fill="#E96057" d="M74.3,37.6c-0.1,0.3-0.9,1.6-1.2,1.4c-0.1-0.1,0.2-0.7,0.3-0.9c0.3-0.7,0.1-1.5-2.5-2.7
			c-0.9-0.4-2.4-1-3.6-1.5c0.4-0.3,0.5-0.8,0.5-0.8c0,0,0-0.1,0-0.1l4.9,1.8C74.4,35.6,74.6,36.7,74.3,37.6z"/>
		<path fill="#E96057" d="M75.9,26.4l-5.5,1.9c0-0.1,0-0.1,0-0.2c0,0,0-0.5-0.4-0.8c1.3-0.5,2.7-1.1,3.6-1.5c3-1.3,2.1-1.9,1.4-2.1
			c-0.1,0-0.1-0.2,0-0.3c0.4-0.1,1-0.2,1.5,0C77.8,24,78.2,25.5,75.9,26.4z"/>
	</g>
	<path fill="#E96057" d="M21.8,37.6c-0.9-1.8-3-2.7-5-3c-1.7-0.3-3,0.1-4.2-1.1c-0.5-0.5-1.5-2.8-2.2-2.8c-0.8,0-1.7,0.4-2,0.5
		c-1.8,0.9-1.9,3.3-2.6,5.2c-0.2,0.6-0.4,1.3-0.5,1.9c-0.1,0.4-0.1,0.7-0.1,1.1c-0.3,0.4-0.7,0.7-1.1,1c-0.3,0.2-0.6,0.4-0.9,0.7
		c-0.5,0.6-0.6,1.6-0.1,2.2c0.1,0.1,0.1,0.2,0.2,0.2c0.3,0.2,0.8,0,1.2-0.1c0.4-0.1,0.8-0.1,1.2-0.1c0.3,0.9,0.7,1.7,1.1,2.5
		c0.9,1.5,2.1,2.9,3.8,3.2c2.1,0.5,4.2-0.8,6-2c1.6-1.1,3.3-2.3,4.4-3.9C22.2,41.6,22.7,39.4,21.8,37.6z M11.4,34.6
		c-0.1,0.5-0.6,0.9-1.1,1.1c-2.1,0.9-2.5-1.6-2-2.6c0.9-1.6,2.7-1.2,3,0.6C11.4,34,11.5,34.3,11.4,34.6z"/>
</g>
</svg>
