<?xml version="1.0" encoding="utf-8"?>
<!-- Generator: Adobe Illustrator 17.1.0, SVG Export Plug-In . SVG Version: 6.00 Build 0)  -->
<!DOCTYPE svg PUBLIC "-//W3C//DTD SVG 1.1//EN" "http://www.w3.org/Graphics/SVG/1.1/DTD/svg11.dtd">
<svg version="1.1" id="Layer_1" xmlns="http://www.w3.org/2000/svg" xmlns:xlink="http://www.w3.org/1999/xlink" x="0px" y="0px"
	 viewBox="0 0 80 80" enable-background="new 0 0 80 80" xml:space="preserve">
<g>
	<g>
		<path fill="#E96057" d="M0.2,24.3c0.7-5,3.7-8.6,9.4-11c1-0.4,2.5-1.4,4-2.4c2.5-1.7,5-3.4,7.1-3.8c3-0.6,5.2,0.4,7.2,1.2
			c1.3,0.6,2.5,1.1,4,1.3c8.1,1,11.5,6.3,13.7,11.4c1.2,2.7,2.7,5.4,4.1,7.9c1.2,2.2,2.5,4.4,3.5,6.8c3,6.3,1.4,12.6-0.6,19
			c-1.9,6.1-3.8,12.6-4.6,19.6c0,0.2-0.6,4.5-4.1,5.5c-0.9,0.3-1.9,0.3-2.9,0c-5.4-1.2-13.5-4.4-18.4-8.6c-3.7-3.1-5.6-7.3-7.4-11.3
			c-0.4-0.9-0.9-1.9-1.3-2.8c-1.4-2.9-3.2-5.7-5.1-8.6C3.9,41.2-1,33.5,0.2,24.3z"/>
		<path fill="#FFFFFF" d="M30.1,20.5c0.1-1.3,0.8-2.3,2.1-2.9c0.2-0.1,0.6-0.4,0.9-0.6c0.6-0.4,1.1-0.9,1.6-1
			c0.7-0.2,1.2,0.1,1.6,0.3c0.3,0.2,0.6,0.3,0.9,0.3c1.8,0.3,2.6,1.7,3.1,3c0.3,0.7,0.6,1.4,0.9,2.1c0.3,0.6,0.6,1.2,0.8,1.8
			c0.7,1.7,0.3,3.3-0.1,5c-0.4,1.6-0.9,3.3-1,5.2c0,0-0.1,1.2-0.9,1.5c-0.2,0.1-0.4,0.1-0.7,0c-1.2-0.3-3.1-1.2-4.2-2.3
			c-0.8-0.8-1.3-1.9-1.7-3c-0.1-0.2-0.2-0.5-0.3-0.7c-0.3-0.8-0.7-1.5-1.2-2.3C30.9,24.9,29.8,22.9,30.1,20.5z"/>
		<path fill="#FFFFFF" d="M12,45.8c-0.6-1.3-0.4-2.7,0.6-4.2c0.2-0.3,0.4-0.7,0.6-1.2c0.3-0.8,0.7-1.6,1.2-2.1
			c0.6-0.6,1.3-0.8,2-0.9c0.4-0.1,0.8-0.2,1.2-0.4c2.2-1.1,3.8-0.4,5.2,0.4c0.7,0.4,1.5,0.8,2.3,1.2c0.6,0.3,1.3,0.6,2,1
			c1.7,1,2.3,2.7,2.9,4.6c0.5,1.7,1,3.6,2,5.4c0,0,0.6,1.2-0.1,2c-0.2,0.2-0.4,0.4-0.7,0.5c-1.5,0.6-4.1,1.2-5.9,1.1
			c-1.4-0.1-2.5-0.8-3.6-1.4c-0.3-0.1-0.5-0.3-0.8-0.4c-0.8-0.4-1.7-0.8-2.6-1.2C15.6,49.1,13.2,48.1,12,45.8z"/>
		<path fill="#FFFFFF" d="M46.9,59.9c0.3-1.2-0.2-2.3-1.4-3.4c-0.2-0.2-0.5-0.5-0.8-0.9c-0.5-0.6-1-1.2-1.4-1.5
			c-0.7-0.4-1.3-0.4-1.9-0.3c-0.4,0-0.7,0-1.1,0c-2.1-0.5-3.3,0.5-4.3,1.5c-0.5,0.5-1.1,1-1.6,1.5c-0.5,0.4-1,0.8-1.4,1.3
			c-1.2,1.2-1.4,2.8-1.4,4.5c0,1.6-0.1,3.3-0.5,5c0,0-0.2,1.1,0.6,1.6c0.2,0.1,0.4,0.2,0.7,0.3c1.4,0.2,3.7,0.1,5.2-0.4
			c1.2-0.4,2-1.2,2.7-2c0.2-0.2,0.4-0.4,0.5-0.5c0.6-0.5,1.2-1,2-1.6C44.6,63.5,46.4,62.1,46.9,59.9z"/>
		<path fill="#FFFFFF" d="M12.4,16.4c-1.3,0-2.3,0.7-3,2c-0.1,0.2-0.4,0.6-0.7,0.9c-0.5,0.6-1,1.2-1.2,1.7c-0.3,0.7-0.1,1.4,0,1.9
			c0.1,0.4,0.2,0.7,0.2,1.1c-0.1,2.1,1.1,3.2,2.3,3.9c0.6,0.4,1.2,0.9,1.8,1.3c0.5,0.4,1,0.8,1.5,1.1c1.4,1,3,0.8,4.7,0.5
			c1.6-0.3,3.2-0.5,5-0.5c0,0,1.1,0,1.5-0.9c0.1-0.2,0.1-0.5,0.1-0.7c-0.1-1.4-0.6-3.6-1.4-5c-0.6-1.1-1.6-1.7-2.5-2.3
			c-0.2-0.1-0.4-0.3-0.6-0.4c-0.6-0.5-1.3-1-1.9-1.6C16.3,17.9,14.6,16.4,12.4,16.4z"/>
	</g>
	
		<rect x="69.3" y="4.1" transform="matrix(-0.9972 7.506756e-002 -7.506756e-002 -0.9972 149.4114 73.5398)" fill="#E96057" width="8" height="70.9"/>
	<polygon fill="#E96057" points="53,4.6 47.9,10 77.3,7.8 76.7,0 	"/>
	<polygon fill="#E96057" points="59.3,32.1 53.8,27.8 78.6,26 79.1,33.2 	"/>
</g>
</svg>
