<?xml version="1.0" encoding="utf-8"?>
<!-- Generator: Adobe Illustrator 17.1.0, SVG Export Plug-In . SVG Version: 6.00 Build 0)  -->
<!DOCTYPE svg PUBLIC "-//W3C//DTD SVG 1.1//EN" "http://www.w3.org/Graphics/SVG/1.1/DTD/svg11.dtd">
<svg version="1.1" id="Layer_1" xmlns="http://www.w3.org/2000/svg" xmlns:xlink="http://www.w3.org/1999/xlink" x="0px" y="0px"
	 viewBox="0 0 80 80" enable-background="new 0 0 80 80" xml:space="preserve">
<g>
	<g>
		<path fill="#E96057" d="M56.5,4.4c0,0,3.1-4.7,7.9-4.4c4.8,0.4,6.7,4.3,6.7,4.3s8.8,0,8.8,5.6c0,9-8.6,7.5-8.6,7.5s-0.7,2.7-7,2.7
			s-7.9-2.7-7.9-2.7s-9.3,1.3-8.9-7.3C47.8,3.1,56.5,4.4,56.5,4.4z"/>
		<path fill="#E96057" d="M56.1,23.6L56.1,23.6c0,0-0.7-1.2-0.9-2.1C54.9,21,54.9,20,54.9,20s-0.6,0.9-0.9,1.2
			c-0.5,0.6-1.9,1.5-1.9,1.5l0,0c-0.5,0.4-1,0.9-1.1,1.6c-0.3,1.5,0.6,2.9,2,3.3c1.5,0.3,3-0.5,3.3-2C56.5,24.9,56.4,24.2,56.1,23.6
			z"/>
		<path fill="#E96057" d="M62.7,31.8L62.7,31.8c0,0-0.9-1.1-1.2-1.9c-0.3-0.5-0.5-1.5-0.5-1.5s-0.4,1-0.7,1.3
			c-0.4,0.6-1.6,1.8-1.6,1.8l0,0c-0.5,0.4-0.8,1.1-0.9,1.8c-0.1,1.5,1,2.8,2.5,2.9c1.5,0.1,2.8-1,3-2.5C63.4,33,63.2,32.4,62.7,31.8
			z"/>
		<path fill="#E96057" d="M71.9,24.5L71.9,24.5c0,0-0.9-1.1-1.2-1.9c-0.3-0.5-0.5-1.5-0.5-1.5s-0.4,1-0.7,1.3
			c-0.4,0.6-1.6,1.8-1.6,1.8l0,0c-0.5,0.4-0.8,1.1-0.9,1.8c-0.1,1.5,1,2.8,2.5,2.9c1.5,0.1,2.8-1,2.9-2.5
			C72.6,25.7,72.3,25,71.9,24.5z"/>
	</g>
	<g>
		<circle fill="#E96057" cx="17.5" cy="17.5" r="8.8"/>
		<path fill="#E96057" d="M16.7,0.8c0-0.5,0.4-0.8,0.8-0.8l0,0c0.5,0,0.8,0.4,0.8,0.8v4.9c0,0.5-0.4,0.8-0.8,0.8l0,0
			c-0.5,0-0.8-0.4-0.8-0.8V0.8z"/>
		<path fill="#E96057" d="M16.7,29.4c0-0.5,0.4-0.8,0.8-0.8l0,0c0.5,0,0.8,0.4,0.8,0.8v4.9c0,0.5-0.4,0.8-0.8,0.8l0,0
			c-0.5,0-0.8-0.4-0.8-0.8V29.4z"/>
		<path fill="#E96057" d="M28.8,5.1c0.3-0.3,0.9-0.3,1.2,0l0,0c0.3,0.3,0.3,0.9,0,1.2l-3.4,3.4c-0.3,0.3-0.9,0.3-1.2,0l0,0
			c-0.3-0.3-0.3-0.9,0-1.2L28.8,5.1z"/>
		<path fill="#E96057" d="M8.6,25.3c0.3-0.3,0.9-0.3,1.2,0l0,0c0.3,0.3,0.3,0.9,0,1.2L6.3,30c-0.3,0.3-0.9,0.3-1.2,0l0,0
			c-0.3-0.3-0.3-0.9,0-1.2L8.6,25.3z"/>
		<path fill="#E96057" d="M34.3,16.7c0.5,0,0.8,0.4,0.8,0.8l0,0c0,0.5-0.4,0.8-0.8,0.8h-4.9c-0.5,0-0.8-0.4-0.8-0.8l0,0
			c0-0.5,0.4-0.8,0.8-0.8H34.3z"/>
		<path fill="#E96057" d="M5.7,16.7c0.5,0,0.8,0.4,0.8,0.8l0,0c0,0.5-0.4,0.8-0.8,0.8H0.8C0.4,18.4,0,18,0,17.5l0,0
			c0-0.5,0.4-0.8,0.8-0.8H5.7z"/>
		<path fill="#E96057" d="M30,28.8c0.3,0.3,0.3,0.9,0,1.2l0,0c-0.3,0.3-0.9,0.3-1.2,0l-3.4-3.4c-0.3-0.3-0.3-0.9,0-1.2l0,0
			c0.3-0.3,0.9-0.3,1.2,0L30,28.8z"/>
		<path fill="#E96057" d="M9.8,8.6c0.3,0.3,0.3,0.9,0,1.2l0,0c-0.3,0.3-0.9,0.3-1.2,0L5.1,6.3C4.8,6,4.8,5.5,5.1,5.1l0,0
			c0.3-0.3,0.9-0.3,1.2,0L9.8,8.6z"/>
	</g>
	<g>
		<path fill="#E96057" d="M72.2,75.2c-1.2-0.4-2.4-1-3.6-1.5c-1.2-0.5-2.4-1-3.6-1.6l-0.7-0.3l-1.4,0.9c-0.2,0.1-0.5,0.4-0.9,0.6
			c-0.3,0.2-0.7,0.4-1.1,0.6c-0.8,0.3-1.6,0.6-2.4,0.8c-0.9,0.2-1.7,0.3-2.6,0.3c-0.4,0-0.9,0.1-1.3,0.1h-0.3l0,0h-0.1h-0.2L53.3,75
			c-0.4-0.1-0.7-0.2-1-0.2c-0.3-0.1-0.8-0.2-1.1-0.3c-0.8-0.3-1.5-0.7-2.2-1c-0.7-0.4-1.3-1-1.9-1.5c-0.3-0.3-0.6-0.6-0.9-0.9
			c-0.3-0.3-0.6-0.7-0.7-0.9l-1.6-2.4l-2.3,1.8c-0.3,0.3-0.9,0.6-1.3,1l-1.4,0.9c-1,0.6-1.9,1.1-2.9,1.6c-1.9,1-4,1.6-5.8,1.8
			c-0.1,0-0.3,0-0.3,0.1l-0.3-0.2c-0.3,0-0.6,0-0.9,0c-0.4,0-1,0-1.5-0.1c-1-0.1-2.2-0.3-3.2-0.6c-1-0.3-2.2-0.5-3.2-0.9
			c-1-0.3-2.2-0.8-3.1-1.1l-1.1-0.4l-0.8,0.4c-0.5,0.3-1.1,0.7-1.7,1c-0.6,0.3-1.2,0.6-1.8,0.9c-1.3,0.5-2.5,1-3.9,1.6
			c-2.6,1-5.4,1.6-8.2,1.9c1.4,0.3,2.9,0.5,4.3,0.6s3,0,4.4-0.2c1.5-0.2,3-0.4,4.4-0.9c0.7-0.2,1.5-0.4,2.2-0.6
			c0.3-0.1,0.8-0.3,1.1-0.3c0.9,0.5,1.7,1,2.6,1.3c1.1,0.5,2.3,1,3.6,1.4c1.2,0.4,2.5,0.7,3.8,1c0.6,0.1,1.3,0.2,2.1,0.3
			c0.3,0,0.6,0,1,0.1h0.4h0.6c1.5,0,2.9-0.3,4.2-0.8c1.3-0.3,2.5-0.9,3.7-1.5c1.2-0.5,2.3-1.2,3.4-1.8c0.3-0.3,0.7-0.5,1.1-0.7
			c0.2,0.2,0.3,0.3,0.5,0.5c0.9,0.8,1.8,1.5,2.9,2.1c0.5,0.3,1,0.6,1.6,0.8c0.5,0.3,1.1,0.4,1.6,0.6c0.6,0.2,1.2,0.3,1.7,0.4
			c0.6,0.1,1.4,0.2,1.9,0.2H54h0.5h0.4c0.5-0.1,1.1-0.1,1.6-0.2c1.1-0.2,2.2-0.4,3.3-0.8c1-0.3,2.1-0.9,3.1-1.5c0.5-0.3,1-0.6,1.5-1
			c0.2-0.2,0.3-0.3,0.5-0.5c1,0.3,1.8,0.5,2.8,0.7c1.3,0.3,2.7,0.5,4.1,0.8c1.4,0.2,2.7,0.3,4.1,0.3s2.8-0.1,4.1-0.3
			C77.1,77,74.6,76.1,72.2,75.2z"/>
		<path fill="#E96057" d="M72.2,60.7c-1.2-0.4-2.4-1-3.6-1.5c-1.2-0.5-2.4-1-3.6-1.6l-0.7-0.4L62.9,58c-0.2,0.1-0.5,0.4-0.9,0.6
			c-0.3,0.2-0.7,0.4-1.1,0.6c-0.8,0.3-1.6,0.6-2.4,0.8c-0.9,0.2-1.7,0.3-2.6,0.3c-0.4,0-0.9,0.1-1.3,0.1h-0.3l0,0h-0.1h-0.2
			l-0.8-0.1c-0.4-0.1-0.7-0.2-1-0.2c-0.3-0.1-0.8-0.2-1.1-0.3c-0.8-0.3-1.5-0.7-2.2-1c-0.7-0.4-1.3-1-1.9-1.5
			c-0.3-0.3-0.6-0.6-0.9-0.9c-0.3-0.3-0.6-0.7-0.7-0.9l-1.6-2.4l-2.3,1.8c-0.3,0.3-0.9,0.6-1.3,1l-1.4,0.9c-1,0.6-1.9,1.1-2.9,1.6
			c-1.9,1-4,1.6-5.8,1.8c-0.1,0-0.3,0-0.3,0.1h-0.4c-0.3,0-0.6,0-0.9,0c-0.4,0-1,0-1.5-0.1c-1-0.1-2.2-0.3-3.2-0.6
			c-1-0.3-2.2-0.5-3.2-0.9c-1-0.3-2.2-0.8-3.1-1.1l-1-0.6l-0.8,0.4c-0.5,0.3-1.1,0.7-1.7,1c-0.6,0.3-1.2,0.6-1.8,0.9
			c-1.3,0.5-2.5,1-3.9,1.6c-2.6,1-5.4,1.6-8.2,1.9c1.4,0.3,2.9,0.5,4.3,0.6c1.5,0.1,3,0,4.4-0.2c1.5-0.2,3-0.4,4.4-0.9
			c0.7-0.2,1.5-0.4,2.2-0.6c0.3-0.1,0.8-0.3,1.1-0.3c0.9,0.5,1.7,1,2.6,1.3c1.1,0.5,2.3,1,3.6,1.4c1.2,0.4,2.5,0.7,3.8,1
			c0.6,0.1,1.3,0.2,2.1,0.3c0.3,0,0.6,0,1,0.1h0.4h0.6c1.5,0,2.9-0.3,4.2-0.8c1.3-0.3,2.5-0.9,3.7-1.5c1.2-0.5,2.3-1.2,3.4-1.8
			c0.3-0.3,0.7-0.5,1.1-0.7c0.2,0.2,0.3,0.3,0.5,0.5c0.9,0.8,1.8,1.5,2.9,2.1c0.5,0.3,1,0.6,1.6,0.8c0.5,0.3,1.1,0.4,1.6,0.6
			c0.6,0.2,1.2,0.3,1.7,0.4c0.6,0.1,1.4,0.2,1.9,0.2H54h0.5h0.4c0.5-0.1,1.1-0.1,1.6-0.2c1.1-0.2,2.2-0.4,3.3-0.8
			c1-0.3,2.1-0.9,3.1-1.5c0.5-0.3,1-0.6,1.5-1c0.2-0.2,0.3-0.3,0.5-0.5c1,0.3,1.8,0.5,2.8,0.7c1.3,0.3,2.7,0.5,4.1,0.8
			c1.4,0.2,2.7,0.3,4.1,0.3s2.8-0.1,4.1-0.3C77.1,62.4,74.6,61.5,72.2,60.7z"/>
		<path fill="#E96057" d="M68.5,44.5c-1.2-0.5-2.4-1-3.6-1.6l-0.7-0.3l-1.4,0.9c-0.2,0.1-0.5,0.4-0.9,0.6c-0.3,0.2-0.7,0.4-1.1,0.6
			c-0.8,0.3-1.6,0.6-2.4,0.8c-0.9,0.2-1.7,0.3-2.6,0.3c-0.4,0-0.9,0.1-1.3,0.1h-0.3l0,0h-0.1h-0.2l-0.8-0.1c-0.4-0.1-0.7-0.2-1-0.2
			c-0.3-0.1-0.8-0.2-1.1-0.3c-0.8-0.3-1.5-0.7-2.2-1c-0.7-0.4-1.3-1-1.9-1.5c-0.3-0.3-0.6-0.6-0.9-0.9c-0.3-0.3-0.6-0.7-0.7-0.9
			l-1.6-2.4l-2.3,1.7c-0.3,0.3-0.9,0.6-1.3,1l-1.4,0.9c-1,0.6-1.9,1.1-2.9,1.6c-1.9,1-4,1.6-5.8,1.8c-0.1,0-0.3,0-0.3,0.1h-0.4
			c-0.3,0-0.6,0-0.9,0c-0.4,0-1,0-1.5-0.1c-1-0.1-2.2-0.3-3.2-0.6c-1-0.3-2.2-0.5-3.2-0.9c-1-0.3-2.2-0.8-3.1-1.2l-1.1-0.4l-0.8,0.4
			c-0.5,0.3-1.1,0.7-1.7,1c-0.6,0.3-1.2,0.6-1.8,0.9c-1.3,0.5-2.5,1-3.9,1.6c-2.6,1-5.4,1.6-8.2,1.9c1.4,0.3,2.9,0.5,4.3,0.5
			c1.5,0.1,3,0,4.4-0.2c1.5-0.2,3-0.4,4.4-0.9c0.7-0.2,1.5-0.4,2.2-0.6c0.3-0.1,0.8-0.3,1.1-0.3c0.9,0.5,1.7,1,2.6,1.4
			c1.1,0.5,2.3,1,3.6,1.4c1.2,0.4,2.5,0.7,3.8,1c0.6,0.1,1.3,0.2,2.1,0.3c0.3,0,0.6,0,1,0.1h0.4h0.6c1.5,0,2.9-0.3,4.2-0.8
			c1.3-0.3,2.5-0.9,3.7-1.5c1.2-0.5,2.3-1.2,3.4-1.8c0.3-0.3,0.7-0.5,1.1-0.7c0.2,0.2,0.3,0.3,0.5,0.5c0.9,0.8,1.8,1.5,2.9,2.1
			c0.5,0.3,1,0.6,1.6,0.8c0.5,0.3,1.1,0.4,1.6,0.6c0.6,0.2,1.2,0.3,1.7,0.4c0.6,0.1,1.4,0.2,1.9,0.2H54h0.5h0.4
			c0.5-0.1,1.1-0.1,1.6-0.2c1.1-0.2,2.2-0.4,3.3-0.8c1-0.3,2.1-0.9,3.1-1.5c0.5-0.3,1-0.6,1.5-1c0.2-0.2,0.3-0.3,0.5-0.5
			c1,0.3,1.8,0.5,2.8,0.7c1.3,0.3,2.7,0.5,4.1,0.8c1.4,0.2,2.7,0.3,4.1,0.3s2.8-0.1,4.1-0.3c-2.7-0.4-5.2-1.3-7.6-2.2
			C71,45.6,69.8,45,68.5,44.5z"/>
	</g>
</g>
</svg>
