<?xml version="1.0" encoding="utf-8"?>
<!-- Generator: Adobe Illustrator 15.0.2, SVG Export Plug-In . SVG Version: 6.00 Build 0)  -->
<!DOCTYPE svg PUBLIC "-//W3C//DTD SVG 1.1//EN" "http://www.w3.org/Graphics/SVG/1.1/DTD/svg11.dtd">
<svg version="1.1" id="Layer_1" xmlns="http://www.w3.org/2000/svg" xmlns:xlink="http://www.w3.org/1999/xlink" x="0px" y="0px"
	 width="320px" height="320px" viewBox="0 0 320 320" enable-background="new 0 0 320 320" xml:space="preserve">
<path fill="#D1D3D4" d="M129.28,290.24c-1.6-2.561-9.92-8.32-10.88-10.561s-2.88-7.68-2.88-7.68c-3.2-3.2-7.04-14.721-8.64-24
	c-1.28-6.4-0.64-15.359-0.64-22.721c-0.32-25.6-22.72-29.439-29.12-52.159c-0.96-3.521-1.6-7.36-1.92-11.2
	c-0.96-16.64,0.96-6.72-3.52-21.76c-2.56-8-3.52-16.64-2.88-24.96c0.96-9.92,4.48-19.52,11.2-27.52c1.6-1.6,2.88-3.2,4.16-4.8
	c9.28-10.56,6.4-6.08,5.12-18.88c-0.32-4.16,1.6-7.68,4.48-10.56c3.84-4.16,5.12-3.84,5.12-9.6c0.32-6.72,2.56-11.52,10.56-15.68
	c3.2-1.6,6.08-3.2,7.68-10.88c0-0.32,0-0.32,0.32-1.28c0.32-2.24,0.96-4.48,1.92-6.4c4.48-9.6,12.48-6.72,22.4-3.2
	c7.04,2.56,15.36,5.44,23.68,3.52c1.92-0.32,3.521-0.96,5.44-1.6c1.601-0.64,3.521-1.6,5.12-2.24c0.32,0,0.32-0.32,1.279-0.64
	c9.281-4.8,14.721-9.28,21.441,0.64C200,8,201.6,10.24,203.84,12.8c5.12,5.76,7.36,6.08,9.6,6.4c5.121,0.64,7.041,3.2,7.681,8.32
	c0.96,7.68,4.159,10.88,10.88,14.4c7.04,3.84,9.92,8,9.92,15.04c0,7.36,1.6,14.4,4.48,21.44c4.479,11.52,7.359,19.2-1.28,40.96
	c-2.24,5.76-2.88,9.92-2.24,13.12c0.64,2.88,1.92,5.12,3.521,7.04c9.6,11.52,5.119,19.52,0.32,28.48
	c-2.24,4.16-4.48,8.32-5.441,13.12c-0.959,5.44-0.639,10.88-0.639,15.36c0,4.479,0.319,9.6-2.561,13.439
	s-7.359,10.561-10.561,16.641c-9.6,18.879-5.76,31.039-29.119,44.159c-3.521,1.921-6.721,3.841-7.36,8.64
	c-0.64,5.44,2.56,12.16-5.44,15.36c-8.959,3.521-3.84,3.2-9.6,15.36c-2.88,5.76-10.24,13.12-15.359,8.96
	c-8.641-6.72-20.161,7.36-27.521-16C132.48,302.721,131.2,292.8,129.28,290.24z"/>
</svg>
