<svg xmlns="http://www.w3.org/2000/svg" xmlns:xlink="http://www.w3.org/1999/xlink" version="1.1" x="0px" y="0px" width="145.999px" height="50.401px" viewBox="0 0 145.999 50.401" enable-background="new 0 0 145.999 50.401" xml:space="preserve"><g><path fill="#FFFFFF" d="M62.814 0.791c0 0.251-0.108 0.576-0.306 0.881C62.4 1.7 62.3 1.8 62.2 1.8 c-0.144 0-0.27-0.036-0.377-0.09c-0.342-0.162-0.827-0.288-1.313-0.288c-0.935 0-1.511 0.449-1.511 1.331v0.234 c0.072 0.5 0.3 0.8 0.6 1.169c0.36 0.4 0.9 0.9 1.3 1.331c0.018 0 0.1 0.1 0.1 0.1 c0.359 0.3 0.7 0.7 1 0.989c0.755 0.8 1.1 1.6 1.1 2.59c0 1.996-1.259 3.327-3.597 3.3 c-1.241 0-2.086-0.324-2.428-0.647c-0.198-0.18-0.27-0.288-0.27-0.45c0-0.288 0.234-0.845 0.486-1.241 c0.593 0.5 1.4 0.8 2.2 0.828c0.971 0 1.619-0.611 1.619-1.69c0-0.737-0.288-1.277-1.097-2.033 c-0.198-0.233-0.414-0.449-0.647-0.683c-0.054-0.054-0.144-0.126-0.234-0.215l-0.216-0.216c-0.432-0.432-0.827-0.791-1.115-1.151 c-0.611-0.773-0.827-1.439-0.827-2.104c0-1.421 0.953-2.841 3.363-2.841C61.826 0 62.6 0.5 62.8 0.791z"/><path fill="#FFFFFF" d="M77.775 14.243l-0.054 0.144c-0.072 0.144-0.072 0.198-0.27 0.576c-0.307-0.234-0.791-0.468-1.404-0.522 c-0.719-0.054-1.707 0.108-2.714 0.342c-1.043 0.252-2.032 0.485-2.823 0.396c-1.421-0.198-2.194-2.068-2.23-2.859 c-2.715-0.359-3.777-2.877-3.777-6.061c0-4.118 1.691-6.258 4.748-6.258c3.183 0 4.6 2.3 4.6 6.1 c0.019 3.795-1.293 5.647-3.379 6.168c0.054 0.4 0.3 1.2 0.8 1.439H71.32c0.216 0.1 0.4 0.1 0.6 0.1 c0.432 0 0.954-0.108 1.475-0.216c0.145-0.036 0.341-0.054 0.503-0.09c0.63-0.107 1.223-0.198 1.781-0.198 c0.27 0 0.6 0 0.8 0.072C77.075 13.5 77.5 13.9 77.8 14.243z M71.822 6.187c0-3.363-0.971-4.676-2.572-4.712 c-1.654 0-2.644 1.511-2.644 4.892c0 3.1 1.1 4.6 2.6 4.604C70.851 11 71.8 9.5 71.8 6.187z"/><path fill="#FFFFFF" d="M81.674 10.61l-0.072 0.054c0.232-1.205 0.341-2.751 0.341-4.19L81.961 1.6 c0-0.432 0.072-0.792 0.197-1.133c0.342-0.216 0.541-0.252 1.69-0.252c-0.019 0.936-0.036 2.122-0.036 3.435v2.824 c0 1.906-0.162 3.453-0.484 4.784c-0.756 0.899-2.141 1.187-3.58 1.187c-2.84 0-3.687-1.636-3.938-3.867 c-0.055-0.593-0.09-1.205-0.09-1.888V3.327c0-1.151-0.018-2.05-0.036-2.788c0.198-0.252 0.72-0.324 1.763-0.324 c0.215 0.4 0.2 0.7 0.2 1.421v4.91c0 0.7 0 1.4 0.1 1.96c0.252 1.5 0.8 2.5 2 2.5 C80.936 11 81.4 10.8 81.7 10.61z"/><path fill="#FFFFFF" d="M92.659 11.887c-0.145-0.414-0.27-0.827-0.396-1.241c-0.162-0.522-0.306-1.025-0.521-1.709h-3.418 c-0.377 1.151-0.756 2.23-1.024 3.004c-0.072 0.198-0.198 0.306-0.701 0.306c-0.271 0-0.845-0.072-1.241-0.162 c0.036-0.271 0.09-0.54 0.162-0.702c0.432-1.295 1.043-3.039 1.655-4.766c0.809-2.212 1.6-4.46 2.05-5.881 c0.072-0.252 0.126-0.45 0.342-0.45c0.018 0 0.055-0.018 0.09-0.036c0.071-0.018 0.144-0.036 0.252-0.036 c0.178-0.018 0.432-0.018 0.557-0.018c0.197 0 0.4 0.1 0.5 0.27c0.396 1.2 0.8 2.6 1.3 4 c0.379 1.1 1 3.1 1.4 3.993h-0.018c0.359 1 0.7 1.8 0.9 2.553c0.09 0.3 0.2 0.6 0.3 0.881l0.018 0 c0 0.072-0.054 0.126-0.107 0.18c-0.251 0.089-0.811 0.162-1.133 0.162c-0.271 0-0.486-0.054-0.811-0.324L92.659 11.887z M88.792 7.499h2.5c-0.088-0.27-0.18-0.593-0.25-0.845c-0.145-0.467-0.252-0.917-0.379-1.349c-0.377-1.169-0.432-1.313-0.593-1.942 c-0.252 0.845-0.575 1.888-0.935 3.021l0.018-0.018L88.792 7.499z"/><path fill="#FFFFFF" d="M96.972 0.305c0.036-0.018 0.071-0.018 0.216-0.018c0.036 0 0.055-0.018 0.09-0.018 c0.307-0.036 0.684-0.054 1.151-0.054c0.414 0.8 1.2 3 1.8 4.874c0.018 0.1 0 0 0 0.107l-0.018-0.018 l0.107 0.306c0.055 0.2 0.2 0.5 0.2 0.702c0.072 0.2 0.1 0.4 0.2 0.665c0.054 0.1 0.1 0.3 0.1 0.3 l-0.019-0.018l0.126 0.414c0.09-0.216 0.18-0.467 0.27-0.702c0.055-0.162 0.108-0.341 0.181-0.521 c0.125-0.342 0.233-0.738 0.36-1.025c0.232-0.629 0.521-1.385 0.736-2.014c0.324-0.899 0.631-1.799 0.917-2.572 c0.019-0.018 0.036-0.072 0.054-0.09l-0.018 0.018c0.036-0.089 0.055-0.162 0.215-0.288c0.379-0.072 1.043-0.126 1.565-0.126 c0.089 0.3 0.1 0.5 0.2 0.917c0.162 2.2 0.3 4.4 0.5 6.564V7.678c0.18 1.6 0.3 3.1 0.4 4.2 c-0.162 0.288-0.683 0.324-1.781 0.324c-0.179-0.27-0.25-0.503-0.25-0.81c0-0.144-0.019-0.288-0.037-0.414 c-0.018-0.18-0.035-0.359-0.035-0.575c-0.018-0.27-0.055-0.576-0.072-0.899c-0.018-0.396-0.055-0.845-0.09-1.277 c-0.018-0.18-0.018-0.396-0.036-0.54v0.018c-0.019-0.125-0.036-0.36-0.036-0.486c-0.036-0.485-0.036-1.169-0.054-1.762 c0-0.216-0.019-0.414-0.019-0.629c-0.018-0.216-0.018-0.432-0.035-0.611c-0.324 0.989-0.701 2.068-0.953 2.7 c-0.307 0.863-0.647 1.799-0.971 2.698c-0.091 0.234-0.162 0.449-0.252 0.666l0.018-0.018c-0.09 0.27-0.233 0.377-0.521 0.4 c-0.234 0.054-0.646 0.072-0.988 0.072c-0.217-0.684-0.559-1.727-0.918-2.77c-0.162-0.414-0.287-0.917-0.449-1.367 c-0.055-0.162-0.288-0.845-0.521-1.583c-0.27-0.881-0.162-0.576-0.27-0.881v0.432c0 0.216-0.018 0.432-0.018 0.7 c-0.019 0.647-0.019 1.349-0.055 1.798c-0.145 1.511-0.288 2.985-0.359 4.083c-0.018 0.054-0.018 0.126-0.018 0.2 c-0.036 0.18-0.072 0.36-0.18 0.576c-0.162 0.126-0.36 0.216-0.737 0.216c-0.198 0-0.521 0-0.827-0.054 c-0.145 0-0.197-0.054-0.197-0.126c0.144-2.338 0.467-5.611 0.772-8.938c0.071-0.755 0.144-1.583 0.198-2.32 C96.667 0.6 96.7 0.4 97 0.305z"/><path fill="#FFFFFF" d="M108.497 11.797v-2.14c0-1.043 0.018-2.249 0.018-3.453c0-0.72-0.018-1.438-0.018-2.123V2.428 c0-0.954-0.019-1.529-0.037-1.69c0.181-0.45 0.666-0.522 1.619-0.522c0.307 0 0.3 0.4 0.3 1.259v2.23 c0 0.809-0.019 1.654-0.019 2.464c0 0.8 0 1.6 0 2.338v1.762c0 0.7 0 1.2 0 1.403v0.251 c-0.197 0.251-0.665 0.306-1.618 0.306C108.604 12.2 108.5 12.1 108.5 11.797z"/><path fill="#FFFFFF" d="M118.168 0.791c0 0.251-0.106 0.576-0.305 0.881c-0.109 0.072-0.216 0.108-0.343 0.1 c-0.144 0-0.271-0.036-0.377-0.09c-0.342-0.162-0.827-0.288-1.313-0.288c-0.935 0-1.51 0.449-1.51 1.331v0.234 c0.072 0.5 0.3 0.8 0.6 1.169c0.359 0.4 0.9 0.9 1.4 1.331c0.018 0 0.1 0.1 0.1 0.1 c0.36 0.3 0.7 0.7 1 0.989c0.756 0.8 1.1 1.6 1.1 2.59c0 1.996-1.259 3.327-3.598 3.3 c-1.24 0-2.086-0.324-2.428-0.647c-0.197-0.18-0.27-0.288-0.27-0.45c0-0.288 0.232-0.845 0.484-1.241 c0.594 0.5 1.4 0.8 2.2 0.828c0.971 0 1.619-0.611 1.619-1.69c0-0.737-0.288-1.277-1.097-2.033 c-0.198-0.233-0.414-0.449-0.647-0.683c-0.054-0.054-0.144-0.126-0.234-0.215l-0.215-0.216c-0.433-0.432-0.828-0.791-1.115-1.151 c-0.612-0.773-0.827-1.439-0.827-2.104c0-1.421 0.953-2.841 3.362-2.841C117.181 0 118 0.5 118.2 0.791z"/><path fill="#FFFFFF" d="M126.224 12.175c-0.108-0.288-0.162-0.593-0.162-0.935V6.564c-0.358 0.018-0.899 0.018-1.726 0.018h-2.123 v4.424c0 0.432-0.053 0.702-0.27 1.007c-0.18 0.216-0.539 0.216-1.689 0.216c0.018-0.845 0.035-1.96 0.035-3.219V3.165 c0-1.097-0.018-1.979-0.035-2.662c0.234-0.234 0.701-0.288 1.727-0.288c0.18 0.3 0.2 0.6 0.2 1.205v3.723h3.848V1.51 c0-0.432 0.055-0.755 0.198-1.061c0.233-0.216 0.61-0.234 1.763-0.234c-0.018 0.863-0.035 1.979-0.035 3.22v5.88 c0 1.1 0 1.9 0 2.608c-0.216 0.251-0.701 0.306-1.637 0.306L126.224 12.175z"/><path fill="#FFFFFF" d="M63.48 20.552c0.162-0.018 0.324-0.036 0.611-0.036c0.162 0.2 0.3 0.5 0.3 0.8 c0.18 0.7 0.4 1.8 0.7 2.985c0.18 0.7 0.4 1.6 0.6 2.411c0.018 0.1 0.1 0.2 0.1 0.3 c0.198 0.9 0.3 1.3 0.5 2.211c0.072-0.342 0.162-0.664 0.233-1.043c0.09-0.432 0.162-0.916 0.27-1.402 c0.666-2.554 1.097-4.352 1.457-5.988l0.09-0.288l-0.018 0.018c0.018-0.072 0.018-0.125 0.108-0.252 c0.089-0.09 0.233-0.09 0.485-0.09c0.072 0 0.1 0 0.2 0.018c0.126 0 0.3 0 0.4 0 c0.216 0 0.5 0 0.6 0.108v0.125c0 0.108-0.018 0.342-0.107 0.702c-0.126 0.45-0.252 0.953-0.396 1.5 c-0.072 0.323-0.18 0.665-0.27 1.025c-0.125 0.485-0.251 1.043-0.377 1.583c-0.647 2.625-1.438 5.791-1.762 6.5 c-0.018 0.018-0.054 0.035-0.072 0.053c-0.252 0.162-0.45 0.324-0.828 0.359c-0.558 0.037-1.187-0.467-1.187-0.467 c-0.018-0.072-0.036-0.109-0.054-0.182l0.018 0.02c0.018 0.035-0.036-0.145-0.072-0.234c-0.036-0.18-0.072-0.27-0.108-0.451 c-0.233-0.953-0.521-2.121-0.809-3.236c-0.27-1.188-0.432-1.941-0.719-3.363c-0.216 1.043-0.504 2.338-0.737 3.3 c-0.036 0.107-0.09 0.377-0.18 0.736c-0.27 1.15-0.755 3.076-0.827 3.363c-0.27 0.234-0.504 0.379-0.953 0.4 c-0.575 0.072-1.187-0.502-1.187-0.502v-0.055c-0.036-0.107-0.126-0.287-0.18-0.504c-0.252-0.953-0.612-2.463-0.971-3.885 c-0.251-1.023-0.522-2.067-0.755-3.04c-0.108-0.468-0.216-0.935-0.306-1.367c-0.234-1.061-0.432-1.888-0.54-2.122 c0.09-0.252 0.288-0.468 0.737-0.503c0.288-0.036 0.576-0.054 0.899-0.054c0.215 0 0.5 1 0.5 1.2 c0.27 1.2 0.6 2.7 1 4.407c0.09 0.4 0.2 0.7 0.3 1.078c0.072 0.4 0.1 0.7 0.2 1 c0.144 0.7 0.1 0.5 0.3 1.223c0.108-0.576 0.234-1.24 0.396-1.979c0.45-1.853 0.935-3.903 1.457-5.954 c0.018-0.108 0.054-0.252 0.072-0.359c0.072-0.072 0.125-0.126 0.396-0.18C63.156 20.6 63.3 20.6 63.5 20.552z"/><path fill="#FFFFFF" d="M71.73 31.774v-2.141c0-1.043 0.018-2.248 0.018-3.451c0-0.721-0.018-1.44-0.018-2.124v-1.654 c0-0.954-0.018-1.529-0.036-1.69c0.18-0.45 0.665-0.522 1.619-0.522c0.306 0 0.3 0.4 0.3 1.259v2.23 c0 0.809-0.018 1.653-0.018 2.464c0 0.8 0 1.6 0 2.338v1.762c0 0.7 0 1.2 0 1.404v0.252 c-0.197 0.25-0.664 0.305-1.618 0.305C71.838 32.2 71.7 32.1 71.7 31.774z"/><path fill="#FFFFFF" d="M81.081 26.073c0.432 0.8 0.8 1.7 1.2 2.465c-0.037-0.809-0.055-1.924-0.055-2.752v-4.334 c0-0.432 0.055-0.719 0.18-0.989c0.414-0.27 0.541-0.27 1.69-0.27c-0.019 1.062-0.036 2.374-0.036 3.777v7.931 c-0.072 0.055-0.54 0.359-0.953 0.359c-0.162 0-0.593-0.018-0.863-0.127c-0.467-0.881-1.024-1.834-1.601-2.822v0.018 c-0.306-0.539-0.629-1.115-0.953-1.672l-0.719-1.332c-0.251-0.539-0.54-1.115-0.81-1.708c-0.108-0.233-0.233-0.539-0.342-0.755 c-0.018-0.018-0.035-0.054-0.054-0.072c0.054 1.1 0.1 2.2 0.1 2.951v4.189c0 0.469-0.054 0.701-0.161 1 c-0.289 0.307-0.576 0.324-1.728 0.324c0.019-1.023 0.036-2.32 0.036-3.74v-7.554c-0.09-0.107-0.215-0.288-0.215-0.324 c0 0 0-0.072 0.035-0.179c0.271-0.162 1.062-0.216 1.366-0.216c0.181 0 0.4 0.1 0.7 0.2 c0.378 0.8 1 1.7 1.6 2.859c0.18 0.3 0.3 0.6 0.5 0.898c0.144 0.3 0.3 0.5 0.5 0.792L81.081 26.073z"/><path fill="#FFFFFF" d="M86.905 20.336c0.449-0.054 1.6-0.144 2.518-0.144c4.063 0 5.1 2.3 5.1 5.6 c0 2.447-0.467 4.156-1.672 5.307c-1.043 0.971-2.428 1.188-3.417 1.188c-1.062 0-1.943-0.072-2.95-0.199V21.631 c0-0.702 0.036-0.953 0.253-1.259L86.905 20.336z M90.195 21.703c-0.306-0.072-0.647-0.108-1.024-0.108 c-0.252 0-0.521 0-0.721 0.018v9.136c0.307 0 0.7 0.1 1.1 0.053c1.42 0 2.949-0.844 2.949-5.053 C92.479 23.1 91.7 22 90.2 21.703z"/><path fill="#FFFFFF" d="M101.899 20.768c0 0.251-0.107 0.575-0.306 0.881c-0.107 0.071-0.216 0.107-0.343 0.1 c-0.144 0-0.27-0.036-0.377-0.089c-0.342-0.162-0.826-0.288-1.312-0.288c-0.936 0-1.51 0.45-1.51 1.331v0.233 c0.072 0.5 0.3 0.8 0.6 1.169c0.359 0.4 0.9 0.9 1.3 1.332c0.018 0 0.1 0.1 0.1 0.1 c0.36 0.3 0.7 0.7 1 0.988c0.755 0.8 1.1 1.6 1.1 2.59c0 1.996-1.258 3.326-3.597 3.3 c-1.241 0-2.086-0.324-2.428-0.646c-0.198-0.18-0.271-0.287-0.271-0.449c0-0.289 0.234-0.846 0.485-1.242 c0.595 0.5 1.4 0.8 2.2 0.828c0.971 0 1.618-0.611 1.618-1.691c0-0.736-0.287-1.275-1.096-2.031 c-0.199-0.232-0.414-0.449-0.648-0.684c-0.055-0.053-0.145-0.125-0.233-0.215l-0.216-0.217c-0.432-0.432-0.827-0.791-1.115-1.151 c-0.611-0.773-0.826-1.439-0.826-2.104c0-1.421 0.953-2.841 3.362-2.841C100.911 20 101.7 20.5 101.9 20.768z"/><path fill="#FFFFFF" d="M103.965 20.822v-0.234c0-0.09-0.018-0.215-0.018-0.306c0.125-0.09 0.358-0.162 0.664-0.18 c0.559-0.036 1.205-0.054 1.854-0.054c2.482 0 4 1 4 3.741c0 2.608-1.799 3.454-3.057 3.6 c-0.486 0-1.133-0.037-1.133-0.846c0-0.125 0.216-0.252 0.432-0.252c0.773 0 1.708-0.629 1.708-2.589c0-1.655-0.81-2.23-1.799-2.23 c-0.288 0-0.521 0-0.701 0.018v7.77l0.019 1.977c0 0.307-0.055 0.523-0.216 0.738c-0.216 0.217-0.522 0.217-1.241 0.217h-0.484 c0.018-1.025 0.035-2.303 0.035-3.723L103.965 20.822z"/><path fill="#FFFFFF" d="M116.389 19.977c3.165 0 4.6 2.3 4.6 6.113c0 4.012-1.529 6.332-4.729 6.3 c-3.31 0-4.623-2.375-4.623-6.188C111.659 22.1 113.3 20 116.4 19.977z M113.727 26.325c0 3.1 1.1 4.6 2.6 4.6 c1.636 0 2.606-1.492 2.606-4.783s-1.151-4.694-2.662-4.694C114.77 21.5 113.7 22.9 113.7 26.325z"/><path fill="#FFFFFF" d="M130.413 31.792c0.324 0.434-1.043 0.469-1.043 0.469h-0.25c-0.72-0.072-1.098-0.791-1.35-1.367 c-0.486-1.025-1.312-2.535-2.176-3.543c-0.055 0-0.126-0.018-0.18-0.018h-0.612v3.92c0 0.287-0.036 0.504-0.197 0.7 c-0.198 0.234-0.575 0.234-1.385 0.234h-0.359c0.019-1.043 0.036-2.32 0.036-3.723v-5.989c0-0.647 0-1.169-0.018-1.672 c0-0.09 0-0.234 0.018-0.36c0.145-0.107 0.27-0.125 0.521-0.18c0.035 0 0.09-0.018 0.107-0.018 c0.055-0.018 0.162-0.018 0.251-0.036h0.108c0.215-0.018 0.484-0.036 0.701-0.036h0.863c0.144 0 0.3 0 0.5 0 c2.158 0.1 3.3 1.2 3.3 3.435c0 1.475-1.205 2.807-1.691 3.184c0.701 1 1.3 2.2 1.8 3.1 c0.503 0.9 0.9 1.6 1.1 1.852L130.413 31.792z M127.194 23.609c0-1.385-0.666-2.086-1.619-2.086 c-0.306 0-0.576 0.018-0.773 0.036v4.389h0.72c0.252 0 0.5 0 0.666-0.072C126.708 25.7 127.2 25 127.2 23.609z"/><path fill="#FFFFFF" d="M135.663 21.685v7.948c0 1 0 1.7 0 2.285c-0.287 0.25-0.593 0.287-1.727 0.3 c-0.145-0.252-0.217-0.521-0.217-0.844v-9.677h-2.104c-0.27 0-0.576-0.018-0.898-0.072c-0.036-0.144-0.036-0.18-0.036-0.252 c0-0.233 0.071-0.593 0.161-0.809c0.055-0.144 0.181-0.27 0.271-0.36h0.252c0.072 0 0.2 0 0.3 0 c0.396 0 0.9 0 1.6 0.018h5.611c0 0.414-0.054 0.755-0.125 1.043c-0.072 0.27-0.414 0.378-0.522 0.414H135.663z"/><path fill="#FFFFFF" d="M145.694 20.768c0 0.251-0.107 0.575-0.306 0.881c-0.108 0.071-0.216 0.107-0.343 0.1 c-0.144 0-0.27-0.036-0.377-0.089c-0.342-0.162-0.827-0.288-1.313-0.288c-0.935 0-1.511 0.45-1.511 1.331v0.233 c0.072 0.5 0.3 0.8 0.6 1.169c0.359 0.4 0.9 0.9 1.3 1.332c0.019 0 0.1 0.1 0.1 0.1 c0.359 0.3 0.7 0.7 1 0.988c0.755 0.8 1.1 1.6 1.1 2.59c0 1.996-1.26 3.326-3.598 3.3 c-1.24 0-2.086-0.324-2.428-0.646c-0.198-0.18-0.271-0.287-0.271-0.449c0-0.289 0.234-0.846 0.486-1.242 c0.594 0.5 1.4 0.8 2.2 0.828c0.971 0 1.619-0.611 1.619-1.691c0-0.736-0.288-1.275-1.098-2.031 c-0.197-0.232-0.414-0.449-0.646-0.684c-0.055-0.053-0.145-0.125-0.232-0.215l-0.217-0.217c-0.432-0.432-0.826-0.791-1.115-1.151 c-0.611-0.773-0.826-1.439-0.826-2.104c0-1.421 0.953-2.841 3.362-2.841C144.706 20 145.5 20.5 145.7 20.768z"/><path fill="#FFFFFF" d="M62.814 38.747c0 0.252-0.108 0.576-0.306 0.881c-0.108 0.072-0.216 0.107-0.342 0.1 c-0.144 0-0.27-0.035-0.377-0.09c-0.342-0.162-0.827-0.287-1.313-0.287c-0.935 0-1.511 0.449-1.511 1.33v0.232 c0.072 0.5 0.3 0.8 0.6 1.17c0.36 0.4 0.9 0.9 1.3 1.33c0.018 0 0.1 0.1 0.1 0.1 c0.359 0.3 0.7 0.7 1 0.99c0.755 0.8 1.1 1.6 1.1 2.59c0 1.996-1.259 3.326-3.597 3.3 c-1.241 0-2.086-0.324-2.428-0.646c-0.198-0.18-0.27-0.289-0.27-0.451c0-0.287 0.234-0.844 0.486-1.24 c0.593 0.5 1.4 0.8 2.2 0.828c0.971 0 1.619-0.611 1.619-1.691c0-0.736-0.288-1.277-1.097-2.031 c-0.198-0.234-0.414-0.449-0.647-0.684c-0.054-0.055-0.144-0.125-0.234-0.215l-0.216-0.217c-0.432-0.432-0.827-0.791-1.115-1.15 c-0.611-0.773-0.827-1.439-0.827-2.105c0-1.42 0.953-2.84 3.363-2.84C61.826 38 62.6 38.5 62.8 38.747z"/><path fill="#FFFFFF" d="M69.197 37.956c3.166 0 4.6 2.3 4.6 6.113c0 4.012-1.528 6.332-4.73 6.3 c-3.309 0-4.622-2.375-4.622-6.188C64.467 40.1 66.1 38 69.2 37.956z M66.535 44.303c0 3.1 1.1 4.6 2.6 4.6 c1.636 0 2.608-1.492 2.608-4.783s-1.151-4.695-2.662-4.695C67.578 39.4 66.5 40.9 66.5 44.303z"/><path fill="#FFFFFF" d="M82.896 38.926c0 0.414-0.126 0.736-0.306 0.971h-0.198c-0.162 0.018-0.251-0.035-0.433-0.125 c-0.035-0.018-0.09-0.035-0.125-0.055v0.02c-0.252-0.109-0.504-0.199-0.793-0.252c-0.144-0.02-0.358-0.035-0.539-0.035 c-0.125 0-0.233 0-0.359 0.018c-1.547 0.145-2.877 1.529-2.877 4.91c0 3.1 1.1 4.4 3.1 4.4 c0.81 0 1.763-0.322 2.194-0.594c0.145 0.2 0.2 0.5 0.3 0.738c-0.036 0.342-0.18 0.629-0.469 0.9 c-0.34 0.305-1.204 0.592-2.229 0.592c-2.967 0-4.854-1.42-4.854-5.936c0-2.266 0.521-3.955 1.582-5.125 c0.99-1.061 2.195-1.385 3.453-1.385C81.872 38 82.7 38.6 82.9 38.926z"/><path fill="#FFFFFF" d="M84.532 49.752v-2.139c0-1.043 0.018-2.25 0.018-3.453c0-0.721-0.018-1.439-0.018-2.123v-1.654 c0-0.953-0.019-1.529-0.037-1.689c0.181-0.451 0.666-0.521 1.619-0.521c0.307 0 0.3 0.4 0.3 1.26v2.229 c0 0.809-0.019 1.654-0.019 2.465c0 0.8 0 1.6 0 2.338v1.762c0 0.7 0 1.1 0 1.402v0.252 c-0.197 0.252-0.665 0.307-1.619 0.307C84.638 50.2 84.5 50.1 84.5 49.752z"/><path fill="#FFFFFF" d="M90.715 48.709c0.342 0 0.8 0 1.3 0.037c0.719 0 1.8 0 2.535-0.018 c-0.107 1.006-0.288 1.295-0.755 1.42c-0.45 0.018-1.133 0.037-2.123 0.037c-1.079 0-2.05-0.037-2.751-0.109 c-0.055-0.25-0.107-0.539-0.145-0.773V40.78c0-0.773 0-1.547-0.035-2.268c0.106-0.035 0.503-0.18 0.503-0.18 c0.108-0.035 0.216-0.105 0.575-0.125h4.479c-0.054 0.971-0.162 1.225-0.484 1.35c-0.521 0.09-1.043 0.09-1.709 0.09h-1.402V43.1 h3.309c-0.145 1.277-0.324 1.438-0.881 1.438h-2.428V48.709z"/><path fill="#FFFFFF" d="M100.299 39.665v7.949c0 1 0 1.7 0 2.283c-0.287 0.252-0.594 0.289-1.727 0.3 c-0.145-0.252-0.216-0.523-0.216-0.846v-9.676h-2.104c-0.27 0-0.574-0.018-0.898-0.072c-0.036-0.145-0.036-0.18-0.036-0.252 c0-0.232 0.072-0.594 0.162-0.809c0.054-0.145 0.18-0.271 0.271-0.359h0.25c0.072 0 0.2 0 0.3 0 c0.396 0 0.9 0 1.6 0.018h5.611c0 0.414-0.054 0.756-0.126 1.043c-0.071 0.271-0.414 0.377-0.522 0.414H100.299 L100.299 39.665z"/><path fill="#FFFFFF" d="M110.384 38.333c0.252-0.09 0.45-0.143 0.72-0.143c0.143 0 0.4 0 1 0.1 c0.036 0.1 0.1 0.3 0.1 0.287c0 0.199-0.09 0.361-0.18 0.594l-0.018 0.018c0.018 0 0 0.055-0.019 0.1 c-0.271 0.629-0.863 1.709-1.421 2.717c-0.486 0.826-0.954 1.707-1.169 2.211c-0.091 0.252-0.181 0.521-0.234 0.846v2.59 c0 0.6 0 1 0 1.457v0.826c-0.215 0.252-0.485 0.324-1.762 0.324c-0.127-0.305-0.181-0.557-0.181-0.881v-4.172 c0-0.162 0-0.307-0.019-0.377c-0.197-0.486-0.521-1.225-0.953-2.033c-0.305-0.646-0.684-1.33-1.043-2.031 c-0.377-0.738-0.772-1.512-1.114-2.195c0-0.16 0.144-0.215 1.007-0.215h1.043c0.198 0.5 0.6 1.5 1.1 2.4 c0.485 1.1 0.8 1.9 1 2.338L110.384 38.333z"/></g><g><g><g><path fill="#76C043" d="M32.635 46.817c5.659 2.2 11.6 3.4 17.8 3.584V4.764L32.635 46.817z"/></g></g><g><g><path fill="#F3CB14" d="M15.972 36.139c4.248 4.1 9.1 7.3 14.4 9.734L48.085 4.027L15.972 36.139z"/></g></g><g><g><path fill="#F27421" d="M4.527 19.994c2.403 5.3 5.7 10.2 9.7 14.435l32.112-32.11L4.527 19.994z"/></g></g><g><path fill="#ED2224" d="M0 0c0.139 6.1 1.3 12.1 3.6 17.765L45.635 0H0z"/></g></g></svg>