<?xml version="1.0" encoding="utf-8"?>
<!-- Generator: Adobe Illustrator 17.1.0, SVG Export Plug-In . SVG Version: 6.00 Build 0)  -->
<!DOCTYPE svg PUBLIC "-//W3C//DTD SVG 1.1//EN" "http://www.w3.org/Graphics/SVG/1.1/DTD/svg11.dtd">
<svg version="1.1" id="Layer_1" xmlns="http://www.w3.org/2000/svg" xmlns:xlink="http://www.w3.org/1999/xlink" x="0px" y="0px"
	 viewBox="2.5 92.5 606.9 606.9" enable-background="new 2.5 92.5 606.9 606.9" xml:space="preserve">
<path fill="#E96057" d="M457.5,393.6c-6.1-60.6-45.4-110.9-63.6-167.8c-4.2-14.5-2.4-30.9-6.1-45.4c-3-12.1-31.5-12.1-40-11.5
	c-9.7,0.6-24.8-2.4-33.3,4.8c-7.9,7.3-5.5,26.1-8.5,35.8c-5.5,23.6-13.9,47.3-26.1,67.9c-14.5,24.2-50.9,38.2-64.2,3.6
	c-4.8-12.1-1.8-24.2-15.8-31.5c-12.7-6.1-36.4,0.6-44.2,10.9c-10.9,14.5,9.1,57,10.9,75.1c3,33.9,0.6,64.2-3.6,98.2
	c-3.6,30.9-5.5,63.6,12.7,90.3c8.5,13.3,16.4,27.3,25.4,40c9.7,15.1,6.1,29.1,11.5,44.8c3.6,9.7,57.6,8.5,66.7,9.1
	c25.4,1.8,147.8,20,132.7-27.9c-9.1-29.7,22.4-61.2,32.7-89.7C458.1,465.1,461.7,431.1,457.5,393.6z M202.4,268.8
	c-6.7,17-50.9,12.1-38.2-4.8C172.1,253.6,204.8,249.4,202.4,268.8C202.4,274.8,203.6,266.9,202.4,268.8z M377.5,193
	c-7.3,11.5-32.7,5.5-43.6,3c-7.9-1.8-25.4-12.1-8.5-16.4C332.1,178.5,387.2,177.3,377.5,193z"/>
<rect x="3" y="93" fill="none" stroke="#E96057" stroke-miterlimit="10" width="605.9" height="605.9"/>
</svg>
