<?xml version="1.0" encoding="utf-8"?>
<!-- Generator: Adobe Illustrator 17.1.0, SVG Export Plug-In . SVG Version: 6.00 Build 0)  -->
<!DOCTYPE svg PUBLIC "-//W3C//DTD SVG 1.1//EN" "http://www.w3.org/Graphics/SVG/1.1/DTD/svg11.dtd">
<svg version="1.1" id="Layer_1" xmlns="http://www.w3.org/2000/svg" xmlns:xlink="http://www.w3.org/1999/xlink" x="0px" y="0px"
	 viewBox="0 0 101 101" enable-background="new 0 0 101 101" xml:space="preserve">
<g>
	<path fill="#E96057" d="M60.6,18.7c0.9-0.6,1.7-1,3.5-1.2c5.5-0.6,10,5.2,10,5.2l1.2,1.5l-4.7,1.7c-1.1-1.7-2.2-3.3-2.7-3.9
		c-1.2-1.7-2.8-2.7-4.2-2.9c-1.3-0.3-2.4-0.1-3,0C60.5,19,60.5,18.8,60.6,18.7z"/>
	<path fill="#E96057" d="M59.8,18.5c0.2,1.7,0.1,2.8,2.6,4.8c0.1,0.1,5.8,5.3,8,4.6l5.7-2c1-0.2,2.5,0.2,3.5,1.8
		c0.8,1.3,0.3,0.5,1.2,1.9c1.4,2.3,3.1,7.1,2.1,11.8c-0.4,2.1-1.2,3.3-2,4.1c0.1-1.6-0.6-3.3-2.7-4.6c0,0-1.2-0.9-2.9,1.1
		c-0.3,0.4-0.8,1-1.6,1.9L73,44.8c-0.1-0.1-0.1-0.2-0.2-0.3L59.6,23.2C57.7,20,59.7,17.9,59.8,18.5z"/>
	<path fill="#E96057" d="M75.8,49.9c-0.5-1.4-1.6-2.5-3-2.6l1.6-2c0.6-0.7,1-1.2,1.3-1.5c1.4-1.6,2.4-0.9,2.4-0.9
		c5,3.1-0.2,8.6-0.2,8.6c-0.6,0.6-1.3,1-2.1,1.1C76.1,51.7,76.1,50.8,75.8,49.9z"/>
	<path fill="#E96057" d="M74.6,50.7c0.6,1.8-0.2,4.1-3.1,4.6L69,55.5c-0.5-1.8-1.3-3.8-2.6-5.5l3.7-1.6
		C72.2,47.7,73.9,48.8,74.6,50.7z"/>
	<path fill="#E96057" d="M69.1,61.1c1.1-0.1,2.3-0.1,3.6,0l3.6,0.2c1.6,0,2.3,0.7,2.2,1.7c0,0-0.1,1.9-2.4,1.5c0,0-5.7-1-6.1-1.2
		c-0.9-0.2-1.7-0.3-2.6-0.4c0.3-0.2,0.5-0.4,0.7-0.6C68.6,61.9,68.9,61.5,69.1,61.1z"/>
	<path fill="#E96057" d="M69.9,59.3c0-0.1,0-0.1,0-0.2c-0.1-0.7-0.2-1.4-0.3-2.1c3.8-1,9.7-2.9,9.7-2.9c2.5-0.7,2.7,1.3,2.7,1.3
		c0,0.8-0.2,1.8-2.8,2.3L69.9,59.3z"/>
	<path fill="#E96057" d="M26.9,22.6c0,0,4.6-5.8,10-5.2c1.8,0.2,2.6,0.6,3.5,1.2c0.1,0.1,0,0.3-0.1,0.2c-0.7-0.1-1.7-0.3-3,0
		c-1.4,0.3-3,1.3-4.2,2.9c-0.5,0.7-1.6,2.3-2.7,3.9l-4.7-1.7L26.9,22.6z"/>
	<path fill="#E96057" d="M20.3,29.6c0.9-1.4,0.4-0.7,1.2-1.9c1-1.7,2.5-2.1,3.5-1.8l5.7,2c2.2,0.7,7.9-4.5,8-4.6
		c2.4-2,2.4-3.1,2.6-4.8c0.1-0.6,2.1,1.5,0.2,4.7L28.2,44.5c-0.1,0.1-0.1,0.2-0.2,0.3l-0.7-0.8c-0.7-0.9-1.2-1.5-1.6-1.9
		c-1.7-2-2.9-1.1-2.9-1.1c-2.1,1.3-2.7,3-2.7,4.6c-0.9-0.8-1.6-2.1-2-4.1C17.1,36.7,18.9,31.9,20.3,29.6z"/>
	<path fill="#E96057" d="M25.3,52.5c-0.8-0.1-1.5-0.5-2.1-1.1c0,0-5.1-5.4-0.2-8.6c0,0,1-0.7,2.4,0.9c0.3,0.3,0.7,0.8,1.3,1.5l1.6,2
		c-1.4,0.2-2.5,1.2-3,2.6C24.9,50.8,24.9,51.7,25.3,52.5z"/>
	<path fill="#E96057" d="M21.8,54.1c0,0,5.9,1.9,9.7,2.9c-0.1,0.7-0.3,1.4-0.3,2.1c0,0.1,0,0.1,0,0.2l-9.3-1.5
		c-2.5-0.5-2.8-1.5-2.8-2.3C19.1,55.4,19.2,53.5,21.8,54.1z"/>
	<path fill="#E96057" d="M24.7,61.2l3.6-0.2c1.3-0.1,2.5,0,3.6,0c0.2,0.5,0.5,0.9,0.9,1.2c0.2,0.2,0.5,0.4,0.7,0.6
		c-0.8,0.1-1.7,0.2-2.6,0.4c-0.5,0.1-6.1,1.2-6.1,1.2c-2.3,0.4-2.4-1.5-2.4-1.5C22.4,61.9,23.1,61.3,24.7,61.2z"/>
	<path fill="#E96057" d="M32,55.5l-2.5-0.3c-2.9-0.5-3.7-2.7-3.1-4.6c0.6-1.8,2.3-3,4.5-2.2l3.7,1.6C33.3,51.7,32.5,53.7,32,55.5z"
		/>
	<path fill="#E96057" d="M9.7,47.1c0.7-0.2,1.6,0,2.2,0.2c0.2,0.1,0.2,0.4,0,0.4c-1.1,0.2-2.6,0.9,1.7,3.4c1.3,0.7,3.4,1.9,5.2,2.8
		c-0.6,0.4-0.7,1.2-0.7,1.2c0,0.1,0,0.2,0,0.3l-7.9-3.8C6.9,49.8,7.8,47.6,9.7,47.1z"/>
	<path fill="#E96057" d="M12,69.5c0.1,0.3,0.5,1.3,0.2,1.4c-0.6,0.2-1.5-1.8-1.6-2.3c-0.3-1.5,0.3-3,3-3.9l7.6-1.9c0,0,0,0.1,0,0.1
		c0,0,0,0.8,0.7,1.2c-2,0.6-4.3,1.2-5.7,1.6C12.1,67.2,11.7,68.4,12,69.5z"/>
	<path fill="#E96057" d="M22.4,72.5c-4.2,2.7-2,5.1-1.5,5.9c0.2,0.4,0,0.6-0.2,0.5c-0.6-0.2-1.9-1.4-2.4-2.1c-0.5-0.7-2-2.6,1.6-4.7
		l6.4-3.6c0,0.1,0,0.2,0.1,0.3c0,0,0.1,0.5,0.7,0.8C25.4,70.6,23.5,71.8,22.4,72.5z"/>
	<path fill="#E96057" d="M27.3,68.2c-0.4-0.7,0.4-1.8,1.3-2.1l6.2-2c0,0,0,0,0,0c0.6,0.5,1.3,1,1.9,1.5c-0.6,0.3-6.7,3.1-6.7,3.1
		C27.8,69.8,27.3,68.2,27.3,68.2z"/>
	<path fill="#E96057" d="M39.5,67.6c0.5,0.4,1.1,0.8,1.7,1.2c-0.5,0.4-5.1,3.7-5.1,3.7c-1.4,0.9-2.2,0.6-3-0.1
		c-0.8-0.8-0.8-2.6,1-3.1C34.1,69.3,38.6,67.9,39.5,67.6z"/>
	<path fill="#E96057" d="M36.2,80.3c0,0.3,0.1,0.6,0.2,0.8c-0.4,0-0.8-0.2-1.1-0.4c0,0-3.3-2.1-2.8-4.7c-0.6-0.1-1.1-0.5-1.2-1.2
		c0,0-0.5-1.8,0.2-2.9c0,0.5,0.1,1,0.4,1.3c0.5,0.6,0.9,1,1.6,1c0.1-0.1,0.7-0.7,1.9,0.2c0.3,0.2,0.7,0.5,1.2,0.9l1.3,0.9
		C36.7,77.3,36,78.8,36.2,80.3z"/>
	<path fill="#E96057" d="M48,80.7c-3.1,3.2-7.1,2.9-7.1,2.9c-1.9,0-3.3-1.5-3.4-3.4c-0.1-1.9,1.4-3.7,3.5-3.7c0,0,3.3-0.2,6.9,2.6
		c0.1,0.1,0.1,0.4-0.1,0.4l-6.8,0.1c-0.2,0-0.3,0.2-0.3,0.4c0,0.2,0.2,0.4,0.3,0.4l6.8-0.1C48,80.3,48.1,80.5,48,80.7z"/>
	<path fill="#E96057" d="M48.6,70.8c-1.6,0-3.1-0.5-4.3-1.5c-2.7-2.1-7.6-6-9.9-7.8c-0.8-0.6-1.3-1.6-1.2-2.6
		c0.5-5.2,3.2-9.7,7.3-12.6v-3.4c0-0.5,0.4-0.9,0.9-0.9c0.5,0,0.7,0.2,0.9,0.9l0.7,1.9c0.8-0.4,1.7-0.7,2.6-1
		c-0.6-1.8-1.9-5.1-4.2-7.4c-0.1-0.1-0.1-0.4,0-0.5c0.2-0.1,0.5-0.1,0.6,0c2.4,2.2,4.2,5.8,4.9,7.5c1.1-0.2,2.3-0.4,3.5-0.4
		c1.3,0,2.6,0.1,3.8,0.4c0.8-1.7,2.6-5.3,5-7.6c0.2-0.2,0.4-0.2,0.6,0c0.2,0.1,0.2,0.4,0,0.5c-2.3,2.4-3.7,5.7-4.2,7.5
		c0.9,0.3,1.8,0.7,2.7,1.1l0.7-2.1c0.2-0.7,0.4-0.9,0.9-0.9c0.5,0,0.9,0.4,0.9,0.9v3.7c3.8,2.9,6.4,7.3,6.8,12.2
		c0.1,1-0.4,2-1.2,2.6c-2.3,1.8-7.4,5.7-10.1,7.8c-1.3,1-2.8,1.5-4.4,1.5H48.6z"/>
	<path fill="#E96057" d="M61.5,67.6c0.9,0.3,5.4,1.7,5.4,1.7c1.8,0.5,1.8,2.3,1,3.1c-0.8,0.8-1.7,1-3,0.1c0,0-4.6-3.3-5.1-3.7
		C60.4,68.4,61,68,61.5,67.6z"/>
	<path fill="#E96057" d="M60,83.6c0,0-4,0.3-7.1-2.9c-0.1-0.2,0-0.4,0.2-0.4l6.8,0.1c0.2,0,0.3-0.2,0.3-0.4c0-0.2-0.2-0.4-0.3-0.4
		l-6.8-0.1c-0.2,0-0.3-0.2-0.1-0.4c3.6-2.8,6.9-2.6,6.9-2.6c2.1,0,3.6,1.8,3.5,3.7C63.3,82,61.9,83.6,60,83.6z"/>
	<path fill="#E96057" d="M69.7,74.9c-0.2,0.6-0.7,1.1-1.2,1.2c0.6,2.6-2.8,4.7-2.8,4.7c-0.4,0.2-0.7,0.4-1.1,0.4
		c0.1-0.3,0.2-0.6,0.2-0.8c0.2-1.5-0.4-3.1-1.7-3.9l1.3-0.9c0.6-0.4,1-0.7,1.2-0.9c1.2-0.9,1.8-0.3,1.9-0.2c0.7,0,1.2-0.4,1.6-1
		c0.3-0.4,0.4-0.8,0.4-1.3C70.2,73.1,69.7,74.9,69.7,74.9z"/>
	<path fill="#E96057" d="M73.4,68.2c0,0-0.4,1.7-2.8,0.6c0,0-6.1-2.9-6.7-3.1c0.7-0.5,1.3-1,1.9-1.5c0,0,0,0,0,0l6.2,2
		C73,66.4,73.8,67.4,73.4,68.2z"/>
	<path fill="#E96057" d="M82.4,76.8c-0.5,0.7-1.8,1.9-2.4,2.1c-0.2,0.1-0.5-0.1-0.2-0.5c0.6-0.9,2.7-3.3-1.5-5.9
		c-1.1-0.7-3-1.9-4.6-2.8c0.6-0.3,0.7-0.8,0.7-0.8c0.1-0.1,0.1-0.2,0.1-0.3l6.4,3.6C84.4,74.2,82.9,76.1,82.4,76.8z"/>
	<path fill="#E96057" d="M90.3,68.7c-0.1,0.5-1,2.5-1.6,2.3c-0.2-0.1,0.2-1.1,0.2-1.4c0.3-1.2-0.1-2.3-4.2-3.6
		c-1.4-0.4-3.8-1.1-5.7-1.6c0.6-0.5,0.7-1.2,0.7-1.2c0,0,0-0.1,0-0.1l7.6,1.9C90.1,65.6,90.6,67.2,90.3,68.7z"/>
	<path fill="#E96057" d="M90.8,51.5l-7.9,3.8c0-0.1,0-0.2,0-0.3c0,0-0.1-0.7-0.7-1.2c1.8-1,3.9-2.1,5.2-2.8c4.3-2.5,2.9-3.2,1.7-3.4
		c-0.2,0-0.2-0.3,0-0.4c0.6-0.2,1.5-0.4,2.2-0.2C93.2,47.6,94.1,49.8,90.8,51.5z"/>
</g>
<rect x="0.5" y="0.5" fill="none" stroke="#E96057" stroke-miterlimit="10" width="100" height="100"/>
</svg>
