<?xml version="1.0" encoding="utf-8"?>
<!-- Generator: Adobe Illustrator 15.0.2, SVG Export Plug-In . SVG Version: 6.00 Build 0)  -->
<!DOCTYPE svg PUBLIC "-//W3C//DTD SVG 1.1//EN" "http://www.w3.org/Graphics/SVG/1.1/DTD/svg11.dtd">
<svg version="1.1" id="Layer_1" xmlns="http://www.w3.org/2000/svg" xmlns:xlink="http://www.w3.org/1999/xlink" x="0px" y="0px"
	 width="792px" height="612px" viewBox="0 0 792 612" enable-background="new 0 0 792 612" xml:space="preserve">
<g>
	<path fill="#E96057" d="M326.923,206.626c22.42-42.416,58.776-1.818,109.675,1.817c5.454,0.606,7.271-5.453,3.636-9.695
		c-6.665-7.877-46.657-18.784-36.962-54.535s42.416-46.657,47.263-53.929c3.03-5.454-1.212-11.513-7.271-11.513
		c-29.086,1.212-56.958,15.754-81.802,39.992c-30.903,30.297-37.568,59.382-41.81,83.62
		C319.045,206.626,324.499,210.261,326.923,206.626z"/>
	<path fill="#E96057" d="M337.224,483.541c-18.784-9.695-56.958-33.327-78.772-67.26c-1.818-3.029-4.242,0-6.666,2.424
		c-12.725,11.513-22.42,23.025-32.115,29.085c-4.848,3.03-4.848,9.695-0.606,12.119c32.721,17.572,93.315,23.025,115.734,26.661
		C337.224,487.176,339.042,484.753,337.224,483.541z"/>
	<path fill="#E96057" d="M512.341,407.192c-4.848-3.636-11.513-4.848-16.967-2.424c-21.208,9.089-50.293,32.721-56.353,65.441
		c0,0.605-1.212,1.212-1.817,0c-3.636-28.479,15.754-60.594,44.233-76.349c4.241-2.424,4.241-7.877,0.606-10.907
		c-23.026-16.966-48.476-33.933-67.866-44.233c0,0,0,0-0.605,0c0-1.212,0-1.817,0-3.029c-4.241-18.784-21.814-64.23-29.691-78.772
		c-2.424-4.242-9.089,1.818-11.513,10.301c-2.424,7.877-10.301,23.632-13.331,34.539c-69.683-61.2-56.353-128.459-30.903-162.392
		c1.212-1.818-1.212-3.636-3.636-2.424c-66.653,40.598-160.574,198.749-11.513,314.483c104.222,81.196,222.38,92.103,253.889,74.53
		c6.06-3.029,9.09-10.301,9.09-16.966C575.965,486.57,555.969,441.125,512.341,407.192z M423.268,395.073
		c-1.818,1.212-3.636,3.029-5.454,4.848c-1.817,1.817-4.847,2.424-7.271,1.212C276.63,322.36,273.6,253.889,277.236,233.893
		c0-0.606,1.211,0,1.211,1.212c6.06,77.56,118.158,141.184,143.002,154.515C424.479,390.832,425.085,393.861,423.268,395.073z
		 M494.769,491.418c-3.636,6.665-13.331,9.089-20.603,4.848c-7.877-4.242-10.906-13.331-7.271-19.996
		c3.635-6.666,13.33-9.09,20.602-4.848C495.374,475.663,498.404,484.753,494.769,491.418z"/>
</g>
<rect x="93.03" y="3.03" fill="none" width="605.941" height="605.941"/>
</svg>
