<?xml version="1.0" encoding="utf-8"?>
<!-- Generator: Adobe Illustrator 17.1.0, SVG Export Plug-In . SVG Version: 6.00 Build 0)  -->
<!DOCTYPE svg PUBLIC "-//W3C//DTD SVG 1.1//EN" "http://www.w3.org/Graphics/SVG/1.1/DTD/svg11.dtd">
<svg version="1.1" id="Layer_1" xmlns="http://www.w3.org/2000/svg" xmlns:xlink="http://www.w3.org/1999/xlink" x="0px" y="0px"
	 viewBox="0 0 101 101" enable-background="new 0 0 101 101" xml:space="preserve">
<g>
	<path fill="#E96057" d="M38.1,84c1.4-0.1,2.6,0.5,4,0.6c2.7,0.4,6,1,8.7,0.3c1.1-0.3,2.2-0.9,3.2-1.3c4.2-1.8,8.1-4.5,10.7-8.4
		c2.1-3.2,2.3-6.6,2.3-10.3c0-0.5,0.2-1.5,0-2.1c-0.3,0.1-0.6,0.3-0.8,0.4c-1.3,0.6-2.8,0.3-4.2,0.4c-3.4,0.1-7.1-1.6-10.2-2.9
		c-2.3-1-4.5-2-6.8-3c-1.7-0.7-3.3-1.8-5.1-2.2c-0.9-0.2-1.8,0-2.3-0.3c-2.5,0.2-4.8,0.9-7.2,2.1c-6.6,3.2-10,10.9-9.6,18
		c0.2,4.6,0.8,12.2,6.8,12.8C31.2,88.3,34.4,84.3,38.1,84z"/>
	<path fill="#E96057" d="M62.2,61.4c1.4,0,2.9,0.2,4.2-0.4c2.2-1,5.2-2.3,6.2-4.7c1.2-3,1.5-6.5,0.7-9.6c-0.1-0.4-0.2-0.7-0.3-1
		c-1,0.6-2,1-2.9,1.1c-1.7,0.2-4.2-1.5-5.7-2.3c-1.9-0.9-3.7-1.7-5.6-2.6c-1.5-0.8-3.4-1.7-5-2.2c-0.8-0.2-1.4-0.2-1.8-0.7
		c-1.2,0.1-2.4,0.2-3.6,0.5c-2.4,0.6-4,0.6-5.9,2.4c-1.7,1.6-2.8,3.6-3.8,5.6c-0.6,1.2-1.2,2.5-1.3,3.9c-0.2,2.2,1.2,1.5,2.8,1.7
		c1.8,0.4,3.4,1.5,5.1,2.2c2.3,0.9,4.5,2,6.8,3C55.1,59.9,58.8,61.5,62.2,61.4z"/>
	<path fill="#E96057" d="M70.4,44.9c3.3-0.4,8.1-4.5,7.2-8.2c-0.3-1.1-0.8-1.7-1.5-2.2c-0.3,0.1-0.7,0.2-1,0.2
		c-1.9-0.1-3.8-1-5.4-1.8c-1.9-0.9-4-1.2-5.9-2c-1-0.4-1.6-1-1.7-1.8c-0.6-0.1-1.2-0.1-1.8,0c-2.3,0.3-4.1,1.7-5.6,3.3
		c-0.8,0.8-2.7,3-2.4,4.2c0.3,1.1,1.1,1,2,1.2c1.6,0.5,3.5,1.4,5,2.2c1.9,0.9,3.7,1.7,5.6,2.6C66.2,43.3,68.7,45.1,70.4,44.9z"/>
	<path fill="#E96057" d="M75.3,32.5c2.7,0.2,5-4.7,3-6.6c-0.1-0.1-0.2-0.2-0.3-0.3c-0.8,0.2-1.7,0.1-2.4-0.1
		c-1.7-0.5-5.6-1.6-6.5-3.2c-0.2-0.1-0.4-0.2-0.7-0.3c-2.4-0.7-5.7,1.7-6.2,4c-0.3,1.4,0.4,2.2,1.7,2.7c1.9,0.7,4,1.1,5.9,2
		C71.5,31.6,73.4,32.4,75.3,32.5z"/>
	<path fill="#E96057" d="M80.1,21.7c0.4-1.4-0.1-2-0.9-2.4c-1.2,0.4-3-0.5-3.9-1.1c-0.5-0.3-0.8-0.6-1-0.9c-0.2-0.1-0.5-0.2-0.8-0.3
		c-0.9-0.2-2.1,0.2-2.8,0.7c-4.6,2.9,2.7,5,5.2,5.7C77.4,23.9,79.6,23.9,80.1,21.7z"/>
	<path fill="#E96057" d="M75.6,16.2c1.1,0.7,3.3,1.9,4.4,0.9c0.8-0.8-0.8-3.1-1.5-3.5c-0.7-0.5-1.8-0.6-2.6-0.4
		C73.9,13.4,73.8,15,75.6,16.2z"/>
</g>
<rect x="0.5" y="0.5" fill="none" stroke="#E96057" stroke-miterlimit="10" width="100" height="100"/>
</svg>
