<?xml version="1.0" encoding="utf-8"?>
<!-- Generator: Adobe Illustrator 17.1.0, SVG Export Plug-In . SVG Version: 6.00 Build 0)  -->
<!DOCTYPE svg PUBLIC "-//W3C//DTD SVG 1.1//EN" "http://www.w3.org/Graphics/SVG/1.1/DTD/svg11.dtd">
<svg version="1.1" id="Layer_1" xmlns="http://www.w3.org/2000/svg" xmlns:xlink="http://www.w3.org/1999/xlink" x="0px" y="0px"
	 viewBox="216 78.8 360 454.4" enable-background="new 216 78.8 360 454.4" xml:space="preserve">
<g>
	<path fill="#E96057" d="M326.9,206.6c22.4-42.4,58.8-1.8,109.7,1.8c5.5,0.6,7.3-5.5,3.6-9.7c-6.7-7.9-46.7-18.8-37-54.5
		s42.4-46.7,47.3-53.9c3-5.5-1.2-11.5-7.3-11.5c-29.1,1.2-57,15.8-81.8,40c-30.9,30.3-37.6,59.4-41.8,83.6
		C319,206.6,324.5,210.3,326.9,206.6z"/>
	<path fill="#E96057" d="M337.2,483.5c-18.8-9.7-57-33.3-78.8-67.3c-1.8-3-4.2,0-6.7,2.4c-12.7,11.5-22.4,23-32.1,29.1
		c-4.8,3-4.8,9.7-0.6,12.1c32.7,17.6,93.3,23,115.7,26.7C337.2,487.2,339,484.8,337.2,483.5z"/>
	<path fill="#E96057" d="M512.3,407.2c-4.8-3.6-11.5-4.8-17-2.4c-21.2,9.1-50.3,32.7-56.4,65.4c0,0.6-1.2,1.2-1.8,0
		c-3.6-28.5,15.8-60.6,44.2-76.3c4.2-2.4,4.2-7.9,0.6-10.9c-23-17-48.5-33.9-67.9-44.2c0,0,0,0-0.6,0c0-1.2,0-1.8,0-3
		c-4.2-18.8-21.8-64.2-29.7-78.8c-2.4-4.2-9.1,1.8-11.5,10.3c-2.4,7.9-10.3,23.6-13.3,34.5c-69.7-61.2-56.4-128.5-30.9-162.4
		c1.2-1.8-1.2-3.6-3.6-2.4c-66.7,40.6-160.6,198.7-11.5,314.5c104.2,81.2,222.4,92.1,253.9,74.5c6.1-3,9.1-10.3,9.1-17
		C576,486.6,556,441.1,512.3,407.2z M423.3,395.1c-1.8,1.2-3.6,3-5.5,4.8c-1.8,1.8-4.8,2.4-7.3,1.2
		c-133.9-78.8-136.9-147.2-133.3-167.2c0-0.6,1.2,0,1.2,1.2c6.1,77.6,118.2,141.2,143,154.5C424.5,390.8,425.1,393.9,423.3,395.1z
		 M494.8,491.4c-3.6,6.7-13.3,9.1-20.6,4.8c-7.9-4.2-10.9-13.3-7.3-20c3.6-6.7,13.3-9.1,20.6-4.8
		C495.4,475.7,498.4,484.8,494.8,491.4z"/>
</g>
</svg>
