<?xml version="1.0" encoding="utf-8"?>
<!-- Generator: Adobe Illustrator 15.0.2, SVG Export Plug-In . SVG Version: 6.00 Build 0)  -->
<!DOCTYPE svg PUBLIC "-//W3C//DTD SVG 1.1//EN" "http://www.w3.org/Graphics/SVG/1.1/DTD/svg11.dtd">
<svg version="1.1" id="Layer_1" xmlns="http://www.w3.org/2000/svg" xmlns:xlink="http://www.w3.org/1999/xlink" x="0px" y="0px"
	 width="792px" height="612px" viewBox="0 0 792 612" enable-background="new 0 0 792 612" xml:space="preserve">
<rect x="93.03" y="3.03" fill="none" width="605.941" height="605.941"/>
<path fill="#E96057" d="M582.63,289.64L582.63,289.64h-10.907c-0.605-0.606-1.212-1.212-1.817-1.212l12.725-3.636l0.605-0.606
	l-0.605-0.606l-13.937,4.242c-0.606,0-0.606,0-1.212,0c-1.818,0-3.03,0-3.636,0c-0.606,0-0.606,0-0.606,0s-0.605,0-1.212-0.606
	c-0.605-0.606-0.605-2.424-0.605-3.636c0-1.818,0-3.029-0.606-3.635c3.03-1.212,5.454-2.424,5.454-4.242
	c0.605-1.818-1.212-3.03-4.242-4.848c0.606-1.212,1.212-1.212,1.818-1.212c0.605,0,1.212-0.606,1.817-0.606l13.331,1.818l0,0
	c0,0,0.605,0,0.605-0.606c0,0,0-0.606-0.605-0.606l-11.513-1.818c1.817-0.606,3.029-1.818,3.029-2.424l10.301-1.818l0.606-0.605
	l-0.606-0.606l-10.301,1.818c-0.605-0.606-1.817-0.606-2.424-1.212l11.513-5.454c0,0,0.606-0.606,0-0.606c0,0-0.605-0.606-0.605,0
	l-13.331,6.06l0,0c-1.817,0-2.424,0.605-3.029,1.212c-0.606,0-0.606,0.605-0.606,0.605s-0.605,0-1.211-0.605
	c-0.606-0.606-1.212-2.424-1.212-3.636c0-0.606-0.606-1.818-0.606-1.818c1.818-1.212,3.636-2.424,3.636-4.242
	c0.606-1.818-0.606-3.636-3.029-6.06c0.605-0.606,0.605-1.212,1.212-1.817c0.605-1.212,0.605-1.818,1.817-2.424
	c0.606,0,0.606-0.606,1.212-0.606l13.937-0.606c0,0,0.606,0,0.606-0.606c0,0,0-0.606-0.606-0.606l0,0h-12.119
	c1.818-1.212,2.424-1.818,2.424-3.03l10.302-3.636l0.605-0.606l-0.605-0.606l-10.302,3.636c-3.029-1.212-3.636-1.212-4.848-1.212
	h-0.605l10.907-7.271c0,0,0.605-0.606,0-0.606c0,0-0.606-0.606-0.606,0l-13.331,9.089h-0.605c-1.817,0.606-2.424,1.212-3.029,1.818
	c-0.606,0.606-0.606,0.606-1.212,0.606c0,0-0.606,0-1.212,0c-0.606,0-1.818-1.818-2.424-3.03c-0.606-1.818-1.818-3.03-2.424-3.03
	l0,0c-0.606,0-1.212,0-1.818,0.606c1.818-2.424,3.03-4.848,2.424-6.666c-0.605-1.818-2.424-2.424-5.453-2.424l0,0
	c0-1.211,0.605-1.818,1.212-2.423c0.605-0.606,0.605-1.212,1.212-1.818c0.605-0.606,1.212-1.212,1.212-1.818l10.907-7.877v-0.606
	h-0.606l-9.089,6.06c0-0.606,0.605-1.212,0-1.818c0,0-0.606-0.606-1.212-0.606l7.271-9.089v-0.606h-0.606l-7.877,10.301
	c-0.606,0-1.212,0.606-1.818,0.606l5.454-13.331c0,0,0-0.606-0.606-0.606h-0.605l-6.06,14.542c-1.212,0.606-1.212,1.818-1.817,2.424
	c-0.606,0.606-0.606,1.212-1.213,1.212c0,0,0,0-0.605,0s-2.424-2.424-4.241-3.636c-2.424-3.636-3.636-4.242-4.242-4.242l0,0h-0.605
	c0-1.212,0-2.424-0.606-3.636c-1.212-1.817-3.029-2.424-6.665-2.424c0-0.605,0-1.211-0.606-1.817
	c-0.605-0.606-0.605-1.818-0.605-3.03l9.089-13.937v-0.606h-0.605l-7.271,11.513c0.606-1.818,0.606-3.636,0-4.242l0,0l3.029-11.513
	c0,0,0-0.606-0.605-0.606c0,0-0.606,0-0.606,0.606l-4.241,11.513c-0.605,0-1.212,0.606-1.817,1.212v-13.331c0,0,0-0.606-0.606-0.606
	l0,0c0,0-0.605,0-0.605,0.606v14.542c-0.606,0.606-0.606,1.212-1.212,1.818c-0.606,1.818-0.606,3.03-1.212,3.636
	c0,1.212,0,1.212-1.212,1.818c0,0,0,0-0.606,0c-0.605,0-2.424-0.606-3.636-0.606c-1.817-0.606-3.029-1.212-3.635-0.606
	c0-2.424-0.606-4.848-1.212-6.06c-1.212-1.818-3.636-1.212-6.666,1.818c-0.605-1.212-0.605-1.818-0.605-2.424s0-1.212-0.606-1.818
	c0-0.606,0-1.212,0-1.818l4.242-13.331c0,0,0-0.606-0.606-0.606c0,0-0.605,0-0.605,0.606l-3.636,10.907
	c0-0.605-0.606-1.212-0.606-1.212s-0.605-0.605-1.212-0.605c0,0,0,0-0.605,0v-12.119c0,0,0-0.606-0.605-0.606
	c0,0-0.606,0-0.606,0.606v12.725c-0.605,0.606-0.605,1.212-1.212,1.818l-3.636-13.937l-0.605-0.606l-0.606,0.606l4.242,15.148v0.606
	c-0.606,1.818,0,2.424,0,3.636c0,0.606,0,1.212-0.606,1.818c0,0-1.212,0.606-1.817,0.606c-0.606,0-1.212,0-1.818,0
	c-0.605,0-1.212,0-1.817,0c-1.212,0-1.818,0-2.424,0.606c-0.606,0.606-0.606,1.212-0.606,1.818
	c-1.212-2.424-2.424-3.636-3.636-3.636c-1.817,0-3.029,1.212-4.847,4.242c-0.606-0.606-1.213-1.212-1.213-1.818
	s-0.605-1.212-0.605-1.818c-0.606-1.818-1.212-3.03-1.818-4.242l-1.817-13.937l-0.605-0.606l-0.606,0.606l1.818,12.725h-0.606
	c0,0-0.605,0-1.212,0.606l0,0l-6.06-12.725c0,0-0.605-0.606-0.605,0c0,0-0.606,0.606,0,0.606l6.665,13.331
	c0,0.606,0,0.606-0.605,1.212L455.382,183.6h-0.605v0.606l10.907,12.725c0,0.606,0,1.212,0,1.212c0,1.818,0.605,2.424,1.212,3.03
	c0.605,0.606,0.605,1.212,0,1.818c-0.606,0.606-2.424,1.212-4.242,1.212c-2.424,0.606-3.636,0.606-4.241,1.212
	c-0.606,0.606-0.606,1.817,0,3.029c-0.606-0.605-1.212-1.212-2.424-1.212c-1.818,0-3.03,1.818-4.848,5.454
	c-1.212-0.606-1.817-1.212-1.817-1.818s-0.606-1.212-1.212-1.817c-1.212-2.424-2.424-3.636-3.03-4.242l-4.241-11.513l-0.606-0.606
	l-0.605,0.606l3.636,10.907c-0.606,0-0.606,0-1.212,0.606c0,0-0.606,0.606-0.606,1.212l-8.482-10.907h-0.606v0.606l9.089,12.119
	c0,0.605,0,0.605,0,1.212l-12.725-9.695h-0.605v0.606l13.33,10.301l0,0c0.606,1.818,1.212,2.424,1.818,3.03
	c0.605,0.606,0.605,0.606,0,1.818c-0.606,0.606-2.424,1.212-3.636,1.818c-2.424,1.212-3.636,1.212-3.636,2.424s0,2.424,0.605,3.636
	c-1.212-0.606-2.424-1.212-3.635-1.212c0,0,0,0-0.606,0c-1.212,0-1.817,0.606-2.424,0.606h-0.605c0,0-0.606,0-1.212-0.606
	c-0.606-0.606-1.212-1.212-1.818-1.818c-0.605-0.606-1.212-1.212-1.817-1.818l-4.848-13.937l-0.606-0.606l-0.605,0.606l4.848,12.725
	c-0.606,0-1.212,0-1.818,0l0,0l0,0l0,0l-8.482-11.513h-0.606v0.606l8.483,11.513c0,0.606,0,0.606-0.606,1.212l-6.665-4.848
	c0,0,0-0.606-0.605-0.606l0,0l-4.848-3.636h-0.606v0.606l4.848,3.636l0.606,10.907c-0.606-0.606-1.212-1.212-1.818-1.818l0,0l0,0
	l-2.424-6.06c0,0,0,0,0-0.606l-1.212-4.242l-0.605-0.606l-0.606,0.606l1.818,4.242l-1.212,3.636l-4.242-1.818v-1.818
	c0,0,0-0.606-0.605-0.606c-0.606,0-0.606,0-0.606,0.606v1.212c0,0,0,0-0.605,0v0.606l0.605,0.606l-0.605,6.665l-1.818,1.212
	l-0.605-5.453l1.212-1.818v-0.606h-0.606l-0.605,1.212l-0.605-3.03l-0.606-0.606l-0.605,0.606l0.605,4.242l-4.848,7.877
	c0,0,0,0-0.606,0s-0.606,0-0.606,0l3.636-12.119c0,0,0-0.606-0.606-0.606c0,0-0.606,0-0.606,0.606l-4.241,13.331
	c-1.212,0.606-1.818,2.424-2.424,3.03s-1.212,1.818-1.212,1.818s-0.606,0-0.606-0.606c-0.606-0.606-1.212-1.818-3.03-1.212
	c-0.606,0-1.212,1.212-1.818,1.818c0-0.606,0-1.818,0-2.424c-0.606-1.212-1.212-1.818-1.212-1.818c-0.606-0.606-0.606-0.606,0-1.818
	c0-0.606,0.606-1.212,1.212-2.424c0.606-0.606,1.212-1.818,1.212-2.423l11.513-8.483v-0.606h-0.606l-11.513,7.271
	c0-0.606,0-0.606,0-1.212l8.483-11.513v-0.606h-0.606l-8.483,11.513h-0.606l3.636-8.483h1.212l0.606-0.606l-0.606-0.606h-0.606
	l1.818-3.636v-0.605h-0.606l-1.818,4.847l-8.483,2.424c0-0.606,0.606-1.212,0.606-1.818l9.089-5.453c0,0,0.606-0.606,0-0.606
	c0,0-0.606-0.606-0.606,0l-9.089,5.453c0,0-0.606-0.606-1.212-0.606l7.271-7.877v-0.606h-0.606l-7.877,8.483l0,0
	c-1.817,0-3.635,1.212-5.453,2.424c-1.212,0.606-1.818,1.212-2.424,1.212c-1.818-1.818-1.818-1.818-1.818-2.424s0-1.212-1.212-1.818
	c1.212-1.212,1.818-2.424,1.818-4.242c0-1.211,0-1.817-0.606-2.423c0-0.606,0-0.606,0.606-1.818
	c0.606-0.606,1.212-1.212,1.818-1.212s0.606-0.606,1.212-0.606l9.695-1.212l0.606-0.606l-0.606-0.606h-7.271
	c0.606-0.606,0.606-1.212,0.606-1.818l0,0l0,0l0,0l7.877-3.636c0,0,0.606-0.606,0-0.606c0,0-0.606-0.606-0.606,0l-7.877,3.636
	c-0.605-1.212-1.211-1.212-1.817-1.212l7.271-6.665v-0.606h-0.606l-8.483,7.271c-1.212,0-2.424,0.606-3.636,1.212
	s-2.424,1.212-2.424,0.606s0-0.606,0-1.212c0-1.212,0-2.424-1.818-3.03l0,0c1.212-1.212,1.818-1.818,1.818-3.03
	c0-1.817-1.212-3.029-3.636-4.847c0.606-1.212,1.212-1.818,1.818-1.818s1.212-0.606,1.818-1.212c1.212-0.606,2.424-1.212,3.03-1.818
	l9.695-2.424l0.606-0.606l-0.606-0.606l-8.483,2.424c0-0.606,0-0.606,0-1.212s0-0.606-0.606-0.606l8.483-5.453
	c0,0,0.606-0.606,0-0.606c0,0-0.606-0.605-0.606,0l-9.089,5.454c-0.606,0-0.606,0-1.212,0l7.877-8.483v-0.606h-0.606l-8.483,9.089
	h-0.606c-1.212,0-2.424,1.212-3.03,1.212s-0.606,0.606-0.606,0.606s-0.606,0-1.212-0.606s-1.212-2.424-1.817-4.242
	c-0.606-2.424-1.212-3.635-1.818-4.241c-0.606,0-0.606,0-1.212,0s-1.212,0-2.424,0.606c2.424-1.818,3.636-3.636,3.03-5.454
	c0-1.212-1.212-2.424-3.636-3.03c0.606-1.212,0.606-1.212,1.212-1.818s0.606-0.606,1.212-1.212c1.212-0.606,1.818-1.212,2.424-1.818
	l11.513-3.635l0.606-0.606l-0.606-0.606l-10.301,3.029c0-0.605,0.605-0.605,0-1.212c0,0,0,0,0-0.605l9.089-6.666v-0.606h-0.606
	l-9.695,6.666h-0.606l0,0l7.877-9.695v-0.606h-0.606l-8.483,10.907c-0.606,0-0.606,0-1.212,0.605
	c-1.212,0.606-1.818,1.212-2.424,1.818s-0.606,0.606-1.212,0.606h-0.606c-0.606,0-1.212-1.818-1.818-3.029
	c-0.606-1.818-1.212-3.03-2.424-3.03l0,0c-0.606,0-1.212,0-1.212,0c0.606-1.212,0.606-2.424,0.606-3.636
	c-0.606-2.424-3.03-3.636-7.877-4.242c0-1.818,0-1.818,0.606-2.424c0-0.606,0.606-0.606,1.212-1.818
	c1.212-1.212,1.818-2.423,1.818-3.635l9.089-6.666v-0.606h-0.606l-8.483,6.06c0,0,0,0,0-0.606s-0.606-0.606-0.606-0.606l7.271-9.089
	v-0.606h-0.606l-7.271,9.695h-0.606l4.847-11.513v-0.606h-0.606l-4.847,11.513c-1.212,0-1.818,0.606-3.03,1.212
	s-1.818,1.818-1.818,2.423c0,0.606,0,0.606-0.606,0.606c0,0-0.606,0-1.212,0c-1.212,0-3.03-1.818-4.242-3.636
	c-1.818-1.818-3.029-3.03-4.241-3.03c-0.606,0-1.212,0-1.818,0.606c0-1.212,0-1.818,0-2.424c-0.606-1.818-3.03-2.424-6.06-3.03
	c-0.606-2.424,1.212-5.454,3.636-6.666l0,0l0,0c0-0.605,0-0.605,0-1.212l8.483-6.059v-0.606h-0.606l-7.877,5.454
	c0-0.606,0-0.606-0.606-1.212l6.06-7.877v-0.606h-0.606l-6.06,7.877h-0.606l3.636-9.695v-0.606h-0.606l-4.242,10.301
	c-1.818,0.606-3.636,1.818-4.848,3.029l-0.606,0.606c-0.606,0.605-1.212,0.605-1.212,1.211c-0.606,0.606-0.606,0.606-1.211,0.606
	c0,0-0.606,0-1.212,0s-1.212-1.212-2.424-1.817c-0.606-0.606-1.212-1.818-2.424-1.818l0,0c-1.212,0-1.818,0.606-2.424,1.212
	c0-1.212,0-2.424-0.606-3.03c-0.606-1.818-3.03-2.424-5.454-2.424l0,0c-0.606-1.818,0.606-4.848,2.424-6.06l0,0l0,0
	c0-0.606,0-1.212,0-1.818l2.424-2.423c1.212,0,2.424,0,3.636,0c6.059,0,13.937-1.212,16.36-9.695v-0.606h-0.606
	c-0.606,0-1.212-0.606-1.818-0.606c-1.818,0-3.636,1.212-5.454,2.424s-3.03,2.424-5.453,2.424c-0.606,0-1.212,0-1.818,0l0,0v-0.606
	h-0.606l-1.212,1.212c-0.606,0-1.212,0-1.818,0l2.424-3.03v-0.606h-0.606l-3.03,3.636c-0.606,0-1.212,0-2.424,0l2.424-5.454v-0.606
	h-0.606l-2.424,5.454c-0.606,0-0.606,0-1.212,0c-1.818,0-3.03-0.606-4.242-0.606c-0.605,0-1.817,0-3.029,0
	c-3.636,0-10.907,0.606-16.36,2.424c-0.606,0-0.606-0.606-1.212-0.606c0.606-0.606,1.817-0.606,2.424-1.212
	c1.817-1.212,3.635-2.424,3.635-4.848s0-4.848-1.818-7.271c-1.817-2.424-4.241-5.453-6.665-6.059h-0.606v0.606
	c0,1.212,0.606,1.818,1.212,3.029c0,0.606,0.606,0.606,0.606,1.212c0.606,1.212,0.606,1.818,1.212,3.03s1.212,2.424,1.212,3.03
	c1.212,2.424-0.606,3.636-2.424,5.454c-0.606,0.606-0.606,0.606-1.212,1.212s-1.212,1.212-1.818,1.818l0,0c-1.212,0-1.818,0-2.424,0
	l0,0l0,0c1.212-1.818,2.424-4.242,2.424-6.666c0-0.606,0-0.606,0-1.212c0-1.818,0-3.03,0-4.848s-1.212-3.635-1.818-5.453l-3.03-3.03
	c-0.606-0.606-0.606-1.818-1.212-2.424c0-0.606-0.606-0.606-0.606-1.212c0,0,0-0.606-0.606-0.606
	c-1.212-1.818-1.818-4.242-3.03-4.242c-0.606,0-0.606,0-1.212,0.606l0,0v0.606c0.606,0.606,0.606,1.818,1.212,2.424
	c0.606,1.212,1.212,2.424,1.818,3.636s1.212,3.03,1.818,4.242c1.212,3.03,1.818,6.059,1.212,9.695c0,1.818-1.212,3.636-1.818,5.454
	c-1.212-1.212-1.212-2.424-1.818-3.636c-0.606-1.818-1.212-3.636-4.242-4.848c-4.241-1.818-6.665-2.423-8.483-0.606
	c-1.818,1.818-1.212,5.454-1.212,8.483l0,0c0,0-0.606,0-0.606-0.606c-1.212-0.606-2.424-1.212-3.636-0.606l0,0l0,0
	c0,0.606-0.606,1.212-1.212,2.424v0.606h0.606c0.606,0,1.212,0,1.818,0s0.606,0,1.212,0s1.212,0.606,1.818,1.212
	c0.606,0,0.606,0.606,1.212,0.606l0,0c0,0.606,0,0.606,0,1.212c0,1.212-1.212,2.424-2.424,3.636l-0.606-0.606
	c-0.606-0.605-1.818-1.211-2.424-1.817l-0.606-0.606c-0.606-0.606-0.606-1.212-1.212-1.212h-0.606l-0.606,0.606
	c-1.212,1.818-1.212,2.424-1.818,3.029c0,0.606,0,0.606,0,0.606c0.606,0.605,0.606,0.605,1.212,0.605l0,0h0.606
	c0.606,0,1.212,0.606,1.818,1.212l0.606,0.606c0,0-0.606,0-0.606,0.606c-2.424,1.818-4.848,4.242-4.848,6.06
	c0,1.212,1.212,2.424,3.636,3.636c0.606,0.606,1.818,0.606,3.636,0.606c-0.606,1.212-1.818,2.424-2.424,3.636
	c-2.424,2.423-5.454,4.241-8.483,4.847c-1.212,0.606-3.03,0.606-4.848,1.212c-1.212,0.606-2.424,0.606-3.636,1.212
	c-0.606,0-1.818,0.606-2.424,0.606h-0.606v0.606c0,0.606,0,1.212,0.606,1.818c1.212,1.212,3.03,0.606,5.454,0
	c0.606,0,0.606,0,0.606,0c0.606,0,1.212,0,1.212,0c1.212,0,1.818,0,3.03-0.606c0.606,0,0.606,0,1.212,0
	c1.818-0.606,3.635-1.212,5.453-1.818c1.212-1.212,2.424-1.818,3.636-3.03c0.606-0.606,0.606-0.606,1.212-1.212
	c1.818-1.817,3.03-3.635,3.636-6.059c0.606,0,0.606,0,1.212,0h0.606c0,1.212,0,3.03,0,4.242c0,0.605,0,1.211-0.606,1.817
	c-1.818,1.818-1.818,4.242-4.848,4.848c-1.212,0.606-2.424,0.606-3.636,0.606s-2.424,0.606-3.03,0.606s-0.606,0-1.212,0
	c-1.211,0-2.423,0.606-3.029,1.212l-0.606,0.606l0.606,0.606c1.818,1.212,4.847,1.818,7.271,1.818c0.606,0,1.212,0,1.818,0
	c3.03,0,5.454-1.818,7.271-3.636c0.606-0.606,0.606-0.606,0.606-1.212c-0.606,3.636,0,7.877,0.606,12.119
	c0.606,6.06,1.818,11.513-0.606,14.543c-1.212,1.212-3.03,2.423-5.454,2.423h-0.606l3.03,3.636h0.606
	c1.818,0,3.636-1.212,4.848-2.424c3.635-4.241,4.241-13.937,3.635-19.39c0-1.212,0-2.423-0.606-3.635
	c-0.606-2.424-0.606-5.454,0-7.877c0.606-1.212,1.212-2.424,2.424-3.636c0.606-0.606,0.606-1.212,1.212-1.818c0,0,0,0,0,0.606
	c0,1.212,0,2.424,0.606,3.03c0.606,1.212,2.424,1.212,4.242,1.212c1.212,0,2.424,0,3.636-0.606c-1.212,1.212-2.424,3.03-1.818,4.848
	c0.606,2.424,1.818,2.424,3.03,3.03c0.606,0,1.212,0,1.818,0.606c1.212,1.818,0,3.029-0.606,4.847
	c-0.606,1.212-1.212,2.424-1.212,3.636l-9.089,6.06v0.606c0,0,0,0,0.606,0c0,0,0,0,0.606,0l8.483-6.06c0,0,0,0.606,0.606,0.606
	l-7.877,10.301v0.606c0,0,0,0,0.606,0h0.606l6.666-8.483c0,0,0,0,0,0.606l0,0l-4.242,9.695c0,0,0,0.605,0.606,0.605l0,0
	c0,0,0.606,0,0.606-0.605l4.242-10.301c2.423,0,3.029-1.212,3.029-2.424c0.606-0.606,0.606-1.212,1.212-1.818
	s1.212-0.606,1.818-0.606c0,0,0.606,0,0.606,0.606c0.606,0.606,1.212,0.606,3.03,1.212c1.212,0,1.818,0,3.03-0.606
	c0,0.606,0,1.212,0,1.212c0.606,2.424,1.818,3.03,3.03,3.03c0.606,0,1.212,0.606,1.818,1.212c1.212,1.818,0,3.03-1.212,4.848
	c-0.606,1.212-1.818,3.029-1.818,4.847l-8.483,6.06v0.606c0,0,0,0,0.606,0c0,0,0,0,0.606,0l8.483-6.06c0,0,0,0.606,0.606,0.606
	l-6.666,9.089v0.606c0,0,0,0,0.606,0h0.606l6.666-9.089l0,0l0,0l0,0l-5.454,11.513v0.606l0,0c0,0,0.606,0,0.606-0.606l4.242-10.907
	c1.817,0,2.424-1.212,3.029-2.424c0.606-0.606,0.606-1.212,1.818-1.818c1.212-0.605,1.212-0.605,1.818-0.605
	c0,0,0.606,0,0.606,0.605c0.606,0.606,1.212,1.212,3.03,1.212c0.606,0,1.212,0,1.818,0c0,0.606,0,1.212,0,1.212
	c0.606,2.424,1.818,3.03,3.03,3.636c0.606,0,1.212,0.606,1.818,1.212c0,0.606-0.606,1.818-1.818,2.424
	c-1.212,1.212-2.424,3.03-3.03,4.242l-9.695,3.636l-0.606,0.606c0,0,0,0.605,0.606,0.605l0,0l9.089-3.635c0,0.606,0,1.212,0,1.818
	l-7.877,6.665v0.606c0,0,0,0,0.606,0c0,0,0,0,0.606,0l7.877-6.665c0,0,0,0.606,0.606,0.606l0,0l0,0l0,0l-6.06,8.483v0.606
	c0,0,0,0,0.606,0h0.606l6.06-8.483c0,0,0,0,0.606,0c1.818,0,3.029-1.211,4.241-1.817c0.606-0.606,1.212-1.212,2.424-1.212
	c0.606,0,1.212-0.606,1.818-0.606s0.606,0,1.212,0.606s1.212,1.212,3.03,1.818c0.606,0,1.212,0,1.212,0l-0.606,0.606
	c-0.606,2.423,0.606,3.029,1.212,3.029c1.818,1.212,1.818,1.212,1.818,1.818s-1.212,1.212-2.424,2.424
	c-2.424,1.818-4.848,3.636-5.454,5.454l-12.725,4.848l-0.606,0.605c0,0,0,0.606,0.606,0.606l0,0l12.119-4.847v0.606l-10.907,9.089
	v0.606c0,0,0,0,0.606,0c0,0,0,0,0.606,0l11.513-9.089l0,0l-8.483,11.513v0.606c0,0,0,0,0.606,0h0.606l9.089-12.119
	c1.212,0,3.03-0.606,4.242-1.818c1.212-0.606,1.818-1.212,2.424-1.212s1.212,0,1.818,0c0,0,0,0,0.606,0.606
	c0,0.606,0.606,1.212,1.817,1.212h0.606c-0.606,0.606-1.212,0.606-1.212,1.212c-1.212,2.424,0,3.029,1.212,3.635
	c0.606,0.606,0.606,0.606,0.606,1.212c-0.606,0.606-1.818,1.212-3.03,1.818c-1.817,0.606-4.241,1.818-5.453,3.636l-10.907,0.606
	c0,0-0.605,0-0.605,0.606c0,0,0,0.606,0.605,0.606l0,0l10.301-0.606c0,0.606,0,1.212,0,1.212l-10.301,4.242c0,0-0.605,0.606,0,0.606
	c0,0,0,0.606,0.606,0.606l0,0l10.301-4.242l0.606,0.606l-9.089,7.271v0.606c0,0,0,0,0.606,0c0,0,0,0,0.606,0l10.301-7.877h0.606
	c1.212,0,2.423-0.606,3.635-0.606c1.212-0.606,1.818-0.606,3.03-0.606l0,0c1.818,0,1.818,0,1.818,0.606s0.606,1.212,1.818,2.424
	c0.606,0.606,1.212,0.606,1.212,0.606l0,0c-0.606,0.606,0,1.818,1.212,4.241c0.606,1.212,1.818,3.03,1.818,4.242
	s-0.606,1.212-1.212,1.212s-1.818,0-3.03,1.212c-0.606,0.606-1.212,0.606-1.212,1.212l-12.119,1.212c0,0-0.606,0-0.606,0.606
	c0,0,0,0.606,0.606,0.606l0,0l10.907-1.212c-0.606,0.606-0.606,1.212-0.606,1.818l-10.301,4.242c0,0-0.606,0.605,0,0.605
	c0,0,0,0.606,0.606,0.606l0,0l10.301-4.241l0.606,0.606l-9.089,6.665v0.606c0,0,0,0,0.606,0c0,0,0,0,0.606,0l9.695-7.877
	c1.212,0,2.424-0.606,4.242-1.212c1.211,0,1.818-0.606,2.423-0.606c0.606,0,1.212-0.606,2.424,0c-1.212,3.03-1.212,5.453,0,6.665
	c0.606,0.606,1.212,1.212,2.424,1.212c-0.606,0.606-1.212,1.818-1.818,2.424c0,0.606,0.606,1.818,2.424,3.636
	c1.212,1.212,2.424,3.03,2.424,3.636c0,1.212,0,1.212-1.212,1.818c-0.606,0-1.818,0.606-3.03,1.818c0,0.605-0.606,0.605-0.606,1.211
	l-11.513,3.03l-0.606,0.606c0,0,0,0.606,0.606,0.606l0,0l10.301-2.424c0,0.606-0.606,1.212-0.606,1.818l-9.695,5.454
	c0,0-0.606,0.606,0,0.606c0,0,0,0,0.606,0l0,0l9.089-5.454l0,0l0.606,0.606l-9.695,9.089v0.606c0,0,0,0,0.606,0c0,0,0,0,0.606,0
	l7.877-8.483c1.212,0,2.424-1.212,4.242-2.424c1.211-0.606,1.817-0.606,1.817-1.212c0.606-0.606,1.212-0.606,2.424-0.606l0,0
	c-0.606,3.03,0,4.848,1.212,6.06c0.606,0.606,1.212,1.212,2.424,1.212c0.606,0,1.212,0,2.424-0.606c0,0.606-0.606,1.212-0.606,1.818
	s1.212,1.818,3.03,3.03c1.212,0.606,3.03,1.818,3.03,3.03s0,1.212-0.606,1.818s-1.212,1.211-2.424,2.423c0,0,0,0,0,0.606
	l-12.119,6.06c0,0-0.605,0.606,0,0.606c0,0,0,0,0.606,0l0,0l10.907-5.454c0,0.606-0.606,1.818-0.606,2.424l-8.483,8.483v0.606
	c0,0,0,0,0.606,0s0,0,0.606,0l7.877-8.483l0,0c0,0.606,0.606,0.606,1.212,0.606l-5.454,10.301v0.605l0,0h0.606l6.06-10.907
	c1.212-0.606,1.818-1.818,3.029-3.03c0.606-0.606,1.212-1.212,1.818-1.212c0.606-0.606,0.606-0.606,1.818-1.212
	c0.606,4.242,1.818,6.06,3.636,6.06c1.212,0,2.424-0.606,3.636-1.818c0.606,0.606,1.212,1.212,2.424,1.818s3.03,1.212,3.03,2.424
	c0.605,1.212,0,1.818-0.606,2.424s-1.212,1.212-1.818,3.03v0.606l-9.089,7.877v0.606c0,0,0,0,0.606,0c0,0,0,0,0.606,0l7.877-6.666
	c0,1.212,0,2.424,0,3.03l-5.454,8.483v0.606l0,0h0.606l4.848-7.877h0.606l0,0c0.606,0,1.211-0.606,1.817-0.606l-3.029,9.695
	c0,0,0,0.606,0.606,0.606l0,0c0,0,0.606,0,0.606-0.606l4.241-12.725c0.606-0.606,0.606-1.212,1.212-1.818s1.818-1.212,3.03-1.818
	c0.606-0.606,1.212-0.606,1.818-1.212c1.818,2.424,3.636,3.03,5.454,3.03c1.212,0,2.424-0.606,3.636-2.424v0.606
	c0.606,0.606,1.212,0.606,3.029,0.606c0.606,0,1.818,0,2.424,0s1.818,0,2.424,0c2.424,0,2.424,0,3.03,0.606
	c1.211,0.606,0.606,1.212,0.606,1.817c0,0.606-0.606,1.818-0.606,3.03c0,0.606,0,1.212,0.606,1.818l-3.03,13.937
	c0,0,0,0.606,0.606,0.606l0,0c0,0,0.606,0,0.606-0.606L396,284.792c0.605,0.606,1.212,1.212,1.817,1.212l1.212,12.119
	c0,0,0,0.606,0.606,0.606l0,0l0.605-0.606l-1.817-12.119c0,0,0.605-0.606,0.605-1.212l4.848,12.119c0,0,0,0.605,0.606,0.605l0,0
	c0,0,0.605-0.605,0-0.605l-5.454-13.331c0-0.606,0.606-1.818,0.606-3.03c0.605-1.212,0.605-1.818,0.605-2.423
	c0-0.606,0-1.212,1.212-2.424c3.03,3.029,5.454,3.635,6.666,1.817c1.212-1.211,1.817-3.029,1.817-6.059
	c0.605,0.606,0.605,1.212,1.212,1.818c0.605,0.606,2.424,0,4.241-0.606c1.818,0,3.03,0,4.242,0c0.605,0,0.605,0,0.605,0
	c1.212,0.606,1.212,1.212,1.212,1.818s0,1.818,0.606,3.636l-3.03,11.513c0,0,0,0.606,0.606,0.606l0,0c0,0,0.605,0,0.605-0.606
	l3.03-10.907c0.605,0.606,1.212,1.818,1.817,2.424l0.606,10.301c0,0,0,0.606,0.605,0.606l0,0c0,0,0.606,0,0.606-0.606l-0.606-9.695
	h0.606c0.605,0,0.605,0,1.212-0.606l0,0l3.029,9.089c0,0,0,0.606,0.605,0.606l0,0l0.606-0.606l-3.636-11.513
	c0-1.212,0-2.424-0.605-4.242c0-1.212,0.605-2.424,0.605-3.03c0.605-0.606,0.605-1.212,0.605-1.818
	c3.636,0.606,5.454-0.606,6.666-2.424c0.605-1.212,0.605-2.424,0.605-4.242c0.606,0.606,1.212,1.212,1.818,1.212
	c0.605,0,1.817-0.606,3.636-1.818c1.212-1.212,3.029-2.423,3.636-2.423l0,0c1.211,0,1.211,0.606,1.817,1.211
	c0,0.606,0.605,1.818,1.817,3.03c0.606,0.606,0.606,0.606,1.212,1.212l3.03,13.331c0,0,0,0.606,0.605,0.606l0,0l0.606-0.606
	l-3.03-12.725c0.606,0.606,1.212,0.606,1.818,0.606c0,0,0,0,0.605,0l6.666,11.513c0,0,0,0,0.605,0l0,0c0,0,0.605-0.606,0-0.606
	l-6.665-11.513l0,0c0-0.606,0-0.606,0-1.212l10.301,9.695c0,0,0,0,0.605,0c0,0,0,0,0.606,0v-0.606l-11.513-11.513
	c-0.606-0.605-0.606-1.212-1.212-2.423c-0.606-1.212-0.606-1.818-0.606-1.818c-0.605-0.606-0.605-1.212-0.605-2.424
	c4.241,0.606,6.06,0,7.271-1.818c0.605-0.606,0-1.818,0-3.03c0.605-0.606,0.605-0.606,1.212-0.606c0.605,0,1.211,1.212,1.817,2.424
	c0.605,1.212,1.817,3.03,3.029,4.242l3.03,13.937c0,0,0,0.606,0.605,0.606l0,0l0.606-0.606l-3.03-13.331c0.606,0,0.606,0,1.212,0
	h0.606l7.271,12.119c0,0,0,0,0.605,0l0,0c0,0,0.606-0.606,0-0.606l-7.877-12.725c0-0.606,0-0.606,0.605-1.212l10.907,10.907
	c0,0,0,0,0.605,0c0,0,0,0,0.606,0v-0.606l-12.119-11.513c0-0.606-0.605-1.212-0.605-2.424c0-0.606-0.606-1.818-0.606-2.424
	c0-1.818,0-1.818,0.606-1.818c0.605,0,1.212-0.606,1.817-1.818c1.212-1.211,1.212-3.029,1.212-4.847l0,0
	c0.606,0,1.212-0.606,1.818-0.606c0.605-0.606,0.605-0.606,1.212-0.606c0.605,0.606,0.605,1.818,1.212,2.424
	c0.605,1.818,1.212,3.635,2.424,4.847v13.331c0,0,0,0.606,0.605,0.606l0,0c0,0,0.605,0,0.605-0.606v-12.725
	c0.606,0,1.212,0.606,1.818,0.606h0.605l0,0l4.242,13.331c0,0,0,0.606,0.605,0.606l0,0l0.606-0.606l-6.06-12.725
	c0-0.606,0.606-0.606,0.606-1.212l7.877,13.331c0,0,0,0,0.605,0l0,0c0,0,0.606-0.606,0-0.606l-0.605-0.606v-13.331
	c0.605,0.606,1.212,1.212,1.817,1.212l0,0l2.424,7.271l-1.817,2.424v0.606c0,0,0,0,0.605,0h0.606l1.212-1.818l0.605,2.424l0,0
	c0,0-0.605,0.606,0,0.606c0,0,0,0,0.606,0l0,0v0.606c0,0,0,0.606,0.605,0.606l0,0l0.606-0.606v-0.606l2.424-1.212l-1.212,4.242
	c0,0,0,0.605,0.605,0.605l0,0c0,0,0.606,0,0.606-0.605l1.817-5.454l0.605-0.606l0.606,0.606c0,0,0,0,0.605,0l0,0
	c0,0,0.606-0.606,0-0.606l-0.605-0.606l1.817-1.212l-0.605,4.242l-3.029,3.03h-0.606c0,0-0.605,0-0.605,0.606l0,0l-1.818,1.211
	v0.606c0,0,0,0,0.606,0c0,0,0,0,0.605,0l2.424-2.424h2.424c0,0,0,0.606,0.605,0.606l0,0c0,0,0.606,0,0.606-0.606l0,0h1.212
	l-3.03,5.454l-3.029,1.212c0,0-0.605,0.606,0,0.606c0,0,0,0.606,0.606,0.606l0,0l12.118-5.454l0,0l0,0c0.606,0,0.606,0,1.212,0.606
	l-9.089,7.271h-1.818c-0.605,0-0.605,0-0.605,0.606c0,0,0,0.606,0.605,0.606h0.606l-1.212,0.606v0.606c0,0,0,0,0.605,0
	c0,0,0,0,0.606,0l1.817-1.818h8.483c-1.212,0.606-1.817,1.818-1.817,3.03l-10.302,3.029l-0.605,0.606c0,0,0,0.606,0.605,0.606
	h-0.605c0,0-0.605,0-0.605,0.606c0,0,0,0.606,0.605,0.606l5.453,1.818l-2.424,1.818c0,0-0.605,0.606,0,0.606c0,0,0,0,0.606,0l0,0
	l3.636-1.818l5.453,1.818c-0.605,0.606-1.212,0.606-1.817,1.818l-8.483-0.606l-3.03-2.424h-0.605v0.606l1.817,1.818h-3.635
	c0,0-0.606,0-0.606,0.606c0,0,0,0.606,0.606,0.606h4.847l3.636,3.03l-4.847,3.03l-4.242-1.818l-0.605-1.212c0,0-0.606-0.606-0.606,0
	c0,0-0.605,0.606,0,0.606l0,0h-0.605h-0.606v0.606l1.818,0.606l3.029,4.847l-5.453-0.606l0,0l-3.636-3.029h-0.606v0.606
	l10.907,10.301c0,0.606,0,0.606,0,1.212l-13.937-7.271h-0.606v0.606l15.149,7.877c0.605,0.606,0.605,1.212,1.212,1.818
	c0.605,0.605,1.211,1.212,1.211,1.817c0.606,1.212,0.606,1.212,0,1.818c0,0.605-0.605,0.605-1.211,1.817c0,0.606,0,1.212,0,1.818
	c-0.606-0.606-1.818-1.212-2.424-1.212c-1.818,0-2.424,1.212-3.03,2.424c0,0.605-0.605,1.212-0.605,1.212
	c-0.606,0-1.212-1.212-1.818-1.818c-1.212-1.212-2.424-3.029-4.241-3.636l-6.06-10.301c0,0-0.605-0.606-0.605,0
	c0,0-0.606,0.606,0,0.606l5.453,9.089c-0.606,0-1.212,0-1.818,0.605l0,0l0,0c0,0,0,0,0,0.606l-10.301-8.483h-0.605v0.606
	l9.694,8.483c0,0.606,0,1.212,0.606,1.818l-12.725-6.06h-0.606v0.605l13.937,6.666l0.606,0.605c0.605,0.606,1.212,1.818,1.212,2.424
	c0.605,1.818,0,1.818,0,2.424c-0.606,0.606-1.212,1.212-1.212,2.424c-0.606,1.817-0.606,3.636,0,5.453c0,0-0.606,0-0.606-0.605
	c-0.605,0-0.605,0-1.212,0c-1.817,0-2.423,1.212-2.423,2.424c0,0.605-0.606,1.212-1.212,1.212c-1.818,0.605-3.03-1.212-4.242-3.03
	c-0.605-0.605-1.212-1.817-2.424-2.424l-4.848-10.301c0,0-0.605-0.605-0.605,0c0,0-0.605,0.606,0,0.606l4.241,9.089
	c-0.605,0-0.605,0-1.212,0c-0.605,0-1.212,0-1.817,0.605l0,0l-7.877-6.665h-0.606v0.606l7.271,8.482c0,1.212,0,1.818,0.605,2.424
	l-10.906-7.271h-0.606v0.606l13.937,9.089c0.606,0.606,0.606,0.606,0.606,1.212c0.605,2.424,0.605,2.424,0,3.03
	c-0.606,0.605-1.212,1.212-1.212,2.423c0,0.606,0,1.818,0,2.424h-0.606c-0.605,0-0.605,0-1.212,0c-1.817,0-2.424,1.212-2.424,2.424
	c0,0.606-0.605,1.212-1.212,1.212c-1.817,0.606-3.029-1.212-4.241-3.029c-0.605-0.606-0.605-0.606-1.212-1.212l-3.636-12.725
	l-0.605-0.606l-0.606,0.606l3.03,11.513c-0.606-0.605-1.212-0.605-2.424-0.605h-0.606l-6.665-9.695c0,0-0.605-0.606-0.605,0
	c0,0-0.606,0.605,0,0.605l6.059,9.09l0,0l0,0l0,0c0,0.605,0,1.212,0,1.817l-9.089-7.877h-0.605v0.605l10.301,9.089
	c0.605,0.606,0.605,1.212,1.212,1.818c0.605,0.605,1.212,1.212,1.817,2.424c0.606,2.424,0.606,2.424,0,3.029
	c-0.605,0.606-1.212,1.212-1.212,2.424c-0.605,2.424,0,4.848,1.212,6.665c0,0,0,0-0.605,0c-2.424,0-3.03,1.212-3.03,2.424
	c0,0.606-0.605,1.212-0.605,1.212c-1.212,0.606-3.03-0.605-4.242-2.424l-0.605-0.605l-5.453-12.725c0,0-0.606-0.606-0.606,0
	c0,0-0.605,0.605,0,0.605l4.848,11.514c-0.605-0.606-1.212-0.606-2.424-0.606h-0.605l-7.878-9.089h-0.605v0.605l7.271,9.09l0,0l0,0
	l0,0c0,0.605,0,1.212,0,1.212l-10.302-7.271h-0.605v0.605l11.513,7.877c0.606,0.606,1.212,1.212,1.212,1.818
	c0.606,0.605,1.212,1.212,1.818,2.424c0.605,1.817,0.605,2.424,0.605,2.424c-0.605,0.605-1.212,1.212-1.212,2.424
	c-0.605,2.424,0.606,4.848,1.818,6.665c-2.424-1.817-4.848-3.029-6.666-3.029c-1.212,0-1.817,0.605-2.424,1.212
	c-0.605,1.212-1.212,3.029-0.605,5.453c-1.212,0-1.818,0-2.424-0.606c-0.606,0-1.212-0.605-1.818-0.605l-8.482-12.725
	c0,0-0.606-0.606-0.606,0c0,0-0.605,0.605,0,0.605l7.271,10.302c-1.212-0.606-2.424-1.212-3.029-1.212c-0.606,0-0.606,0-0.606,0
	l-8.483-7.271h-0.605v0.605l8.483,7.271c0,0.606,0,1.212,0.605,2.424l-13.937-3.03h-0.606v0.606l13.331,6.06
	c0,0.605,0.606,0.605,0.606,1.212c1.211,1.212,1.817,1.817,3.029,1.817c0.605,0.606,1.212,0.606,1.212,1.818
	c0,0.605-1.818,3.029-3.03,4.241c-2.423,2.424-3.029,3.636-3.029,4.241v0.606c-1.817,0-3.636,0.605-4.241,1.817
	c-1.212,1.212-1.212,3.03-0.606,6.06c-0.605,0-1.212,0.606-1.817,0.606c-0.606,0.605-1.818,1.212-3.03,1.212
	c-0.605,0-1.212,0-1.817,0l-10.907-6.666h-0.605v0.606l9.089,5.453c-1.817,0-3.029,0.606-3.029,1.212l-9.695-2.424
	c0,0-0.606,0-0.606,0.606c0,0,0,0.605,0.606,0.605l9.695,2.424c0,0.605,0.605,1.212,1.817,1.817l-12.119,0.606
	c0,0-0.605,0-0.605,0.605c0,0,0,0.606,0.605,0.606l0,0l13.937-0.606c0.606,0,0.606,0.606,1.212,0.606
	c1.818,0.605,3.03,0.605,3.636,0.605c0.606,0,1.212,0,1.818,1.212c0.605,0.606,0,2.424-0.606,3.636c-0.605,1.818-0.605,3.03,0,3.636
	c-3.636,0.606-6.06,1.212-6.665,3.029c-0.605,1.818,0.605,3.636,3.029,5.454c-1.212,0.605-1.212,0.605-2.424,1.212
	c-0.605,0-1.212,0-1.817,0.605c-1.817,0-3.029,0.606-3.636,0.606l-11.513-1.818c-0.605,0-0.605,0-0.605,0.606
	c0,0,0,0.605,0.605,0.605l10.301,1.818c-0.605,0.605-0.605,0.605-0.605,1.212c0,0.605,0,0.605,0.605,0.605l-12.119,1.818
	L396,440.519c0,0,0,0.606,0.605,0.606l0,0l12.726-1.818c0.605,0,0.605,0.606,1.212,0.606l-12.725,5.453c0,0-0.606,0.605,0,0.605
	c0,0,0,0.606,0.605,0.606l0,0l13.937-6.06h0.606c1.817,0,2.423,0,3.029-0.605c0.605,0,0.605,0,0.605,0s0.606,0,1.212,0.605
	c0.606,0.605,0.606,2.424,0.606,3.636c0,0.605,0,1.817,0,2.424c-2.424,0.605-3.636,1.817-4.242,3.636
	c-0.605,1.817,0,3.636,2.424,6.665c-0.605,0-1.212,0.605-1.212,1.818c-0.605,0.605-1.212,1.817-1.817,2.423l0,0l-15.755-0.605l0,0
	c0,0-0.605,0-0.605,0.605c0,0,0,0.606,0.605,0.606l13.331,0.605c-1.212,0.606-2.424,1.212-2.424,1.818l-11.513,3.029l-0.606,0.606
	c0,0,0,0.605,0.606,0.605l0,0l10.907-3.029l0,0c0,0.605,0.605,0.605,0.605,1.212l-9.695,6.06c0,0-0.605,0.605,0,0.605
	c0,0,0,0,0.606,0l0,0l10.907-6.06c0.605,0,1.212,0,1.817,0c0.606,0,1.817,0,2.424,0c1.817,0,3.029-0.605,3.636-1.212
	c1.212-0.605,1.212-0.605,2.424,0c0.605,0.606,1.212,2.424,1.817,3.636c0.606,1.212,0.606,2.424,1.212,3.03v0.605
	c0,0.606,0.606,1.818,2.424,3.636c1.212,1.212,3.03,3.029,3.03,3.636c0,1.212,0,1.212-1.212,1.212c-0.606,0-1.818,0.605-3.03,1.817
	c-1.212-0.605-1.817,0.606-1.817,1.213l-10.907,3.635l-0.605,0.606c0,0,0,0.605,0.605,0.605l0,0l10.301-3.636
	c0,0.606,0,0.606,0,1.212c0,0,0,0.606,0.606,0.606l-10.301,7.271v0.605c0,0,0,0,0.605,0c0,0,0,0,0.605,0l10.302-7.271
	c0,0,0,0,0.605,0l0,0h0.606l-8.483,10.302v0.605c0,0,0,0,0.605,0h0.606l9.695-12.119c0.605,0,1.212-0.605,2.424-1.211
	c1.211,0,1.817-0.606,1.817-0.606c0.605-0.605,1.212-0.605,3.029,0c0,3.029,0.606,4.848,1.818,6.06
	c0.605,0.605,1.817,1.212,3.029,1.212c0.606,0,0.606,0,1.212,0c-0.605,0.605-1.212,1.817-1.212,2.424
	c0,0.605,1.212,1.817,3.03,3.029c1.212,1.212,3.636,2.424,3.636,3.03c0.605,1.212,0,1.212-0.606,1.817
	c-0.605,0.606-1.817,0.606-2.424,1.818c-0.605,0.605-0.605,1.211-0.605,1.817l-8.483,4.241c0,0-0.606,0.606,0,0.606c0,0,0,0,0.605,0
	l0,0l7.271-3.636c0,0.605,0,1.212,0,1.817c0,0,0,0,0.606,0.606l-6.666,6.06v0.605c0,0,0,0,0.606,0c0,0,0,0,0.605,0l6.666-6.06
	c0,0,0,0,0.605,0c0.606,0,0.606,0,1.212-0.605l-5.453,9.089v0.606l0,0h0.605l6.06-10.302c0.605-0.605,1.212-0.605,1.817-1.212
	c1.212-0.605,1.212-0.605,1.818-1.211c0.605-0.606,1.212-0.606,2.424-0.606c0.605,4.241,2.424,6.665,4.848,6.665
	c0.605,0,1.817-0.605,3.029-0.605c0,0.605,0,1.212,0,1.817c0,0.606,1.212,1.212,3.636,2.424c1.817,0.606,3.636,1.818,3.636,2.424
	c0.605,1.212,0.605,1.212,0,1.818c-0.606,0.605-1.212,1.212-1.818,2.424c0,0.605,0,1.212-0.605,2.424l-7.877,7.271v0.606
	c0,0,0,0,0.605,0c0,0,0,0,0.606,0l7.271-6.665c0,0.605,0,1.212,0.606,1.212c0,0,0,0,0.605,0l-4.847,9.089v0.605l0,0h0.605
	l4.848-9.089l0,0c0.605,0,0.605,0,1.212-0.605l-3.03,10.906c0,0,0,0.606,0.606,0.606l0,0c0,0,0.605,0,0.605-0.606l3.03-12.118
	c0.605-0.606,1.212-1.212,1.817-1.818c0.606-0.605,1.212-1.212,1.212-1.212c0.606-0.605,0.606-0.605,1.818-1.212
	c1.212,3.636,3.029,5.454,4.848,5.454c1.211,0,3.029-1.212,4.241-3.03c0,1.212,0,1.818,0.605,3.03
	c0.606,0.605,1.818,0.605,5.454,1.211c2.424,0,4.848,0.606,5.453,0.606c1.212,0.605,0.606,0.605,0.606,1.817
	c0,0.606-0.606,1.212-0.606,1.818l-6.665,8.483v0.605c0,0,0,0,0.605,0h0.606l5.453-7.271c0,0.606,0.606,1.212,0.606,1.818
	l-2.424,7.877c0,0,0,0.605,0.605,0.605l0,0c0,0,0.606,0,0.606-0.605l3.029-8.483c0,0.606,0.606,0.606,1.212,0.606l-0.605,8.482
	c0,0,0,0.606,0.605,0.606l0,0c0,0,0.606,0,0.606-0.606l0.605-8.482c1.212,0,1.818-1.818,2.424-4.848
	c0.605-0.606,0.605-1.212,0.605-1.818c0-0.605,0-1.212,1.212-1.817c3.03,3.029,5.454,3.636,7.271,1.817
	c0.606-0.605,0.606-1.212,1.212-1.817h0.606c0.605,0,1.212,0,1.212,0c0.605,0,1.211,0,1.817,0c1.212,0,1.817,0,1.817,0
	c1.212,0.605,0.606,0.605,0.606,1.212c0,0.605,0,1.212,0,2.424l-4.241,12.725c0,0,0,0.605,0.605,0.605l0,0c0,0,0.606,0,0.606-0.605
	l3.029-9.695c0,0.606,0.606,1.212,0.606,1.212v10.301c0,0,0,0.606,0.605,0.606l0,0c0,0,0.605,0,0.605-0.606v-9.089
	c0.606,0,0.606,0.606,1.212,0.606l0,0l2.424,8.482c0,0,0,0.606,0.606,0.606l0,0l0.605-0.606l-2.424-9.089
	c0.606-0.605,0.606-2.424,0-4.241c0-0.606,0.606-1.212,0.606-1.818c0-0.605,0.605-0.605,0.605-1.212c1.818,0.606,3.03,0.606,4.242,0
	l0,0c0.605,0.606,1.212,0.606,1.817,0.606c0.606,0,1.212-0.606,1.212-0.606c0.606,0,0.606-0.605,0.606,0
	c0.605,0,0.605,0.606,1.211,1.212l-1.211,10.301c0,0,0,0.606,0.605,0.606l0,0c0,0,0.605,0,0.605-0.606l1.212-8.482
	c0,0.605,0.606,1.212,0.606,1.817l1.212,7.877c0,0,0,0.606,0.605,0.606l0,0l0.606-0.606l-1.212-6.059
	c0.605,0,0.605,0.605,1.212,0.605l2.424,4.241c0,0,0,0,0.605,0l0,0c0,0,0.606-0.605,0-0.605l-2.424-4.848
	c0.606-1.212,0.606-1.817,0-3.029c0-0.606-0.605-1.212-0.605-1.818c0-1.212,0-1.212,0-1.212l0,0c0.605,0,1.212,0,1.817-0.605
	c0,0,0.606-0.606,0.606-1.212l0,0c0.605,0.605,1.212,0.605,1.817,0.605c0.606,0,1.212-0.605,1.212-0.605s0.606-0.606,0.606,0
	c1.212,0.605,1.212,1.817,1.817,3.029v0.606l-1.212,7.877c0,0,0,0.605,0.606,0.605l0,0c0,0,0.605,0,0.605-0.605l0.606-6.06
	c0.605,0.606,0.605,0.606,1.212,1.212l1.211,6.06c0,0,0,0.605,0.606,0.605l0,0l0.605-0.605l-0.605-4.848l0,0l0,0l0.606-0.605
	l2.424,5.453c0,0,0,0,0.605,0l0,0c0,0,0.606-0.605,0-0.605l-3.636-7.271c0,0,0,0,0-0.606c0-0.605-0.605-1.212-0.605-1.817
	c0-0.606,0-1.212,0-1.212l0,0c0.605,0,1.212,0,1.817-0.606c0.606-1.212,1.212-2.424,1.212-3.636h0.606
	c0.605,0,0.605-0.605,1.212-0.605c0,0,0,0,0.605,0c0.606,0,1.212,1.212,1.212,1.817v9.09c0,0,0,0.605,0.605,0.605l0,0
	c0,0,0.606,0,0.606-0.605l0.605-7.271c0,0.605,0.606,0.605,0.606,1.212l1.212,7.271c0,0,0,0.605,0.605,0.605l0,0l0.606-0.605
	l-1.212-6.666l0,0l0,0l0,0l0,0l3.029,6.06c0,0,0,0,0.606,0l0,0c0,0,0.605-0.605,0-0.605l-1.818-4.242l0,0l0,0
	c0,0,0.606,0,0.606-0.605l1.212-7.271c0,0.605,0.605,0.605,0.605,0.605l1.212,7.878c0,0,0,0.605,0.606,0.605l0,0l0.605-0.605
	l-1.212-7.271v-0.606l1.818,4.242v1.817c0,0,0,0.606,0.605,0.606l0,0c0,0,0.606,0,0.606-0.606v-0.605l0.605,1.212c0,0,0,0,0.605,0
	l0,0c0,0,0.606-0.606,0-0.606l-1.211-2.424l0.605-4.847c0,0.605,0.605,0.605,0.605,1.211l1.212,7.271c0,0,0,0.606,0.606,0.606l0,0
	l0.605-0.606l-1.212-7.271c0,0,0-0.605,0.606-0.605l1.212,2.424v1.212c0,0,0,0.605,0.605,0.605l0,0c0,0,0.606,0,0.606-0.605
	l1.212,3.029c0,0,0,0,0.605,0l0,0c0,0,0.606-0.605,0-0.605l-1.212-4.242l0.606-5.453c0,0.606,0.606,0.606,0.606,1.212l1.211,7.271
	c0,0,0,0.605,0.606,0.605l0,0l0.605-0.605l-0.605-7.877v-0.606l3.636,7.271c0,0,0,0,0.605,0l0,0c0,0,0.606-0.606,0-0.606
	l-4.241-9.089l0,0c0.605-1.212,0-2.424,0-4.241v-0.606v-0.605c-1.212-4.242-2.424-6.666-3.636-6.666h-0.605l0.605-11.513
	c0,0,0-0.605-0.605-0.605c0,0-0.606,0-0.606,0.605l-0.605,9.695l0,0l-2.424-10.301l-0.606-0.606l-0.605,0.606l2.424,9.089
	l-3.03-5.453v-3.03c0,0,0-0.605-0.605-0.605l0,0c0,0-0.606,0-0.606,0.605v1.818l-0.605-1.212c0,0-0.606-0.606-0.606,0
	c0,0-0.605,0.605,0,0.605l1.212,2.424v4.848l0,0l0,0l-2.424-9.089l-0.605-0.606l-0.606,0.606l2.424,9.089l-3.029-5.453v-3.636
	c0,0,0-0.606-0.606-0.606c0,0-0.605,0-0.605,0.606v2.424l-0.605-1.212c0,0-0.606-0.606-0.606,0c0,0-0.605,0.605,0,0.605l1.212,2.424
	v5.454l0,0l-2.424-10.302l-0.605-0.605l-0.606,0.605l2.424,9.09l-4.848-7.878c0,0-0.605-0.605-0.605,0c0,0-0.606,0.606,0,0.606
	l5.453,9.695c0,0.605,0,0.605,0,1.212l0,0v0.605l0,0h-0.605h-0.606l0,0c-0.605-1.817-1.817-2.424-3.029-2.424
	c-0.606,0-1.212,0-1.212,0.606c-0.606-0.606-0.606-1.212-1.212-1.818l1.212-9.089c0,0,0-0.606-0.606-0.606
	c-0.605,0-0.605,0-0.605,0.606l-0.606,7.271c-0.605-0.606-0.605-0.606-1.212-1.212l-1.212-7.271l-0.605-0.606l-0.606,0.606
	l1.212,6.665c0,0,0,0-0.605,0c0,0,0,0,0,0.606l-3.03-6.06c0,0-0.605-0.606-0.605,0c0,0-0.605,0.605,0,0.605l3.636,7.878
	c0,0.605,0,0.605,0,1.212v0.605c0,0.605,0,0.605,0,0.605c0,0.606,0,0.606-0.606,0.606h-0.605c-0.605,0-0.605,0-1.212,0h-0.605
	c0,0,0,0-0.606,0c-0.605,0-1.212,0-1.817,0.605c-1.212-1.212-1.818-3.029-1.818-4.847l0,0l0,0c0,0,0-0.606-0.605-0.606l0.605-7.271
	c0,0,0-0.605-0.605-0.605c-0.606,0-0.606,0-0.606,0.605l-0.605,6.666c-0.606,0-0.606-0.606-1.212-0.606l0,0l-1.212-6.665
	l-0.606-0.606l-0.605,0.606l1.212,7.877v0.606l-3.636-7.271c0,0-0.606-0.606-0.606,0c0,0-0.605,0.605,0,0.605l4.242,9.09v0.605
	v0.605c0,0.606,0,0.606,0,1.212c0,0.606,0,0.606-0.606,1.212c0,0-0.605,0-1.212,0c-0.605,0-0.605,0-1.211,0
	c-0.606,0-0.606,0-0.606,0.606l0,0c-0.605,0-0.605-0.606-1.212-0.606c-0.605,0-1.212,0-1.817,0.606
	c-1.212-1.212-1.818-3.636-1.818-4.848l0,0l0,0l0,0l0.606-6.665c0,0,0-0.606-0.606-0.606c-0.605,0-0.605,0-0.605,0.606l-0.606,5.453
	c-0.605-0.605-1.212-0.605-1.212-0.605l0,0l-1.212-5.454l-0.605-0.605l-0.606,0.605l1.212,6.06c0,0.605,0,0.605-0.605,1.212
	l-3.03-6.665c0,0-0.605-0.606-0.605,0c0,0-0.606,0.605,0,0.605l4.241,8.483v0.605v0.606c0,0.605,0,0.605,0,1.212
	c0,0.605,0,0.605-0.605,1.212l0,0c-0.606,0-0.606,0-1.212,0c-0.606,0-0.606,0-1.212,0h-0.605c-0.606-1.212-1.213-1.818-2.424-2.424
	c-0.606-0.606-1.212-0.606-1.818-0.606c-0.605,0-0.605,0-1.212-1.212c0-0.605-0.605-1.212-0.605-1.212v-0.605l1.212-10.301
	c0,0,0-0.606-0.606-0.606c-0.605,0-0.605,0-0.605,0.606l-1.212,9.089c0-0.605-0.606-0.605-1.212-0.605l0,0l0,0l-1.818-9.695
	l-0.605-0.606l-0.606,0.606l1.818,9.695c0,0-0.606,0-0.606,0.605l0,0l-3.636-8.483l1.212-2.424v-0.605h-0.605l-1.212,1.817
	c0,0,0,0-0.606,0c0,0-0.605,0.606,0,0.606v0.605l-2.423,4.848c0-0.605-0.606-1.212-1.212-1.817l1.817-8.483c0,0,0-0.606-0.605-0.606
	c-0.606,0-0.606,0-0.606,0.606l-1.817,7.877l0,0c-0.606,0-0.606,0-1.212,0l-0.606-8.483c0,0,0-0.605-0.605-0.605
	c0,0-0.606,0-0.606,0.605l0.606,9.09c-1.212,1.212-1.212,3.029-1.212,4.241c0,0.606,0,1.817-0.606,1.817
	c-0.605,0-0.605,0-1.212-0.605c0,0-0.605-0.605-1.212-0.605c0-1.212,0-2.424-1.212-3.636c-0.605-1.212-1.211-1.212-1.817-1.818
	c-0.605,0-0.605-0.605-0.605-1.817c0-0.606,0-1.212,0.605-1.818c0-0.605,0-0.605,0.605-1.212l8.483-8.482v-0.606h-0.605
	l-7.878,7.271c0-0.606,0-1.212-0.605-1.818l5.453-9.694v-0.606h-0.605l-5.453,9.695c-0.606,0-0.606,0-1.212,0l2.424-10.907
	c0,0,0-0.605-0.606-0.605c-0.605,0-0.605,0-0.605,0.605l-2.424,11.513c-1.818,0.606-3.03,2.424-4.242,3.636
	c-0.605,0.606-1.212,1.818-1.817,1.818c-0.606,0-0.606-0.606-1.212-1.212c0-0.606-0.606-0.606-1.212-1.212
	c0-0.606,0-1.212-0.606-2.424c-0.605-1.212-1.211-1.818-1.817-2.424c-0.606-0.606-0.606-0.606,0-1.818
	c0-0.605,0.605-1.211,1.212-1.817c0.605-0.605,0.605-1.212,1.212-1.817l9.089-4.848c0,0,0.606-0.606,0-0.606
	c0,0-0.605-0.605-0.605,0l-6.061,1.212c0-0.605,0-1.212-0.605-1.817l0,0l0,0l0,0l6.665-7.271v-0.605h-0.606l-7.271,7.271
	c-0.606,0-0.606,0-1.212,0l5.453-9.694v-0.606h-0.605l-5.454,10.301c-1.817,0.606-3.029,1.818-4.241,2.424
	c-1.212,0.606-1.818,1.212-2.424,1.212c-0.606,0-0.606-0.605-1.212-1.212c-0.606-0.605-1.212-1.817-3.03-1.817l0,0
	c-0.605,0-0.605,0-1.211,0c1.211-1.212,1.817-3.03,1.211-5.454c-0.605-1.212-0.605-1.817-1.211-2.423
	c-0.606-0.606-0.606-0.606,0-1.818c0-0.605,0.605-1.212,1.211-1.212l0.606-0.605l11.513-2.424l0.606-0.606l-0.606-0.605
	l-10.301,1.817c0.605-0.605,0.605-1.212,0.605-2.424l9.695-5.453c0,0,0.606-0.606,0-0.606c0,0-0.605-0.605-0.605,0l-9.695,5.454
	c-0.606,0-0.606-0.606-1.212-0.606l8.483-8.482v-0.606h-0.606l-2.424,1.818l0,0c0,0,0-0.606-0.605-0.606l-11.513-0.605
	c0.605-0.606,1.212-1.212,1.212-1.818l11.513-2.424l0.605-0.605l-0.605-0.606l-11.513,2.424l0,0l0,0
	c-0.606,0-0.606-0.605-1.212-0.605l9.694-5.454l1.818,0.606l0,0c0,0,0.605,0,0.605-0.606c0,0,0-0.605-0.605-0.605l-1.212-0.606l0,0
	c0,0,0.605-0.605,0-0.605c0,0-0.606-0.606-0.606,0l-1.212,0.605l-6.059-1.817c0.605-0.606,1.212-1.212,1.212-1.818h10.906l0,0
	c0,0,0.606,0,0.606-0.605c0,0,0-0.606-0.606-0.606h-10.906c-0.606-0.605-0.606-0.605-1.212-1.212l9.089-2.423l2.424,1.212l0,0h0.605
	v-0.606l-1.212-0.605l1.212-0.606l0.606-0.605l-0.606-0.606l-2.424,0.606l-8.482-4.242c1.212,0,1.817-0.605,2.423-1.212l7.271,1.212
	l1.212,1.212c0,0,0,0,0.606,0c0,0,0,0,0.605,0v-0.605h-1.212l2.424,0.605l0,0c0,0,0.606,0,0.606-0.605c0,0,0-0.606-0.606-0.606
	l-3.636-0.605l-2.424-3.03l4.848-0.605l3.636,3.029c0,0,0,0,0.606,0h0.605v-0.605l-3.029-2.424c0,0,0.605,0,0.605-0.606
	c0,0,0-0.605-0.605-0.605l0,0h-1.212l-4.242-3.03c0-0.605,0-1.211-0.605-1.817l10.907,4.241l0,0c0,0,0.605,0,0.605-0.605v-0.606
	l-12.119-4.847c-0.605-0.606-0.605-0.606-1.212-1.212c-0.605-0.606-1.212-1.212-1.817-1.818c-0.606-1.212-0.606-1.212-0.606-1.817
	c0-0.606,0.606-1.212,1.212-2.424c0-0.606,0-1.212,0-1.818l0,0l0,0c1.818,0,3.03-1.212,3.636-4.241
	c1.818,0.605,4.848,2.424,5.454,4.848l0,0l0,0c0.605,0,1.212,0.605,1.212,0.605l6.665,10.301c0,0,0,0,0.605,0l0,0
	c0,0,0.606-0.605,0-0.605l-6.059-9.089l0,0c0.605,0,1.211-0.606,1.211-0.606s0-0.605,0-1.212l11.514,9.09c0,0,0,0,0.605,0h0.606
	v-0.606l-10.907-9.089c0-0.606-0.606-1.212-0.606-1.212l13.938,6.665l0,0c0,0,0.605,0,0.605-0.605v-0.606l-15.148-6.665
	c0-0.606-0.605-1.212-0.605-1.818v-0.605c-0.606-0.606-0.606-1.212-0.606-1.212c-0.605-0.605-0.605-1.212-0.605-2.424
	c0-0.605,1.212-1.212,1.817-1.212c1.212-0.605,1.817-1.212,1.817-1.817c0-0.606,0-1.212-0.605-1.212
	c0.605-0.606,1.212-1.818,1.818-3.636c1.817,0.605,4.241,2.424,5.453,4.848l4.241,10.906c0,0,0,0.606,0.606,0.606l0,0l0.605-0.606
	l-3.029-9.089c0.605,0.606,1.817,0.606,2.424,0.606c0.605,0,1.212-0.606,1.212-0.606l6.059,7.878c0,0,0,0,0.606,0c0,0,0,0,0.605,0
	v-0.606l-6.059-8.483c0-0.605-0.606-1.817-0.606-3.029l10.907,8.483c0,0,0,0,0.605,0h0.606v-0.606l-12.119-9.089
	c0-0.606-0.605-0.606-0.605-1.212v-0.606c-0.606-0.605-0.606-1.212-0.606-1.817c-0.605-1.212-0.605-1.212,0-3.029
	c0-0.606,1.212-1.212,1.818-1.212c1.212-0.606,1.817-0.606,1.817-1.818v-0.605c1.818,0,3.03-1.212,3.636-4.242
	c1.212,0,1.817,1.212,3.029,1.818l6.666,15.148c0,0,0,0.605,0.605,0.605l0,0c0,0,0.606-0.605,0-0.605l-4.848-10.301
	c1.212,0.605,2.424,1.212,3.03,1.212c0.605,0,0.605,0,0.605,0l6.665,7.271c0,0,0,0,0.606,0c0,0,0,0,0.606,0v-0.605l-6.666-7.877
	c0-0.606,0-1.818,0-2.424l10.301,6.665l0,0h0.606v-0.605l-11.513-7.271c-0.606-1.212-0.606-1.818-1.212-3.03v-0.605
	c-0.606-0.606-0.606-1.212-0.606-1.818c-0.605-1.212-0.605-1.212,0-2.424c0-0.605,1.212-1.212,1.818-1.212
	c1.212-0.605,1.817-0.605,1.817-1.817v-0.605c1.212-1.212,1.818-3.03,1.818-6.06c1.212,0,1.817,0.605,2.424,1.212
	c0.605,0.605,0.605,0.605,1.817,1.212c1.212,1.212,1.818,1.817,2.424,2.424l5.453,10.301c0,0,0,0,0.606,0l0,0
	c0,0,0.605-0.606,0-0.606l-4.848-9.089h0.605c0.606,0,1.212,0,1.212-0.605c0,0,0-0.606,0-1.212l8.483,8.482c0,0,0,0,0.606,0
	c0.605,0,0,0,0.605,0v-0.605l-9.089-9.089c0-0.606,0-1.212-0.606-1.818l12.119,7.271l0,0h0.605v-0.605l-13.33-7.878l0,0
	c-0.606-1.817-1.818-2.424-2.424-2.424c-0.606-0.605-1.212-0.605-0.606-2.424c0-0.605,1.818-2.424,3.03-3.635
	c0.605-0.606,0.605-0.606,1.212-1.212l0,0c1.817,0,3.636-1.818,5.453-4.848c0.606,0.605,1.212,0.605,1.818,0.605
	c1.212,0,2.424,0,3.029,0.606c0.606,0.605,1.212,1.212,1.817,1.817l8.483,10.907c0,0,0,0,0.606,0c0,0,0,0,0.605,0v-0.606
	l-10.906-10.907c0.605,0,0.605,0,1.211,0c0.606,0,1.212,0,1.212-0.605v-0.606l9.695,6.666c0,0,0,0,0.606,0h0.605v-0.606
	l-10.301-7.271c0-0.605-0.606-1.212-0.606-1.817l13.331,4.848l0,0c0,0,0.605,0,0.605-0.606c0,0,0-0.605-0.605-0.605l-15.148-5.453
	c0,0,0,0,0-0.606c-1.212-1.212-1.818-1.817-3.029-2.424c-0.606-0.605-1.212-0.605-1.212-1.817c0-0.606,1.212-1.818,2.423-3.03
	c1.213-1.212,2.424-2.424,2.424-3.029c0-0.606-0.605-1.212-1.211-1.818c1.817,0.606,3.635,1.212,4.847,1.212s2.424-0.605,3.03-1.212
	c0.605-1.212,0.605-3.029,0-6.059c1.212,0,1.817,0,2.424,0c0.605,0,1.212,0.605,1.817,0.605l12.119,10.907c0,0,0,0,0.605,0
	c0,0,0,0,0.606,0v-0.606l-10.301-9.089c1.212,0.606,1.817,0.606,2.424,0.606c0.605,0,1.211,0,1.211-0.606l10.907,4.848l0,0
	c0,0,0.606,0,0.606-0.606v-0.605l-10.907-4.848c0-0.605,0-1.212-0.606-1.817l12.726,1.817l0,0c0,0,0.605,0,0.605-0.605
	c0,0,0-0.606-0.605-0.606l-13.938-2.424c-0.605-0.605-0.605-0.605-1.212-1.212c-1.211-1.212-2.423-1.212-3.029-1.212
	c-0.605,0-1.212,0-1.212-1.212c0-0.605,1.212-3.029,2.424-4.848c1.818-3.029,2.424-4.241,1.818-4.847c0,0,0-0.606-0.606-0.606
	c1.818-0.606,3.029-1.212,3.636-1.818c1.212-1.212,0.605-3.635,0-6.059c0.605,0,1.212-0.606,1.817-1.212
	c0.606-0.606,1.818-1.212,2.424-1.818l15.148,4.242l0,0c0,0,0.606,0,0.606-0.606c0,0,0-0.606-0.606-0.606l-12.118-3.636
	c2.424,0,3.636-0.606,3.636-1.818h10.906C583.235,290.852,583.235,290.246,582.63,289.64
	C583.235,289.64,583.235,289.64,582.63,289.64z M408.725,229.045c0,1.212,0,2.424,0.606,3.636c0,1.212,0.605,1.818,0.605,2.424
	c0,0-0.605,0-1.212,0c0,0-0.605,0-1.212,0c-0.605,0-1.212,0.606-1.817,1.212c0,0,0,0,0,0.606h-0.606c-0.605,0-0.605,0-1.212-1.212
	c0-0.606,0-1.212-0.605-2.424c0-0.606,0-0.606,0-1.212l2.424-6.06L408.725,229.045z M555.969,246.012L555.969,246.012
	L555.969,246.012L555.969,246.012z M520.824,207.231L520.824,207.231L520.824,207.231L520.824,207.231z M397.212,234.499
	c0,1.212,0,2.424-0.606,3.03c-0.605,0-0.605,0-1.211,0s-0.606-0.606-1.212-0.606s-1.212,0-1.818,0.606l0,0
	c-0.606,0-0.606,0-0.606-1.818c0-0.606,0.606-1.212,0.606-1.818v-0.606l5.453-4.848v1.212
	C397.817,231.469,397.212,233.287,397.212,234.499z M283.901,97.557c-1.818,0-3.636,1.817-5.454,3.029l-0.605,0.606
	c-0.606,0.606-0.606,0.606-1.212,1.212s-0.606,0.606-1.212,0.606h-0.606c-0.606,0-1.212-0.606-1.818-1.818
	c-0.606-0.606-1.212-1.211-2.424-1.211l0,0c-1.212,0-2.424,1.211-3.03,1.817c-0.606-2.424-1.212-4.241-3.03-5.453
	c1.212-0.606,3.03-0.606,5.454-0.606c3.03,0,6.666,0.606,10.301,0.606c1.212,0,2.424,0,3.636,0.606V97.557z M285.113,97.557
	L285.113,97.557v-0.606h0.606L285.113,97.557z M495.374,241.771c0-0.606,0-1.818,0.606-2.424c0.605-1.212,0.605-1.212,1.212-1.212
	c0.605,0,0.605,0,1.212-0.606c0,0.606,0,1.212,0,1.818c0.605,1.212,1.212,1.212,1.817,1.212c0.606,0,0.606,0,0.606,0
	c0.605,0,0.605,0,1.211,0c0,0.606,0,1.817-0.605,2.424c0,0.605-0.605,1.212-0.605,2.423l-3.03,4.242l-3.636-5.453
	C494.769,243.588,494.769,242.982,495.374,241.771z M501.434,247.83c0,1.212,0.606,1.818,1.212,2.424l-1.212,3.636l-1.817-3.03
	L501.434,247.83z M506.281,247.224L506.281,247.224c0.605-1.212,0.605-1.818,1.212-2.424c0.605-0.606,1.212-1.212,1.212-1.212
	s0,0,0.605,0l0,0c0,1.818,1.212,2.424,1.818,2.424c0.605,0,0.605,0,1.212,0.606c0,0.606-0.606,1.212-1.818,2.424
	c-0.605,0.606-1.212,1.212-1.817,1.818l-3.03,1.818L506.281,247.224z M513.553,255.707c0.605-0.606,1.212-1.212,1.817-1.212
	c0.606,0,1.212-0.606,1.212-0.606s0,0,0.606,0c0,0,0.605,0,0.605,0.606c0,0,0,0,0,0.606c-0.605,1.818,0.606,2.424,1.212,3.03
	c0.605,0,0.605,0.606,0.605,0.606c0,0.606-1.211,1.211-1.817,1.211c-0.605,0.606-1.212,0.606-1.817,1.212l-6.666,0.606l3.03-4.847
	C512.341,256.313,512.946,256.313,513.553,255.707z M517.188,291.458c0.605,0,1.817,0,1.817,0.606
	c1.212,0.606,1.212,0.606,1.212,1.212l0,0c-1.817,0.606-1.817,1.818-1.817,2.424c0,0.605,0,0.605-0.606,1.212
	c-0.605,0-1.817-0.606-2.424-0.606c-1.212-0.606-1.817-0.606-3.029-1.212l-3.03-2.424l6.666-1.212
	C516.582,291.458,516.582,291.458,517.188,291.458z M509.311,299.334c0.606,0.606,1.212,0.606,1.212,1.212
	c0.606,0.606,1.212,0.606,1.818,1.212c1.212,1.212,0.605,1.212,0.605,1.818v0.606c0,0,0,0-0.605,0c-1.818,0-2.424,1.212-2.424,1.818
	c0,0.605,0,0.605-0.606,0.605c-0.605,0-1.212-0.605-1.817-1.817c-0.606-0.606-1.818-1.818-3.03-2.424l-2.423-3.636L509.311,299.334z
	 M419.025,456.879L419.025,456.879L419.025,456.879L419.025,456.879z M523.854,529.592L523.854,529.592L523.854,529.592
	L523.854,529.592z M467.501,419.917c-0.605-0.606-1.212-0.606-1.817-0.606c-0.606,0-1.212-0.605-1.818-0.605
	c-1.212-0.606-1.212-1.212-1.212-1.212l0,0c1.818-0.606,2.424-1.212,2.424-2.424c0-0.605,0-0.605,0.606-1.212
	c0.605,0,1.817,0.606,2.424,1.212c0.605,0.605,1.817,1.212,3.029,1.817l2.424,3.03H467.501z M558.998,293.881L558.998,293.881
	L558.998,293.881L558.998,293.881z M419.632,221.774c0,1.817,1.212,3.029,1.817,4.241c0.606,1.212,1.212,1.818,1.212,2.424
	s-0.605,0.606-1.212,0.606c-1.212,0-2.424,0-2.424,2.424c0,0,0,0.606,0,1.212l-0.605-0.606c-1.212-0.606-1.818,0-2.424,0l0,0
	c0,0-0.606,0-1.212-1.212c-0.606-0.606-0.606-1.212-0.606-1.818l-0.605-12.725L419.632,221.774z M407.513,221.168l1.818,4.847
	c-0.606,0.606-0.606,0.606-0.606,1.212l-2.424-3.029L407.513,221.168z M402.06,219.957l3.029,4.242l-2.424,5.453
	c0-0.606-0.605-1.212-1.212-1.818v-2.423l1.212-1.212v-0.606h-0.605h-0.606L402.06,219.957z M400.241,226.622v1.212
	c-0.605,0-0.605,0.606-1.212,0.606v-0.606L400.241,226.622z M397.817,227.228l-4.847,4.242c0-0.606,0-1.212-0.606-2.424l4.241-6.665
	L397.817,227.228z M380.852,212.079l-3.636,8.483c-1.818,0.606-3.03,2.424-4.242,3.636c-0.606,0.605-1.212,1.817-1.818,1.817
	s-0.606-0.605-0.606-1.212c0-0.605-0.606-0.605-0.606-1.212c0-0.605,0-1.211,0-2.423s-0.605-1.818-1.211-2.424
	s-0.606-0.606,0.606-1.818c0.605-0.606,1.211-1.212,1.817-1.818c0,0,0.606-0.606,0.606-1.212L380.852,212.079z M285.719,98.769
	L285.719,98.769l1.212-1.818h0.606L285.719,98.769z M239.062,112.099h0.606c3.03,0,4.847,0.606,5.453,1.818
	c0.606,0.606,0.606,1.212,0.606,1.212c-3.635,1.212-5.453,3.029-6.665,5.453c0-0.606,0-0.606,0-1.212
	C240.273,117.552,239.667,114.523,239.062,112.099z M482.044,245.406c0-0.606,0-1.212,0-1.212c0-0.606,0-1.818,0-2.423
	c0.605-1.818,0.605-1.818,1.212-1.818c0.605,0,1.211-0.606,2.423-1.212c0.606-0.606,0.606-0.606,1.212-1.212h0.606
	c0.605,0,1.212,0,1.212-0.606c0.605,0,0.605-0.606,1.212-0.606c0,0,0,0,0,0.606v19.996L482.044,245.406z M493.557,246.012
	c0.605,0,0.605-0.606,0.605-1.212l3.636,5.454l-1.817,3.03L493.557,246.012z M497.192,258.131l-1.212-3.636l2.424-3.03l2.424,3.636
	l-0.606,1.212L497.192,258.131z M502.04,255.101L502.04,255.101l1.212-4.848c0.605,0,1.211-0.606,1.817-1.212l-0.606,4.848
	L502.04,255.101z M505.675,254.495l2.424-1.212c-0.605,0.606-0.605,1.818,0,2.424l-2.424,2.424V254.495z M504.463,261.16v1.212
	h-1.211L504.463,261.16z M505.069,262.372v-2.424l3.029-3.029l0,0l0,0c0.606,0,0.606,0,1.212,0h0.606l-2.424,4.847L505.069,262.372z
	 M508.099,262.978l6.06-0.606c-0.605,0.606-0.605,1.212-0.605,1.818l-7.878,3.636L508.099,262.978z M507.493,273.279l9.089-7.271
	c0.606,0,1.212-0.606,1.818-0.606c0.605,0,1.212-0.606,1.817-0.606c0.606,0,0.606,0,0.606,0c0.605,0,0.605,0,0.605,0.606
	c0,0,0.605,0.606,1.212,1.212c-1.212,0.606-2.424,0.606-2.424,1.818c-1.212,1.818,0,2.424,0.606,3.03
	c0.605,0.606,0.605,0.606,0.605,1.212c0,0-1.212,0-2.424,0.606c-0.605,0-1.817,0.606-2.424,0.606L507.493,273.279z M502.646,281.762
	C502.646,281.762,503.252,281.762,502.646,281.762l10.907-3.03c0.605,0.606,1.212,0.606,2.424,0.606l-7.271,4.242L502.646,281.762z
	 M509.917,284.186l8.483-4.847l0,0c0.605,0,1.817,0,2.424,0c1.817,0,1.817,0.605,1.817,0.605c0,0.606,0,0.606,0.606,1.212
	c-0.606,0-1.212,0.606-1.818,0.606c-1.212,1.212-0.605,2.424-0.605,3.03s0.605,0.606,0,1.212c-0.606,0-1.818,0-2.424,0
	c-1.212,0-1.818,0-3.03,0L509.917,284.186z M505.675,289.64l7.271,0.606c0.606,0.606,0.606,0.606,1.212,1.212l-5.453,1.212
	L505.675,289.64z M508.099,293.275l1.818,1.818c-1.212,0-1.818,0.606-2.424,1.212l-4.241-1.818L508.099,293.275z M500.222,293.881
	h-1.212l0,0l-0.605-0.606L500.222,293.881z M500.222,295.093l1.818-0.606l5.453,2.424c0,0.605,0,1.212,0.605,1.817l-6.665-1.212
	L500.222,295.093z M500.828,298.729l2.424,4.242h-0.606c-0.605,0-0.605,0-1.212,0l-6.06-5.454L500.828,298.729z M562.634,530.804
	l-0.606-1.817c0-0.606,0-1.212-0.605-1.212c0-0.606-0.606-0.606-0.606-1.212c0-0.606,0-0.606,0-0.606l0,0c0,0,0.606,0,1.212-0.605
	c0.606-1.212,0.606-2.424,0.606-3.636l0,0l0,0l0.605,0.605L562.634,530.804z M566.27,521.109L566.27,521.109
	c0,0,0.605,0,0.605-0.606l0,0c0.606,0.606,1.212,0,1.818,0l0,0c0,0,0,0,0.605,0.606l-0.605,5.453L566.27,521.109z M572.935,521.109
	c0,0,0.606,0,0.606-0.606c0.605-0.605,0.605-1.212,0.605-1.817c0.605,0,0.605,0,0.605-0.606l0,0l-0.605,5.453L572.935,521.109z
	 M570.511,504.143c0,0.605,0,0.605,0,1.212l0,0v0.605l0,0l0,0c0,0,0,0-0.605,0h-0.606l0,0l0,0c0,0-0.605,0-0.605,0.606
	c-0.606-0.606-0.606-1.818-0.606-1.818l0,0l0,0l0,0v-4.241L570.511,504.143z M565.663,505.96L565.663,505.96
	c0,0.606,0,0.606,0,0.606l0,0l0,0h-0.605c-0.606,0-0.606,0-1.212,0h-0.606c-0.605,0-0.605,0-0.605,0.605
	c-0.606-0.605-0.606-1.817-0.606-2.424l0,0l0,0v-4.847L565.663,505.96z M508.705,490.206l4.241,9.089c0,0.606,0,1.212,0,1.818
	c0,0.605,0,1.212,0,1.212h-0.605c0,0-0.606,0-0.606-0.606c-0.605-0.605-1.212-1.817-1.817-2.424
	c-1.212-0.605-1.818-0.605-2.424-1.212c-0.606,0-0.606,0-1.212-1.212c0-0.605,0-1.212-0.606-1.817l0,0L508.705,490.206z
	 M474.772,450.214L474.772,450.214L474.772,450.214l-6.665,6.06c-1.818,0-3.636,1.212-4.848,1.817
	c-1.212,0.606-1.818,1.212-2.424,1.212c-0.606-0.605-0.606-0.605-0.606-1.212c0-0.605-0.605-1.817-1.817-2.424l0.605-0.605
	c0.606-1.818,0-2.424-0.605-3.03c-0.606-0.605-0.606-0.605-0.606-0.605c0.606-0.605,1.212-0.605,2.424-1.212
	c0.606-0.605,1.818-0.605,2.424-1.212L474.772,450.214z M471.742,439.307l-10.301,5.454c-0.605,0-1.212,0-1.817,0
	c-0.606,0-1.212,0.605-2.424,0c-1.212,0-1.212,0-1.818-0.606c0,0-0.605-0.605-0.605-1.212c1.212,0,2.424-0.605,3.029-1.212
	c1.212-1.817,0.606-2.424,0-3.029c-0.605-0.606-0.605-0.606-0.605-1.212c0.605,0,1.817-0.606,3.029-0.606s2.424,0,3.636-0.605
	L471.742,439.307z M463.26,431.43c-0.606,0-1.212,0-1.818,0c-0.605,0-1.817,0-2.424-0.605c-1.817-0.606-1.817-0.606-1.817-1.212
	c0-0.606,0-0.606-0.606-1.212l0,0c0.606,0,1.212,0,1.818-0.606c1.817-1.212,1.212-2.424,1.212-3.029c0-0.606,0-0.606,0-1.212
	c0,0,1.212,0,2.424,0c0.605,0,1.212,0,1.817,0l8.483,4.241L463.26,431.43z M475.378,423.553l-6.06-1.212l0,0l0,0
	c0-0.606-0.605-0.606-0.605-1.212l4.848-0.606L475.378,423.553z M474.166,419.917l-1.817-2.424h0.605c0.606,0,1.212,0,1.818-0.606
	l3.029,2.424L474.166,419.917z"/>
</svg>
