<?xml version="1.0" encoding="utf-8"?>
<!-- Generator: Adobe Illustrator 15.0.2, SVG Export Plug-In . SVG Version: 6.00 Build 0)  -->
<!DOCTYPE svg PUBLIC "-//W3C//DTD SVG 1.1//EN" "http://www.w3.org/Graphics/SVG/1.1/DTD/svg11.dtd">
<svg version="1.1" id="Layer_1" xmlns="http://www.w3.org/2000/svg" xmlns:xlink="http://www.w3.org/1999/xlink" x="0px" y="0px"
	 width="792px" height="612px" viewBox="0 0 792 612" enable-background="new 0 0 792 612" xml:space="preserve">
<path fill="#E96057" d="M551.323,304.134c-6.151-61.107-45.781-111.832-64.134-169.21c-4.235-14.622-2.422-31.159-6.151-45.781
	c-3.025-12.202-31.765-12.202-40.337-11.597c-9.781,0.605-25.008-2.42-33.579,4.84c-7.967,7.361-5.547,26.319-8.571,36.101
	c-5.547,23.798-14.017,47.697-26.32,68.47c-14.622,24.403-51.328,38.521-64.739,3.63c-4.84-12.202-1.815-24.403-15.933-31.765
	c-12.807-6.151-36.706,0.605-44.571,10.992c-10.992,14.622,9.177,57.479,10.992,75.731c3.025,34.185,0.605,64.739-3.63,99.025
	c-3.63,31.158-5.546,64.135,12.807,91.059c8.572,13.412,16.538,27.529,25.614,40.336c9.781,15.229,6.151,29.345,11.597,45.177
	c3.63,9.781,58.084,8.571,67.26,9.178c25.613,1.813,149.042,20.168,133.815-28.136c-9.178-29.948,22.588-61.714,32.975-90.454
	C551.929,376.235,555.559,341.949,551.323,304.134z M294.08,178.286c-6.756,17.143-51.328,12.202-38.521-4.84
	C263.525,162.958,296.5,158.723,294.08,178.286C294.08,184.336,295.29,176.37,294.08,178.286z M470.651,101.849
	c-7.361,11.597-32.976,5.546-43.968,3.025c-7.966-1.815-25.612-12.202-8.57-16.538C424.87,87.227,480.433,86.017,470.651,101.849z"
	/>
<rect x="93.004" y="1.008" fill="none" width="610.992" height="610.992"/>
</svg>
