<?xml version="1.0" encoding="utf-8"?>
<!-- Generator: Adobe Illustrator 17.1.0, SVG Export Plug-In . SVG Version: 6.00 Build 0)  -->
<!DOCTYPE svg PUBLIC "-//W3C//DTD SVG 1.1//EN" "http://www.w3.org/Graphics/SVG/1.1/DTD/svg11.dtd">
<svg version="1.1" id="Layer_1" xmlns="http://www.w3.org/2000/svg" xmlns:xlink="http://www.w3.org/1999/xlink" x="0px" y="0px"
	 viewBox="215.8 79.4 360.4 454.5" enable-background="new 215.8 79.4 360.4 454.5" xml:space="preserve">
<g>
	<path fill="#E96057" d="M320.9,509c8.5-0.6,15.8,3,24.2,3.6c16.4,2.4,36.4,6.1,52.7,1.8c6.7-1.8,13.3-5.5,19.4-7.9
		c25.4-10.9,49.1-27.3,64.8-50.9c12.7-19.4,13.9-40,13.9-62.4c0-3,1.2-9.1,0-12.7c-1.8,0.6-3.6,1.8-4.8,2.4
		c-7.9,3.6-17,1.8-25.4,2.4c-20.6,0.6-43-9.7-61.8-17.6c-13.9-6.1-27.3-12.1-41.2-18.2c-10.3-4.2-20-10.9-30.9-13.3
		c-5.5-1.2-10.9,0-13.9-1.8c-15.1,1.2-29.1,5.5-43.6,12.7c-40,19.4-60.6,66-58.2,109.1c1.2,27.9,4.8,73.9,41.2,77.6
		C279.1,535,298.4,510.8,320.9,509z"/>
	<path fill="#E96057" d="M466.9,372c8.5,0,17.6,1.2,25.4-2.4c13.3-6.1,31.5-13.9,37.6-28.5c7.3-18.2,9.1-39.4,4.2-58.2
		c-0.6-2.4-1.2-4.2-1.8-6.1c-6.1,3.6-12.1,6.1-17.6,6.7c-10.3,1.2-25.5-9.1-34.5-13.9c-11.5-5.5-22.4-10.3-33.9-15.8
		c-9.1-4.8-20.6-10.3-30.3-13.3c-4.8-1.2-8.5-1.2-10.9-4.2c-7.3,0.6-14.5,1.2-21.8,3c-14.5,3.6-24.2,3.6-35.8,14.5
		c-10.3,9.7-17,21.8-23,33.9c-3.6,7.3-7.3,15.1-7.9,23.6c-1.2,13.3,7.3,9.1,17,10.3c10.9,2.4,20.6,9.1,30.9,13.3
		c13.9,5.5,27.3,12.1,41.2,18.2C423.9,363,446.3,372.7,466.9,372z"/>
	<path fill="#E96057" d="M516.6,272.1c20-2.4,49.1-27.3,43.6-49.7c-1.8-6.7-4.8-10.3-9.1-13.3c-1.8,0.6-4.2,1.2-6.1,1.2
		c-11.5-0.6-23-6.1-32.7-10.9c-11.5-5.5-24.2-7.3-35.8-12.1c-6.1-2.4-9.7-6.1-10.3-10.9c-3.6-0.6-7.3-0.6-10.9,0
		c-13.9,1.8-24.8,10.3-33.9,20c-4.8,4.8-16.4,18.2-14.5,25.4c1.8,6.7,6.7,6.1,12.1,7.3c9.7,3,21.2,8.5,30.3,13.3
		c11.5,5.5,22.4,10.3,33.9,15.8C491.1,262.4,506.3,273.3,516.6,272.1z"/>
	<path fill="#E96057" d="M546.3,196.9c16.4,1.2,30.3-28.5,18.2-40c-0.6-0.6-1.2-1.2-1.8-1.8c-4.8,1.2-10.3,0.6-14.5-0.6
		c-10.3-3-33.9-9.7-39.4-19.4c-1.2-0.6-2.4-1.2-4.2-1.8c-14.5-4.2-34.5,10.3-37.6,24.2c-1.8,8.5,2.4,13.3,10.3,16.4
		c11.5,4.2,24.2,6.7,35.7,12.1C523.2,191.5,534.8,196.3,546.3,196.9z"/>
	<path fill="#E96057" d="M575.4,131.5c2.4-8.5-0.6-12.1-5.5-14.5c-7.3,2.4-18.2-3-23.6-6.7c-3-1.8-4.8-3.6-6.1-5.5
		c-1.2-0.6-3-1.2-4.8-1.8c-5.5-1.2-12.7,1.2-17,4.2c-27.9,17.6,16.4,30.3,31.5,34.5C559,144.8,572.3,144.8,575.4,131.5z"/>
	<path fill="#E96057" d="M548.1,98.2c6.7,4.2,20,11.5,26.7,5.5c4.8-4.8-4.8-18.8-9.1-21.2c-4.2-3-10.9-3.6-15.8-2.4
		C537.8,81.2,537.2,90.9,548.1,98.2z"/>
</g>
</svg>
