<?xml version="1.0" encoding="utf-8"?>
<!-- Generator: Adobe Illustrator 17.1.0, SVG Export Plug-In . SVG Version: 6.00 Build 0)  -->
<!DOCTYPE svg PUBLIC "-//W3C//DTD SVG 1.1//EN" "http://www.w3.org/Graphics/SVG/1.1/DTD/svg11.dtd">
<svg version="1.1" id="Layer_1" xmlns="http://www.w3.org/2000/svg" xmlns:xlink="http://www.w3.org/1999/xlink" x="0px" y="0px"
	 viewBox="0 0 101 101" enable-background="new 0 0 101 101" xml:space="preserve">
<g>
	<path fill="#E96057" d="M39.1,34.1c3.7-7,9.7-0.3,18.1,0.3c0.9,0.1,1.2-0.9,0.6-1.6c-1.1-1.3-7.7-3.1-6.1-9c1.6-5.9,7-7.7,7.8-8.9
		C60,14,59.3,13,58.3,13c-4.8,0.2-9.4,2.6-13.5,6.6c-5.1,5-6.2,9.8-6.9,13.8C37.8,34.1,38.7,34.7,39.1,34.1z"/>
	<path fill="#E96057" d="M40.8,79.8c-3.1-1.6-9.4-5.5-13-11.1c-0.3-0.5-0.7,0-1.1,0.4c-2.1,1.9-3.7,3.8-5.3,4.8
		c-0.8,0.5-0.8,1.6-0.1,2c5.4,2.9,15.4,3.8,19.1,4.4C40.8,80.4,41.1,80,40.8,79.8z"/>
	<path fill="#E96057" d="M69.7,67.2c-0.8-0.6-1.9-0.8-2.8-0.4c-3.5,1.5-8.3,5.4-9.3,10.8c0,0.1-0.2,0.2-0.3,0
		c-0.6-4.7,2.6-10,7.3-12.6c0.7-0.4,0.7-1.3,0.1-1.8c-3.8-2.8-8-5.6-11.2-7.3c0,0,0,0-0.1,0c0-0.2,0-0.3,0-0.5
		c-0.7-3.1-3.6-10.6-4.9-13c-0.4-0.7-1.5,0.3-1.9,1.7c-0.4,1.3-1.7,3.9-2.2,5.7c-11.5-10.1-9.3-21.2-5.1-26.8
		c0.2-0.3-0.2-0.6-0.6-0.4c-11,6.7-26.5,32.8-1.9,51.9C54,87.9,73.5,89.7,78.7,86.8c1-0.5,1.5-1.7,1.5-2.8
		C80.2,80.3,76.9,72.8,69.7,67.2z M55,65.2c-0.3,0.2-0.6,0.5-0.9,0.8c-0.3,0.3-0.8,0.4-1.2,0.2C30.8,53.2,30.3,41.9,30.9,38.6
		c0-0.1,0.2,0,0.2,0.2c1,12.8,19.5,23.3,23.6,25.5C55.2,64.5,55.3,65,55,65.2z M66.8,81.1c-0.6,1.1-2.2,1.5-3.4,0.8
		c-1.3-0.7-1.8-2.2-1.2-3.3c0.6-1.1,2.2-1.5,3.4-0.8C66.9,78.5,67.4,80,66.8,81.1z"/>
</g>
<rect x="0.5" y="0.5" fill="none" stroke="#E96057" stroke-miterlimit="10" width="100" height="100"/>
</svg>
