<?xml version="1.0" encoding="utf-8"?>
<!-- Generator: Adobe Illustrator 15.0.2, SVG Export Plug-In . SVG Version: 6.00 Build 0)  -->
<!DOCTYPE svg PUBLIC "-//W3C//DTD SVG 1.1//EN" "http://www.w3.org/Graphics/SVG/1.1/DTD/svg11.dtd">
<svg version="1.1" id="Layer_1" xmlns="http://www.w3.org/2000/svg" xmlns:xlink="http://www.w3.org/1999/xlink" x="0px" y="0px"
	 width="792px" height="612px" viewBox="0 0 792 612" enable-background="new 0 0 792 612" xml:space="preserve">
<g>
	<path fill="#E96057" d="M320.863,508.99c8.483-0.606,15.754,3.029,24.238,3.636c16.36,2.424,36.356,6.06,52.716,1.817
		c6.666-1.817,13.331-5.453,19.391-7.877c25.449-10.907,49.081-27.268,64.836-50.899c12.725-19.39,13.937-39.992,13.937-62.411
		c0-3.03,1.212-9.09,0-12.726c-1.818,0.606-3.636,1.818-4.848,2.424c-7.877,3.636-16.967,1.818-25.449,2.424
		c-20.603,0.606-43.022-9.694-61.807-17.572c-13.937-6.06-27.267-12.118-41.204-18.178c-10.301-4.242-19.996-10.907-30.903-13.331
		c-5.454-1.212-10.907,0-13.937-1.817c-15.148,1.212-29.085,5.453-43.627,12.725c-39.992,19.39-60.594,66.048-58.17,109.069
		c1.212,27.873,4.848,73.925,41.204,77.561C279.054,535.046,298.443,510.808,320.863,508.99z"/>
	<path fill="#E96057" d="M466.896,372.048c8.482,0,17.572,1.212,25.449-2.424c13.33-6.06,31.509-13.937,37.568-28.479
		c7.271-18.178,9.089-39.386,4.241-58.17c-0.605-2.424-1.212-4.242-1.817-6.059c-6.06,3.635-12.119,6.059-17.572,6.665
		c-10.302,1.212-25.45-9.089-34.539-13.937c-11.513-5.454-22.42-10.301-33.933-15.754c-9.089-4.848-20.602-10.301-30.297-13.331
		c-4.848-1.212-8.483-1.212-10.907-4.242c-7.271,0.606-14.542,1.212-21.813,3.03c-14.543,3.635-24.238,3.635-35.75,14.542
		c-10.301,9.695-16.966,21.814-23.026,33.933c-3.636,7.271-7.271,15.148-7.877,23.631c-1.212,13.331,7.271,9.09,16.966,10.302
		c10.907,2.423,20.602,9.089,30.903,13.33c13.937,5.454,27.267,12.119,41.204,18.179
		C423.873,362.958,446.293,372.653,466.896,372.048z"/>
	<path fill="#E96057" d="M516.582,272.067c19.996-2.424,49.081-27.268,43.628-49.687c-1.818-6.666-4.848-10.301-9.089-13.331
		c-1.818,0.606-4.242,1.212-6.06,1.212c-11.513-0.606-23.026-6.059-32.721-10.907c-11.513-5.454-24.238-7.271-35.751-12.119
		c-6.06-2.424-9.695-6.06-10.301-10.907c-3.636-0.606-7.271-0.606-10.907,0c-13.937,1.818-24.843,10.301-33.933,19.996
		c-4.848,4.848-16.36,18.178-14.542,25.45c1.817,6.665,6.665,6.059,12.118,7.271c9.695,3.03,21.208,8.483,30.297,13.331
		c11.514,5.453,22.42,10.301,33.934,15.754C491.133,262.372,506.281,273.279,516.582,272.067z"/>
	<path fill="#E96057" d="M546.273,196.931c16.36,1.212,30.297-28.479,18.178-39.992c-0.605-0.606-1.212-1.212-1.817-1.818
		c-4.848,1.212-10.301,0.606-14.543-0.606c-10.301-3.029-33.933-9.695-39.386-19.39c-1.212-0.606-2.424-1.212-4.242-1.818
		c-14.542-4.242-34.538,10.301-37.567,24.237c-1.818,8.483,2.423,13.331,10.301,16.36c11.513,4.242,24.237,6.666,35.75,12.119
		C523.248,191.477,534.761,196.325,546.273,196.931z"/>
	<path fill="#E96057" d="M575.358,131.489c2.424-8.483-0.606-12.119-5.453-14.543c-7.271,2.424-18.179-3.029-23.632-6.665
		c-3.03-1.818-4.848-3.636-6.06-5.454c-1.212-0.606-3.03-1.212-4.848-1.818c-5.453-1.212-12.725,1.212-16.966,4.242
		c-27.874,17.572,16.36,30.297,31.509,34.539C558.998,144.82,572.329,144.82,575.358,131.489z"/>
	<path fill="#E96057" d="M548.091,98.162c6.666,4.242,19.996,11.513,26.661,5.454c4.848-4.847-4.847-18.784-9.089-21.208
		c-4.241-3.029-10.906-3.635-15.754-2.423C537.79,81.196,537.185,90.891,548.091,98.162z"/>
</g>
<rect x="93.03" y="3.03" fill="none" width="605.941" height="605.941"/>
</svg>
