<?xml version="1.0" encoding="utf-8"?>
<!-- Generator: Adobe Illustrator 17.1.0, SVG Export Plug-In . SVG Version: 6.00 Build 0)  -->
<!DOCTYPE svg PUBLIC "-//W3C//DTD SVG 1.1//EN" "http://www.w3.org/Graphics/SVG/1.1/DTD/svg11.dtd">
<svg version="1.1" id="Layer_1" xmlns="http://www.w3.org/2000/svg" xmlns:xlink="http://www.w3.org/1999/xlink" x="0px" y="0px"
	 viewBox="0 0 101 101" enable-background="new 0 0 101 101" xml:space="preserve">
<rect x="0.5" y="0.5" fill="none" stroke="#E96057" stroke-miterlimit="10" width="100" height="100"/>
<path fill="#E96057" d="M81.3,47.8C81.3,47.8,81.3,47.8,81.3,47.8l-1.8,0c-0.1-0.1-0.2-0.2-0.3-0.2l2.1-0.6c0,0,0.1-0.1,0.1-0.1
	c0,0-0.1-0.1-0.1-0.1l-2.3,0.7c-0.1,0-0.1,0-0.2,0c-0.3,0-0.5,0-0.6,0c-0.1,0-0.1,0-0.1,0c0,0-0.1,0-0.2-0.1
	c-0.1-0.1-0.1-0.4-0.1-0.6c0-0.3,0-0.5-0.1-0.6c0.5-0.2,0.9-0.4,0.9-0.7c0.1-0.3-0.2-0.5-0.7-0.8c0.1-0.2,0.2-0.2,0.3-0.2
	c0.1,0,0.2-0.1,0.3-0.1l2.2,0.3c0,0,0,0,0,0c0,0,0.1,0,0.1-0.1c0,0,0-0.1-0.1-0.1l-1.9-0.3c0.3-0.1,0.5-0.3,0.5-0.4l1.7-0.3
	c0,0,0.1-0.1,0.1-0.1c0,0-0.1-0.1-0.1-0.1l-1.7,0.3c-0.1-0.1-0.3-0.1-0.4-0.2l1.9-0.9c0,0,0.1-0.1,0-0.1c0,0-0.1-0.1-0.1,0l-2.2,1
	c0,0,0,0,0,0c-0.3,0-0.4,0.1-0.5,0.2c-0.1,0-0.1,0.1-0.1,0.1c0,0-0.1,0-0.2-0.1c-0.1-0.1-0.2-0.4-0.2-0.6c0-0.1-0.1-0.3-0.1-0.3
	c0.3-0.2,0.6-0.4,0.6-0.7c0.1-0.3-0.1-0.6-0.5-1c0.1-0.1,0.1-0.2,0.2-0.3c0.1-0.2,0.1-0.3,0.3-0.4c0.1,0,0.1-0.1,0.2-0.1l2.3-0.1
	c0,0,0.1,0,0.1-0.1c0,0,0-0.1-0.1-0.1c0,0,0,0,0,0l-2,0c0.3-0.2,0.4-0.3,0.4-0.5l1.7-0.6c0,0,0.1-0.1,0.1-0.1c0,0-0.1-0.1-0.1-0.1
	l-1.7,0.6C78.4,39,78.3,39,78.1,39c0,0-0.1,0-0.1,0l1.8-1.2c0,0,0.1-0.1,0-0.1c0,0-0.1-0.1-0.1,0l-2.2,1.5c0,0-0.1,0-0.1,0
	c-0.3,0.1-0.4,0.2-0.5,0.3c-0.1,0.1-0.1,0.1-0.2,0.1c0,0-0.1,0-0.2,0c-0.1,0-0.3-0.3-0.4-0.5c-0.1-0.3-0.3-0.5-0.4-0.5l0,0
	c-0.1,0-0.2,0-0.3,0.1c0.3-0.4,0.5-0.8,0.4-1.1c-0.1-0.3-0.4-0.4-0.9-0.4c0,0,0,0,0,0c0-0.2,0.1-0.3,0.2-0.4
	c0.1-0.1,0.1-0.2,0.2-0.3c0.1-0.1,0.2-0.2,0.2-0.3l1.8-1.3c0,0,0-0.1,0-0.1c0,0-0.1,0-0.1,0l-1.5,1c0-0.1,0.1-0.2,0-0.3
	c0,0-0.1-0.1-0.2-0.1l1.2-1.5c0,0,0-0.1,0-0.1c0,0-0.1,0-0.1,0l-1.3,1.7c-0.1,0-0.2,0.1-0.3,0.1l0.9-2.2c0,0,0-0.1-0.1-0.1
	c0,0-0.1,0-0.1,0l-1,2.4c-0.2,0.1-0.2,0.3-0.3,0.4c-0.1,0.1-0.1,0.2-0.2,0.2c0,0,0,0-0.1,0c-0.1,0-0.4-0.4-0.7-0.6
	C73,35.1,72.8,35,72.7,35l0,0c0,0-0.1,0-0.1,0c0-0.2,0-0.4-0.1-0.6c-0.2-0.3-0.5-0.4-1.1-0.4c0-0.1,0-0.2-0.1-0.3
	c-0.1-0.1-0.1-0.3-0.1-0.5l1.5-2.3c0,0,0-0.1,0-0.1c0,0-0.1,0-0.1,0l-1.2,1.9c0.1-0.3,0.1-0.6,0-0.7c0,0,0,0,0,0l0.5-1.9
	c0,0,0-0.1-0.1-0.1c0,0-0.1,0-0.1,0.1L71,32c-0.1,0-0.2,0.1-0.3,0.2l0-2.2c0,0,0-0.1-0.1-0.1c0,0,0,0,0,0c0,0-0.1,0-0.1,0.1l0,2.4
	c-0.1,0.1-0.1,0.2-0.2,0.3c-0.1,0.3-0.1,0.5-0.2,0.6c0,0.2,0,0.2-0.2,0.3c0,0,0,0-0.1,0c-0.1,0-0.4-0.1-0.6-0.1
	c-0.3-0.1-0.5-0.2-0.6-0.1c0-0.4-0.1-0.8-0.2-1c-0.2-0.3-0.6-0.2-1.1,0.3c-0.1-0.2-0.1-0.3-0.1-0.4c0-0.1,0-0.2-0.1-0.3
	c0-0.1,0-0.2,0-0.3l0.7-2.2c0,0,0-0.1-0.1-0.1c0,0-0.1,0-0.1,0.1l-0.6,1.8c0-0.1-0.1-0.2-0.1-0.2c0,0-0.1-0.1-0.2-0.1c0,0,0,0-0.1,0
	l0-2c0,0,0-0.1-0.1-0.1c0,0-0.1,0-0.1,0.1l0,2.1c-0.1,0.1-0.1,0.2-0.2,0.3l-0.6-2.3c0,0-0.1-0.1-0.1-0.1s-0.1,0.1-0.1,0.1l0.7,2.5
	c0,0,0,0.1,0,0.1c-0.1,0.3,0,0.4,0,0.6c0,0.1,0,0.2-0.1,0.3c0,0-0.2,0.1-0.3,0.1c-0.1,0-0.2,0-0.3,0c-0.1,0-0.2,0-0.3,0
	c-0.2,0-0.3,0-0.4,0.1c-0.1,0.1-0.1,0.2-0.1,0.3c-0.2-0.4-0.4-0.6-0.6-0.6c-0.3,0-0.5,0.2-0.8,0.7C63.1,33.1,63,33,63,32.9
	c0-0.1-0.1-0.2-0.1-0.3c-0.1-0.3-0.2-0.5-0.3-0.7l-0.3-2.3c0,0-0.1-0.1-0.1-0.1c0,0-0.1,0.1-0.1,0.1l0.3,2.1c0,0-0.1,0-0.1,0
	c0,0-0.1,0-0.2,0.1c0,0,0,0,0,0l-1-2.1c0,0-0.1-0.1-0.1,0c0,0-0.1,0.1,0,0.1l1.1,2.2c0,0.1,0,0.1-0.1,0.2l-1.7-1.9c0,0-0.1,0-0.1,0
	c0,0,0,0.1,0,0.1l1.8,2.1c0,0.1,0,0.2,0,0.2c0,0.3,0.1,0.4,0.2,0.5c0.1,0.1,0.1,0.2,0,0.3c-0.1,0.1-0.4,0.2-0.7,0.2
	c-0.4,0.1-0.6,0.1-0.7,0.2c-0.1,0.1-0.1,0.3,0,0.5c-0.1-0.1-0.2-0.2-0.4-0.2c-0.3,0-0.5,0.3-0.8,0.9c-0.2-0.1-0.3-0.2-0.3-0.3
	c0-0.1-0.1-0.2-0.2-0.3c-0.2-0.4-0.4-0.6-0.5-0.7l-0.7-1.9c0,0-0.1-0.1-0.1-0.1c0,0-0.1,0.1-0.1,0.1l0.6,1.8c-0.1,0-0.1,0-0.2,0.1
	c0,0-0.1,0.1-0.1,0.2l-1.4-1.8c0,0-0.1,0-0.1,0c0,0,0,0.1,0,0.1l1.5,2c0,0.1,0,0.1,0,0.2l-2.1-1.6c0,0-0.1,0-0.1,0c0,0,0,0.1,0,0.1
	l2.2,1.7c0,0,0,0,0,0c0.1,0.3,0.2,0.4,0.3,0.5c0.1,0.1,0.1,0.1,0,0.3c-0.1,0.1-0.4,0.2-0.6,0.3c-0.4,0.2-0.6,0.2-0.6,0.4
	c0,0.2,0,0.4,0.1,0.6c-0.2-0.1-0.4-0.2-0.6-0.2c0,0,0,0-0.1,0c-0.2,0-0.3,0.1-0.4,0.1c0,0-0.1,0-0.1,0c0,0-0.1,0-0.2-0.1
	c-0.1-0.1-0.2-0.2-0.3-0.3c-0.1-0.1-0.2-0.2-0.3-0.3l-0.8-2.3c0,0-0.1-0.1-0.1-0.1c0,0-0.1,0.1-0.1,0.1l0.8,2.1c-0.1,0-0.2,0-0.3,0
	l0,0l0,0c0,0,0,0,0,0l-1.4-1.9c0,0-0.1,0-0.1,0c0,0,0,0.1,0,0.1l1.4,1.9c0,0.1,0,0.1-0.1,0.2l-1.1-0.8c0,0,0-0.1-0.1-0.1
	c0,0,0,0,0,0l-0.8-0.6c0,0-0.1,0-0.1,0c0,0,0,0.1,0,0.1l0.8,0.6l0.1,1.8c-0.1-0.1-0.2-0.2-0.3-0.3l0,0l0,0l-0.4-1c0,0,0,0,0-0.1
	l-0.2-0.7c0,0-0.1-0.1-0.1-0.1c0,0-0.1,0.1-0.1,0.1l0.3,0.7l-0.2,0.6L51.6,36l0-0.3c0,0,0-0.1-0.1-0.1c-0.1,0-0.1,0-0.1,0.1l0,0.2
	c0,0,0,0-0.1,0c0,0,0,0.1,0,0.1l0.1,0.1l-0.1,1.1L51,37.4l-0.1-0.9l0.2-0.3c0,0,0-0.1,0-0.1c0,0-0.1,0-0.1,0l-0.1,0.2l-0.1-0.5
	c0,0-0.1-0.1-0.1-0.1c0,0-0.1,0.1-0.1,0.1l0.1,0.7l-0.8,1.3c0,0,0,0-0.1,0c-0.1,0-0.1,0-0.1,0l0.6-2c0,0,0-0.1-0.1-0.1
	c0,0-0.1,0-0.1,0.1l-0.7,2.2c-0.2,0.1-0.3,0.4-0.4,0.5c-0.1,0.1-0.2,0.3-0.2,0.3c0,0-0.1,0-0.1-0.1c-0.1-0.1-0.2-0.3-0.5-0.2
	c-0.1,0-0.2,0.2-0.3,0.3c0-0.1,0-0.3,0-0.4c-0.1-0.2-0.2-0.3-0.2-0.3c-0.1-0.1-0.1-0.1,0-0.3c0-0.1,0.1-0.2,0.2-0.4
	c0.1-0.1,0.2-0.3,0.2-0.4l1.9-1.4c0,0,0-0.1,0-0.1c0,0-0.1,0-0.1,0L48,36.7c0-0.1,0-0.1,0-0.2l1.4-1.9c0,0,0-0.1,0-0.1
	c0,0-0.1,0-0.1,0l-1.4,1.9c0,0-0.1,0-0.1,0l0.6-1.4l0.2,0c0,0,0.1-0.1,0.1-0.1c0,0-0.1-0.1-0.1-0.1l-0.1,0l0.3-0.6c0,0,0-0.1,0-0.1
	c0,0-0.1,0-0.1,0l-0.3,0.8l-1.4,0.4c0-0.1,0.1-0.2,0.1-0.3l1.5-0.9c0,0,0.1-0.1,0-0.1c0,0-0.1-0.1-0.1,0l-1.5,0.9
	c0,0-0.1-0.1-0.2-0.1l1.2-1.3c0,0,0-0.1,0-0.1c0,0-0.1,0-0.1,0l-1.3,1.4c0,0,0,0,0,0c-0.3,0-0.6,0.2-0.9,0.4
	c-0.2,0.1-0.3,0.2-0.4,0.2C45,35.1,45,35.1,45,35c0-0.1,0-0.2-0.2-0.3c0.2-0.2,0.3-0.4,0.3-0.7c0-0.2,0-0.3-0.1-0.4
	c0-0.1,0-0.1,0.1-0.3c0.1-0.1,0.2-0.2,0.3-0.2c0.1,0,0.1-0.1,0.2-0.1l1.6-0.2c0,0,0.1-0.1,0.1-0.1c0,0-0.1-0.1-0.1-0.1L46,32.6
	c0.1-0.1,0.1-0.2,0.1-0.3l0,0l0,0c0,0,0,0,0,0l1.3-0.6c0,0,0.1-0.1,0-0.1c0,0-0.1-0.1-0.1,0l-1.3,0.6C45.9,32,45.8,32,45.7,32
	l1.2-1.1c0,0,0-0.1,0-0.1c0,0-0.1,0-0.1,0L45.4,32c-0.2,0-0.4,0.1-0.6,0.2c-0.2,0.1-0.4,0.2-0.4,0.1c0-0.1,0-0.1,0-0.2
	c0-0.2,0-0.4-0.3-0.5c0,0,0,0,0,0c0.2-0.2,0.3-0.3,0.3-0.5c0-0.3-0.2-0.5-0.6-0.8c0.1-0.2,0.2-0.3,0.3-0.3c0.1,0,0.2-0.1,0.3-0.2
	c0.2-0.1,0.4-0.2,0.5-0.3l1.6-0.4c0,0,0.1-0.1,0.1-0.1c0,0-0.1-0.1-0.1-0.1l-1.4,0.4c0-0.1,0-0.1,0-0.2c0-0.1,0-0.1-0.1-0.1l1.4-0.9
	c0,0,0.1-0.1,0-0.1c0,0-0.1-0.1-0.1,0l-1.5,0.9c-0.1,0-0.1,0-0.2,0l1.3-1.4c0,0,0-0.1,0-0.1c0,0-0.1,0-0.1,0l-1.4,1.5
	c0,0-0.1,0-0.1,0c-0.2,0-0.4,0.2-0.5,0.2c-0.1,0-0.1,0.1-0.1,0.1c0,0-0.1,0-0.2-0.1c-0.1-0.1-0.2-0.4-0.3-0.7
	c-0.1-0.4-0.2-0.6-0.3-0.7c-0.1,0-0.1,0-0.2,0c-0.1,0-0.2,0-0.4,0.1c0.4-0.3,0.6-0.6,0.5-0.9c0-0.2-0.2-0.4-0.6-0.5
	c0.1-0.2,0.1-0.2,0.2-0.3c0.1-0.1,0.1-0.1,0.2-0.2c0.2-0.1,0.3-0.2,0.4-0.3l1.9-0.6c0,0,0.1-0.1,0.1-0.1c0,0-0.1-0.1-0.1-0.1
	l-1.7,0.5c0-0.1,0.1-0.1,0-0.2c0,0,0,0,0-0.1l1.5-1.1c0,0,0-0.1,0-0.1c0,0-0.1,0-0.1,0l-1.6,1.1c0,0-0.1,0-0.1,0c0,0,0,0,0,0
	l1.3-1.6c0,0,0-0.1,0-0.1c0,0-0.1,0-0.1,0l-1.4,1.8c-0.1,0-0.1,0-0.2,0.1c-0.2,0.1-0.3,0.2-0.4,0.3c-0.1,0.1-0.1,0.1-0.2,0.1
	c0,0-0.1,0-0.1,0c-0.1,0-0.2-0.3-0.3-0.5c-0.1-0.3-0.2-0.5-0.4-0.5c0,0,0,0,0,0c-0.1,0-0.2,0-0.2,0c0.1-0.2,0.1-0.4,0.1-0.6
	c-0.1-0.4-0.5-0.6-1.3-0.7c0-0.3,0-0.3,0.1-0.4c0-0.1,0.1-0.1,0.2-0.3c0.2-0.2,0.3-0.4,0.3-0.6l1.5-1.1c0,0,0-0.1,0-0.1
	s-0.1,0-0.1,0l-1.4,1c0,0,0,0,0-0.1c0-0.1-0.1-0.1-0.1-0.1l1.2-1.5c0,0,0-0.1,0-0.1c0,0-0.1,0-0.1,0l-1.2,1.6c0,0-0.1,0-0.1,0
	l0.8-1.9c0,0,0-0.1,0-0.1c0,0-0.1,0-0.1,0l-0.8,1.9c-0.2,0-0.3,0.1-0.5,0.2c-0.2,0.1-0.3,0.3-0.3,0.4c0,0.1,0,0.1-0.1,0.1
	c0,0-0.1,0-0.2,0c-0.2,0-0.5-0.3-0.7-0.6c-0.3-0.3-0.5-0.5-0.7-0.5c-0.1,0-0.2,0-0.3,0.1c0-0.2,0-0.3,0-0.4c-0.1-0.3-0.5-0.4-1-0.5
	c-0.1-0.4,0.2-0.9,0.6-1.1l0,0l0,0c0-0.1,0-0.1,0-0.2l1.4-1c0,0,0-0.1,0-0.1c0,0-0.1,0-0.1,0l-1.3,0.9c0-0.1,0-0.1-0.1-0.2l1-1.3
	c0,0,0-0.1,0-0.1c0,0-0.1,0-0.1,0l-1,1.3c0,0-0.1,0-0.1,0l0.6-1.6c0,0,0-0.1,0-0.1c0,0-0.1,0-0.1,0l-0.7,1.7
	c-0.3,0.1-0.6,0.3-0.8,0.5l-0.1,0.1c-0.1,0.1-0.2,0.1-0.2,0.2c-0.1,0.1-0.1,0.1-0.2,0.1c0,0-0.1,0-0.2,0c-0.1,0-0.2-0.2-0.4-0.3
	c-0.1-0.1-0.2-0.3-0.4-0.3c0,0,0,0,0,0c-0.2,0-0.3,0.1-0.4,0.2c0-0.2,0-0.4-0.1-0.5c-0.1-0.3-0.5-0.4-0.9-0.4c0,0,0,0,0,0
	c-0.1-0.3,0.1-0.8,0.4-1l0,0l0,0c0-0.1,0-0.2,0-0.3l0.4-0.4c0.2,0,0.4,0,0.6,0c1,0,2.3-0.2,2.7-1.6l0-0.1l-0.1,0
	c-0.1,0-0.2-0.1-0.3-0.1c-0.3,0-0.6,0.2-0.9,0.4c-0.3,0.2-0.5,0.4-0.9,0.4c-0.1,0-0.2,0-0.3,0l0,0c0,0,0-0.1,0-0.1c0,0-0.1,0-0.1,0
	l-0.2,0.2c-0.1,0-0.2,0-0.3,0l0.4-0.5c0,0,0-0.1,0-0.1c0,0-0.1,0-0.1,0l-0.5,0.6c-0.1,0-0.2,0-0.4,0l0.4-0.9c0,0,0-0.1,0-0.1
	c0,0-0.1,0-0.1,0l-0.4,0.9c-0.1,0-0.1,0-0.2,0c-0.3,0-0.5-0.1-0.7-0.1c-0.1,0-0.3,0-0.5,0c-0.6,0-1.8,0.1-2.7,0.4
	c-0.1,0-0.1-0.1-0.2-0.1c0.1-0.1,0.3-0.1,0.4-0.2c0.3-0.2,0.6-0.4,0.6-0.8c0-0.4,0-0.8-0.3-1.2c-0.3-0.4-0.7-0.9-1.1-1l-0.1,0l0,0.1
	c0,0.2,0.1,0.3,0.2,0.5c0,0.1,0.1,0.1,0.1,0.2c0.1,0.2,0.1,0.3,0.2,0.5c0.1,0.2,0.2,0.4,0.2,0.5c0.2,0.4-0.1,0.6-0.4,0.9
	c-0.1,0.1-0.1,0.1-0.2,0.2c-0.1,0.1-0.2,0.2-0.3,0.3c0,0,0,0,0,0c-0.2,0-0.3,0-0.4,0c0,0,0,0,0,0l0,0c0.2-0.3,0.4-0.7,0.4-1.1
	c0-0.1,0-0.1,0-0.2c0-0.3,0-0.5,0-0.8c0-0.3-0.2-0.6-0.3-0.9L27,12c-0.1-0.1-0.1-0.3-0.2-0.4c0-0.1-0.1-0.1-0.1-0.2
	c0,0,0-0.1-0.1-0.1c-0.2-0.3-0.3-0.7-0.5-0.7c-0.1,0-0.1,0-0.2,0.1l0,0l0,0.1c0.1,0.1,0.1,0.3,0.2,0.4c0.1,0.2,0.2,0.4,0.3,0.6
	c0.1,0.2,0.2,0.5,0.3,0.7c0.2,0.5,0.3,1,0.2,1.6c0,0.3-0.2,0.6-0.3,0.9c-0.2-0.2-0.2-0.4-0.3-0.6c-0.1-0.3-0.2-0.6-0.7-0.8
	c-0.7-0.3-1.1-0.4-1.4-0.1c-0.3,0.3-0.2,0.9-0.2,1.4c0,0,0,0,0,0c0,0-0.1,0-0.1-0.1c-0.2-0.1-0.4-0.2-0.6-0.1l0,0l0,0
	c0,0.1-0.1,0.2-0.2,0.4l0,0.1l0.1,0c0.1,0,0.2,0,0.3,0c0.1,0,0.1,0,0.2,0c0.1,0,0.2,0.1,0.3,0.2c0.1,0,0.1,0.1,0.2,0.1l0,0
	c0,0.1,0,0.1,0,0.2c0,0.2-0.2,0.4-0.4,0.6c0,0-0.1-0.1-0.1-0.1c-0.1-0.1-0.3-0.2-0.4-0.3c0,0-0.1-0.1-0.1-0.1
	c-0.1-0.1-0.1-0.2-0.2-0.2l-0.1,0l-0.1,0.1c-0.2,0.3-0.2,0.4-0.3,0.5c0,0.1,0,0.1,0,0.1c0.1,0.1,0.1,0.1,0.2,0.1c0,0,0,0,0,0
	c0,0,0.1,0,0.1,0c0.1,0,0.2,0.1,0.3,0.2c0,0,0.1,0.1,0.1,0.1c0,0-0.1,0-0.1,0.1c-0.4,0.3-0.8,0.7-0.8,1c0,0.2,0.2,0.4,0.6,0.6
	c0.1,0.1,0.3,0.1,0.6,0.1c-0.1,0.2-0.3,0.4-0.4,0.6c-0.4,0.4-0.9,0.7-1.4,0.8c-0.2,0.1-0.5,0.1-0.8,0.2c-0.2,0.1-0.4,0.1-0.6,0.2
	c-0.1,0-0.3,0.1-0.4,0.1l-0.1,0l0,0.1c0,0.1,0,0.2,0.1,0.3c0.2,0.2,0.5,0.1,0.9,0c0.1,0,0.1,0,0.1,0c0.1,0,0.2,0,0.2,0
	c0.2,0,0.3,0,0.5-0.1c0.1,0,0.1,0,0.2,0c0.3-0.1,0.6-0.2,0.9-0.3c0.2-0.2,0.4-0.3,0.6-0.5c0.1-0.1,0.1-0.1,0.2-0.2
	c0.3-0.3,0.5-0.6,0.6-1c0.1,0,0.1,0,0.2,0c0,0,0.1,0,0.1,0c0,0.2,0,0.5,0,0.7c0,0.1,0,0.2-0.1,0.3C24,20,24,20.4,23.5,20.5
	c-0.2,0.1-0.4,0.1-0.6,0.1c-0.2,0-0.4,0.1-0.5,0.1c-0.1,0-0.1,0-0.2,0c-0.2,0-0.4,0.1-0.5,0.2l-0.1,0.1l0.1,0.1
	c0.3,0.2,0.8,0.3,1.2,0.3c0.1,0,0.2,0,0.3,0c0.5,0,0.9-0.3,1.2-0.6c0.1-0.1,0.1-0.1,0.1-0.2c-0.1,0.6,0,1.3,0.1,2
	c0.1,1,0.3,1.9-0.1,2.4c-0.2,0.2-0.5,0.4-0.9,0.4l-0.1,0L24,26l0.1,0c0.3,0,0.6-0.2,0.8-0.4c0.6-0.7,0.7-2.3,0.6-3.2
	c0-0.2,0-0.4-0.1-0.6c-0.1-0.4-0.1-0.9,0-1.3c0.1-0.2,0.2-0.4,0.4-0.6c0.1-0.1,0.1-0.2,0.2-0.3c0,0,0,0,0,0.1c0,0.2,0,0.4,0.1,0.5
	c0.1,0.2,0.4,0.2,0.7,0.2c0.2,0,0.4,0,0.6-0.1c-0.2,0.2-0.4,0.5-0.3,0.8c0.1,0.4,0.3,0.4,0.5,0.5c0.1,0,0.2,0,0.3,0.1
	c0.2,0.3,0,0.5-0.1,0.8c-0.1,0.2-0.2,0.4-0.2,0.6l-1.5,1c0,0,0,0.1,0,0.1c0,0,0,0,0.1,0c0,0,0,0,0.1,0l1.4-1c0,0,0,0.1,0.1,0.1
	L26.5,25c0,0,0,0.1,0,0.1c0,0,0,0,0.1,0c0,0,0.1,0,0.1,0l1.1-1.4c0,0,0,0,0,0.1l0,0l-0.7,1.6c0,0,0,0.1,0.1,0.1c0,0,0,0,0,0
	c0,0,0.1,0,0.1-0.1l0.7-1.7c0.4,0,0.5-0.2,0.5-0.4c0.1-0.1,0.1-0.2,0.2-0.3c0.1-0.1,0.2-0.1,0.3-0.1c0,0,0.1,0,0.1,0.1
	c0.1,0.1,0.2,0.1,0.5,0.2c0.2,0,0.3,0,0.5-0.1c0,0.1,0,0.2,0,0.2c0.1,0.4,0.3,0.5,0.5,0.5c0.1,0,0.2,0.1,0.3,0.2
	c0.2,0.3,0,0.5-0.2,0.8c-0.1,0.2-0.3,0.5-0.3,0.8l-1.4,1c0,0,0,0.1,0,0.1c0,0,0,0,0.1,0c0,0,0,0,0.1,0l1.4-1c0,0,0,0.1,0.1,0.1
	l-1.1,1.5c0,0,0,0.1,0,0.1c0,0,0,0,0.1,0c0,0,0.1,0,0.1,0l1.1-1.5l0,0l0,0c0,0,0,0,0,0L30,27.8c0,0,0,0.1,0,0.1c0,0,0,0,0,0
	c0,0,0.1,0,0.1-0.1l0.7-1.8c0.3,0,0.4-0.2,0.5-0.4c0.1-0.1,0.1-0.2,0.3-0.3c0.2-0.1,0.2-0.1,0.3-0.1c0,0,0.1,0,0.1,0.1
	c0.1,0.1,0.2,0.2,0.5,0.2c0.1,0,0.2,0,0.3,0c0,0.1,0,0.2,0,0.2c0.1,0.4,0.3,0.5,0.5,0.6c0.1,0,0.2,0.1,0.3,0.2
	c0,0.1-0.1,0.3-0.3,0.4c-0.2,0.2-0.4,0.5-0.5,0.7l-1.6,0.6c0,0-0.1,0.1-0.1,0.1c0,0,0,0.1,0.1,0.1c0,0,0,0,0,0l1.5-0.6
	c0,0.1,0,0.2,0,0.3l-1.3,1.1c0,0,0,0.1,0,0.1c0,0,0,0,0.1,0c0,0,0,0,0.1,0l1.3-1.1c0,0,0,0.1,0.1,0.1l0,0l0,0c0,0,0,0,0,0l-1,1.4
	c0,0,0,0.1,0,0.1c0,0,0,0,0.1,0c0,0,0.1,0,0.1,0l1-1.4c0,0,0,0,0.1,0c0.3,0,0.5-0.2,0.7-0.3c0.1-0.1,0.2-0.2,0.4-0.2
	c0.1,0,0.2-0.1,0.3-0.1c0.1,0,0.1,0,0.2,0.1c0.1,0.1,0.2,0.2,0.5,0.3c0.1,0,0.2,0,0.2,0c0,0-0.1,0.1-0.1,0.1
	c-0.1,0.4,0.1,0.5,0.2,0.5C36,29,36,29,36,29.1c0,0.1-0.2,0.2-0.4,0.4c-0.4,0.3-0.8,0.6-0.9,0.9l-2.1,0.8c0,0-0.1,0.1-0.1,0.1
	c0,0,0,0.1,0.1,0.1c0,0,0,0,0,0l2-0.8c0,0,0,0.1,0,0.1l-1.8,1.5c0,0,0,0.1,0,0.1c0,0,0,0,0.1,0c0,0,0,0,0.1,0l1.9-1.5c0,0,0,0,0,0
	l-1.4,1.9c0,0,0,0.1,0,0.1c0,0,0,0,0.1,0c0,0,0.1,0,0.1,0l1.5-2c0.2,0,0.5-0.1,0.7-0.3c0.2-0.1,0.3-0.2,0.4-0.2c0.1,0,0.2,0,0.3,0
	c0,0,0,0,0.1,0.1c0,0.1,0.1,0.2,0.3,0.2c0,0,0.1,0,0.1,0c-0.1,0.1-0.2,0.1-0.2,0.2c-0.2,0.4,0,0.5,0.2,0.6c0.1,0.1,0.1,0.1,0.1,0.2
	c-0.1,0.1-0.3,0.2-0.5,0.3c-0.3,0.1-0.7,0.3-0.9,0.6l-1.8,0.1c0,0-0.1,0-0.1,0.1c0,0,0,0.1,0.1,0.1c0,0,0,0,0,0l1.7-0.1
	c0,0.1,0,0.2,0,0.2l-1.7,0.7c0,0-0.1,0.1,0,0.1c0,0,0,0.1,0.1,0.1c0,0,0,0,0,0l1.7-0.7c0,0,0.1,0.1,0.1,0.1l-1.5,1.2
	c0,0,0,0.1,0,0.1c0,0,0,0,0.1,0c0,0,0,0,0.1,0l1.7-1.3c0,0,0.1,0,0.1,0c0.2,0,0.4-0.1,0.6-0.1c0.2-0.1,0.3-0.1,0.5-0.1h0
	c0.3,0,0.3,0,0.3,0.1c0,0.1,0.1,0.2,0.3,0.4c0.1,0.1,0.2,0.1,0.2,0.1c0,0,0,0,0,0c-0.1,0.1,0,0.3,0.2,0.7c0.1,0.2,0.3,0.5,0.3,0.7
	c0,0.2-0.1,0.2-0.2,0.2c-0.1,0-0.3,0-0.5,0.2c-0.1,0.1-0.2,0.1-0.2,0.2l-2,0.2c0,0-0.1,0-0.1,0.1c0,0,0,0.1,0.1,0.1c0,0,0,0,0,0
	l1.8-0.2c-0.1,0.1-0.1,0.2-0.1,0.3l-1.7,0.7c0,0-0.1,0.1,0,0.1c0,0,0,0.1,0.1,0.1c0,0,0,0,0,0l1.7-0.7c0,0,0.1,0.1,0.1,0.1l-1.5,1.1
	c0,0,0,0.1,0,0.1c0,0,0,0,0.1,0c0,0,0,0,0.1,0l1.6-1.3c0.2,0,0.4-0.1,0.7-0.2c0.2,0,0.3-0.1,0.4-0.1c0.1,0,0.2-0.1,0.4,0
	c-0.2,0.5-0.2,0.9,0,1.1c0.1,0.1,0.2,0.2,0.4,0.2c-0.1,0.1-0.2,0.3-0.3,0.4c0,0.1,0.1,0.3,0.4,0.6c0.2,0.2,0.4,0.5,0.4,0.6
	c0,0.2,0,0.2-0.2,0.3c-0.1,0-0.3,0.1-0.5,0.3c0,0.1-0.1,0.1-0.1,0.2l-1.9,0.5c0,0-0.1,0.1-0.1,0.1c0,0,0,0.1,0.1,0.1c0,0,0,0,0,0
	l1.7-0.4c0,0.1-0.1,0.2-0.1,0.3l-1.6,0.9c0,0-0.1,0.1,0,0.1c0,0,0,0,0.1,0c0,0,0,0,0,0l1.5-0.9c0,0,0,0,0,0c0,0,0.1,0.1,0.1,0.1
	L37.9,42c0,0,0,0.1,0,0.1c0,0,0,0,0.1,0c0,0,0,0,0.1,0l1.3-1.4c0.2,0,0.4-0.2,0.7-0.4c0.2-0.1,0.3-0.1,0.3-0.2
	c0.1-0.1,0.2-0.1,0.4-0.1c0,0,0,0,0,0c-0.1,0.5,0,0.8,0.2,1c0.1,0.1,0.2,0.2,0.4,0.2c0.1,0,0.2,0,0.4-0.1c0,0.1-0.1,0.2-0.1,0.3
	c0,0.1,0.2,0.3,0.5,0.5c0.2,0.1,0.5,0.3,0.5,0.5c0,0.2,0,0.2-0.1,0.3c-0.1,0.1-0.2,0.2-0.4,0.4c0,0,0,0,0,0.1l-2,1
	c0,0-0.1,0.1,0,0.1c0,0,0,0,0.1,0c0,0,0,0,0,0l1.8-0.9c0,0.1-0.1,0.3-0.1,0.4l-1.4,1.4c0,0,0,0.1,0,0.1c0,0,0,0,0.1,0s0,0,0.1,0
	l1.3-1.4c0,0,0,0,0,0c0,0.1,0.1,0.1,0.2,0.1l-0.9,1.7c0,0,0,0.1,0,0.1c0,0,0,0,0,0c0,0,0.1,0,0.1,0l1-1.8c0.2-0.1,0.3-0.3,0.5-0.5
	c0.1-0.1,0.2-0.2,0.3-0.2c0.1-0.1,0.1-0.1,0.3-0.2c0.1,0.7,0.3,1,0.6,1c0.2,0,0.4-0.1,0.6-0.3c0.1,0.1,0.2,0.2,0.4,0.3
	c0.2,0.1,0.5,0.2,0.5,0.4c0.1,0.2,0,0.3-0.1,0.4c-0.1,0.1-0.2,0.2-0.3,0.5c0,0,0,0.1,0,0.1l-1.5,1.3c0,0,0,0.1,0,0.1c0,0,0,0,0.1,0
	c0,0,0,0,0.1,0l1.3-1.1c0,0.2,0,0.4,0,0.5l-0.9,1.4c0,0,0,0.1,0,0.1c0,0,0,0,0,0c0,0,0.1,0,0.1,0l0.8-1.3c0,0,0.1,0,0.1,0
	c0,0,0,0,0,0c0.1,0,0.2-0.1,0.3-0.1L45.2,48c0,0,0,0.1,0.1,0.1c0,0,0,0,0,0c0,0,0.1,0,0.1-0.1l0.7-2.1c0.1-0.1,0.1-0.2,0.2-0.3
	c0.1-0.1,0.3-0.2,0.5-0.3c0.1-0.1,0.2-0.1,0.3-0.2c0.3,0.4,0.6,0.5,0.9,0.5c0.2,0,0.4-0.1,0.6-0.4c0,0,0,0.1,0,0.1
	c0.1,0.1,0.2,0.1,0.5,0.1c0.1,0,0.3,0,0.4,0c0.1,0,0.3,0,0.4,0c0.4,0,0.4,0,0.5,0.1c0.2,0.1,0.1,0.2,0.1,0.3c0,0.1-0.1,0.3-0.1,0.5
	c0,0.1,0,0.2,0.1,0.3L50,48.9c0,0,0,0.1,0.1,0.1c0,0,0,0,0,0c0,0,0.1,0,0.1-0.1l0.3-1.9c0.1,0.1,0.2,0.2,0.3,0.2l0.2,2
	c0,0,0,0.1,0.1,0.1c0,0,0,0,0,0c0,0,0.1-0.1,0.1-0.1l-0.3-2c0,0,0.1-0.1,0.1-0.2l0.8,2c0,0,0,0.1,0.1,0.1c0,0,0,0,0,0
	c0,0,0.1-0.1,0-0.1l-0.9-2.2c0-0.1,0.1-0.3,0.1-0.5c0.1-0.2,0.1-0.3,0.1-0.4c0-0.1,0-0.2,0.2-0.4c0.5,0.5,0.9,0.6,1.1,0.3
	c0.2-0.2,0.3-0.5,0.3-1c0.1,0.1,0.1,0.2,0.2,0.3c0.1,0.1,0.4,0,0.7-0.1C54,45,54.2,45,54.4,45c0.1,0,0.1,0,0.1,0
	c0.2,0.1,0.2,0.2,0.2,0.3c0,0.1,0,0.3,0.1,0.6l-0.5,1.9c0,0,0,0.1,0.1,0.1c0,0,0,0,0,0c0,0,0.1,0,0.1-0.1l0.5-1.8
	c0.1,0.1,0.2,0.3,0.3,0.4l0.1,1.7c0,0,0,0.1,0.1,0.1c0,0,0,0,0,0c0,0,0.1,0,0.1-0.1l-0.1-1.6c0,0,0.1,0,0.1,0c0.1,0,0.1,0,0.2-0.1
	c0,0,0,0,0,0l0.5,1.5c0,0,0,0.1,0.1,0.1c0,0,0,0,0,0c0,0,0.1-0.1,0.1-0.1l-0.6-1.9c0-0.2,0-0.4-0.1-0.7c0-0.2,0.1-0.4,0.1-0.5
	c0.1-0.1,0.1-0.2,0.1-0.3c0.6,0.1,0.9-0.1,1.1-0.4c0.1-0.2,0.1-0.4,0.1-0.7c0.1,0.1,0.2,0.2,0.3,0.2c0.1,0,0.3-0.1,0.6-0.3
	c0.2-0.2,0.5-0.4,0.6-0.4h0c0.2,0,0.2,0.1,0.3,0.2c0,0.1,0.1,0.3,0.3,0.5c0.1,0.1,0.1,0.1,0.2,0.2l0.5,2.2c0,0,0,0.1,0.1,0.1
	c0,0,0,0,0,0c0,0,0.1-0.1,0.1-0.1l-0.5-2.1c0.1,0.1,0.2,0.1,0.3,0.1c0,0,0,0,0.1,0l1.1,1.9c0,0,0,0,0.1,0c0,0,0,0,0,0
	c0,0,0.1-0.1,0-0.1l-1.1-1.9c0,0,0,0,0,0c0-0.1,0-0.1,0-0.2l1.7,1.6c0,0,0,0,0.1,0c0,0,0,0,0.1,0c0,0,0-0.1,0-0.1l-1.9-1.9
	c-0.1-0.1-0.1-0.2-0.2-0.4c-0.1-0.2-0.1-0.3-0.1-0.3c-0.1-0.1-0.1-0.2-0.1-0.4c0.7,0.1,1,0,1.2-0.3c0.1-0.1,0-0.3,0-0.5
	c0.1-0.1,0.1-0.1,0.2-0.1c0.1,0,0.2,0.2,0.3,0.4c0.1,0.2,0.3,0.5,0.5,0.7l0.5,2.3c0,0,0,0.1,0.1,0.1c0,0,0,0,0,0
	c0,0,0.1-0.1,0.1-0.1l-0.5-2.2c0.1,0,0.1,0,0.2,0c0,0,0.1,0,0.1,0l1.2,2c0,0,0,0,0.1,0c0,0,0,0,0,0c0,0,0.1-0.1,0-0.1l-1.3-2.1
	c0-0.1,0-0.1,0.1-0.2l1.8,1.8c0,0,0,0,0.1,0c0,0,0,0,0.1,0c0,0,0-0.1,0-0.1l-2-1.9c0-0.1-0.1-0.2-0.1-0.4c0-0.1-0.1-0.3-0.1-0.4
	c0-0.3,0-0.3,0.1-0.3c0.1,0,0.2-0.1,0.3-0.3c0.2-0.2,0.2-0.5,0.2-0.8c0,0,0,0,0,0c0.1,0,0.2-0.1,0.3-0.1c0.1-0.1,0.1-0.1,0.2-0.1
	c0.1,0.1,0.1,0.3,0.2,0.4c0.1,0.3,0.2,0.6,0.4,0.8l0,2.2c0,0,0,0.1,0.1,0.1h0c0,0,0.1,0,0.1-0.1l0-2.1c0.1,0,0.2,0.1,0.3,0.1l0.1,0
	l0,0l0.7,2.2c0,0,0,0.1,0.1,0.1c0,0,0,0,0,0c0,0,0.1-0.1,0.1-0.1L64.6,41c0-0.1,0.1-0.1,0.1-0.2L66,43c0,0,0,0,0.1,0c0,0,0,0,0,0
	c0,0,0.1-0.1,0-0.1l-0.1-0.1l0-2.2c0.1,0.1,0.2,0.2,0.3,0.2l0,0l0.4,1.2l-0.3,0.4c0,0,0,0.1,0,0.1c0,0,0,0,0.1,0c0,0,0.1,0,0.1,0
	l0.2-0.3l0.1,0.4l0,0c0,0-0.1,0.1,0,0.1c0,0,0,0,0.1,0c0,0,0,0,0,0l0,0.1c0,0,0,0.1,0.1,0.1c0,0,0,0,0,0c0,0,0.1-0.1,0.1-0.1l0-0.1
	l0.4-0.2l-0.2,0.7c0,0,0,0.1,0.1,0.1c0,0,0,0,0,0c0,0,0.1,0,0.1-0.1l0.3-0.9l0.1-0.1l0.1,0.1c0,0,0,0,0.1,0c0,0,0,0,0,0
	c0,0,0.1-0.1,0-0.1l-0.1-0.1l0.3-0.2l-0.1,0.7l-0.5,0.5l-0.1,0c0,0-0.1,0-0.1,0.1c0,0,0,0,0,0l-0.3,0.2c0,0,0,0.1,0,0.1
	c0,0,0,0,0.1,0c0,0,0,0,0.1,0l0.4-0.4l0.4,0c0,0,0,0.1,0.1,0.1c0,0,0,0,0,0c0,0,0.1,0,0.1-0.1l0,0l0.2,0l-0.5,0.9l-0.5,0.2
	c0,0-0.1,0.1,0,0.1c0,0,0,0.1,0.1,0.1c0,0,0,0,0,0l2-0.9l0,0l0,0c0.1,0,0.1,0,0.2,0.1l-1.5,1.2l-0.3,0c-0.1,0-0.1,0-0.1,0.1
	c0,0,0,0.1,0.1,0.1l0.1,0l-0.2,0.1c0,0,0,0.1,0,0.1c0,0,0,0,0.1,0c0,0,0,0,0.1,0l0.3-0.3l1.4,0c-0.2,0.1-0.3,0.3-0.3,0.5l-1.7,0.5
	c0,0-0.1,0.1-0.1,0.1c0,0,0,0.1,0.1,0.1l-0.1,0c0,0-0.1,0-0.1,0.1c0,0,0,0.1,0.1,0.1l0.9,0.3l-0.4,0.3c0,0-0.1,0.1,0,0.1
	c0,0,0,0,0.1,0c0,0,0,0,0,0l0.6-0.3l0.9,0.3c-0.1,0.1-0.2,0.1-0.3,0.3l-1.4-0.1l-0.5-0.4c0,0-0.1,0-0.1,0c0,0,0,0.1,0,0.1l0.3,0.3
	l-0.6,0c0,0-0.1,0-0.1,0.1c0,0,0,0.1,0.1,0.1l0.8,0l0.6,0.5L68,48.4l-0.7-0.3l-0.1-0.2c0,0-0.1-0.1-0.1,0c0,0-0.1,0.1,0,0.1l0,0
	L67,48c0,0-0.1,0-0.1,0c0,0,0,0.1,0,0.1l0.3,0.1l0.5,0.8l-0.9-0.1c0,0,0,0,0,0l-0.6-0.5c0,0-0.1,0-0.1,0c0,0,0,0.1,0,0.1l1.8,1.7
	c0,0.1,0,0.1,0,0.2l-2.3-1.2c0,0-0.1,0-0.1,0c0,0,0,0.1,0,0.1l2.5,1.3c0.1,0.1,0.1,0.2,0.2,0.3c0.1,0.1,0.2,0.2,0.2,0.3
	c0.1,0.2,0.1,0.2,0,0.3c0,0.1-0.1,0.1-0.2,0.3c0,0.1,0,0.2,0,0.3c-0.1-0.1-0.3-0.2-0.4-0.2c-0.3,0-0.4,0.2-0.5,0.4
	c0,0.1-0.1,0.2-0.1,0.2c-0.1,0-0.2-0.2-0.3-0.3c-0.2-0.2-0.4-0.5-0.7-0.6l-1-1.7c0,0-0.1-0.1-0.1,0c0,0-0.1,0.1,0,0.1l0.9,1.5
	c-0.1,0-0.2,0-0.3,0.1l0,0l0,0c0,0,0,0,0,0.1L64,50.3c0,0-0.1,0-0.1,0c0,0,0,0.1,0,0.1l1.6,1.4c0,0.1,0,0.2,0.1,0.3l-2.1-1
	c0,0-0.1,0-0.1,0s0,0.1,0,0.1l2.3,1.1c0,0,0.1,0.1,0.1,0.1c0.1,0.1,0.2,0.3,0.2,0.4c0.1,0.3,0,0.3,0,0.4c-0.1,0.1-0.2,0.2-0.2,0.4
	c-0.1,0.3-0.1,0.6,0,0.9c0,0-0.1,0-0.1-0.1c-0.1,0-0.1,0-0.2,0c-0.3,0-0.4,0.2-0.4,0.4c0,0.1-0.1,0.2-0.2,0.2
	c-0.3,0.1-0.5-0.2-0.7-0.5c-0.1-0.1-0.2-0.3-0.4-0.4l-0.8-1.7c0,0-0.1-0.1-0.1,0c0,0-0.1,0.1,0,0.1l0.7,1.5c-0.1,0-0.1,0-0.2,0
	c-0.1,0-0.2,0-0.3,0.1l0,0L61.8,53c0,0-0.1,0-0.1,0c0,0,0,0.1,0,0.1l1.2,1.4c0,0.2,0,0.3,0.1,0.4l-1.8-1.2c0,0-0.1,0-0.1,0
	c0,0,0,0.1,0,0.1l2.3,1.5c0.1,0.1,0.1,0.1,0.1,0.2c0.1,0.4,0.1,0.4,0,0.5c-0.1,0.1-0.2,0.2-0.2,0.4c0,0.1,0,0.3,0,0.4
	c0,0-0.1,0-0.1,0c-0.1,0-0.1,0-0.2,0c-0.3,0-0.4,0.2-0.4,0.4c0,0.1-0.1,0.2-0.2,0.2c-0.3,0.1-0.5-0.2-0.7-0.5
	c-0.1-0.1-0.1-0.1-0.2-0.2l-0.6-2.1c0,0-0.1-0.1-0.1-0.1c0,0-0.1,0.1-0.1,0.1l0.5,1.9c-0.1-0.1-0.2-0.1-0.4-0.1c0,0-0.1,0-0.1,0
	l-1.1-1.6c0,0-0.1-0.1-0.1,0c0,0-0.1,0.1,0,0.1l1,1.5c0,0,0,0,0,0l0,0l0,0c0,0.1,0,0.2,0,0.3l-1.5-1.3c0,0-0.1,0-0.1,0
	c0,0,0,0.1,0,0.1l1.7,1.5c0.1,0.1,0.1,0.2,0.2,0.3c0.1,0.1,0.2,0.2,0.3,0.4c0.1,0.4,0.1,0.4,0,0.5c-0.1,0.1-0.2,0.2-0.2,0.4
	c-0.1,0.4,0,0.8,0.2,1.1c0,0,0,0-0.1,0c-0.4,0-0.5,0.2-0.5,0.4c0,0.1-0.1,0.2-0.1,0.2c-0.2,0.1-0.5-0.1-0.7-0.4c0,0-0.1-0.1-0.1-0.1
	l-0.9-2.1c0,0-0.1-0.1-0.1,0c0,0-0.1,0.1,0,0.1l0.8,1.9c-0.1-0.1-0.2-0.1-0.4-0.1c0,0-0.1,0-0.1,0l-1.3-1.5c0,0-0.1,0-0.1,0
	c0,0,0,0.1,0,0.1l1.2,1.5c0,0,0,0,0,0l0,0l0,0c0,0.1,0,0.2,0,0.2l-1.7-1.2c0,0-0.1,0-0.1,0c0,0,0,0.1,0,0.1l1.9,1.3
	c0.1,0.1,0.2,0.2,0.2,0.3c0.1,0.1,0.2,0.2,0.3,0.4c0.1,0.3,0.1,0.4,0.1,0.4c-0.1,0.1-0.2,0.2-0.2,0.4c-0.1,0.4,0.1,0.8,0.3,1.1
	c-0.4-0.3-0.8-0.5-1.1-0.5c-0.2,0-0.3,0.1-0.4,0.2c-0.1,0.2-0.2,0.5-0.1,0.9c-0.2,0-0.3,0-0.4-0.1c-0.1,0-0.2-0.1-0.3-0.1l-1.4-2.1
	c0,0-0.1-0.1-0.1,0c0,0-0.1,0.1,0,0.1l1.2,1.7c-0.2-0.1-0.4-0.2-0.5-0.2c-0.1,0-0.1,0-0.1,0l-1.4-1.2c0,0-0.1,0-0.1,0
	c0,0,0,0.1,0,0.1l1.4,1.2c0,0.1,0,0.2,0.1,0.4L54,62.6c0,0-0.1,0-0.1,0c0,0,0,0.1,0,0.1l2.2,1c0,0.1,0.1,0.1,0.1,0.2
	c0.2,0.2,0.3,0.3,0.5,0.3c0.1,0.1,0.2,0.1,0.2,0.3c0,0.1-0.3,0.5-0.5,0.7c-0.4,0.4-0.5,0.6-0.5,0.7c0,0,0,0.1,0,0.1
	c-0.3,0-0.6,0.1-0.7,0.3c-0.2,0.2-0.2,0.5-0.1,1c-0.1,0-0.2,0.1-0.3,0.1c-0.1,0.1-0.3,0.2-0.5,0.2c-0.1,0-0.2,0-0.3,0l-1.8-1.1
	c0,0-0.1,0-0.1,0c0,0,0,0.1,0,0.1l1.5,0.9c-0.3,0-0.5,0.1-0.5,0.2l-1.6-0.4c0,0-0.1,0-0.1,0.1c0,0,0,0.1,0.1,0.1l1.6,0.4
	c0,0.1,0.1,0.2,0.3,0.3l-2,0.1c0,0-0.1,0-0.1,0.1c0,0,0,0.1,0.1,0.1c0,0,0,0,0,0l2.3-0.1c0.1,0,0.1,0.1,0.2,0.1
	c0.3,0.1,0.5,0.1,0.6,0.1c0.1,0,0.2,0,0.3,0.2c0.1,0.1,0,0.4-0.1,0.6c-0.1,0.3-0.1,0.5,0,0.6c-0.6,0.1-1,0.2-1.1,0.5
	c-0.1,0.3,0.1,0.6,0.5,0.9c-0.2,0.1-0.2,0.1-0.4,0.2c-0.1,0-0.2,0-0.3,0.1c-0.3,0-0.5,0.1-0.6,0.1l-1.9-0.3c-0.1,0-0.1,0-0.1,0.1
	c0,0,0,0.1,0.1,0.1l1.7,0.3c-0.1,0.1-0.1,0.1-0.1,0.2c0,0.1,0,0.1,0.1,0.1l-2,0.3c0,0-0.1,0.1-0.1,0.1c0,0,0,0.1,0.1,0.1
	c0,0,0,0,0,0l2.1-0.3c0.1,0,0.1,0.1,0.2,0.1l-2.1,0.9c0,0-0.1,0.1,0,0.1c0,0,0,0.1,0.1,0.1c0,0,0,0,0,0l2.3-1c0,0,0.1,0,0.1,0
	c0.3,0,0.4,0,0.5-0.1c0.1,0,0.1,0,0.1,0c0,0,0.1,0,0.2,0.1c0.1,0.1,0.1,0.4,0.1,0.6c0,0.1,0,0.3,0,0.4c-0.4,0.1-0.6,0.3-0.7,0.6
	c-0.1,0.3,0,0.6,0.4,1.1c-0.1,0-0.2,0.1-0.2,0.3c-0.1,0.1-0.2,0.3-0.3,0.4c0,0,0,0,0,0l-2.6-0.1c0,0,0,0,0,0c0,0-0.1,0-0.1,0.1
	c0,0,0,0.1,0.1,0.1l2.2,0.1c-0.2,0.1-0.4,0.2-0.4,0.3l-1.9,0.5c0,0-0.1,0.1-0.1,0.1c0,0,0,0.1,0.1,0.1c0,0,0,0,0,0l1.8-0.5
	c0,0,0,0,0,0c0,0.1,0.1,0.1,0.1,0.2l-1.6,1c0,0-0.1,0.1,0,0.1c0,0,0,0,0.1,0c0,0,0,0,0,0l1.8-1c0.1,0,0.2,0,0.3,0c0.1,0,0.3,0,0.4,0
	c0.3,0,0.5-0.1,0.6-0.2c0.2-0.1,0.2-0.1,0.4,0c0.1,0.1,0.2,0.4,0.3,0.6c0.1,0.2,0.1,0.4,0.2,0.5c0,0,0,0.1,0,0.1
	c0,0.1,0.1,0.3,0.4,0.6c0.2,0.2,0.5,0.5,0.5,0.6c0,0.2,0,0.2-0.2,0.2c-0.1,0-0.3,0.1-0.5,0.3C55.1,79.7,55,79.9,55,80l-1.8,0.6
	c0,0-0.1,0.1-0.1,0.1c0,0,0,0.1,0.1,0.1c0,0,0,0,0,0l1.7-0.6c0,0.1,0,0.1,0,0.2c0,0,0,0.1,0.1,0.1l-1.7,1.2c0,0,0,0.1,0,0.1
	c0,0,0,0,0.1,0c0,0,0,0,0.1,0l1.7-1.2c0,0,0,0,0.1,0c0,0,0,0,0,0c0,0,0.1,0,0.1,0L54,82.3c0,0,0,0.1,0,0.1c0,0,0,0,0.1,0
	c0,0,0.1,0,0.1,0l1.6-2c0.1,0,0.2-0.1,0.4-0.2c0.2,0,0.3-0.1,0.3-0.1c0.1-0.1,0.2-0.1,0.5,0c0,0.5,0.1,0.8,0.3,1
	c0.1,0.1,0.3,0.2,0.5,0.2c0.1,0,0.1,0,0.2,0c-0.1,0.1-0.2,0.3-0.2,0.4c0,0.1,0.2,0.3,0.5,0.5c0.2,0.2,0.6,0.4,0.6,0.5
	c0.1,0.2,0,0.2-0.1,0.3c-0.1,0.1-0.3,0.1-0.4,0.3c-0.1,0.1-0.1,0.2-0.1,0.3l-1.4,0.7c0,0-0.1,0.1,0,0.1c0,0,0,0,0.1,0c0,0,0,0,0,0
	l1.2-0.6c0,0.1,0,0.2,0,0.3c0,0,0,0,0.1,0.1l-1.1,1c0,0,0,0.1,0,0.1c0,0,0,0,0.1,0c0,0,0,0,0.1,0l1.1-1c0,0,0,0,0.1,0
	c0.1,0,0.1,0,0.2-0.1l-0.9,1.5c0,0,0,0.1,0,0.1c0,0,0,0,0,0c0,0,0.1,0,0.1,0l1-1.7c0.1-0.1,0.2-0.1,0.3-0.2c0.2-0.1,0.2-0.1,0.3-0.2
	c0.1-0.1,0.2-0.1,0.4-0.1c0.1,0.7,0.4,1.1,0.8,1.1c0.1,0,0.3-0.1,0.5-0.1c0,0.1,0,0.2,0,0.3c0,0.1,0.2,0.2,0.6,0.4
	c0.3,0.1,0.6,0.3,0.6,0.4c0.1,0.2,0.1,0.2,0,0.3c-0.1,0.1-0.2,0.2-0.3,0.4c0,0.1,0,0.2-0.1,0.4l-1.3,1.2c0,0,0,0.1,0,0.1
	c0,0,0,0,0.1,0c0,0,0,0,0.1,0l1.2-1.1c0,0.1,0,0.2,0.1,0.2c0,0,0,0,0.1,0l-0.8,1.5c0,0,0,0.1,0,0.1c0,0,0,0,0,0c0,0,0.1,0,0.1,0
	l0.8-1.5c0,0,0,0,0,0c0.1,0,0.1,0,0.2-0.1l-0.5,1.8c0,0,0,0.1,0.1,0.1c0,0,0,0,0,0c0,0,0.1,0,0.1-0.1l0.5-2c0.1-0.1,0.2-0.2,0.3-0.3
	c0.1-0.1,0.2-0.2,0.2-0.2c0.1-0.1,0.1-0.1,0.3-0.2c0.2,0.6,0.5,0.9,0.8,0.9c0.2,0,0.5-0.2,0.7-0.5c0,0.2,0,0.3,0.1,0.5
	c0.1,0.1,0.3,0.1,0.9,0.2c0.4,0,0.8,0.1,0.9,0.1c0.2,0.1,0.1,0.1,0.1,0.3c0,0.1-0.1,0.2-0.1,0.3l-1.1,1.4c0,0,0,0.1,0,0.1
	c0,0,0,0,0.1,0c0,0,0.1,0,0.1,0l0.9-1.2c0,0.1,0.1,0.2,0.1,0.3L66.8,90c0,0,0,0.1,0.1,0.1c0,0,0,0,0,0c0,0,0.1,0,0.1-0.1l0.5-1.4
	c0,0.1,0.1,0.1,0.2,0.1l-0.1,1.4c0,0,0,0.1,0.1,0.1c0,0,0,0,0,0c0,0,0.1,0,0.1-0.1l0.1-1.4c0.2,0,0.3-0.3,0.4-0.8
	c0.1-0.1,0.1-0.2,0.1-0.3c0-0.1,0-0.2,0.2-0.3c0.5,0.5,0.9,0.6,1.2,0.3c0.1-0.1,0.1-0.2,0.2-0.3c0,0,0.1,0,0.1,0c0.1,0,0.2,0,0.2,0
	c0.1,0,0.2,0,0.3,0c0.2,0,0.3,0,0.3,0c0.2,0.1,0.1,0.1,0.1,0.2c0,0.1,0,0.2,0,0.4L70.3,90c0,0,0,0.1,0.1,0.1c0,0,0,0,0,0
	c0,0,0.1,0,0.1-0.1l0.5-1.6c0,0.1,0.1,0.2,0.1,0.2l0,1.7c0,0,0,0.1,0.1,0.1c0,0,0,0,0,0c0,0,0.1,0,0.1-0.1l0-1.5
	c0.1,0,0.1,0.1,0.2,0.1c0,0,0,0,0,0l0.4,1.4c0,0,0,0.1,0.1,0.1c0,0,0,0,0,0c0,0,0.1-0.1,0.1-0.1l-0.4-1.5c0.1-0.1,0.1-0.4,0-0.7
	c0-0.1,0.1-0.2,0.1-0.3c0-0.1,0.1-0.1,0.1-0.2c0.3,0.1,0.5,0.1,0.7,0c0,0,0,0,0,0c0.1,0.1,0.2,0.1,0.3,0.1c0.1,0,0.2-0.1,0.2-0.1
	c0.1,0,0.1-0.1,0.1,0c0.1,0,0.1,0.1,0.2,0.2l-0.2,1.7c0,0,0,0.1,0.1,0.1c0,0,0,0,0,0c0,0,0.1,0,0.1-0.1l0.2-1.4
	c0,0.1,0.1,0.2,0.1,0.3l0.2,1.3c0,0,0,0.1,0.1,0.1c0,0,0,0,0,0c0,0,0.1-0.1,0.1-0.1l-0.2-1c0.1,0,0.1,0.1,0.2,0.1l0.4,0.7
	c0,0,0,0,0.1,0c0,0,0,0,0,0c0,0,0.1-0.1,0-0.1l-0.4-0.8c0.1-0.2,0.1-0.3,0-0.5c0-0.1-0.1-0.2-0.1-0.3c0-0.2,0-0.2,0-0.2c0,0,0,0,0,0
	c0.1,0,0.2,0,0.3-0.1c0,0,0.1-0.1,0.1-0.2c0,0,0,0,0,0c0.1,0.1,0.2,0.1,0.3,0.1c0.1,0,0.2-0.1,0.2-0.1c0,0,0.1-0.1,0.1,0
	c0.2,0.1,0.2,0.3,0.3,0.5c0,0,0,0.1,0,0.1l-0.2,1.3c0,0,0,0.1,0.1,0.1c0,0,0,0,0,0c0,0,0.1,0,0.1-0.1l0.1-1c0.1,0.1,0.1,0.1,0.2,0.2
	l0.2,1c0,0,0,0.1,0.1,0.1c0,0,0,0,0,0c0,0,0.1-0.1,0.1-0.1L76,88.6l0,0l0,0c0,0,0.1-0.1,0.1-0.1l0.4,0.9c0,0,0,0,0.1,0c0,0,0,0,0,0
	c0,0,0.1-0.1,0-0.1l-0.6-1.2c0,0,0,0,0-0.1c0-0.1-0.1-0.2-0.1-0.3c0-0.1,0-0.2,0-0.2c0,0,0,0,0,0c0.1,0,0.2,0,0.3-0.1
	c0.1-0.2,0.2-0.4,0.2-0.6c0,0,0.1,0,0.1,0c0.1,0,0.1-0.1,0.2-0.1c0,0,0,0,0.1,0c0.1,0,0.2,0.2,0.2,0.3L77,88.5c0,0,0,0.1,0.1,0.1
	c0,0,0,0,0,0c0,0,0.1,0,0.1-0.1l0.1-1.2c0,0.1,0.1,0.1,0.1,0.2l0.2,1.2c0,0,0,0.1,0.1,0.1c0,0,0,0,0,0c0,0,0.1-0.1,0.1-0.1l-0.2-1.1
	c0,0,0,0,0,0l0,0l0,0c0,0,0,0,0,0l0.5,1c0,0,0,0,0.1,0c0,0,0,0,0,0c0,0,0.1-0.1,0-0.1l-0.3-0.7c0,0,0,0,0,0c0,0,0,0,0,0
	c0,0,0.1,0,0.1-0.1l0.2-1.2c0,0.1,0.1,0.1,0.1,0.1l0.2,1.3c0,0,0,0.1,0.1,0.1c0,0,0,0,0,0c0,0,0.1-0.1,0.1-0.1l-0.2-1.2
	c0,0,0-0.1,0-0.1l0.3,0.7l0,0.3c0,0,0,0.1,0.1,0.1c0,0,0,0,0,0c0,0,0.1,0,0.1-0.1l0-0.1l0.1,0.2c0,0,0,0,0.1,0c0,0,0,0,0,0
	c0,0,0.1-0.1,0-0.1l-0.2-0.4l0.1-0.8c0,0.1,0.1,0.1,0.1,0.2l0.2,1.2c0,0,0,0.1,0.1,0.1c0,0,0,0,0,0c0,0,0.1-0.1,0.1-0.1l-0.2-1.2
	c0,0,0-0.1,0.1-0.1l0.2,0.4l0,0.2c0,0,0,0.1,0.1,0.1c0,0,0,0,0,0c0,0,0.1,0,0.1-0.1l0.2,0.5c0,0,0,0,0.1,0c0,0,0,0,0,0
	c0,0,0.1-0.1,0-0.1L80,86.8l0.1-0.9c0,0.1,0.1,0.1,0.1,0.2l0.2,1.2c0,0,0,0.1,0.1,0.1c0,0,0,0,0,0c0,0,0.1-0.1,0.1-0.1L80.5,86
	c0,0,0-0.1,0-0.1l0.6,1.2c0,0,0,0,0.1,0c0,0,0,0,0,0c0,0,0.1-0.1,0-0.1l-0.7-1.5c0,0,0,0,0,0c0.1-0.2,0-0.4,0-0.7c0,0,0-0.1,0-0.1
	c0,0,0-0.1,0-0.1c-0.2-0.7-0.4-1.1-0.6-1.1c0,0-0.1,0-0.1,0l0.1-1.9c0,0,0-0.1-0.1-0.1c0,0-0.1,0-0.1,0.1l-0.1,1.6c0,0,0,0,0,0
	l-0.4-1.7c0,0-0.1-0.1-0.1-0.1c0,0-0.1,0.1-0.1,0.1l0.4,1.5l-0.5-0.9l0-0.5c0,0,0-0.1-0.1-0.1c0,0,0,0,0,0c0,0-0.1,0-0.1,0.1l0,0.3
	l-0.1-0.2c0,0-0.1-0.1-0.1,0c0,0-0.1,0.1,0,0.1l0.2,0.4l0,0.8c0,0,0,0,0,0c0,0,0,0,0,0l-0.4-1.5c0,0-0.1-0.1-0.1-0.1
	c0,0-0.1,0.1-0.1,0.1l0.4,1.5l-0.5-0.9l0-0.6c0,0,0-0.1-0.1-0.1c0,0-0.1,0-0.1,0.1l0,0.4l-0.1-0.2c0,0-0.1-0.1-0.1,0
	c0,0-0.1,0.1,0,0.1l0.2,0.4l0,0.9c0,0,0,0,0,0l-0.4-1.7c0,0-0.1-0.1-0.1-0.1c0,0-0.1,0.1-0.1,0.1l0.4,1.5l-0.8-1.3
	c0,0-0.1-0.1-0.1,0c0,0-0.1,0.1,0,0.1l0.9,1.6c0,0.1,0,0.1,0,0.2v0c0,0,0,0.1,0,0.1c0,0,0,0,0,0c0,0-0.1,0-0.1,0c0,0-0.1,0-0.1,0
	c0,0,0,0,0,0c-0.1-0.3-0.3-0.4-0.5-0.4c-0.1,0-0.2,0-0.2,0.1c-0.1-0.1-0.1-0.2-0.2-0.3l0.2-1.5c0,0,0-0.1-0.1-0.1
	c-0.1,0-0.1,0-0.1,0.1l-0.1,1.2c-0.1-0.1-0.1-0.1-0.2-0.2l-0.2-1.2c0,0-0.1-0.1-0.1-0.1c0,0-0.1,0.1-0.1,0.1l0.2,1.1c0,0,0,0-0.1,0
	c0,0,0,0,0,0.1l-0.5-1c0,0-0.1-0.1-0.1,0c0,0-0.1,0.1,0,0.1l0.6,1.3c0,0.1,0,0.1,0,0.2l0,0.1c0,0.1,0,0.1,0,0.1c0,0.1,0,0.1-0.1,0.1
	c0,0-0.1,0-0.1,0c-0.1,0-0.1,0-0.2,0c0,0-0.1,0-0.1,0c0,0,0,0-0.1,0c-0.1,0-0.2,0-0.3,0.1c-0.2-0.2-0.3-0.5-0.3-0.8l0,0l0,0
	c0,0,0-0.1-0.1-0.1l0.1-1.2c0,0,0-0.1-0.1-0.1c-0.1,0-0.1,0-0.1,0.1l-0.1,1.1c-0.1,0-0.1-0.1-0.2-0.1c0,0,0,0,0,0l-0.2-1.1
	c0,0-0.1-0.1-0.1-0.1c0,0-0.1,0.1-0.1,0.1l0.2,1.3c0,0,0,0.1,0,0.1l-0.6-1.2c0,0-0.1-0.1-0.1,0c0,0-0.1,0.1,0,0.1l0.7,1.5
	c0,0,0,0.1,0,0.1v0.1c0,0.1,0,0.1,0,0.2c0,0.1,0,0.1-0.1,0.2c0,0-0.1,0-0.2,0c-0.1,0-0.1,0-0.2,0c-0.1,0-0.1,0-0.1,0.1c0,0,0,0,0,0
	c-0.1,0-0.1-0.1-0.2-0.1c-0.1,0-0.2,0-0.3,0.1c-0.2-0.2-0.3-0.6-0.3-0.8l0,0l0,0c0,0,0,0,0,0l0.1-1.1c0,0,0-0.1-0.1-0.1
	c-0.1,0-0.1,0-0.1,0.1l-0.1,0.9c-0.1-0.1-0.2-0.1-0.2-0.1c0,0,0,0,0,0l-0.2-0.9c0,0-0.1-0.1-0.1-0.1c0,0-0.1,0.1-0.1,0.1l0.2,1
	c0,0.1,0,0.1-0.1,0.2l-0.5-1.1c0,0-0.1-0.1-0.1,0c0,0-0.1,0.1,0,0.1l0.7,1.4c0,0,0,0.1,0,0.1l0,0.1c0,0.1,0,0.1,0,0.2
	c0,0.1,0,0.1-0.1,0.2c0,0,0,0,0,0c-0.1,0-0.1,0-0.2,0c-0.1,0-0.1,0-0.2,0c0,0-0.1,0-0.1,0c-0.1-0.2-0.2-0.3-0.4-0.4
	c-0.1-0.1-0.2-0.1-0.3-0.1c-0.1,0-0.1,0-0.2-0.2c0-0.1-0.1-0.2-0.1-0.2c0,0,0-0.1,0-0.1l0.2-1.7c0,0,0-0.1-0.1-0.1
	c-0.1,0-0.1,0-0.1,0.1l-0.2,1.5c0-0.1-0.1-0.1-0.2-0.1l0,0l0,0l-0.3-1.6c0,0-0.1-0.1-0.1-0.1c0,0-0.1,0.1-0.1,0.1l0.3,1.6
	c0,0-0.1,0-0.1,0.1c0,0,0,0,0,0l-0.6-1.4l0.2-0.4c0,0,0-0.1,0-0.1c0,0-0.1,0-0.1,0l-0.2,0.3c0,0,0,0-0.1,0c0,0-0.1,0.1,0,0.1l0,0.1
	l-0.4,0.8c0-0.1-0.1-0.2-0.2-0.3l0.3-1.4c0,0,0-0.1-0.1-0.1c-0.1,0-0.1,0-0.1,0.1l-0.3,1.3h0c-0.1,0-0.1,0-0.2,0l-0.1-1.4
	c0,0,0-0.1-0.1-0.1c0,0-0.1,0-0.1,0.1l0.1,1.5c-0.2,0.2-0.2,0.5-0.2,0.7c0,0.1,0,0.3-0.1,0.3c-0.1,0-0.1,0-0.2-0.1
	c0,0-0.1-0.1-0.2-0.1c0-0.2,0-0.4-0.2-0.6c-0.1-0.2-0.2-0.2-0.3-0.3c-0.1,0-0.1-0.1-0.1-0.3c0-0.1,0-0.2,0.1-0.3
	c0-0.1,0-0.1,0.1-0.2l1.4-1.4c0,0,0-0.1,0-0.1c0,0-0.1,0-0.1,0l-1.3,1.2c0-0.1,0-0.2-0.1-0.3l0.9-1.6c0,0,0-0.1,0-0.1
	c0,0-0.1,0-0.1,0l-0.9,1.6c-0.1,0-0.1,0-0.2,0l0.4-1.8c0,0,0-0.1-0.1-0.1c-0.1,0-0.1,0-0.1,0.1l-0.4,1.9c-0.3,0.1-0.5,0.4-0.7,0.6
	c-0.1,0.1-0.2,0.3-0.3,0.3c-0.1,0-0.1-0.1-0.2-0.2c0-0.1-0.1-0.1-0.2-0.2c0-0.1,0-0.2-0.1-0.4c-0.1-0.2-0.2-0.3-0.3-0.4
	c-0.1-0.1-0.1-0.1,0-0.3c0-0.1,0.1-0.2,0.2-0.3c0.1-0.1,0.1-0.2,0.2-0.3l1.5-0.8c0,0,0.1-0.1,0-0.1c0,0-0.1-0.1-0.1,0L65,78.5
	c0-0.1,0-0.2-0.1-0.3l0,0l0,0c0,0,0,0,0,0l1.1-1.2c0,0,0-0.1,0-0.1c0,0-0.1,0-0.1,0l-1.2,1.2c-0.1,0-0.1,0-0.2,0l0.9-1.6
	c0,0,0-0.1,0-0.1c0,0-0.1,0-0.1,0l-0.9,1.7c-0.3,0.1-0.5,0.3-0.7,0.4c-0.2,0.1-0.3,0.2-0.4,0.2c-0.1,0-0.1-0.1-0.2-0.2
	c-0.1-0.1-0.2-0.3-0.5-0.3l0,0c-0.1,0-0.1,0-0.2,0c0.2-0.2,0.3-0.5,0.2-0.9c-0.1-0.2-0.1-0.3-0.2-0.4c-0.1-0.1-0.1-0.1,0-0.3
	c0-0.1,0.1-0.2,0.2-0.2c0,0,0.1-0.1,0.1-0.1l1.9-0.4c0,0,0.1-0.1,0.1-0.1c0,0-0.1-0.1-0.1-0.1L62.9,76c0.1-0.1,0.1-0.2,0.1-0.4
	l1.6-0.9c0,0,0.1-0.1,0-0.1c0,0-0.1-0.1-0.1,0l-1.6,0.9c-0.1,0-0.1-0.1-0.2-0.1l1.4-1.4c0,0,0-0.1,0-0.1c0,0-0.1,0-0.1,0l-0.4,0.3
	c0,0,0,0,0,0c0,0,0-0.1-0.1-0.1L61.6,74c0.1-0.1,0.2-0.2,0.2-0.3l1.9-0.4c0,0,0.1-0.1,0.1-0.1c0,0-0.1-0.1-0.1-0.1l-1.9,0.4l0,0l0,0
	c-0.1,0-0.1-0.1-0.2-0.1l1.6-0.9l0.3,0.1c0,0,0,0,0,0c0,0,0.1,0,0.1-0.1c0,0,0-0.1-0.1-0.1l-0.2-0.1l0,0c0,0,0.1-0.1,0-0.1
	c0,0-0.1-0.1-0.1,0l-0.2,0.1L62,72c0.1-0.1,0.2-0.2,0.2-0.3l1.8,0c0,0,0,0,0,0c0,0,0.1,0,0.1-0.1c0,0,0-0.1-0.1-0.1l-1.8,0
	c-0.1-0.1-0.1-0.1-0.2-0.2l1.5-0.4l0.4,0.2c0,0,0,0,0,0c0,0,0.1,0,0.1,0c0,0,0-0.1,0-0.1l-0.2-0.1l0.2-0.1c0,0,0.1-0.1,0.1-0.1
	c0,0-0.1-0.1-0.1-0.1l-0.4,0.1L62.2,70c0.2,0,0.3-0.1,0.4-0.2l1.2,0.2l0.2,0.2c0,0,0,0,0.1,0c0,0,0,0,0.1,0c0,0,0-0.1,0-0.1L64,70.1
	l0.4,0.1c0,0,0,0,0,0c0,0,0.1,0,0.1-0.1c0,0,0-0.1-0.1-0.1l-0.6-0.1l-0.4-0.5l0.8-0.1l0.6,0.5c0,0,0,0,0.1,0c0,0,0.1,0,0.1,0
	c0,0,0-0.1,0-0.1l-0.5-0.4c0,0,0.1,0,0.1-0.1c0,0,0-0.1-0.1-0.1c0,0,0,0,0,0l-0.2,0l-0.7-0.5c0-0.1,0-0.2-0.1-0.3l1.8,0.7
	c0,0,0,0,0,0c0,0,0.1,0,0.1-0.1c0,0,0-0.1,0-0.1l-2-0.8c-0.1-0.1-0.1-0.1-0.2-0.2c-0.1-0.1-0.2-0.2-0.3-0.3
	c-0.1-0.2-0.1-0.2-0.1-0.3c0-0.1,0.1-0.2,0.2-0.4c0-0.1,0-0.2,0-0.3c0,0,0,0,0,0c0,0,0,0,0,0c0.3,0,0.5-0.2,0.6-0.7
	c0.3,0.1,0.8,0.4,0.9,0.8l0,0l0,0c0.1,0,0.2,0.1,0.2,0.1l1.1,1.7c0,0,0,0,0.1,0c0,0,0,0,0,0c0,0,0.1-0.1,0-0.1l-1-1.5c0,0,0,0,0,0
	c0.1,0,0.2-0.1,0.2-0.1c0,0,0-0.1,0-0.2L67,68c0,0,0,0,0.1,0c0,0,0.1,0,0.1,0c0,0,0-0.1,0-0.1l-1.8-1.5c0-0.1-0.1-0.2-0.1-0.2
	l2.3,1.1c0,0,0,0,0,0c0,0,0.1,0,0.1-0.1c0,0,0-0.1,0-0.1l-2.5-1.1c0-0.1-0.1-0.2-0.1-0.3l0-0.1c-0.1-0.1-0.1-0.2-0.1-0.2
	c-0.1-0.1-0.1-0.2-0.1-0.4c0-0.1,0.2-0.2,0.3-0.2c0.2-0.1,0.3-0.2,0.3-0.3c0-0.1,0-0.2-0.1-0.2c0.1-0.1,0.2-0.3,0.3-0.6
	c0.3,0.1,0.7,0.4,0.9,0.8l0.7,1.8c0,0,0,0.1,0.1,0.1c0,0,0,0,0,0c0,0,0.1-0.1,0.1-0.1l-0.5-1.5c0.1,0.1,0.3,0.1,0.4,0.1
	c0.1,0,0.2-0.1,0.2-0.1l1,1.3c0,0,0,0,0.1,0c0,0,0,0,0.1,0c0,0,0-0.1,0-0.1l-1-1.4c0-0.1-0.1-0.3-0.1-0.5l1.8,1.4c0,0,0,0,0.1,0
	c0,0,0.1,0,0.1,0c0,0,0-0.1,0-0.1l-2-1.5c0-0.1-0.1-0.1-0.1-0.2l0-0.1c-0.1-0.1-0.1-0.2-0.1-0.3c-0.1-0.2-0.1-0.2,0-0.5
	c0-0.1,0.2-0.2,0.3-0.2c0.2-0.1,0.3-0.1,0.3-0.3c0,0,0-0.1,0-0.1c0.3,0,0.5-0.2,0.6-0.7c0.2,0,0.3,0.2,0.5,0.3l1.1,2.5
	c0,0,0,0.1,0.1,0.1c0,0,0,0,0,0c0,0,0.1-0.1,0-0.1l-0.8-1.7c0.2,0.1,0.4,0.2,0.5,0.2c0.1,0,0.1,0,0.1,0l1.1,1.2c0,0,0,0,0.1,0
	c0,0,0,0,0.1,0c0,0,0-0.1,0-0.1l-1.1-1.3c0-0.1,0-0.3,0-0.4l1.7,1.1c0,0,0,0,0,0c0,0,0.1,0,0.1,0c0,0,0-0.1,0-0.1l-1.9-1.2
	c-0.1-0.2-0.1-0.3-0.2-0.5l0-0.1c-0.1-0.1-0.1-0.2-0.1-0.3c-0.1-0.2-0.1-0.2,0-0.4c0-0.1,0.2-0.2,0.3-0.2c0.2-0.1,0.3-0.1,0.3-0.3
	c0,0,0-0.1,0-0.1c0.2-0.2,0.3-0.5,0.3-1c0.2,0,0.3,0.1,0.4,0.2c0.1,0.1,0.1,0.1,0.3,0.2c0.2,0.2,0.3,0.3,0.4,0.4l0.9,1.7
	c0,0,0,0,0.1,0c0,0,0,0,0,0c0,0,0.1-0.1,0-0.1l-0.8-1.5c0,0,0.1,0,0.1,0c0.1,0,0.2,0,0.2-0.1c0,0,0-0.1,0-0.2l1.4,1.4c0,0,0,0,0.1,0
	s0,0,0.1,0c0,0,0-0.1,0-0.1l-1.5-1.5c0-0.1,0-0.2-0.1-0.3l2,1.2c0,0,0,0,0,0c0,0,0.1,0,0.1,0c0,0,0-0.1,0-0.1l-2.2-1.3c0,0,0,0,0,0
	c-0.1-0.3-0.3-0.4-0.4-0.4c-0.1-0.1-0.2-0.1-0.1-0.4c0-0.1,0.3-0.4,0.5-0.6c0.1-0.1,0.1-0.1,0.2-0.2c0,0,0,0,0,0
	c0.3,0,0.6-0.3,0.9-0.8c0.1,0.1,0.2,0.1,0.3,0.1c0.2,0,0.4,0,0.5,0.1c0.1,0.1,0.2,0.2,0.3,0.3l1.4,1.8c0,0,0,0,0.1,0c0,0,0,0,0.1,0
	c0,0,0-0.1,0-0.1L74.4,57c0.1,0,0.1,0,0.2,0c0.1,0,0.2,0,0.2-0.1c0,0,0-0.1,0-0.1l1.6,1.1c0,0,0,0,0.1,0c0,0,0.1,0,0.1,0
	c0,0,0-0.1,0-0.1l-1.7-1.2c0-0.1-0.1-0.2-0.1-0.3l2.2,0.8c0,0,0,0,0,0c0,0,0.1,0,0.1-0.1c0,0,0-0.1-0.1-0.1L74.5,56c0,0,0,0,0-0.1
	c-0.2-0.2-0.3-0.3-0.5-0.4c-0.1-0.1-0.2-0.1-0.2-0.3c0-0.1,0.2-0.3,0.4-0.5c0.2-0.2,0.4-0.4,0.4-0.5c0-0.1-0.1-0.2-0.2-0.3
	c0.3,0.1,0.6,0.2,0.8,0.2c0.2,0,0.4-0.1,0.5-0.2c0.1-0.2,0.1-0.5,0-1c0.2,0,0.3,0,0.4,0c0.1,0,0.2,0.1,0.3,0.1l2,1.8c0,0,0,0,0.1,0
	c0,0,0,0,0.1,0c0,0,0-0.1,0-0.1l-1.7-1.5c0.2,0.1,0.3,0.1,0.4,0.1c0.1,0,0.2,0,0.2-0.1l1.8,0.8c0,0,0,0,0,0c0,0,0.1,0,0.1-0.1
	c0,0,0-0.1,0-0.1L77.6,53c0-0.1,0-0.2-0.1-0.3l2.1,0.3c0,0,0,0,0,0c0,0,0.1,0,0.1-0.1c0,0,0-0.1-0.1-0.1l-2.3-0.4
	c-0.1-0.1-0.1-0.1-0.2-0.2c-0.2-0.2-0.4-0.2-0.5-0.2c-0.1,0-0.2,0-0.2-0.2c0-0.1,0.2-0.5,0.4-0.8c0.3-0.5,0.4-0.7,0.3-0.8
	c0,0,0-0.1-0.1-0.1c0.3-0.1,0.5-0.2,0.6-0.3c0.2-0.2,0.1-0.6,0-1c0.1,0,0.2-0.1,0.3-0.2c0.1-0.1,0.3-0.2,0.4-0.3l2.5,0.7
	c0,0,0,0,0,0c0,0,0.1,0,0.1-0.1c0,0,0-0.1-0.1-0.1l-2-0.6c0.4,0,0.6-0.1,0.6-0.3l1.8,0C81.4,48,81.4,47.9,81.3,47.8
	C81.4,47.8,81.4,47.8,81.3,47.8z M52.6,37.8c0,0.2,0,0.4,0.1,0.6c0,0.2,0.1,0.3,0.1,0.4c0,0-0.1,0-0.2,0c0,0-0.1,0-0.2,0
	c-0.1,0-0.2,0.1-0.3,0.2c0,0,0,0,0,0.1c0,0-0.1,0-0.1,0c-0.1,0-0.1,0-0.2-0.2c0-0.1,0-0.2-0.1-0.4c0-0.1,0-0.1,0-0.2l0.4-1
	L52.6,37.8z M76.9,40.6L76.9,40.6L76.9,40.6L76.9,40.6z M71.1,34.2C71.1,34.2,71.1,34.2,71.1,34.2L71.1,34.2
	C71.1,34.2,71.1,34.2,71.1,34.2z M50.7,38.7c0,0.2,0,0.4-0.1,0.5c-0.1,0-0.1,0-0.2,0c-0.1,0-0.1-0.1-0.2-0.1c-0.1,0-0.2,0-0.3,0.1
	c0,0,0,0,0,0c-0.1,0-0.1,0-0.1-0.3c0-0.1,0.1-0.2,0.1-0.3c0,0,0-0.1,0-0.1l0.9-0.8l0,0.2C50.8,38.2,50.7,38.5,50.7,38.7z M32,16.1
	c-0.3,0-0.6,0.3-0.9,0.5L31,16.7c-0.1,0.1-0.1,0.1-0.2,0.2c-0.1,0.1-0.1,0.1-0.2,0.1c0,0-0.1,0-0.1,0c-0.1,0-0.2-0.1-0.3-0.3
	c-0.1-0.1-0.2-0.2-0.4-0.2c0,0,0,0,0,0c-0.2,0-0.4,0.2-0.5,0.3c-0.1-0.4-0.2-0.7-0.5-0.9c0.2-0.1,0.5-0.1,0.9-0.1
	c0.5,0,1.1,0.1,1.7,0.1c0.2,0,0.4,0,0.6,0.1L32,16.1z M32.2,16.1C32.2,16.1,32.2,16.1,32.2,16.1l0-0.1c0,0,0.1,0,0.1,0L32.2,16.1z
	 M66.9,39.9c0-0.1,0-0.3,0.1-0.4c0.1-0.2,0.1-0.2,0.2-0.2c0.1,0,0.1,0,0.2-0.1c0,0.1,0,0.2,0,0.3c0.1,0.2,0.2,0.2,0.3,0.2
	c0.1,0,0.1,0,0.1,0c0.1,0,0.1,0,0.2,0c0,0.1,0,0.3-0.1,0.4c0,0.1-0.1,0.2-0.1,0.4l-0.5,0.7l-0.6-0.9C66.8,40.2,66.8,40.1,66.9,39.9z
	 M67.9,40.9c0,0.2,0.1,0.3,0.2,0.4l-0.2,0.6l-0.3-0.5L67.9,40.9z M68.7,40.8C68.7,40.8,68.7,40.8,68.7,40.8c0.1-0.2,0.1-0.3,0.2-0.4
	c0.1-0.1,0.2-0.2,0.2-0.2c0,0,0,0,0.1,0c0,0,0,0,0,0c0,0.3,0.2,0.4,0.3,0.4c0.1,0,0.1,0,0.2,0.1c0,0.1-0.1,0.2-0.3,0.4
	c-0.1,0.1-0.2,0.2-0.3,0.3l-0.5,0.3L68.7,40.8z M69.9,42.2c0.1-0.1,0.2-0.2,0.3-0.2c0.1,0,0.2-0.1,0.2-0.1c0,0,0,0,0.1,0
	c0,0,0.1,0,0.1,0.1c0,0,0,0,0,0.1c-0.1,0.3,0.1,0.4,0.2,0.5c0.1,0,0.1,0.1,0.1,0.1c0,0.1-0.2,0.2-0.3,0.2c-0.1,0.1-0.2,0.1-0.3,0.2
	l-1.1,0.1l0.5-0.8C69.7,42.3,69.8,42.3,69.9,42.2z M70.5,48.1c0.1,0,0.3,0,0.3,0.1c0.2,0.1,0.2,0.1,0.2,0.2c0,0,0,0,0,0
	c-0.3,0.1-0.3,0.3-0.3,0.4c0,0.1,0,0.1-0.1,0.2c-0.1,0-0.3-0.1-0.4-0.1c-0.2-0.1-0.3-0.1-0.5-0.2l-0.5-0.4l1.1-0.2
	C70.4,48.1,70.4,48.1,70.5,48.1z M69.2,49.4c0.1,0.1,0.2,0.1,0.2,0.2c0.1,0.1,0.2,0.1,0.3,0.2c0.2,0.2,0.1,0.2,0.1,0.3
	c0,0,0,0.1,0,0.1c0,0,0,0-0.1,0c-0.3,0-0.4,0.2-0.4,0.3c0,0.1,0,0.1-0.1,0.1c-0.1,0-0.2-0.1-0.3-0.3c-0.1-0.1-0.3-0.3-0.5-0.4
	L68,49.3L69.2,49.4z M54.3,75.4L54.3,75.4L54.3,75.4L54.3,75.4z M71.6,87.4C71.6,87.4,71.6,87.4,71.6,87.4
	C71.6,87.4,71.6,87.4,71.6,87.4L71.6,87.4z M62.3,69.3c-0.1-0.1-0.2-0.1-0.3-0.1c-0.1,0-0.2-0.1-0.3-0.1c-0.2-0.1-0.2-0.2-0.2-0.2
	c0,0,0,0,0,0c0.3-0.1,0.4-0.2,0.4-0.4c0-0.1,0-0.1,0.1-0.2c0.1,0,0.3,0.1,0.4,0.2c0.1,0.1,0.3,0.2,0.5,0.3l0.4,0.5L62.3,69.3z
	 M77.4,48.5C77.4,48.5,77.4,48.5,77.4,48.5L77.4,48.5C77.4,48.5,77.4,48.5,77.4,48.5z M54.4,36.6c0,0.3,0.2,0.5,0.3,0.7
	c0.1,0.2,0.2,0.3,0.2,0.4c0,0.1-0.1,0.1-0.2,0.1c-0.2,0-0.4,0-0.4,0.4c0,0,0,0.1,0,0.2c0,0-0.1-0.1-0.1-0.1c-0.2-0.1-0.3,0-0.4,0
	c0,0,0,0,0,0c0,0-0.1,0-0.2-0.2c-0.1-0.1-0.1-0.2-0.1-0.3l-0.1-2.1L54.4,36.6z M52.4,36.5l0.3,0.8c-0.1,0.1-0.1,0.1-0.1,0.2L52.2,37
	L52.4,36.5z M51.5,36.3L52,37l-0.4,0.9c0-0.1-0.1-0.2-0.2-0.3l0-0.4l0.2-0.2c0,0,0-0.1,0-0.1c0,0-0.1,0-0.1,0l-0.1,0L51.5,36.3z
	 M51.2,37.4l0,0.2c-0.1,0-0.1,0.1-0.2,0.1l0-0.1L51.2,37.4z M50.8,37.5L50,38.2c0-0.1,0-0.2-0.1-0.4l0.7-1.1L50.8,37.5z M48,35
	l-0.6,1.4c-0.3,0.1-0.5,0.4-0.7,0.6c-0.1,0.1-0.2,0.3-0.3,0.3c-0.1,0-0.1-0.1-0.1-0.2c0-0.1-0.1-0.1-0.1-0.2c0-0.1,0-0.2,0-0.4
	c0-0.2-0.1-0.3-0.2-0.4c-0.1-0.1-0.1-0.1,0.1-0.3c0.1-0.1,0.2-0.2,0.3-0.3c0,0,0.1-0.1,0.1-0.2L48,35z M32.3,16.3
	C32.3,16.3,32.3,16.3,32.3,16.3l0.2-0.3c0,0,0.1,0,0.1,0L32.3,16.3z M24.6,18.5c0,0,0.1,0,0.1,0c0.5,0,0.8,0.1,0.9,0.3
	c0.1,0.1,0.1,0.2,0.1,0.2c-0.6,0.2-0.9,0.5-1.1,0.9c0-0.1,0-0.1,0-0.2C24.8,19.4,24.7,18.9,24.6,18.5z M64.7,40.5c0-0.1,0-0.2,0-0.2
	c0-0.1,0-0.3,0-0.4c0.1-0.3,0.1-0.3,0.2-0.3c0.1,0,0.2-0.1,0.4-0.2c0.1-0.1,0.1-0.1,0.2-0.2c0,0,0.1,0,0.1,0c0.1,0,0.2,0,0.2-0.1
	c0.1,0,0.1-0.1,0.2-0.1c0,0,0,0,0,0.1l0,3.3L64.7,40.5z M66.6,40.6c0.1,0,0.1-0.1,0.1-0.2l0.6,0.9L67,41.8L66.6,40.6z M67.2,42.6
	L67,42l0.4-0.5l0.4,0.6l-0.1,0.2L67.2,42.6z M68,42.1L68,42.1l0.2-0.8c0.1,0,0.2-0.1,0.3-0.2l-0.1,0.8L68,42.1z M68.6,42l0.4-0.2
	c-0.1,0.1-0.1,0.3,0,0.4l-0.4,0.4L68.6,42z M68.4,43.1l0,0.2l-0.2,0L68.4,43.1z M68.5,43.3l0-0.4l0.5-0.5l0,0l0,0c0.1,0,0.1,0,0.2,0
	c0,0,0.1,0,0.1,0l-0.4,0.8L68.5,43.3z M69,43.4l1-0.1c-0.1,0.1-0.1,0.2-0.1,0.3l-1.3,0.6L69,43.4z M68.9,45.1l1.5-1.2
	c0.1,0,0.2-0.1,0.3-0.1c0.1,0,0.2-0.1,0.3-0.1c0.1,0,0.1,0,0.1,0c0.1,0,0.1,0,0.1,0.1c0,0,0.1,0.1,0.2,0.2c-0.2,0.1-0.4,0.1-0.4,0.3
	c-0.2,0.3,0,0.4,0.1,0.5c0.1,0.1,0.1,0.1,0.1,0.2C71.2,45,71,45,70.8,45.1c-0.1,0-0.3,0.1-0.4,0.1L68.9,45.1z M68.1,46.5
	C68.1,46.5,68.2,46.5,68.1,46.5l1.8-0.5c0.1,0.1,0.2,0.1,0.4,0.1l-1.2,0.7L68.1,46.5z M69.3,46.9l1.4-0.8c0,0,0,0,0,0
	c0.1,0,0.3,0,0.4,0c0.3,0,0.3,0.1,0.3,0.1c0,0.1,0,0.1,0.1,0.2c-0.1,0-0.2,0.1-0.3,0.1c-0.2,0.2-0.1,0.4-0.1,0.5
	c0,0.1,0.1,0.1,0,0.2c-0.1,0-0.3,0-0.4,0c-0.2,0-0.3,0-0.5,0L69.3,46.9z M68.6,47.8l1.2,0.1c0.1,0.1,0.1,0.1,0.2,0.2l-0.9,0.2
	L68.6,47.8z M69,48.4l0.3,0.3c-0.2,0-0.3,0.1-0.4,0.2l-0.7-0.3L69,48.4z M67.7,48.5l-0.2,0c0,0,0,0,0,0l-0.1-0.1L67.7,48.5z
	 M67.7,48.7l0.3-0.1l0.9,0.4c0,0.1,0,0.2,0.1,0.3l-1.1-0.2L67.7,48.7z M67.8,49.3l0.4,0.7c0,0-0.1,0-0.1,0C68,50,68,50,67.9,50
	l-1-0.9L67.8,49.3z M78,87.6l-0.1-0.3c0-0.1,0-0.2-0.1-0.2c0-0.1-0.1-0.1-0.1-0.2c0-0.1,0-0.1,0-0.1c0,0,0,0,0,0c0,0,0.1,0,0.2-0.1
	c0.1-0.2,0.1-0.4,0.1-0.6c0,0,0,0,0,0c0,0,0,0,0,0c0,0,0.1,0.1,0.1,0.1L78,87.6z M78.6,86C78.6,86,78.6,86,78.6,86
	c0,0,0.1,0,0.1-0.1c0,0,0,0,0,0c0.1,0.1,0.2,0,0.3,0c0,0,0,0,0,0c0,0,0,0,0.1,0.1L79,86.9L78.6,86z M79.7,86c0,0,0.1,0,0.1-0.1
	c0.1-0.1,0.1-0.2,0.1-0.3c0.1,0,0.1,0,0.1-0.1c0,0,0,0,0,0l-0.1,0.9L79.7,86z M79.3,83.2c0,0.1,0,0.1,0,0.2l0,0c0,0,0,0.1,0,0.1
	c0,0,0,0,0,0l0,0c0,0,0,0-0.1,0c0,0-0.1,0-0.1,0c0,0,0,0,0,0c0,0,0,0,0,0c0,0-0.1,0-0.1,0.1c-0.1-0.1-0.1-0.3-0.1-0.3l0,0l0,0
	c0,0,0,0,0,0l0-0.7L79.3,83.2z M78.5,83.5L78.5,83.5c0,0.1,0,0.1,0,0.1c0,0,0,0,0,0c0,0,0,0,0,0c0,0-0.1,0-0.1,0c-0.1,0-0.1,0-0.2,0
	c0,0-0.1,0-0.1,0c-0.1,0-0.1,0-0.1,0.1c-0.1-0.1-0.1-0.3-0.1-0.4l0,0l0,0l0-0.8L78.5,83.5z M69.1,80.9l0.7,1.5c0,0.1,0,0.2,0,0.3
	c0,0.1,0,0.2,0,0.2c0,0-0.1,0-0.1,0c0,0-0.1,0-0.1-0.1c-0.1-0.1-0.2-0.3-0.3-0.4c-0.2-0.1-0.3-0.1-0.4-0.2c-0.1,0-0.1,0-0.2-0.2
	c0-0.1,0-0.2-0.1-0.3c0,0,0,0,0,0L69.1,80.9z M63.5,74.3C63.5,74.3,63.5,74.3,63.5,74.3C63.5,74.3,63.5,74.3,63.5,74.3l-1.1,1
	c-0.3,0-0.6,0.2-0.8,0.3c-0.2,0.1-0.3,0.2-0.4,0.2c-0.1-0.1-0.1-0.1-0.1-0.2c0-0.1-0.1-0.3-0.3-0.4c0,0,0.1-0.1,0.1-0.1
	c0.1-0.3,0-0.4-0.1-0.5c-0.1-0.1-0.1-0.1-0.1-0.1c0.1-0.1,0.2-0.1,0.4-0.2c0.1-0.1,0.3-0.1,0.4-0.2L63.5,74.3z M63,72.5l-1.7,0.9
	c-0.1,0-0.2,0-0.3,0c-0.1,0-0.2,0.1-0.4,0c-0.2,0-0.2,0-0.3-0.1c0,0-0.1-0.1-0.1-0.2c0.2,0,0.4-0.1,0.5-0.2c0.2-0.3,0.1-0.4,0-0.5
	c-0.1-0.1-0.1-0.1-0.1-0.2c0.1,0,0.3-0.1,0.5-0.1c0.2,0,0.4,0,0.6-0.1L63,72.5z M61.6,71.2c-0.1,0-0.2,0-0.3,0c-0.1,0-0.3,0-0.4-0.1
	c-0.3-0.1-0.3-0.1-0.3-0.2c0-0.1,0-0.1-0.1-0.2c0,0,0,0,0,0c0.1,0,0.2,0,0.3-0.1c0.3-0.2,0.2-0.4,0.2-0.5c0-0.1,0-0.1,0-0.2
	c0,0,0.2,0,0.4,0c0.1,0,0.2,0,0.3,0l1.4,0.7L61.6,71.2z M63.6,69.9l-1-0.2l0,0l0,0c0-0.1-0.1-0.1-0.1-0.2l0.8-0.1L63.6,69.9z
	 M63.4,69.3l-0.3-0.4c0,0,0.1,0,0.1,0c0.1,0,0.2,0,0.3-0.1l0.5,0.4L63.4,69.3z"/>
</svg>
