<?xml version="1.0" encoding="utf-8"?>
<!-- Generator: Adobe Illustrator 15.0.2, SVG Export Plug-In . SVG Version: 6.00 Build 0)  -->
<!DOCTYPE svg PUBLIC "-//W3C//DTD SVG 1.1//EN" "http://www.w3.org/Graphics/SVG/1.1/DTD/svg11.dtd">
<svg version="1.1" id="Layer_1" xmlns="http://www.w3.org/2000/svg" xmlns:xlink="http://www.w3.org/1999/xlink" x="0px" y="0px"
	 width="792px" height="612px" viewBox="0 0 792 612" enable-background="new 0 0 792 612" xml:space="preserve">
<path fill="#E96057" d="M615.956,307.817c-1.817,6.06-7.271,12.726-12.725,9.695c-3.636-2.424-3.636-8.483-0.605-11.513
	c2.424-3.636,6.665-6.06,9.694-9.089c3.03-3.029,4.848-8.483,2.424-12.119c-9.089,1.818-15.754,10.301-19.39,18.784
	c-3.636,8.483-5.453,17.572-9.695,26.056c-4.241,8.483-11.513,15.754-21.208,16.36c1.212-4.242,1.818-9.089,0.606-13.331
	c-1.212-4.241-6.06-7.877-10.301-6.665c-4.848,1.212-6.06,7.271-6.06,12.119c0,4.847,0.605,10.301-2.424,14.542
	c-3.029,3.636-7.877,4.242-12.725,5.454c-19.996,4.241-37.568,17.572-47.264,35.145c-6.665,12.725-9.695,26.661-13.331,39.991
	c-4.241,13.331-9.694,26.662-20.602,35.751c-1.212-4.848-4.241-9.089-3.636-14.543c0.606-6.665,5.453-12.725,9.089-18.178
	c5.454-8.483,9.695-18.179,12.725-27.873c3.03-10.907,4.242-23.026,10.907-32.721c3.03-4.242,6.665-7.878,10.907-11.514
	c7.877-7.271,15.148-14.542,23.025-21.813c3.03-2.424,6.06-5.453,7.878-9.089c2.424-3.636,3.635-7.878,6.059-12.119
	s6.06-7.271,9.695-9.695c15.148-0.605,29.691-7.271,43.021-14.542c8.483-4.242,16.967-9.695,23.026-16.967
	c4.848-6.665,7.877-13.937,10.301-21.813c3.029-9.089,5.453-18.784,3.029-27.268c-1.817-1.212-3.636,1.212-4.847,3.03
	c-5.454,9.695-9.695,19.996-12.726,30.903c-0.605,3.03-1.817,6.06-3.636,8.483c-1.211,1.818-3.029,3.636-4.847,4.848
	c-2.424,1.817-4.848,4.241-7.271,6.059c-6.06,5.454-13.331,10.907-20.603,11.513c19.391-16.36,20.603-46.658,36.356-67.26
	c2.424-3.029,5.454-6.665,6.666-10.301c0.605-3.03,0.605-6.06,1.212-9.089c1.212-6.665,6.665-11.513,11.513-16.966
	c4.848-4.847,9.089-12.119,6.665-18.178c-4.241-3.029-10.907,0-13.937,4.242s-4.241,10.301-7.271,14.542
	c-3.636,5.454-9.089,10.301-10.907,16.36c-1.211,6.06,1.212,13.937-3.029,18.178c-2.424,2.424-6.06,3.03-7.877,5.454
	c-3.03,3.03-3.03,7.877-3.636,12.119c-1.212,12.725-9.089,23.632-18.784,32.721c3.029-21.208,6.06-42.416,9.089-63.624
	c1.818-14.542,4.241-29.085,5.454-43.627c0.605-6.06-1.818-12.725-1.212-18.784c0.605-9.089,3.636-18.178,3.636-27.268
	c-4.848-0.606-7.878,4.848-9.09,9.695c-4.848,20.602-6.06,42.416-6.06,64.229c0,16.36,1.818,32.115-4.241,47.263
	c-3.636,8.483-9.089,16.966-9.695,26.056c-0.605,5.454,0,11.513-1.212,16.966c-5.453,4.242-11.513,8.483-16.36,12.725
	c0.606-1.212,1.818-2.424,2.424-3.636c2.424-4.847,0-4.241,1.212-11.513s2.424-11.513,2.424-17.572c0-1.818-0.605-4.242-1.212-6.06
	c-1.212-6.059,0-12.119,1.818-17.572c4.241-15.754,9.694-32.115,10.301-48.475c0-16.966-4.848-33.933-2.424-50.899
	c-1.818-1.818-4.848-1.212-6.665,1.212c-1.212,1.818-1.818,4.848-1.818,7.271c-1.212,16.966,0.606,37.568-1.817,57.564
	c-1.818,15.148-7.271,30.297-9.09,44.234c-1.211,11.513,0.606,22.42-1.211,32.115c-3.636,16.36-10.302,29.691-15.149,38.174
	c-9.089,19.996-19.39,16.36-29.085,29.691l9.695-33.327c0,0,4.848-13.331,4.241-35.145c4.242-4.242,7.878-10.301,10.907-15.754
	c7.877-13.937,16.36-30.297,10.301-45.446c-8.483,5.454-10.907,16.967-14.542,26.662c-1.818,5.454-4.848,10.301-8.483,14.542
	c-1.818-13.937-4.242-17.572-3.636-23.632c0.605-7.877,3.636-21.813,5.453-27.267c1.818-5.454,6.06-13.937,0-15.148
	s-9.694,5.454-11.513,8.483c-1.212,3.03-8.483,16.36-6.665,29.691c1.817,10.301,1.817,28.479,3.636,39.386
	c-4.242,3.029-8.483,4.847-13.331,6.665c-1.212,0.606-2.424,0.606-3.636,1.212c-0.605-3.03-1.817-6.059-2.424-8.483
	c-2.424-11.513-2.424-24.238-2.424-36.356c0-11.513,0-23.026,0-34.539c0-8.483,0-16.966,3.03-24.843
	c2.424-6.06,5.453-10.907,7.877-16.966c1.817-4.242-0.606-8.483,0-13.331c0.605-5.454,3.029-11.513,3.029-16.966
	c0-4.242-0.605-8.483-3.029-12.119s-8.483-4.242-10.907,0c0.606,6.06-1.212,12.119-6.06,16.36
	c-9.089-15.148-13.937-32.721-13.937-50.293c0-7.877,0-17.572-7.271-21.208c-4.242,13.937-2.424,28.479,1.817,42.416
	s9.089,27.267,12.119,41.204c4.241,23.025,0,47.263,1.212,70.895c0.605,22.419,6.059,44.839,7.271,67.259
	c-1.817,0.606-4.241,1.818-6.059,2.424c-8.483,4.848-13.331,14.542-19.996,22.42c-4.848,5.453-10.302,10.906-16.36,15.148
	c1.212-20.603,2.424-40.598,3.635-61.2c0.606-10.907,1.212-22.42,2.424-33.327c1.212-11.513,2.424-22.42,3.636-33.327
	c-3.636-3.636-8.482,1.818-9.694,6.665c-1.212,4.848-4.242,10.907-8.483,9.695c1.817-10.907,1.212-23.026-1.818-33.933
	c-5.453,0.606-9.695,4.848-11.513,9.695c-1.817,4.848-1.817,10.301-2.424,15.754c0,10.907-0.605,22.42-0.605,33.327
	c0,9.695,0,19.39,2.423,28.479c2.424,7.877,6.06,14.542,8.484,22.42c4.241,13.936,1.817,29.691-0.606,44.234
	c-5.454,3.029-10.907,6.059-13.937,10.906c-4.848,6.666-4.848,15.755-5.454,24.238c0,12.118-0.606,23.631,1.212,35.75
	c-1.212-0.605-2.424-1.817-3.636-2.424c-10.301-7.877-12.725-22.42-14.542-35.75c-0.606-5.454-1.818-11.514-0.606-16.967
	c0.606-5.453,2.424-10.301,1.818-15.754c-0.606-6.666-5.454-12.119-7.271-18.179c-0.606-3.029-1.212-5.453-1.817-8.483
	c-2.424-7.877-8.483-14.542-16.361-16.36c-1.212,3.635,2.424,6.665,4.848,9.089c2.424,2.423,4.848,7.271,1.818,9.695
	c-2.424,1.818-5.454,0-6.666-2.424s-1.212-5.453-1.818-7.877c-0.605-2.424-3.029-4.848-5.453-4.242
	c-1.212,5.454,1.212,11.513,4.848,15.754c3.635,4.242,7.877,7.877,11.513,12.119c3.636,4.241,5.454,10.907,3.03,16.36
	c-1.818-1.818-4.242-3.636-6.666-3.636s-6.06,1.212-6.665,4.241c-0.606,3.03,2.423,5.454,4.847,6.666s6.06,2.424,7.271,4.848
	s0,6.059-0.606,8.482c-3.03,12.725-1.212,26.056,6.06,36.356c4.847,7.271,11.513,12.119,17.572,18.179
	c6.059,5.453,11.513,12.725,13.331,21.208c-3.03-0.606-6.06,0-8.483-1.818c-3.635-2.424-5.453-6.665-7.271-9.694
	c-3.03-5.454-6.666-10.302-11.513-14.543c-4.847-4.848-10.907-8.483-14.542-14.543c-1.818-3.029-2.424-6.06-3.03-9.089
	c-1.818-6.06-3.635-12.725-5.453-18.784c-0.606-2.424-1.212-4.848-2.424-6.665c-1.212-2.424-3.03-4.242-4.848-6.665
	c-1.212-2.424-2.424-5.454-2.424-7.878c3.636-9.089,4.242-18.784,4.242-28.479c0-6.059-0.606-12.118-3.03-17.572
	c-1.818-4.242-5.454-7.877-9.089-11.513c-3.635-4.242-7.877-7.877-13.937-8.483c-1.212,0.606-0.606,2.424,0,3.636
	c3.636,5.454,7.877,10.907,12.725,15.148c1.212,1.212,3.03,2.424,3.636,4.242c0.606,1.212,1.212,3.029,1.212,4.241
	c0.606,1.818,0.606,3.636,1.212,6.06c1.212,4.848,1.818,10.301,0.606,15.148c-3.636-15.148-19.39-23.632-26.055-38.174
	c-1.212-2.424-1.818-4.848-3.636-6.666c-1.212-1.212-3.03-1.818-4.242-3.03c-3.03-2.424-4.242-6.665-5.454-10.907
	s-3.636-7.877-7.877-8.483c-3.03,1.818-3.03,6.06-1.212,9.089s4.242,4.848,6.06,7.877c1.817,3.636,3.029,7.877,6.059,10.301
	s7.877,2.424,9.089,6.059c0.606,1.818,0,4.242,0.606,6.06c0.606,2.424,3.635,3.636,5.453,4.848
	c6.666,4.241,10.301,11.513,12.119,18.784c-10.301-7.271-21.208-14.543-31.509-21.208c-7.271-4.848-14.542-9.695-21.813-14.542
	c-3.03-1.818-7.271-2.424-10.301-4.242c-4.848-2.424-8.483-6.666-13.331-9.089c-1.818,2.424,0.606,6.06,3.03,7.877
	c9.695,7.877,21.208,14.542,32.721,19.996c8.483,4.241,17.572,7.271,23.632,14.543c3.635,4.241,6.665,9.694,11.513,12.725
	c3.03,1.817,6.06,3.029,8.483,4.848c0.606,4.241,1.212,8.482,2.424,12.725c-0.606-0.606-0.606-1.818-1.212-2.424
	c-1.817-3.03-2.424-1.212-6.059-3.636c-3.636-2.424-5.454-4.848-8.483-6.06c-1.212-0.605-2.424-0.605-3.636-0.605
	c-3.635-0.606-6.059-3.03-9.089-5.454c-7.271-6.665-14.542-13.937-23.026-18.178c-9.089-4.242-19.39-6.06-27.873-11.513
	c-1.212,0.606-1.818,2.423-1.212,4.242c0.606,1.212,1.818,2.424,3.636,3.029c9.089,4.848,19.996,9.09,30.297,15.755
	c7.271,4.848,13.937,12.119,21.208,16.36c5.453,3.636,12.119,4.848,16.966,9.089c7.877,6.06,13.331,13.331,16.36,18.179
	c7.877,10.301,3.636,15.754,7.877,24.237l-15.755-13.331c0,0-5.453-6.059-17.572-11.513c-1.212-3.636-3.029-7.271-5.453-10.301
	c-5.454-8.483-11.513-17.572-21.208-17.572c0.606,6.665,6.059,10.301,10.301,15.148c2.424,2.424,4.242,5.453,5.454,8.483
	c-7.877-2.424-10.301-1.818-13.331-3.636c-4.242-2.424-10.301-7.877-13.331-10.301c-2.424-2.424-5.453-7.271-7.877-3.636
	c-2.424,3.029,0,7.271,1.212,8.483c1.212,1.817,6.06,9.089,13.937,11.513c6.06,1.817,15.754,6.06,21.814,7.877
	c0.606,3.029,0.606,6.06,0,9.695c0,0.605,0,1.817-0.606,2.424c-1.818,0-3.636-0.606-5.454-1.212
	c-7.271-1.818-13.331-4.848-19.996-7.878c-6.059-3.029-12.119-6.059-18.178-9.089c-4.242-1.817-9.089-4.241-12.119-7.877
	c-2.424-3.03-4.242-6.06-6.666-9.089c-1.818-1.818-4.847-1.818-7.271-3.636c-3.03-1.818-4.848-4.848-7.877-6.06
	c-2.424-1.212-4.848-1.818-7.271-1.212c-2.423,0.605-4.241,4.241-3.029,6.06c3.636,1.212,6.059,3.636,7.271,7.271
	c-10.301,1.212-21.208-0.606-30.297-4.848c-4.242-1.818-9.695-4.242-13.331-1.212c6.059,6.06,14.542,8.483,23.025,9.694
	c8.483,1.212,16.967,1.818,25.45,3.636c13.331,3.636,25.45,11.514,38.174,17.572c12.119,5.454,25.449,7.878,37.568,12.726
	c0,1.212,0,3.029,0,4.241c0.606,6.06,4.242,11.513,6.665,16.966c1.818,4.242,3.03,8.483,3.636,13.331
	c-10.301-6.06-21.208-11.513-31.509-17.572c-6.06-3.029-11.513-6.665-17.572-9.695c-5.454-3.636-11.513-6.665-16.966-10.906
	c-3.03,1.212-1.212,5.453,0.606,7.271c2.424,1.818,41.204,21.208,27.267,19.996c-13.937-1.212-42.416-25.449-43.021-19.996
	c-1.212,3.03,0,6.666,2.424,9.09c1.818,2.424,4.847,3.636,7.877,5.453c6.06,3.029,12.119,6.06,17.572,8.483
	c4.848,2.424,10.301,4.848,15.754,5.453c4.848,0.606,9.695,0,13.937,0.606c8.483,1.212,16.361,6.059,23.632,11.513
	c0,3.636,0.606,7.877,1.818,10.907c2.424,4.241,7.271,6.665,11.513,9.089c6.059,3.029,12.725,6.06,19.39,8.483
	c3.636,1.211,7.877,1.817,12.119,1.817h0.606c10.301,3.636,21.813,1.817,32.721,4.848c1.212,0.605,2.424,0.605,3.636,0.605
	c1.818,0,3.635-1.212,5.453-1.817c4.242-1.818,7.877,0,12.119,1.817c0.606,3.03,1.818,6.06,1.818,9.09
	c0,1.817,0.605,4.241,1.212,6.059c1.212,3.03,4.241,4.848,6.665,6.666c9.089,9.694,2.424,27.267,9.695,38.78
	c1.212,1.817,2.424,3.636,4.848,4.848c7.271,4.241,16.966-3.03,19.39-10.907c2.424-8.483,0.606-16.967,1.818-25.449
	c0.605-6.06,3.635-10.907,6.665-16.36c4.241-5.454,8.483-10.907,9.695-11.514c10.906-7.877,26.055-11.513,31.509-24.237
	c2.424-5.453,2.424-11.513,3.636-17.572c3.636-21.208,23.025-35.751,40.598-48.476c7.271-5.453,15.148-10.301,23.632-13.937
	c7.877-3.029,16.36-3.636,23.632-8.483c9.089-6.059,13.33-16.966,21.208-24.843c3.635-3.03,7.271-6.06,10.906-9.09
	c9.695-9.089,14.543-23.631,12.119-36.962C619.592,294.487,617.774,301.758,615.956,307.817z M300.261,378.713
	c3.636,1.817,6.666,4.241,6.666,4.241c5.454,3.03,9.695,8.483,13.331,13.331c3.03,4.241,6.06,9.089,9.089,13.331
	c0.606,1.212,1.818,3.029,0.606,4.241c-5.454-2.424-10.907-6.06-14.543-10.907c-3.029-3.636-5.453-7.271-9.089-9.694
	c-2.424-1.818-4.848-3.03-7.877-3.636C299.049,385.984,300.261,382.349,300.261,378.713z M309.351,451.426
	c-1.818-1.818-3.03-4.241-3.636-7.271c6.06,4.242,11.513,8.483,17.572,12.725C318.439,456.273,312.986,455.062,309.351,451.426z
	 M352.978,452.638c-10.301-2.424-16.966-9.695-27.267-10.907c-5.454-0.605-10.301-3.636-14.542-6.06
	c-1.818-1.212-3.636-1.817-5.454-3.029c0-3.029,0-5.453,0-7.877c-1.212-9.09-6.06-16.967-7.271-25.45
	c3.636,1.818,6.666,4.242,9.695,6.666c5.453,4.848,9.695,10.906,15.148,15.148c10.907,7.877,25.45,9.089,38.174,12.725
	c2.424,3.636,15.148,18.178,16.966,22.42C375.398,452.638,357.22,453.85,352.978,452.638z M459.624,337.509
	c2.424-6.665,6.665-13.331,7.877-20.602c0.605-4.848,0.605-9.695-0.605-14.543c6.059-1.818,12.118-2.424,17.572-4.848
	c0,6.666-1.818,12.725-1.818,12.725c0,10.907-4.848,20.603-10.301,30.298c-4.242,7.877-8.483,15.754-12.725,23.631
	c-1.212,1.818-3.03,4.848-5.454,3.636C454.17,357.505,455.988,347.204,459.624,337.509z M387.517,364.17
	c1.818-4.241,4.242-7.271,7.877-10.301c-1.818,12.119-4.242,24.237-6.06,35.751C386.911,380.53,384.487,372.048,387.517,364.17z
	 M435.992,449.607c1.817-6.665,2.424-13.937,0.605-20.602c-3.636-17.572-19.39-29.691-24.237-46.657
	c-2.424-8.483-1.817-17.572-1.212-26.661c0-3.636,0.606-7.271,0.606-10.907c3.635-1.818,7.877-4.241,10.906-6.06
	c12.119-7.877,19.996-21.208,31.509-29.691c-0.605,6.666-1.212,13.331-3.029,19.996c-3.029,11.514-8.483,22.42-10.907,34.539
	c-4.241,22.42,4.242,44.84,7.878,67.865C444.476,436.883,440.84,443.549,435.992,449.607z"/>
<rect x="93.03" y="3.03" fill="none" width="605.941" height="605.941"/>
</svg>
