<?xml version="1.0" encoding="utf-8"?>
<!-- Generator: Adobe Illustrator 15.0.2, SVG Export Plug-In . SVG Version: 6.00 Build 0)  -->
<!DOCTYPE svg PUBLIC "-//W3C//DTD SVG 1.1//EN" "http://www.w3.org/Graphics/SVG/1.1/DTD/svg11.dtd">
<svg version="1.1" id="Layer_1" xmlns="http://www.w3.org/2000/svg" xmlns:xlink="http://www.w3.org/1999/xlink" x="0px" y="0px"
	 width="792px" height="612px" viewBox="0 0 792 612" enable-background="new 0 0 792 612" xml:space="preserve">
<g>
	<path fill="#E96057" d="M457.2,113.311c5.453-3.636,10.301-6.06,21.208-7.271c33.326-3.636,60.594,31.509,60.594,31.509
		l7.271,9.089l-28.479,10.301c-6.665-10.301-13.331-19.996-16.36-23.631c-7.271-10.301-16.966-16.361-25.449-17.572
		c-7.877-1.818-14.543-0.606-18.179,0C456.594,115.129,456.594,113.917,457.2,113.311z"/>
	<path fill="#E96057" d="M452.353,112.099c1.212,10.301,0.605,16.966,15.754,29.085c0.606,0.606,35.146,32.115,48.476,27.874
		l34.539-12.119c6.059-1.212,15.148,1.212,21.207,10.907c4.848,7.877,1.818,3.029,7.271,11.513
		c8.483,13.937,18.784,43.022,12.725,71.501c-2.424,12.725-7.271,19.996-12.118,24.844c0.605-9.695-3.636-19.996-16.36-27.874
		c0,0-7.271-5.454-17.572,6.666c-1.818,2.424-4.848,6.059-9.695,11.513l-4.241,5.454c-0.606-0.606-0.606-1.212-1.212-1.818
		l-79.984-129.065C439.628,121.188,451.746,108.463,452.353,112.099z"/>
	<path fill="#E96057" d="M549.303,302.364c-3.029-8.483-9.695-15.148-18.178-15.754l9.695-12.119
		c3.635-4.242,6.059-7.271,7.877-9.089c8.483-9.695,14.542-5.453,14.542-5.453c30.298,18.784-1.212,52.111-1.212,52.111
		c-3.635,3.636-7.877,6.06-12.725,6.665C551.121,313.271,551.121,307.817,549.303,302.364z"/>
	<path fill="#E96057" d="M542.031,307.212c3.636,10.907-1.211,24.844-18.783,27.873l-15.149,1.212
		c-3.029-10.907-7.877-23.025-15.754-33.327l22.42-9.695C527.489,289.034,537.79,295.699,542.031,307.212z"/>
	<path fill="#E96057" d="M508.705,370.229c6.665-0.605,13.937-0.605,21.813,0l21.814,1.212c9.694,0,13.937,4.242,13.33,10.301
		c0,0-0.605,11.514-14.542,9.09c0,0-34.539-6.06-36.963-7.271c-5.453-1.212-10.301-1.818-15.754-2.424
		c1.817-1.212,3.029-2.424,4.241-3.636C505.675,375.077,507.493,372.653,508.705,370.229z"/>
	<path fill="#E96057" d="M513.553,359.322c0-0.605,0-0.605,0-1.211c-0.606-4.242-1.212-8.483-1.818-12.726
		c23.026-6.059,58.776-17.572,58.776-17.572c15.148-4.241,16.36,7.878,16.36,7.878c0,4.848-1.212,10.906-16.966,13.937
		L513.553,359.322z"/>
	<path fill="#E96057" d="M252.998,136.942c0,0,27.873-35.145,60.594-31.509c10.907,1.212,15.754,3.636,21.208,7.271
		c0.606,0.606,0,1.818-0.605,1.212c-4.242-0.606-10.301-1.818-18.179,0c-8.483,1.818-18.178,7.877-25.449,17.572
		c-3.03,4.241-9.695,13.937-16.36,23.631l-28.479-10.301L252.998,136.942z"/>
	<path fill="#E96057" d="M213.006,179.358c5.454-8.483,2.424-4.242,7.271-11.513c6.059-10.301,15.148-12.725,21.208-10.907
		l34.539,12.119c13.331,4.241,47.869-27.268,48.475-27.874c14.542-12.119,14.542-18.784,15.754-29.085
		c0.606-3.636,12.725,9.089,1.212,28.479l-80.59,129.065c-0.605,0.606-0.605,1.212-1.211,1.818l-4.242-4.848
		c-4.242-5.454-7.271-9.089-9.695-11.513c-10.301-12.119-17.572-6.666-17.572-6.666c-12.725,7.877-16.36,18.178-16.36,27.874
		c-5.453-4.848-9.695-12.725-12.119-24.844C193.616,222.38,204.523,193.295,213.006,179.358z"/>
	<path fill="#E96057" d="M243.303,318.119c-4.847-0.606-9.089-3.03-12.725-6.666c0,0-30.903-32.721-1.212-52.11
		c0,0,6.06-4.242,14.542,5.453c1.818,1.818,4.242,4.848,7.877,9.089l9.695,12.119c-8.483,1.212-15.148,7.271-18.178,15.754
		C240.879,307.817,240.879,313.271,243.303,318.119z"/>
	<path fill="#E96057" d="M222.095,327.813c0,0,35.75,11.514,58.776,17.572c-0.606,4.242-1.817,8.483-1.817,12.726
		c0,0.605,0,0.605,0,1.211l-56.353-9.089c-15.148-3.029-16.966-9.089-16.966-13.937
		C205.735,335.691,206.341,324.178,222.095,327.813z"/>
	<path fill="#E96057" d="M239.667,370.836l21.814-1.212c7.877-0.606,15.148,0,21.813,0c1.212,3.029,3.03,5.453,5.454,7.271
		c1.212,1.212,3.03,2.423,4.242,3.635c-4.848,0.606-10.301,1.212-15.754,2.424c-3.03,0.606-36.962,7.271-36.962,7.271
		c-13.937,2.424-14.543-9.089-14.543-9.089C225.73,375.077,229.972,371.441,239.667,370.836z"/>
	<path fill="#E96057" d="M283.901,336.297l-15.148-1.817c-17.572-3.03-22.42-16.36-18.784-27.874
		c3.636-10.906,13.937-18.178,27.268-13.33l22.419,9.695C291.778,313.271,286.931,325.39,283.901,336.297z"/>
	<path fill="#E96057" d="M148.776,285.398c4.241-1.212,9.695,0,13.331,1.212c1.212,0.606,1.212,2.424,0,2.424
		c-6.666,1.212-15.754,5.454,10.301,20.602c7.877,4.241,20.602,11.513,31.509,16.966c-3.636,2.424-4.242,7.271-4.242,7.271
		c0,0.606,0,1.212,0,1.818l-47.869-23.026C131.81,301.758,137.263,288.428,148.776,285.398z"/>
	<path fill="#E96057" d="M162.713,421.129c0.606,1.817,3.03,7.877,1.212,8.483c-3.636,1.212-9.089-10.907-9.695-13.938
		c-1.817-9.089,1.818-18.178,18.178-23.631l46.052-11.514v0.606c0,0,0,4.848,4.242,7.271c-12.119,3.636-26.056,7.271-34.539,9.694
		C163.319,407.192,160.895,414.463,162.713,421.129z"/>
	<path fill="#E96057" d="M225.73,439.307c-25.449,16.36-12.119,30.903-9.089,35.751c1.212,2.424,0,3.636-1.212,3.029
		c-3.636-1.212-11.513-8.483-14.542-12.725s-12.119-15.754,9.695-28.479l38.78-21.813c0,0.605,0,1.212,0.606,1.817
		c0,0,0.606,3.03,4.242,4.848C243.909,427.794,232.396,435.065,225.73,439.307z"/>
	<path fill="#E96057" d="M255.422,413.252c-2.424-4.242,2.424-10.907,7.877-12.726l37.568-12.118l0,0
		c3.636,3.029,7.877,6.06,11.513,9.089c-3.636,1.817-40.598,18.784-40.598,18.784C258.452,422.946,255.422,413.252,255.422,413.252z
		"/>
	<path fill="#E96057" d="M329.347,409.616c3.029,2.424,6.665,4.847,10.301,7.271c-3.03,2.424-30.903,22.42-30.903,22.42
		c-8.483,5.454-13.331,3.636-18.178-0.605c-4.848-4.848-4.848-15.755,6.06-18.784C296.626,419.917,323.893,411.434,329.347,409.616z
		"/>
	<path fill="#E96057" d="M309.351,486.57c0,1.817,0.606,3.636,1.212,4.848c-2.424,0-4.848-1.212-6.666-2.424
		c0,0-19.996-12.725-16.966-28.479c-3.636-0.605-6.665-3.029-7.271-7.271c0,0-3.029-10.906,1.212-17.572
		c0,3.03,0.606,6.06,2.424,7.878c3.03,3.636,5.454,6.06,9.695,6.06c0.606-0.606,4.241-4.242,11.513,1.212
		c1.818,1.211,4.242,3.029,7.271,5.453l7.877,5.453C312.38,468.393,308.139,477.481,309.351,486.57z"/>
	<path fill="#E96057" d="M380.852,488.994c-18.784,19.39-43.022,17.572-43.022,17.572c-11.513,0-19.996-9.089-20.602-20.603
		c-0.606-11.513,8.483-22.419,21.208-22.419c0,0,19.996-1.212,41.81,15.754c0.606,0.606,0.606,2.424-0.606,2.424l-41.204,0.606
		c-1.212,0-1.818,1.212-1.818,2.424c0,1.211,1.212,2.423,1.818,2.423l41.204-0.605C380.852,486.57,381.458,487.782,380.852,488.994z
		"/>
	<path fill="#E96057" d="M384.487,429.006c-9.695,0-18.784-3.029-26.056-9.089c-16.36-12.725-46.051-36.356-59.988-47.264
		c-4.847-3.636-7.877-9.695-7.271-15.754c3.03-31.51,19.39-58.776,44.233-76.349v-20.602c0-3.03,2.424-5.454,5.454-5.454
		s4.242,1.212,5.454,5.454l4.242,11.513c4.847-2.424,10.301-4.242,15.754-6.06c-3.636-10.907-11.513-30.903-25.45-44.839
		c-0.606-0.606-0.606-2.424,0-3.03c1.212-0.606,3.03-0.606,3.636,0c14.542,13.331,25.449,35.145,29.691,45.445
		c6.666-1.212,13.937-2.423,21.208-2.423c7.877,0,15.754,0.605,23.026,2.423c4.848-10.301,15.754-32.115,30.297-46.051
		c1.212-1.212,2.424-1.212,3.636,0c1.212,0.606,1.212,2.424,0,3.03c-13.937,14.542-22.42,34.539-25.449,45.445
		c5.453,1.818,10.906,4.242,16.36,6.666l4.241-12.725c1.212-4.242,2.424-5.454,5.453-5.454c3.03,0,5.454,2.424,5.454,5.454v22.419
		c23.025,17.572,38.78,44.234,41.204,73.925c0.605,6.059-2.424,12.118-7.271,15.754c-13.937,10.907-44.84,34.539-61.2,47.264
		c-7.877,6.06-16.966,9.089-26.661,9.089h-19.996V429.006z"/>
	<path fill="#E96057" d="M462.653,409.616c5.454,1.817,32.721,10.301,32.721,10.301c10.907,3.029,10.907,13.937,6.06,18.784
		s-10.301,6.06-18.178,0.605c0,0-27.874-19.996-30.903-22.42C455.988,414.463,459.624,412.04,462.653,409.616z"/>
	<path fill="#E96057" d="M453.564,506.566c0,0-24.237,1.817-43.021-17.572c-0.606-1.212,0-2.424,1.212-2.424l41.203,0.605
		c1.212,0,1.818-1.212,1.818-2.424c0-1.211-1.212-2.423-1.818-2.423l-41.203-0.606c-1.212,0-1.818-1.212-0.606-2.424
		c21.813-16.966,41.81-15.754,41.81-15.754c12.726,0,21.814,10.906,21.208,22.419C473.561,496.871,465.077,506.566,453.564,506.566z
		"/>
	<path fill="#E96057" d="M512.341,453.85c-1.212,3.636-4.242,6.665-7.271,7.271c3.636,15.754-16.967,28.479-16.967,28.479
		c-2.424,1.212-4.241,2.424-6.665,2.424c0.606-1.817,1.212-3.636,1.212-4.848c1.212-9.089-2.424-18.784-10.301-23.631l7.877-5.454
		c3.636-2.424,6.06-4.241,7.271-5.453c7.271-5.454,10.907-1.818,11.513-1.212c4.241,0,7.271-2.424,9.695-6.06
		c1.817-2.424,2.424-4.848,2.424-7.877C515.37,442.942,512.341,453.85,512.341,453.85z"/>
	<path fill="#E96057" d="M534.761,413.252c0,0-2.424,10.301-16.967,3.635c0,0-36.962-17.572-40.598-18.784
		c4.241-3.029,7.877-6.059,11.513-9.089l0,0l37.568,12.119C532.337,402.345,537.185,408.404,534.761,413.252z"/>
	<path fill="#E96057" d="M589.295,465.362c-3.029,4.241-10.907,11.513-14.543,12.725c-1.211,0.606-3.029-0.605-1.211-3.029
		c3.635-5.454,16.36-19.996-9.09-35.751c-6.665-4.241-18.178-11.513-27.873-16.966c3.636-1.818,4.242-4.848,4.242-4.848
		c0.605-0.606,0.605-1.212,0.605-1.818l38.78,21.814C601.414,449.607,592.324,461.121,589.295,465.362z"/>
	<path fill="#E96057" d="M637.164,416.281c-0.605,3.029-6.059,15.148-9.694,13.937c-1.212-0.605,1.212-6.665,1.212-8.483
		c1.817-7.271-0.606-13.937-25.45-21.813c-8.483-2.424-23.025-6.665-34.538-9.695c3.636-3.029,4.241-7.271,4.241-7.271v-0.605
		l46.052,11.513C635.952,397.497,638.982,407.192,637.164,416.281z"/>
	<path fill="#E96057" d="M640.194,312.06l-47.87,23.025c0-0.605,0-1.212,0-1.817c0,0-0.605-4.242-4.241-7.271
		c10.907-6.06,23.632-12.725,31.509-16.967c26.056-15.148,17.572-19.39,10.301-20.602c-1.211,0-1.211-1.818,0-2.424
		c3.636-1.212,9.09-2.424,13.331-1.212C654.736,288.428,660.19,301.758,640.194,312.06z"/>
</g>
<rect x="93.03" y="3.03" fill="none" width="605.941" height="605.941"/>
</svg>
