<?xml version="1.0" encoding="utf-8"?>
<!-- Generator: Adobe Illustrator 17.1.0, SVG Export Plug-In . SVG Version: 6.00 Build 0)  -->
<!DOCTYPE svg PUBLIC "-//W3C//DTD SVG 1.1//EN" "http://www.w3.org/Graphics/SVG/1.1/DTD/svg11.dtd">
<svg version="1.1" id="Layer_1" xmlns="http://www.w3.org/2000/svg" xmlns:xlink="http://www.w3.org/1999/xlink" x="0px" y="0px"
	 viewBox="243.7 77.3 309.3 457.9" enable-background="new 243.7 77.3 309.3 457.9" xml:space="preserve">
<path fill="#E96057" d="M551.3,304.1c-6.2-61.1-45.8-111.8-64.1-169.2c-4.2-14.6-2.4-31.2-6.2-45.8c-3-12.2-31.8-12.2-40.3-11.6
	c-9.8,0.6-25-2.4-33.6,4.8c-8,7.4-5.5,26.3-8.6,36.1c-5.5,23.8-14,47.7-26.3,68.5c-14.6,24.4-51.3,38.5-64.7,3.6
	c-4.8-12.2-1.8-24.4-15.9-31.8c-12.8-6.2-36.7,0.6-44.6,11c-11,14.6,9.2,57.5,11,75.7c3,34.2,0.6,64.7-3.6,99
	c-3.6,31.2-5.5,64.1,12.8,91.1c8.6,13.4,16.5,27.5,25.6,40.3c9.8,15.2,6.2,29.3,11.6,45.2c3.6,9.8,58.1,8.6,67.3,9.2
	c25.6,1.8,149,20.2,133.8-28.1c-9.2-29.9,22.6-61.7,33-90.5C551.9,376.2,555.6,341.9,551.3,304.1z M294.1,178.3
	c-6.8,17.1-51.3,12.2-38.5-4.8C263.5,163,296.5,158.7,294.1,178.3C294.1,184.3,295.3,176.4,294.1,178.3z M470.7,101.8
	c-7.4,11.6-33,5.5-44,3c-8-1.8-25.6-12.2-8.6-16.5C424.9,87.2,480.4,86,470.7,101.8z"/>
</svg>
