<?xml version="1.0" encoding="utf-8"?>
<!-- Generator: Adobe Illustrator 17.1.0, SVG Export Plug-In . SVG Version: 6.00 Build 0)  -->
<!DOCTYPE svg PUBLIC "-//W3C//DTD SVG 1.1//EN" "http://www.w3.org/Graphics/SVG/1.1/DTD/svg11.dtd">
<svg version="1.1" id="Layer_1" xmlns="http://www.w3.org/2000/svg" xmlns:xlink="http://www.w3.org/1999/xlink" x="0px" y="0px"
	 viewBox="113.4 74.8 281.3 335.4" enable-background="new 113.4 74.8 281.3 335.4" xml:space="preserve">
<path fill="#E96057" d="M394.2,127.4c-0.3-0.4-0.9-1.1-2.2-1.1c-0.6,0-1.3,0.2-1.8,0.3c-0.3,0.1-0.7,0.2-0.5,0.3
	c-0.1-0.1-0.3-0.2-0.7-0.4c-15.4-9.6-29-11.6-37.8-11.6c-9.1,0-17.8,2.1-26.1,6.1c-16.2,7.6-22.3,16.7-25.7,24
	c-3.5,2.4-6.5,5.3-8.9,8.4c-4.7,6.2-7.3,13.7-8.8,21.1c-0.4-5-0.9-10.3-1.3-15.5c-2.1-24.7-3.4-40-4.1-42.7c-0.6-2-1-4.2-1.4-6.3
	c-0.8-4.1-1.7-8.4-3.4-12.1c-2.7-5.6-15-19.1-15.6-19.7c-3.4-3.4-4.6-3.4-5.1-3.4l-0.8,0.1l-0.5,0.4c-1.4,1.1-1.3,2.6,3.1,8.8
	c0.1,0.1,8.1,10.2,12.6,16.6c2.2,3.2,5.8,21,10.3,87.5c0.2,2.6,0.3,4.2,0.3,4.7c0.4,3.8-0.3,7.3-0.9,7.8c-0.2,0.1-0.3,0.2-0.6,0.2
	c-4.5-15.5-17.7-59.2-25.2-70.6c-8.3-12.6-36.4-31.4-40.4-31.4l-1.1,0.1l-1.1,1.6l0.3,0.9c0.4,1.3,2.1,2.6,8.9,7.7
	c8.3,6.1,20.8,15.4,27,24c6.5,9,16.2,40.9,21.8,60.4c-0.9-1.2-1.9-2.6-3-4.2c-10.5-14.4-30-41.2-36.8-46.1c-1.6-1.2-3.2-2.3-4.8-3.5
	c-7.1-5.2-14.5-10.6-24.1-15.8c-8.2-4.4-17.3-5.1-22-5.1c-4.6,0-8.9,0.6-11.1,1.6c-1.3,0.6-2.6,1-3.7,1.4c-2.7,1-4.4,1.6-4.9,3.2
	c-0.2,0.7-0.1,1.5,0.4,2.2c0.6,0.8,2,2.8,4,2.8c1.2,0,2.4-0.7,3.4-2c0.6-0.8,5-2.7,11.7-2.7c4.6,0,11.7,0.9,19.8,5.5
	c7,3.2,10.6,6,20,13.4l5.9,4.6c13.7,10.7,41.9,55,42.9,57.8c0.4,1.3,0.5,2,0.6,2.5c-2.2-1.5-9.2-7.6-15-12.6
	c-7.9-6.9-16.9-14.7-21.4-17.7c-8.4-5.7-37-18.6-44.7-19.7c-0.7-0.1-1.4-0.2-2.1-0.3c-2.5-0.4-5.3-0.9-8.6-0.9c-8,0-15.5,3-22.8,9.1
	c-0.3,0.2-34.9,25.5-34.8,29.6l0.1,1l1.4,0.9h0.6c1.9,0,6.9-3.5,25.2-17.9c4.1-3.2,7.7-6.1,9.9-7.7c4.9-3.7,13.7-7.9,22.2-7.9
	c2.7,0,5.2,0.5,7.4,1.3c2.3,0.9,5.1,1.9,8.1,3c9.8,3.6,23.3,8.4,35.1,16.6c10.1,6.9,23.1,18.9,31.6,26.8c5.4,5,8.3,7.6,9.7,8.5
	c1.4,0.9,1.5,1.1,1.9,2.1c0.5,1.2,1.3,3.1,4.2,6.8c4.1,5.2,10.8,30.9,14.9,46.3c1.3,5.1,2.5,9.4,3.3,12.3
	c4.2,14.4,8.9,31.8,9.7,37.2c0.4,2.5,0.2,5.9,0,9.2c-0.2,4.1-0.4,8,0.4,10.6c1.3,3.9,1.3,5.3,1.3,10.1c0,4.6,0.2,10.6,1.7,15
	c1.3,4.1,2,10.2,1.6,11.9c-0.2,1.1-0.2,2.6-0.2,4.1c0,1.2,0,3.2,0,3.5c-0.1,0.1-0.5,0.2-0.7,0.2c-0.9,0.2-3.1,0.7-3.2,3.1
	c-0.1,2.7,3.9,8.5,5.2,9.9c0.9,1,7.5,6.4,10,6.4l0.3,0c8.8-0.5,10.3-12.9,11.7-19.8c1.3-6.6,2-18-2.4-35.2c-1.5-6-3.3-15-5.1-24.4
	c-2.5-12.9-5.4-27.4-8.2-37c-4.6-15.7-17.1-57.8-18.7-63c-0.4-1.3-0.9-2.4-1.3-3.6c-1.4-3.5-2.6-6.5-1.3-12.2c0.7-3.3,1.4-6.6,2-9.9
	c0.9-4.9,1.8-9.6,2.9-13.3c0.3-1.1,0.7-3.2,1.3-6.1c1.6-8.6,4.6-24.6,10.6-37.3c13.5-7.6,30.7-8.2,35.7-8.2c2.4,0,4.5,0.1,6.2,0.3
	c7,0.9,10.5,4.4,13.6,7.5c0.7,0.8,1.4,1.5,2.1,2.1c1.4,1.3,3.2,4.8,4.7,7.7c2.3,4.5,3.5,6.8,5.4,6.8l1.2-0.2l0.5-0.6
	c3-3.4-2.4-12.8-7.3-18.4c-6.9-8-14-11.6-23.1-11.6l-0.5,0c-6.2,0.1-19.6,0.3-32.5,4.8c2.9-3.7,6.1-6.3,9.7-7.8
	c8.9-5.4,18.8-8.2,29.4-8.2c17.1,0,31.2,7.2,35.8,9.5c0.8,0.4,1.4,0.7,1.6,0.8c2.2,0.8,4.3,0,5.3-1.8
	C394.9,129.7,394.8,128.3,394.2,127.4z M287.1,187.3c0.1-8.4,1.6-18.9,6.9-27.4C291.4,169,288.5,181.2,287.1,187.3z"/>
</svg>
