<?xml version="1.0" encoding="utf-8"?>
<!-- Generator: Adobe Illustrator 17.1.0, SVG Export Plug-In . SVG Version: 6.00 Build 0)  -->
<!DOCTYPE svg PUBLIC "-//W3C//DTD SVG 1.1//EN" "http://www.w3.org/Graphics/SVG/1.1/DTD/svg11.dtd">
<svg version="1.1" id="Layer_1" xmlns="http://www.w3.org/2000/svg" xmlns:xlink="http://www.w3.org/1999/xlink" x="0px" y="0px"
	 viewBox="138.5 105.2 515.1 401.4" enable-background="new 138.5 105.2 515.1 401.4" xml:space="preserve">
<g>
	<path fill="#E96057" d="M457.2,113.3c5.5-3.6,10.3-6.1,21.2-7.3c33.3-3.6,60.6,31.5,60.6,31.5l7.3,9.1l-28.5,10.3
		c-6.7-10.3-13.3-20-16.4-23.6c-7.3-10.3-17-16.4-25.4-17.6c-7.9-1.8-14.5-0.6-18.2,0C456.6,115.1,456.6,113.9,457.2,113.3z"/>
	<path fill="#E96057" d="M452.4,112.1c1.2,10.3,0.6,17,15.8,29.1c0.6,0.6,35.1,32.1,48.5,27.9l34.5-12.1c6.1-1.2,15.1,1.2,21.2,10.9
		c4.8,7.9,1.8,3,7.3,11.5c8.5,13.9,18.8,43,12.7,71.5c-2.4,12.7-7.3,20-12.1,24.8c0.6-9.7-3.6-20-16.4-27.9c0,0-7.3-5.5-17.6,6.7
		c-1.8,2.4-4.8,6.1-9.7,11.5l-4.2,5.5c-0.6-0.6-0.6-1.2-1.2-1.8l-80-129.1C439.6,121.2,451.7,108.5,452.4,112.1z"/>
	<path fill="#E96057" d="M549.3,302.4c-3-8.5-9.7-15.1-18.2-15.8l9.7-12.1c3.6-4.2,6.1-7.3,7.9-9.1c8.5-9.7,14.5-5.5,14.5-5.5
		c30.3,18.8-1.2,52.1-1.2,52.1c-3.6,3.6-7.9,6.1-12.7,6.7C551.1,313.3,551.1,307.8,549.3,302.4z"/>
	<path fill="#E96057" d="M542,307.2c3.6,10.9-1.2,24.8-18.8,27.9l-15.1,1.2c-3-10.9-7.9-23-15.8-33.3l22.4-9.7
		C527.5,289,537.8,295.7,542,307.2z"/>
	<path fill="#E96057" d="M508.7,370.2c6.7-0.6,13.9-0.6,21.8,0l21.8,1.2c9.7,0,13.9,4.2,13.3,10.3c0,0-0.6,11.5-14.5,9.1
		c0,0-34.5-6.1-37-7.3c-5.5-1.2-10.3-1.8-15.8-2.4c1.8-1.2,3-2.4,4.2-3.6C505.7,375.1,507.5,372.7,508.7,370.2z"/>
	<path fill="#E96057" d="M513.6,359.3c0-0.6,0-0.6,0-1.2c-0.6-4.2-1.2-8.5-1.8-12.7c23-6.1,58.8-17.6,58.8-17.6
		c15.1-4.2,16.4,7.9,16.4,7.9c0,4.8-1.2,10.9-17,13.9L513.6,359.3z"/>
	<path fill="#E96057" d="M253,136.9c0,0,27.9-35.1,60.6-31.5c10.9,1.2,15.8,3.6,21.2,7.3c0.6,0.6,0,1.8-0.6,1.2
		c-4.2-0.6-10.3-1.8-18.2,0c-8.5,1.8-18.2,7.9-25.4,17.6c-3,4.2-9.7,13.9-16.4,23.6l-28.5-10.3L253,136.9z"/>
	<path fill="#E96057" d="M213,179.4c5.5-8.5,2.4-4.2,7.3-11.5c6.1-10.3,15.1-12.7,21.2-10.9l34.5,12.1c13.3,4.2,47.9-27.3,48.5-27.9
		c14.5-12.1,14.5-18.8,15.8-29.1c0.6-3.6,12.7,9.1,1.2,28.5l-80.6,129.1c-0.6,0.6-0.6,1.2-1.2,1.8l-4.2-4.8
		c-4.2-5.5-7.3-9.1-9.7-11.5c-10.3-12.1-17.6-6.7-17.6-6.7c-12.7,7.9-16.4,18.2-16.4,27.9c-5.5-4.8-9.7-12.7-12.1-24.8
		C193.6,222.4,204.5,193.3,213,179.4z"/>
	<path fill="#E96057" d="M243.3,318.1c-4.8-0.6-9.1-3-12.7-6.7c0,0-30.9-32.7-1.2-52.1c0,0,6.1-4.2,14.5,5.5
		c1.8,1.8,4.2,4.8,7.9,9.1l9.7,12.1c-8.5,1.2-15.1,7.3-18.2,15.8C240.9,307.8,240.9,313.3,243.3,318.1z"/>
	<path fill="#E96057" d="M222.1,327.8c0,0,35.8,11.5,58.8,17.6c-0.6,4.2-1.8,8.5-1.8,12.7c0,0.6,0,0.6,0,1.2l-56.4-9.1
		c-15.1-3-17-9.1-17-13.9C205.7,335.7,206.3,324.2,222.1,327.8z"/>
	<path fill="#E96057" d="M239.7,370.8l21.8-1.2c7.9-0.6,15.1,0,21.8,0c1.2,3,3,5.5,5.5,7.3c1.2,1.2,3,2.4,4.2,3.6
		c-4.8,0.6-10.3,1.2-15.8,2.4c-3,0.6-37,7.3-37,7.3c-13.9,2.4-14.5-9.1-14.5-9.1C225.7,375.1,230,371.4,239.7,370.8z"/>
	<path fill="#E96057" d="M283.9,336.3l-15.1-1.8c-17.6-3-22.4-16.4-18.8-27.9c3.6-10.9,13.9-18.2,27.3-13.3l22.4,9.7
		C291.8,313.3,286.9,325.4,283.9,336.3z"/>
	<path fill="#E96057" d="M148.8,285.4c4.2-1.2,9.7,0,13.3,1.2c1.2,0.6,1.2,2.4,0,2.4c-6.7,1.2-15.8,5.5,10.3,20.6
		c7.9,4.2,20.6,11.5,31.5,17c-3.6,2.4-4.2,7.3-4.2,7.3c0,0.6,0,1.2,0,1.8l-47.9-23C131.8,301.8,137.3,288.4,148.8,285.4z"/>
	<path fill="#E96057" d="M162.7,421.1c0.6,1.8,3,7.9,1.2,8.5c-3.6,1.2-9.1-10.9-9.7-13.9c-1.8-9.1,1.8-18.2,18.2-23.6l46.1-11.5v0.6
		c0,0,0,4.8,4.2,7.3c-12.1,3.6-26.1,7.3-34.5,9.7C163.3,407.2,160.9,414.5,162.7,421.1z"/>
	<path fill="#E96057" d="M225.7,439.3c-25.4,16.4-12.1,30.9-9.1,35.8c1.2,2.4,0,3.6-1.2,3c-3.6-1.2-11.5-8.5-14.5-12.7
		s-12.1-15.8,9.7-28.5l38.8-21.8c0,0.6,0,1.2,0.6,1.8c0,0,0.6,3,4.2,4.8C243.9,427.8,232.4,435.1,225.7,439.3z"/>
	<path fill="#E96057" d="M255.4,413.3c-2.4-4.2,2.4-10.9,7.9-12.7l37.6-12.1l0,0c3.6,3,7.9,6.1,11.5,9.1
		c-3.6,1.8-40.6,18.8-40.6,18.8C258.5,422.9,255.4,413.3,255.4,413.3z"/>
	<path fill="#E96057" d="M329.3,409.6c3,2.4,6.7,4.8,10.3,7.3c-3,2.4-30.9,22.4-30.9,22.4c-8.5,5.5-13.3,3.6-18.2-0.6
		c-4.8-4.8-4.8-15.8,6.1-18.8C296.6,419.9,323.9,411.4,329.3,409.6z"/>
	<path fill="#E96057" d="M309.4,486.6c0,1.8,0.6,3.6,1.2,4.8c-2.4,0-4.8-1.2-6.7-2.4c0,0-20-12.7-17-28.5c-3.6-0.6-6.7-3-7.3-7.3
		c0,0-3-10.9,1.2-17.6c0,3,0.6,6.1,2.4,7.9c3,3.6,5.5,6.1,9.7,6.1c0.6-0.6,4.2-4.2,11.5,1.2c1.8,1.2,4.2,3,7.3,5.5l7.9,5.5
		C312.4,468.4,308.1,477.5,309.4,486.6z"/>
	<path fill="#E96057" d="M380.9,489c-18.8,19.4-43,17.6-43,17.6c-11.5,0-20-9.1-20.6-20.6c-0.6-11.5,8.5-22.4,21.2-22.4
		c0,0,20-1.2,41.8,15.8c0.6,0.6,0.6,2.4-0.6,2.4l-41.2,0.6c-1.2,0-1.8,1.2-1.8,2.4c0,1.2,1.2,2.4,1.8,2.4l41.2-0.6
		C380.9,486.6,381.5,487.8,380.9,489z"/>
	<path fill="#E96057" d="M384.5,429c-9.7,0-18.8-3-26.1-9.1c-16.4-12.7-46.1-36.4-60-47.3c-4.8-3.6-7.9-9.7-7.3-15.8
		c3-31.5,19.4-58.8,44.2-76.3v-20.6c0-3,2.4-5.5,5.5-5.5s4.2,1.2,5.5,5.5l4.2,11.5c4.8-2.4,10.3-4.2,15.8-6.1
		c-3.6-10.9-11.5-30.9-25.5-44.8c-0.6-0.6-0.6-2.4,0-3c1.2-0.6,3-0.6,3.6,0c14.5,13.3,25.4,35.1,29.7,45.4
		c6.7-1.2,13.9-2.4,21.2-2.4c7.9,0,15.8,0.6,23,2.4c4.8-10.3,15.8-32.1,30.3-46.1c1.2-1.2,2.4-1.2,3.6,0c1.2,0.6,1.2,2.4,0,3
		c-13.9,14.5-22.4,34.5-25.4,45.4c5.5,1.8,10.9,4.2,16.4,6.7l4.2-12.7c1.2-4.2,2.4-5.5,5.5-5.5c3,0,5.5,2.4,5.5,5.5v22.4
		c23,17.6,38.8,44.2,41.2,73.9c0.6,6.1-2.4,12.1-7.3,15.8c-13.9,10.9-44.8,34.5-61.2,47.3c-7.9,6.1-17,9.1-26.7,9.1h-20L384.5,429
		L384.5,429z"/>
	<path fill="#E96057" d="M462.7,409.6c5.5,1.8,32.7,10.3,32.7,10.3c10.9,3,10.9,13.9,6.1,18.8s-10.3,6.1-18.2,0.6
		c0,0-27.9-20-30.9-22.4C456,414.5,459.6,412,462.7,409.6z"/>
	<path fill="#E96057" d="M453.6,506.6c0,0-24.2,1.8-43-17.6c-0.6-1.2,0-2.4,1.2-2.4l41.2,0.6c1.2,0,1.8-1.2,1.8-2.4
		c0-1.2-1.2-2.4-1.8-2.4l-41.2-0.6c-1.2,0-1.8-1.2-0.6-2.4c21.8-17,41.8-15.8,41.8-15.8c12.7,0,21.8,10.9,21.2,22.4
		C473.6,496.9,465.1,506.6,453.6,506.6z"/>
	<path fill="#E96057" d="M512.3,453.9c-1.2,3.6-4.2,6.7-7.3,7.3c3.6,15.8-17,28.5-17,28.5c-2.4,1.2-4.2,2.4-6.7,2.4
		c0.6-1.8,1.2-3.6,1.2-4.8c1.2-9.1-2.4-18.8-10.3-23.6l7.9-5.5c3.6-2.4,6.1-4.2,7.3-5.5c7.3-5.5,10.9-1.8,11.5-1.2
		c4.2,0,7.3-2.4,9.7-6.1c1.8-2.4,2.4-4.8,2.4-7.9C515.4,442.9,512.3,453.9,512.3,453.9z"/>
	<path fill="#E96057" d="M534.8,413.3c0,0-2.4,10.3-17,3.6c0,0-37-17.6-40.6-18.8c4.2-3,7.9-6.1,11.5-9.1l0,0l37.6,12.1
		C532.3,402.3,537.2,408.4,534.8,413.3z"/>
	<path fill="#E96057" d="M589.3,465.4c-3,4.2-10.9,11.5-14.5,12.7c-1.2,0.6-3-0.6-1.2-3c3.6-5.5,16.4-20-9.1-35.8
		c-6.7-4.2-18.2-11.5-27.9-17c3.6-1.8,4.2-4.8,4.2-4.8c0.6-0.6,0.6-1.2,0.6-1.8l38.8,21.8C601.4,449.6,592.3,461.1,589.3,465.4z"/>
	<path fill="#E96057" d="M637.2,416.3c-0.6,3-6.1,15.1-9.7,13.9c-1.2-0.6,1.2-6.7,1.2-8.5c1.8-7.3-0.6-13.9-25.5-21.8
		c-8.5-2.4-23-6.7-34.5-9.7c3.6-3,4.2-7.3,4.2-7.3v-0.6l46.1,11.5C636,397.5,639,407.2,637.2,416.3z"/>
	<path fill="#E96057" d="M640.2,312.1l-47.9,23c0-0.6,0-1.2,0-1.8c0,0-0.6-4.2-4.2-7.3c10.9-6.1,23.6-12.7,31.5-17
		c26.1-15.1,17.6-19.4,10.3-20.6c-1.2,0-1.2-1.8,0-2.4c3.6-1.2,9.1-2.4,13.3-1.2C654.7,288.4,660.2,301.8,640.2,312.1z"/>
</g>
</svg>
