<?xml version="1.0" encoding="utf-8"?>
<!-- Generator: Adobe Illustrator 17.1.0, SVG Export Plug-In . SVG Version: 6.00 Build 0)  -->
<!DOCTYPE svg PUBLIC "-//W3C//DTD SVG 1.1//EN" "http://www.w3.org/Graphics/SVG/1.1/DTD/svg11.dtd">
<svg version="1.1" id="Layer_1" xmlns="http://www.w3.org/2000/svg" xmlns:xlink="http://www.w3.org/1999/xlink" x="0px" y="0px"
	 viewBox="0 0 100 86.5" enable-background="new 0 0 100 86.5" xml:space="preserve">
<g>
	<path fill="#E96057" d="M97.4,64.2c0-0.2-0.1-0.4-0.2-0.6C97.4,64.1,97.5,64.4,97.4,64.2z"/>
	<path fill="#E96057" d="M99.9,40.6c-0.2-0.2-0.4-0.2-0.6-0.2C99.9,40.6,100.1,40.7,99.9,40.6z"/>
	<path fill="#E96057" d="M96.5,41c0.3,0,1.8-0.8,2.8-0.7c-1.7-0.9-6-3.5-8.2-3c-2.8,0.6-3.8-0.3-2.8-1.4c0.9-1.1,1.6-3.5-0.8-4.4
		c-2.4-0.9-3.9-2.7-2.4-3.3c1.6-0.6,1.6-0.6,1.4-1.4c-0.2-0.8-4.5,2-7.7,2.8c-3.1,0.8-0.9-3.5-0.8-4.9c0.2-1.4-4.4-2.7-6-2.5
		c-1.6,0.2,4.4-11.9,3.9-13C75.6,8.1,75,9.3,74.4,10c-0.6,0.6-3.5-1.7-5.3-1.7c-1.9,0-4.4,0.8-4.4,0.8s0.2-3.9-0.5-3
		c-0.6,0.9-1.1,2.7-1.6,3.3c-0.5,0.6-1.3-3-2.8-4.7c-1.6-1.7-0.2-3.8-1.3-4.5c-1.1-0.8-0.3,3.6-0.9,3.6s-4.5,1.7-5,2.5
		s-1.4-4.7-2.2-3.5c-0.8,1.3,0.5,8.8-0.5,9.7c-0.9,0.9-4.5,0.8-6,2.2c-1.4,1.4-2,3.6-3.1,5c-1.1,1.4-7.5-8.2-9.1-9.7
		c-1.6-1.6-0.5,2.7,0.2,3.1c0.6,0.5-3.5,3.9-3.9,5c-0.5,1.1-1.3,3.1-2.5,3.1c-1.3,0-12.1-1.1-13.6,0.3c-1.6,1.4-6.7,2.4-4.7,2.5
		c2,0.2,3.9-0.5,3.9-0.5s1.6,5.6,2.8,7.1c1.3,1.4,3,3.3,0.8,3.8c-2.2,0.5-10.5,3.3-10.5,3.3s1.1,0.6,2.5,0.6c1.4,0,0.9,4.1,1.7,4.7
		c0.8,0.6,1.6,3.9,2.5,3.9s-4.1,9.9-5.5,11.1C4,59.4,0.5,60.5,0,61.9c-0.5,1.4,4.2-2.2,5.3-2.2c1.1,0,3.6,3.3,2.4,3.9
		c-1.3,0.6-4.5,4.9-4.4,5.8c0.2,0.9,4.4-3.9,5.8-4.4c1.4-0.5,4.1-1.7,4.7-0.8c0.6,0.9,0.2,5.3-0.8,6.6c-0.9,1.3-3.5,7.2-3,8.2
		c0.5,0.9,4.5-6.7,4.9-5.5c0.3,1.3,2.2,1.9,3.3,1.9c1.1,0,3.6,0,3.6,0l-1.3,10.8l1.7-2.5c0,0,1.6,2,4.1,1.3c2.5-0.8,4.2-2.4,4.2-2.4
		s-0.5,4.2,0.5,3.9c0.9-0.3,1.9-16.3,0.8-18.7c-1.1-2.4,2.8-1.1,3.3,0c0.5,1.1,1.9,7.5,2.5,9.3c0.6,1.7,2.7,4.9,3.6,5.5
		c0.9,0.6,1.3-1.4,0.5-2.5C41,79,44.4,79.9,46,79.5c1.6-0.5,2.8-3.6,3.6-3.1c0.8,0.5,1.6,1.3,1.7,2.2c0.2,0.9-0.3-3.3-2.5-5.8
		c-2.2-2.5-3.8-5.2-3.6-6.4c0.2-1.3,0.8-1.4,0.8-1.4s0.5,2.7,4.4,3.6c3.9,0.9,7.1,0.5,7.7,1.7c0.6,1.3,3.3,4.2,4.1,6
		c0.8,1.7,4.1,0.5,5.2,0.3c1.1-0.2-1.6,3.3-0.2,3.3c1.4,0,6.6-9.1,7.5-11.4s3.6,0,4.1,0.3c0.5,0.3,1.3,5.2,0.6,7.4
		c-0.6,2.2-1.1,6.6-1.7,7.8c-0.6,1.3,3.1-2.5,3.3-3.3c0.2-0.8,4.2,1.3,4.1,2.2c-0.2,0.9-1.7,3.3-0.8,2.8c0.9-0.5,6.4-6.9,6.9-7.2
		c0.5-0.3,1.1-2.7,0.6-4.5c-0.5-1.9-2.5-6.9-1.6-7.5c0.9-0.6,1.7-1.4,3-1.9c1.3-0.5,0.8-2.2,1.7-2.4c0.7-0.1,1.8,0.8,2.3,1.6
		c-0.9-2.4-4.2-11.5-6.3-12.8c-2.5-1.6-0.2-1.7,1.3-1.6c1.4,0.2,3.3-0.9,5-0.6s-0.5-0.6-1.1-1.4C95.4,46.5,96.2,41,96.5,41z
		 M87.1,33.7c0.5,2.5-5,4.4-8,5.2c-3,0.8-9.6,3-10.5,2c-2-2,4.5-6.1,7.1-8.3C78.1,30.4,86.6,31.1,87.1,33.7z M73.9,50.9
		c-1.6,0.3-5.8,1.4-7.7,1.3c-1.9-0.2,0.1-3.3,1.4-5.3c2.4-3.6,7.1-2.7,8.3-1.1C77.2,47.3,75.5,50.6,73.9,50.9z M73.9,24.4
		c3.6,0.3,1.4,4.4,0.3,6.3c-1.1,1.9-9.8,7.5-11.3,6.3c-1.6-1.3,1.7-5.2,2.8-8C66.8,26.1,70.3,24.1,73.9,24.4z M59.2,44.8
		c0.5-2.5,1.9-2.4,4.1-3.9c2.2-1.6,3,3.8,1.3,5.5c-1.7,1.7-3,4.5-5.2,3.6C59.3,50,58.7,47.3,59.2,44.8z M55.6,42.6
		c-1.3-0.3-2.4-4.9-1.7-7.8c0.6-3,2.5-7.1,4.9-7.7c2.4-0.6,1.6,8.8,0.9,11.8C59,41.8,57.8,43.2,55.6,42.6z M62,22.5
		c0.4-2.8,1.5-11.7,3.8-12.4c2.4-0.8,7.6,0.3,7.2,1.8c-0.4,1.5-7.1,15.7-8.5,16.1C62.7,28.4,61.6,25.3,62,22.5z M55.7,5.4
		c3.1-2.3,4.6,3,5.3,5.4c0.6,2.5-1.8,13.6-4,13.6c-2.3,0-2.8-5.9-4.2-9.2C51.5,11.9,52.6,7.7,55.7,5.4z M43.5,18.8
		c0.8-1.6,2.7-4.6,4.1-4.3c1.4,0.2,3.8,4.9,4.4,8.2c0.6,3.3,0.5,7.3-0.8,8.4c-1.2,1-4.1-1.2-5.7-4.8C44,22.6,42.7,20.4,43.5,18.8z
		 M48.7,44.8c0,0-1.6-0.5-2.7-1.1c-1.1-0.6-2.2-3.8-2.8-7.4c-0.6-3.6,1.4-3.9,3.3-5c1.9-1.1,3.9,3,4.5,6.7
		C51.6,41.8,50.8,44.2,48.7,44.8z M28.6,20.3c0.5-2.4,4-6.5,5.1-5.4c1.1,1.1,10.2,13.9,9.9,15.3c-0.4,1.8-3.7,1.2-6-0.5
		C35.2,28,28.1,22.7,28.6,20.3z M34.4,39.9c-2-1.1-5.8-6.9-4.1-8.3c1.7-1.4,6.1,0.2,9.1,2.8c3,2.7,3.3,6.1,2.2,7.1
		C40.5,42.4,36.4,41,34.4,39.9z M37,48.2c-0.5,0.8-2,1.7-4.2,2c-2.2,0.3-3,2.4-5,2.7c-2,0.3-3.9-0.8-5.3-1.9c-1.4-1.1-0.8-7.2,6-9.9
		C35.2,38.5,38.2,46.4,37,48.2z M13.1,23.3c0.8-1.3,6.5-1.5,10.1-0.6c3.6,1,7.6,2.9,8.1,4.7c0.5,1.7-2.9,3.7-7.2,3.5
		c-4.3-0.2-7,0.1-8.3-1.4C14.5,28,12.3,24.6,13.1,23.3z M10.1,42.9c-0.5-1.3-1.3-4.1,0.8-4.5c2-0.5,9.4-3.6,11.9-3.6
		s5.2,0.3,5.3,1.4c0.2,1.1-0.2,2-0.9,2.8c-1.7,2-11.6,6.9-13.3,6.7S10.5,44.2,10.1,42.9z M14.8,61.6C12.9,62.2,9,63,8,61.7
		c-0.9-1.3,0.9-6.6,3.1-9.6c2.2-3,5.5-6,7.4-5.8c1.7,0.1,2.4,4.1,0.6,8C17.4,58.3,16.7,60.9,14.8,61.6z M21.8,72.2
		c-1.4,1.1-6.3,0.3-6.6-2c-0.3-2.4,1.6-7.8,2.7-10c1.1-2.2,3.3-5.8,5.3-5.6c2,0.2,4.5-0.3,4.2,0.8c-0.7,2.4-2.7,7.2-3.6,9.1
		C22.9,66.3,23.2,71.1,21.8,72.2z M30,81.3c-2,1.4-7.4,1.9-7.4,0.3c0-1.6,2.4-17.1,3.6-17.9c1.6-1,3.5,1.7,3.9,4.5
		C30.6,71.1,32,79.9,30,81.3z M35.8,63.9c-2.5,2-5.6,0.2-7.2-1.4c-1.6-1.6,0.8-6.9,4.2-9.1c3.5-2.2,9.6,0.3,10.8,1.9
		c0.9,1.3-1.1,2-2.7,2C39.4,57.3,38.3,61.9,35.8,63.9z M47.6,76.6c-2,1.3-3.6,1.1-6.7,0.6c-3.1-0.5-3.1-9.4-3.1-12.7
		c0-3.3,3.4-4.1,5.3-4.2c2.8-0.2,0.9,6.1,1.6,8.2C45.2,70.5,49.6,75.4,47.6,76.6z M40.7,51.4c-1.6-0.5-1.4-2.4-2.4-4.4
		c-1-2,2.1-1.9,3.7-1.9c1.6,0,3.1,1.7,5,3c1.9,1.3,2,6.6,2,6.6C48.7,56.4,42.2,51.8,40.7,51.4z M50.7,63.8c-3.3-0.5-4.8-1.8-4.5-3.6
		c0.2-1.3,1.7-1.9,5-1.7c3.3,0.2,5,3.1,5.3,5.5C56.8,66.3,54,64.2,50.7,63.8z M55.9,55.9l-3.6-1.4l-1.7-6.7l2.8-1.6l2.5,1.1l2.4,5.3
		L55.9,55.9z M58.5,58.8c0-0.8,1.6-2.7,3.5-3.3c1.9-0.6,3.6,0.9,3.8,3.1c0.2,2.2-3.5,3.8-6,3.3C59.8,61.9,58.5,59.5,58.5,58.8z
		 M72.8,69.1c-1.1,2.4-2.5,5.3-4.4,5.6c-1.9,0.3-5.3,0.9-6.3-0.8c-0.9-1.7-2.4-4.2-0.6-5.5c1.7-1.3,4.5-1.9,4.5-3.5
		c0-1.6,1.9-3.3,3.5-3.1C71.4,62.1,73.9,66.7,72.8,69.1z M80.5,62.2c-0.8,2.5-0.9,4.7-2.4,4.2c-1.4-0.5-3.1-0.8-4.1-1.9
		c-0.9-1.1-3-5.5-4.1-6.6c-1.1-1.1,0.9-4.2,1.7-4.4c1.9-0.4,4.1-1.3,5.2,0.8C78,56.4,81.3,59.7,80.5,62.2z M89.7,75.7
		c-2.2,3.9-1.7,4.7-3.8,4.7c-2,0-5-1.9-5-3.5c0-1.6,0.8-12.1,2.8-13.2C83.8,63.8,91.9,71.8,89.7,75.7z M92.9,57.8
		c0.5,1.7-1.3,6.9-3.6,6.3c-2.3-0.6-4.5-3-6.1-4.9c-1.6-1.9-4.1-5.3-3.2-7.1s-0.2-3.7,2.3-3.6c2.5,0,4.9,1.9,6.3,3.5
		C90,53.6,92.4,56.1,92.9,57.8z M93.5,47.6c-1.3-0.1-13.9-3.1-14.5-4.4c-0.7-1.6,1.6-3.4,3.9-3.7c2.3-0.3,9.6-1.4,10.7,0.7
		C94.7,42.3,94.8,47.7,93.5,47.6z"/>
</g>
</svg>
