<?xml version="1.0" encoding="utf-8"?>
<!-- Generator: Adobe Illustrator 17.1.0, SVG Export Plug-In . SVG Version: 6.00 Build 0)  -->
<!DOCTYPE svg PUBLIC "-//W3C//DTD SVG 1.1//EN" "http://www.w3.org/Graphics/SVG/1.1/DTD/svg11.dtd">
<svg version="1.1" id="Layer_1" xmlns="http://www.w3.org/2000/svg" xmlns:xlink="http://www.w3.org/1999/xlink" x="0px" y="0px"
	 viewBox="210 64.2 373.3 483.5" enable-background="new 210 64.2 373.3 483.5" xml:space="preserve">
<path fill="#E96057" d="M582.6,289.6L582.6,289.6h-10.9c-0.6-0.6-1.2-1.2-1.8-1.2l12.7-3.6l0.6-0.6l-0.6-0.6l-13.9,4.2
	c-0.6,0-0.6,0-1.2,0c-1.8,0-3,0-3.6,0c-0.6,0-0.6,0-0.6,0s-0.6,0-1.2-0.6c-0.6-0.6-0.6-2.4-0.6-3.6c0-1.8,0-3-0.6-3.6
	c3-1.2,5.5-2.4,5.5-4.2c0.6-1.8-1.2-3-4.2-4.8c0.6-1.2,1.2-1.2,1.8-1.2c0.6,0,1.2-0.6,1.8-0.6l13.3,1.8l0,0c0,0,0.6,0,0.6-0.6
	c0,0,0-0.6-0.6-0.6l-11.5-1.8c1.8-0.6,3-1.8,3-2.4l10.3-1.8l0.6-0.6l-0.6-0.6l-10.3,1.8c-0.6-0.6-1.8-0.6-2.4-1.2l11.5-5.5
	c0,0,0.6-0.6,0-0.6c0,0-0.6-0.6-0.6,0l-13.3,6.1l0,0c-1.8,0-2.4,0.6-3,1.2c-0.6,0-0.6,0.6-0.6,0.6s-0.6,0-1.2-0.6
	c-0.6-0.6-1.2-2.4-1.2-3.6c0-0.6-0.6-1.8-0.6-1.8c1.8-1.2,3.6-2.4,3.6-4.2c0.6-1.8-0.6-3.6-3-6.1c0.6-0.6,0.6-1.2,1.2-1.8
	c0.6-1.2,0.6-1.8,1.8-2.4c0.6,0,0.6-0.6,1.2-0.6l13.9-0.6c0,0,0.6,0,0.6-0.6c0,0,0-0.6-0.6-0.6l0,0h-12.1c1.8-1.2,2.4-1.8,2.4-3
	l10.3-3.6l0.6-0.6l-0.6-0.6l-10.3,3.6c-3-1.2-3.6-1.2-4.8-1.2h-0.6l10.9-7.3c0,0,0.6-0.6,0-0.6c0,0-0.6-0.6-0.6,0l-13.3,9.1H559
	c-1.8,0.6-2.4,1.2-3,1.8c-0.6,0.6-0.6,0.6-1.2,0.6c0,0-0.6,0-1.2,0c-0.6,0-1.8-1.8-2.4-3c-0.6-1.8-1.8-3-2.4-3l0,0
	c-0.6,0-1.2,0-1.8,0.6c1.8-2.4,3-4.8,2.4-6.7c-0.6-1.8-2.4-2.4-5.5-2.4l0,0c0-1.2,0.6-1.8,1.2-2.4c0.6-0.6,0.6-1.2,1.2-1.8
	c0.6-0.6,1.2-1.2,1.2-1.8l10.9-7.9v-0.6h-0.6l-9.1,6.1c0-0.6,0.6-1.2,0-1.8c0,0-0.6-0.6-1.2-0.6l7.3-9.1v-0.6h-0.6l-7.9,10.3
	c-0.6,0-1.2,0.6-1.8,0.6l5.5-13.3c0,0,0-0.6-0.6-0.6h-0.6l-6.1,14.5c-1.2,0.6-1.2,1.8-1.8,2.4c-0.6,0.6-0.6,1.2-1.2,1.2
	c0,0,0,0-0.6,0s-2.4-2.4-4.2-3.6c-2.4-3.6-3.6-4.2-4.2-4.2l0,0h-0.6c0-1.2,0-2.4-0.6-3.6c-1.2-1.8-3-2.4-6.7-2.4
	c0-0.6,0-1.2-0.6-1.8c-0.6-0.6-0.6-1.8-0.6-3l9.1-13.9v-0.6h-0.6l-7.3,11.5c0.6-1.8,0.6-3.6,0-4.2l0,0l3-11.5c0,0,0-0.6-0.6-0.6
	c0,0-0.6,0-0.6,0.6l-4.2,11.5c-0.6,0-1.2,0.6-1.8,1.2v-13.3c0,0,0-0.6-0.6-0.6l0,0c0,0-0.6,0-0.6,0.6v14.5c-0.6,0.6-0.6,1.2-1.2,1.8
	c-0.6,1.8-0.6,3-1.2,3.6c0,1.2,0,1.2-1.2,1.8c0,0,0,0-0.6,0c-0.6,0-2.4-0.6-3.6-0.6c-1.8-0.6-3-1.2-3.6-0.6c0-2.4-0.6-4.8-1.2-6.1
	c-1.2-1.8-3.6-1.2-6.7,1.8c-0.6-1.2-0.6-1.8-0.6-2.4s0-1.2-0.6-1.8c0-0.6,0-1.2,0-1.8l4.2-13.3c0,0,0-0.6-0.6-0.6c0,0-0.6,0-0.6,0.6
	l-3.6,10.9c0-0.6-0.6-1.2-0.6-1.2s-0.6-0.6-1.2-0.6c0,0,0,0-0.6,0v-12.1c0,0,0-0.6-0.6-0.6c0,0-0.6,0-0.6,0.6v12.7
	c-0.6,0.6-0.6,1.2-1.2,1.8l-3.6-13.9l-0.6-0.6l-0.6,0.6l4.2,15.1v0.6c-0.6,1.8,0,2.4,0,3.6c0,0.6,0,1.2-0.6,1.8c0,0-1.2,0.6-1.8,0.6
	c-0.6,0-1.2,0-1.8,0c-0.6,0-1.2,0-1.8,0c-1.2,0-1.8,0-2.4,0.6c-0.6,0.6-0.6,1.2-0.6,1.8c-1.2-2.4-2.4-3.6-3.6-3.6
	c-1.8,0-3,1.2-4.8,4.2c-0.6-0.6-1.2-1.2-1.2-1.8s-0.6-1.2-0.6-1.8c-0.6-1.8-1.2-3-1.8-4.2l-1.8-13.9l-0.6-0.6l-0.6,0.6l1.8,12.7
	h-0.6c0,0-0.6,0-1.2,0.6l0,0l-6.1-12.7c0,0-0.6-0.6-0.6,0c0,0-0.6,0.6,0,0.6l6.7,13.3c0,0.6,0,0.6-0.6,1.2l-10.3-11.5h-0.6v0.6
	l10.9,12.7c0,0.6,0,1.2,0,1.2c0,1.8,0.6,2.4,1.2,3c0.6,0.6,0.6,1.2,0,1.8c-0.6,0.6-2.4,1.2-4.2,1.2c-2.4,0.6-3.6,0.6-4.2,1.2
	c-0.6,0.6-0.6,1.8,0,3c-0.6-0.6-1.2-1.2-2.4-1.2c-1.8,0-3,1.8-4.8,5.5c-1.2-0.6-1.8-1.2-1.8-1.8s-0.6-1.2-1.2-1.8
	c-1.2-2.4-2.4-3.6-3-4.2l-4.2-11.5l-0.6-0.6l-0.6,0.6l3.6,10.9c-0.6,0-0.6,0-1.2,0.6c0,0-0.6,0.6-0.6,1.2l-8.5-10.9h-0.6v0.6
	l9.1,12.1c0,0.6,0,0.6,0,1.2l-12.7-9.7h-0.6v0.6l13.3,10.3l0,0c0.6,1.8,1.2,2.4,1.8,3c0.6,0.6,0.6,0.6,0,1.8
	c-0.6,0.6-2.4,1.2-3.6,1.8c-2.4,1.2-3.6,1.2-3.6,2.4s0,2.4,0.6,3.6c-1.2-0.6-2.4-1.2-3.6-1.2c0,0,0,0-0.6,0c-1.2,0-1.8,0.6-2.4,0.6
	h-0.6c0,0-0.6,0-1.2-0.6c-0.6-0.6-1.2-1.2-1.8-1.8c-0.6-0.6-1.2-1.2-1.8-1.8l-4.8-13.9l-0.6-0.6l-0.6,0.6l4.8,12.7
	c-0.6,0-1.2,0-1.8,0l0,0l0,0l0,0l-8.5-11.5h-0.6v0.6l8.5,11.5c0,0.6,0,0.6-0.6,1.2l-6.7-4.8c0,0,0-0.6-0.6-0.6l0,0l-4.8-3.6h-0.6
	v0.6l4.8,3.6l0.6,10.9c-0.6-0.6-1.2-1.2-1.8-1.8l0,0l0,0l-2.4-6.1c0,0,0,0,0-0.6l-1.2-4.2l-0.6-0.6l-0.6,0.6l1.8,4.2l-1.2,3.6
	l-4.2-1.8v-1.8c0,0,0-0.6-0.6-0.6c-0.6,0-0.6,0-0.6,0.6v1.2c0,0,0,0-0.6,0v0.6l0.6,0.6l-0.6,6.7l-1.8,1.2l-0.6-5.5l1.2-1.8v-0.6H399
	l-0.6,1.2l-0.6-3l-0.6-0.6l-0.6,0.6l0.6,4.2l-4.8,7.9c0,0,0,0-0.6,0s-0.6,0-0.6,0l3.6-12.1c0,0,0-0.6-0.6-0.6c0,0-0.6,0-0.6,0.6
	l-4.2,13.3c-1.2,0.6-1.8,2.4-2.4,3s-1.2,1.8-1.2,1.8s-0.6,0-0.6-0.6c-0.6-0.6-1.2-1.8-3-1.2c-0.6,0-1.2,1.2-1.8,1.8
	c0-0.6,0-1.8,0-2.4c-0.6-1.2-1.2-1.8-1.2-1.8c-0.6-0.6-0.6-0.6,0-1.8c0-0.6,0.6-1.2,1.2-2.4c0.6-0.6,1.2-1.8,1.2-2.4l11.5-8.5v-0.6
	h-0.6l-11.5,7.3c0-0.6,0-0.6,0-1.2l8.5-11.5v-0.6h-0.6l-8.5,11.5h-0.6l3.6-8.5h1.2l0.6-0.6l-0.6-0.6h-0.6l1.8-3.6v-0.6h-0.6
	l-1.8,4.8l-8.5,2.4c0-0.6,0.6-1.2,0.6-1.8l9.1-5.5c0,0,0.6-0.6,0-0.6c0,0-0.6-0.6-0.6,0l-9.1,5.5c0,0-0.6-0.6-1.2-0.6l7.3-7.9v-0.6
	h-0.6l-7.9,8.5l0,0c-1.8,0-3.6,1.2-5.5,2.4c-1.2,0.6-1.8,1.2-2.4,1.2c-1.8-1.8-1.8-1.8-1.8-2.4s0-1.2-1.2-1.8
	c1.2-1.2,1.8-2.4,1.8-4.2c0-1.2,0-1.8-0.6-2.4c0-0.6,0-0.6,0.6-1.8c0.6-0.6,1.2-1.2,1.8-1.2s0.6-0.6,1.2-0.6l9.7-1.2l0.6-0.6
	l-0.6-0.6h-7.3c0.6-0.6,0.6-1.2,0.6-1.8l0,0l0,0l0,0l7.9-3.6c0,0,0.6-0.6,0-0.6c0,0-0.6-0.6-0.6,0l-7.9,3.6
	c-0.6-1.2-1.2-1.2-1.8-1.2l7.3-6.7v-0.6h-0.6l-8.5,7.3c-1.2,0-2.4,0.6-3.6,1.2s-2.4,1.2-2.4,0.6s0-0.6,0-1.2c0-1.2,0-2.4-1.8-3l0,0
	c1.2-1.2,1.8-1.8,1.8-3c0-1.8-1.2-3-3.6-4.8c0.6-1.2,1.2-1.8,1.8-1.8s1.2-0.6,1.8-1.2c1.2-0.6,2.4-1.2,3-1.8l9.7-2.4l0.6-0.6
	l-0.6-0.6l-8.5,2.4c0-0.6,0-0.6,0-1.2s0-0.6-0.6-0.6l8.5-5.5c0,0,0.6-0.6,0-0.6c0,0-0.6-0.6-0.6,0l-9.1,5.5c-0.6,0-0.6,0-1.2,0
	l7.9-8.5V166h-0.6l-8.5,9.1h-0.6c-1.2,0-2.4,1.2-3,1.2s-0.6,0.6-0.6,0.6s-0.6,0-1.2-0.6s-1.2-2.4-1.8-4.2c-0.6-2.4-1.2-3.6-1.8-4.2
	c-0.6,0-0.6,0-1.2,0s-1.2,0-2.4,0.6c2.4-1.8,3.6-3.6,3-5.5c0-1.2-1.2-2.4-3.6-3c0.6-1.2,0.6-1.2,1.2-1.8s0.6-0.6,1.2-1.2
	c1.2-0.6,1.8-1.2,2.4-1.8l11.5-3.6l0.6-0.6l-0.6-0.6l-10.3,3c0-0.6,0.6-0.6,0-1.2c0,0,0,0,0-0.6l9.1-6.7v-0.6h-0.6l-9.7,6.7H350l0,0
	l7.9-9.7v-0.6h-0.6l-8.5,10.9c-0.6,0-0.6,0-1.2,0.6c-1.2,0.6-1.8,1.2-2.4,1.8s-0.6,0.6-1.2,0.6h-0.6c-0.6,0-1.2-1.8-1.8-3
	c-0.6-1.8-1.2-3-2.4-3l0,0c-0.6,0-1.2,0-1.2,0c0.6-1.2,0.6-2.4,0.6-3.6c-0.6-2.4-3-3.6-7.9-4.2c0-1.8,0-1.8,0.6-2.4
	c0-0.6,0.6-0.6,1.2-1.8c1.2-1.2,1.8-2.4,1.8-3.6l9.1-6.7v-0.6h-0.6l-8.5,6.1c0,0,0,0,0-0.6s-0.6-0.6-0.6-0.6l7.3-9.1v-0.6h-0.6
	l-7.3,9.7h-0.6l4.8-11.5v-0.6h-0.6l-4.8,11.5c-1.2,0-1.8,0.6-3,1.2s-1.8,1.8-1.8,2.4c0,0.6,0,0.6-0.6,0.6c0,0-0.6,0-1.2,0
	c-1.2,0-3-1.8-4.2-3.6c-1.8-1.8-3-3-4.2-3c-0.6,0-1.2,0-1.8,0.6c0-1.2,0-1.8,0-2.4c-0.6-1.8-3-2.4-6.1-3c-0.6-2.4,1.2-5.5,3.6-6.7
	l0,0l0,0c0-0.6,0-0.6,0-1.2l8.5-6.1v-0.6h-0.6l-7.9,5.5c0-0.6,0-0.6-0.6-1.2l6.1-7.9v-0.6h-0.6l-6.1,7.9h-0.6l3.6-9.7v-0.6h-0.6
	l-4.2,10.3c-1.8,0.6-3.6,1.8-4.8,3l-0.6,0.6c-0.6,0.6-1.2,0.6-1.2,1.2c-0.6,0.6-0.6,0.6-1.2,0.6c0,0-0.6,0-1.2,0s-1.2-1.2-2.4-1.8
	c-0.6-0.6-1.2-1.8-2.4-1.8l0,0c-1.2,0-1.8,0.6-2.4,1.2c0-1.2,0-2.4-0.6-3c-0.6-1.8-3-2.4-5.5-2.4l0,0c-0.6-1.8,0.6-4.8,2.4-6.1l0,0
	l0,0c0-0.6,0-1.2,0-1.8l2.4-2.4c1.2,0,2.4,0,3.6,0c6.1,0,13.9-1.2,16.4-9.7v-0.6h-0.6c-0.6,0-1.2-0.6-1.8-0.6
	c-1.8,0-3.6,1.2-5.5,2.4s-3,2.4-5.5,2.4c-0.6,0-1.2,0-1.8,0l0,0v-0.6H296l-1.2,1.2c-0.6,0-1.2,0-1.8,0l2.4-3v-0.6h-0.6l-3,3.6
	c-0.6,0-1.2,0-2.4,0l2.4-5.5v-0.6h-0.6l-2.4,5.5c-0.6,0-0.6,0-1.2,0c-1.8,0-3-0.6-4.2-0.6c-0.6,0-1.8,0-3,0
	c-3.6,0-10.9,0.6-16.4,2.4c-0.6,0-0.6-0.6-1.2-0.6c0.6-0.6,1.8-0.6,2.4-1.2c1.8-1.2,3.6-2.4,3.6-4.8s0-4.8-1.8-7.3
	c-1.8-2.4-4.2-5.5-6.7-6.1h-0.6v0.6c0,1.2,0.6,1.8,1.2,3c0,0.6,0.6,0.6,0.6,1.2c0.6,1.2,0.6,1.8,1.2,3s1.2,2.4,1.2,3
	c1.2,2.4-0.6,3.6-2.4,5.5c-0.6,0.6-0.6,0.6-1.2,1.2s-1.2,1.2-1.8,1.8l0,0c-1.2,0-1.8,0-2.4,0l0,0l0,0c1.2-1.8,2.4-4.2,2.4-6.7
	c0-0.6,0-0.6,0-1.2c0-1.8,0-3,0-4.8s-1.2-3.6-1.8-5.5l-3-3c-0.6-0.6-0.6-1.8-1.2-2.4c0-0.6-0.6-0.6-0.6-1.2c0,0,0-0.6-0.6-0.6
	c-1.2-1.8-1.8-4.2-3-4.2c-0.6,0-0.6,0-1.2,0.6l0,0v0.6c0.6,0.6,0.6,1.8,1.2,2.4c0.6,1.2,1.2,2.4,1.8,3.6s1.2,3,1.8,4.2
	c1.2,3,1.8,6.1,1.2,9.7c0,1.8-1.2,3.6-1.8,5.5c-1.2-1.2-1.2-2.4-1.8-3.6c-0.6-1.8-1.2-3.6-4.2-4.8c-4.2-1.8-6.7-2.4-8.5-0.6
	c-1.8,1.8-1.2,5.5-1.2,8.5l0,0c0,0-0.6,0-0.6-0.6c-1.2-0.6-2.4-1.2-3.6-0.6l0,0l0,0c0,0.6-0.6,1.2-1.2,2.4v0.6h0.6
	c0.6,0,1.2,0,1.8,0s0.6,0,1.2,0s1.2,0.6,1.8,1.2c0.6,0,0.6,0.6,1.2,0.6l0,0c0,0.6,0,0.6,0,1.2c0,1.2-1.2,2.4-2.4,3.6l-0.6-0.6
	c-0.6-0.6-1.8-1.2-2.4-1.8l-0.6-0.6c-0.6-0.6-0.6-1.2-1.2-1.2h-0.6l-0.6,0.6c-1.2,1.8-1.2,2.4-1.8,3c0,0.6,0,0.6,0,0.6
	c0.6,0.6,0.6,0.6,1.2,0.6l0,0h0.6c0.6,0,1.2,0.6,1.8,1.2l0.6,0.6c0,0-0.6,0-0.6,0.6c-2.4,1.8-4.8,4.2-4.8,6.1c0,1.2,1.2,2.4,3.6,3.6
	c0.6,0.6,1.8,0.6,3.6,0.6c-0.6,1.2-1.8,2.4-2.4,3.6c-2.4,2.4-5.5,4.2-8.5,4.8c-1.2,0.6-3,0.6-4.8,1.2c-1.2,0.6-2.4,0.6-3.6,1.2
	c-0.6,0-1.8,0.6-2.4,0.6H210v0.6c0,0.6,0,1.2,0.6,1.8c1.2,1.2,3,0.6,5.5,0c0.6,0,0.6,0,0.6,0c0.6,0,1.2,0,1.2,0c1.2,0,1.8,0,3-0.6
	c0.6,0,0.6,0,1.2,0c1.8-0.6,3.6-1.2,5.5-1.8c1.2-1.2,2.4-1.8,3.6-3c0.6-0.6,0.6-0.6,1.2-1.2c1.8-1.8,3-3.6,3.6-6.1
	c0.6,0,0.6,0,1.2,0h0.6c0,1.2,0,3,0,4.2c0,0.6,0,1.2-0.6,1.8c-1.8,1.8-1.8,4.2-4.8,4.8c-1.2,0.6-2.4,0.6-3.6,0.6s-2.4,0.6-3,0.6
	s-0.6,0-1.2,0c-1.2,0-2.4,0.6-3,1.2l-0.6,0.6l0.6,0.6c1.8,1.2,4.8,1.8,7.3,1.8c0.6,0,1.2,0,1.8,0c3,0,5.5-1.8,7.3-3.6
	c0.6-0.6,0.6-0.6,0.6-1.2c-0.6,3.6,0,7.9,0.6,12.1c0.6,6.1,1.8,11.5-0.6,14.5c-1.2,1.2-3,2.4-5.5,2.4h-0.6l3,3.6h0.6
	c1.8,0,3.6-1.2,4.8-2.4c3.6-4.2,4.2-13.9,3.6-19.4c0-1.2,0-2.4-0.6-3.6c-0.6-2.4-0.6-5.5,0-7.9c0.6-1.2,1.2-2.4,2.4-3.6
	c0.6-0.6,0.6-1.2,1.2-1.8c0,0,0,0,0,0.6c0,1.2,0,2.4,0.6,3c0.6,1.2,2.4,1.2,4.2,1.2c1.2,0,2.4,0,3.6-0.6c-1.2,1.2-2.4,3-1.8,4.8
	c0.6,2.4,1.8,2.4,3,3c0.6,0,1.2,0,1.8,0.6c1.2,1.8,0,3-0.6,4.8c-0.6,1.2-1.2,2.4-1.2,3.6l-9.1,6.1v0.6c0,0,0,0,0.6,0c0,0,0,0,0.6,0
	l8.5-6.1c0,0,0,0.6,0.6,0.6l-7.9,10.3v0.6c0,0,0,0,0.6,0h0.6l6.7-8.5c0,0,0,0,0,0.6l0,0l-4.2,9.7c0,0,0,0.6,0.6,0.6l0,0
	c0,0,0.6,0,0.6-0.6l4.2-10.3c2.4,0,3-1.2,3-2.4c0.6-0.6,0.6-1.2,1.2-1.8s1.2-0.6,1.8-0.6c0,0,0.6,0,0.6,0.6c0.6,0.6,1.2,0.6,3,1.2
	c1.2,0,1.8,0,3-0.6c0,0.6,0,1.2,0,1.2c0.6,2.4,1.8,3,3,3c0.6,0,1.2,0.6,1.8,1.2c1.2,1.8,0,3-1.2,4.8c-0.6,1.2-1.8,3-1.8,4.8
	l-8.5,6.1v0.6c0,0,0,0,0.6,0c0,0,0,0,0.6,0l8.5-6.1c0,0,0,0.6,0.6,0.6l-6.7,9.1v0.6c0,0,0,0,0.6,0h0.6l6.7-9.1l0,0l0,0l0,0
	l-5.5,11.5v0.6l0,0c0,0,0.6,0,0.6-0.6l4.2-10.9c1.8,0,2.4-1.2,3-2.4c0.6-0.6,0.6-1.2,1.8-1.8c1.2-0.6,1.2-0.6,1.8-0.6
	c0,0,0.6,0,0.6,0.6c0.6,0.6,1.2,1.2,3,1.2c0.6,0,1.2,0,1.8,0c0,0.6,0,1.2,0,1.2c0.6,2.4,1.8,3,3,3.6c0.6,0,1.2,0.6,1.8,1.2
	c0,0.6-0.6,1.8-1.8,2.4c-1.2,1.2-2.4,3-3,4.2l-9.7,3.6l-0.6,0.6c0,0,0,0.6,0.6,0.6l0,0l9.1-3.6c0,0.6,0,1.2,0,1.8l-7.9,6.7v0.6
	c0,0,0,0,0.6,0c0,0,0,0,0.6,0l7.9-6.7c0,0,0,0.6,0.6,0.6l0,0l0,0l0,0l-6.1,8.5v0.6c0,0,0,0,0.6,0h0.6l6.1-8.5c0,0,0,0,0.6,0
	c1.8,0,3-1.2,4.2-1.8c0.6-0.6,1.2-1.2,2.4-1.2c0.6,0,1.2-0.6,1.8-0.6s0.6,0,1.2,0.6s1.2,1.2,3,1.8c0.6,0,1.2,0,1.2,0l-0.6,0.6
	c-0.6,2.4,0.6,3,1.2,3c1.8,1.2,1.8,1.2,1.8,1.8s-1.2,1.2-2.4,2.4c-2.4,1.8-4.8,3.6-5.5,5.5l-12.7,4.8l-0.6,0.6c0,0,0,0.6,0.6,0.6
	l0,0l12.1-4.8v0.6l-10.9,9.1v0.6c0,0,0,0,0.6,0c0,0,0,0,0.6,0l11.5-9.1l0,0l-8.5,11.5v0.6c0,0,0,0,0.6,0h0.6l9.1-12.1
	c1.2,0,3-0.6,4.2-1.8c1.2-0.6,1.8-1.2,2.4-1.2s1.2,0,1.8,0c0,0,0,0,0.6,0.6c0,0.6,0.6,1.2,1.8,1.2h0.6c-0.6,0.6-1.2,0.6-1.2,1.2
	c-1.2,2.4,0,3,1.2,3.6c0.6,0.6,0.6,0.6,0.6,1.2c-0.6,0.6-1.8,1.2-3,1.8c-1.8,0.6-4.2,1.8-5.5,3.6l-10.9,0.6c0,0-0.6,0-0.6,0.6
	c0,0,0,0.6,0.6,0.6l0,0l10.3-0.6c0,0.6,0,1.2,0,1.2l-10.3,4.2c0,0-0.6,0.6,0,0.6c0,0,0,0.6,0.6,0.6l0,0l10.3-4.2l0.6,0.6l-9.1,7.3
	v0.6c0,0,0,0,0.6,0c0,0,0,0,0.6,0l10.3-7.9h0.6c1.2,0,2.4-0.6,3.6-0.6c1.2-0.6,1.8-0.6,3-0.6l0,0c1.8,0,1.8,0,1.8,0.6
	s0.6,1.2,1.8,2.4c0.6,0.6,1.2,0.6,1.2,0.6l0,0c-0.6,0.6,0,1.8,1.2,4.2c0.6,1.2,1.8,3,1.8,4.2s-0.6,1.2-1.2,1.2s-1.8,0-3,1.2
	c-0.6,0.6-1.2,0.6-1.2,1.2l-12.1,1.2c0,0-0.6,0-0.6,0.6c0,0,0,0.6,0.6,0.6l0,0l10.9-1.2c-0.6,0.6-0.6,1.2-0.6,1.8l-10.3,4.2
	c0,0-0.6,0.6,0,0.6c0,0,0,0.6,0.6,0.6l0,0l10.3-4.2l0.6,0.6l-9.1,6.7v0.6c0,0,0,0,0.6,0c0,0,0,0,0.6,0l9.7-7.9
	c1.2,0,2.4-0.6,4.2-1.2c1.2,0,1.8-0.6,2.4-0.6c0.6,0,1.2-0.6,2.4,0c-1.2,3-1.2,5.5,0,6.7c0.6,0.6,1.2,1.2,2.4,1.2
	c-0.6,0.6-1.2,1.8-1.8,2.4c0,0.6,0.6,1.8,2.4,3.6c1.2,1.2,2.4,3,2.4,3.6c0,1.2,0,1.2-1.2,1.8c-0.6,0-1.8,0.6-3,1.8
	c0,0.6-0.6,0.6-0.6,1.2l-11.5,3l-0.6,0.6c0,0,0,0.6,0.6,0.6l0,0l10.3-2.4c0,0.6-0.6,1.2-0.6,1.8l-9.7,5.5c0,0-0.6,0.6,0,0.6
	c0,0,0,0,0.6,0l0,0l9.1-5.5l0,0l0.6,0.6l-9.7,9.1v0.6c0,0,0,0,0.6,0c0,0,0,0,0.6,0l7.9-8.5c1.2,0,2.4-1.2,4.2-2.4
	c1.2-0.6,1.8-0.6,1.8-1.2c0.6-0.6,1.2-0.6,2.4-0.6l0,0c-0.6,3,0,4.8,1.2,6.1c0.6,0.6,1.2,1.2,2.4,1.2c0.6,0,1.2,0,2.4-0.6
	c0,0.6-0.6,1.2-0.6,1.8s1.2,1.8,3,3c1.2,0.6,3,1.8,3,3c0,1.2,0,1.2-0.6,1.8s-1.2,1.2-2.4,2.4c0,0,0,0,0,0.6l-12.1,6.1
	c0,0-0.6,0.6,0,0.6c0,0,0,0,0.6,0l0,0l10.9-5.5c0,0.6-0.6,1.8-0.6,2.4l-8.5,8.5v0.6c0,0,0,0,0.6,0s0,0,0.6,0l7.9-8.5l0,0
	c0,0.6,0.6,0.6,1.2,0.6l-5.5,10.3v0.6l0,0h0.6l6.1-10.9c1.2-0.6,1.8-1.8,3-3c0.6-0.6,1.2-1.2,1.8-1.2c0.6-0.6,0.6-0.6,1.8-1.2
	c0.6,4.2,1.8,6.1,3.6,6.1c1.2,0,2.4-0.6,3.6-1.8c0.6,0.6,1.2,1.2,2.4,1.8s3,1.2,3,2.4c0.6,1.2,0,1.8-0.6,2.4s-1.2,1.2-1.8,3v0.6
	l-9.1,7.9v0.6c0,0,0,0,0.6,0c0,0,0,0,0.6,0l7.9-6.7c0,1.2,0,2.4,0,3L359,289v0.6l0,0h0.6l4.8-7.9h0.6l0,0c0.6,0,1.2-0.6,1.8-0.6
	l-3,9.7c0,0,0,0.6,0.6,0.6l0,0c0,0,0.6,0,0.6-0.6l4.2-12.7c0.6-0.6,0.6-1.2,1.2-1.8s1.8-1.2,3-1.8c0.6-0.6,1.2-0.6,1.8-1.2
	c1.8,2.4,3.6,3,5.5,3c1.2,0,2.4-0.6,3.6-2.4v0.6c0.6,0.6,1.2,0.6,3,0.6c0.6,0,1.8,0,2.4,0s1.8,0,2.4,0c2.4,0,2.4,0,3,0.6
	c1.2,0.6,0.6,1.2,0.6,1.8c0,0.6-0.6,1.8-0.6,3c0,0.6,0,1.2,0.6,1.8l-3,13.9c0,0,0,0.6,0.6,0.6l0,0c0,0,0.6,0,0.6-0.6l1.8-11.5
	c0.6,0.6,1.2,1.2,1.8,1.2l1.2,12.1c0,0,0,0.6,0.6,0.6l0,0l0.6-0.6l-1.8-12.1c0,0,0.6-0.6,0.6-1.2l4.8,12.1c0,0,0,0.6,0.6,0.6l0,0
	c0,0,0.6-0.6,0-0.6l-5.5-13.3c0-0.6,0.6-1.8,0.6-3c0.6-1.2,0.6-1.8,0.6-2.4c0-0.6,0-1.2,1.2-2.4c3,3,5.5,3.6,6.7,1.8
	c1.2-1.2,1.8-3,1.8-6.1c0.6,0.6,0.6,1.2,1.2,1.8c0.6,0.6,2.4,0,4.2-0.6c1.8,0,3,0,4.2,0c0.6,0,0.6,0,0.6,0c1.2,0.6,1.2,1.2,1.2,1.8
	s0,1.8,0.6,3.6l-3,11.5c0,0,0,0.6,0.6,0.6l0,0c0,0,0.6,0,0.6-0.6l3-10.9c0.6,0.6,1.2,1.8,1.8,2.4l0.6,10.3c0,0,0,0.6,0.6,0.6l0,0
	c0,0,0.6,0,0.6-0.6l-0.6-9.7h0.6c0.6,0,0.6,0,1.2-0.6l0,0l3,9.1c0,0,0,0.6,0.6,0.6l0,0l0.6-0.6l-3.6-11.5c0-1.2,0-2.4-0.6-4.2
	c0-1.2,0.6-2.4,0.6-3c0.6-0.6,0.6-1.2,0.6-1.8c3.6,0.6,5.5-0.6,6.7-2.4c0.6-1.2,0.6-2.4,0.6-4.2c0.6,0.6,1.2,1.2,1.8,1.2
	c0.6,0,1.8-0.6,3.6-1.8c1.2-1.2,3-2.4,3.6-2.4l0,0c1.2,0,1.2,0.6,1.8,1.2c0,0.6,0.6,1.8,1.8,3c0.6,0.6,0.6,0.6,1.2,1.2l3,13.3
	c0,0,0,0.6,0.6,0.6l0,0l0.6-0.6l-3-12.7c0.6,0.6,1.2,0.6,1.8,0.6c0,0,0,0,0.6,0l6.7,11.5c0,0,0,0,0.6,0l0,0c0,0,0.6-0.6,0-0.6
	l-6.7-11.5l0,0c0-0.6,0-0.6,0-1.2l10.3,9.7c0,0,0,0,0.6,0c0,0,0,0,0.6,0v-0.6l-11.5-11.5c-0.6-0.6-0.6-1.2-1.2-2.4
	c-0.6-1.2-0.6-1.8-0.6-1.8c-0.6-0.6-0.6-1.2-0.6-2.4c4.2,0.6,6.1,0,7.3-1.8c0.6-0.6,0-1.8,0-3c0.6-0.6,0.6-0.6,1.2-0.6
	c0.6,0,1.2,1.2,1.8,2.4c0.6,1.2,1.8,3,3,4.2l3,13.9c0,0,0,0.6,0.6,0.6l0,0l0.6-0.6l-3-13.3c0.6,0,0.6,0,1.2,0h0.6l7.3,12.1
	c0,0,0,0,0.6,0l0,0c0,0,0.6-0.6,0-0.6l-7.9-12.7c0-0.6,0-0.6,0.6-1.2l10.9,10.9c0,0,0,0,0.6,0c0,0,0,0,0.6,0v-0.6l-12.1-11.5
	c0-0.6-0.6-1.2-0.6-2.4c0-0.6-0.6-1.8-0.6-2.4c0-1.8,0-1.8,0.6-1.8c0.6,0,1.2-0.6,1.8-1.8c1.2-1.2,1.2-3,1.2-4.8l0,0
	c0.6,0,1.2-0.6,1.8-0.6c0.6-0.6,0.6-0.6,1.2-0.6c0.6,0.6,0.6,1.8,1.2,2.4c0.6,1.8,1.2,3.6,2.4,4.8v13.3c0,0,0,0.6,0.6,0.6l0,0
	c0,0,0.6,0,0.6-0.6v-12.7c0.6,0,1.2,0.6,1.8,0.6h0.6l0,0l4.2,13.3c0,0,0,0.6,0.6,0.6l0,0l0.6-0.6l-6.1-12.7c0-0.6,0.6-0.6,0.6-1.2
	l7.9,13.3c0,0,0,0,0.6,0l0,0c0,0,0.6-0.6,0-0.6l-0.6-0.6V246c0.6,0.6,1.2,1.2,1.8,1.2l0,0l2.4,7.3l-1.8,2.4v0.6c0,0,0,0,0.6,0h0.6
	l1.2-1.8l0.6,2.4l0,0c0,0-0.6,0.6,0,0.6c0,0,0,0,0.6,0l0,0v0.6c0,0,0,0.6,0.6,0.6l0,0l0.6-0.6v-0.6l2.4-1.2l-1.2,4.2
	c0,0,0,0.6,0.6,0.6l0,0c0,0,0.6,0,0.6-0.6l1.8-5.5l0.6-0.6l0.6,0.6c0,0,0,0,0.6,0l0,0c0,0,0.6-0.6,0-0.6l-0.6-0.6l1.8-1.2l-0.6,4.2
	l-3,3h-0.6c0,0-0.6,0-0.6,0.6l0,0l-1.8,1.2v0.6c0,0,0,0,0.6,0c0,0,0,0,0.6,0l2.4-2.4h2.4c0,0,0,0.6,0.6,0.6l0,0c0,0,0.6,0,0.6-0.6
	l0,0h1.2l-3,5.5l-3,1.2c0,0-0.6,0.6,0,0.6c0,0,0,0.6,0.6,0.6l0,0l12.1-5.5l0,0l0,0c0.6,0,0.6,0,1.2,0.6l-9.1,7.3h-1.8
	c-0.6,0-0.6,0-0.6,0.6c0,0,0,0.6,0.6,0.6h0.6l-1.2,0.6v0.6c0,0,0,0,0.6,0c0,0,0,0,0.6,0l1.8-1.8h8.5c-1.2,0.6-1.8,1.8-1.8,3l-10.3,3
	l-0.6,0.6c0,0,0,0.6,0.6,0.6h-0.6c0,0-0.6,0-0.6,0.6c0,0,0,0.6,0.6,0.6l5.5,1.8l-2.4,1.8c0,0-0.6,0.6,0,0.6c0,0,0,0,0.6,0l0,0
	l3.6-1.8l5.5,1.8c-0.6,0.6-1.2,0.6-1.8,1.8l-8.5-0.6l-3-2.4h-0.6v0.6l1.8,1.8h-3.6c0,0-0.6,0-0.6,0.6c0,0,0,0.6,0.6,0.6h4.8l3.6,3
	l-4.8,3l-4.2-1.8l-0.6-1.2c0,0-0.6-0.6-0.6,0c0,0-0.6,0.6,0,0.6l0,0H496h-0.6v0.6l1.8,0.6l3,4.8l-5.5-0.6l0,0l-3.6-3h-0.6v0.6
	l10.9,10.3c0,0.6,0,0.6,0,1.2l-13.9-7.3h-0.6v0.6l15.1,7.9c0.6,0.6,0.6,1.2,1.2,1.8c0.6,0.6,1.2,1.2,1.2,1.8c0.6,1.2,0.6,1.2,0,1.8
	c0,0.6-0.6,0.6-1.2,1.8c0,0.6,0,1.2,0,1.8c-0.6-0.6-1.8-1.2-2.4-1.2c-1.8,0-2.4,1.2-3,2.4c0,0.6-0.6,1.2-0.6,1.2
	c-0.6,0-1.2-1.2-1.8-1.8c-1.2-1.2-2.4-3-4.2-3.6l-6.1-10.3c0,0-0.6-0.6-0.6,0c0,0-0.6,0.6,0,0.6l5.5,9.1c-0.6,0-1.2,0-1.8,0.6l0,0
	l0,0c0,0,0,0,0,0.6l-10.3-8.5h-0.6v0.6l9.7,8.5c0,0.6,0,1.2,0.6,1.8l-12.7-6.1h-0.6v0.6l13.9,6.7l0.6,0.6c0.6,0.6,1.2,1.8,1.2,2.4
	c0.6,1.8,0,1.8,0,2.4c-0.6,0.6-1.2,1.2-1.2,2.4c-0.6,1.8-0.6,3.6,0,5.5c0,0-0.6,0-0.6-0.6c-0.6,0-0.6,0-1.2,0
	c-1.8,0-2.4,1.2-2.4,2.4c0,0.6-0.6,1.2-1.2,1.2c-1.8,0.6-3-1.2-4.2-3c-0.6-0.6-1.2-1.8-2.4-2.4l-4.8-10.3c0,0-0.6-0.6-0.6,0
	c0,0-0.6,0.6,0,0.6l4.2,9.1c-0.6,0-0.6,0-1.2,0c-0.6,0-1.2,0-1.8,0.6l0,0l-7.9-6.7h-0.6v0.6l7.3,8.5c0,1.2,0,1.8,0.6,2.4l-10.9-7.3
	h-0.6v0.6l13.9,9.1c0.6,0.6,0.6,0.6,0.6,1.2c0.6,2.4,0.6,2.4,0,3c-0.6,0.6-1.2,1.2-1.2,2.4c0,0.6,0,1.8,0,2.4h-0.6
	c-0.6,0-0.6,0-1.2,0c-1.8,0-2.4,1.2-2.4,2.4c0,0.6-0.6,1.2-1.2,1.2c-1.8,0.6-3-1.2-4.2-3c-0.6-0.6-0.6-0.6-1.2-1.2l-3.6-12.7
	l-0.6-0.6l-0.6,0.6l3,11.5c-0.6-0.6-1.2-0.6-2.4-0.6h-0.6l-6.7-9.7c0,0-0.6-0.6-0.6,0c0,0-0.6,0.6,0,0.6l6.1,9.1l0,0l0,0l0,0
	c0,0.6,0,1.2,0,1.8l-9.1-7.9h-0.6v0.6l10.3,9.1c0.6,0.6,0.6,1.2,1.2,1.8c0.6,0.6,1.2,1.2,1.8,2.4c0.6,2.4,0.6,2.4,0,3
	c-0.6,0.6-1.2,1.2-1.2,2.4c-0.6,2.4,0,4.8,1.2,6.7c0,0,0,0-0.6,0c-2.4,0-3,1.2-3,2.4c0,0.6-0.6,1.2-0.6,1.2c-1.2,0.6-3-0.6-4.2-2.4
	l-0.6-0.6l-5.5-12.7c0,0-0.6-0.6-0.6,0c0,0-0.6,0.6,0,0.6l4.8,11.5c-0.6-0.6-1.2-0.6-2.4-0.6h-0.6L439,352h-0.6v0.6l7.3,9.1l0,0l0,0
	l0,0c0,0.6,0,1.2,0,1.2l-10.3-7.3h-0.6v0.6l11.5,7.9c0.6,0.6,1.2,1.2,1.2,1.8c0.6,0.6,1.2,1.2,1.8,2.4c0.6,1.8,0.6,2.4,0.6,2.4
	c-0.6,0.6-1.2,1.2-1.2,2.4c-0.6,2.4,0.6,4.8,1.8,6.7c-2.4-1.8-4.8-3-6.7-3c-1.2,0-1.8,0.6-2.4,1.2c-0.6,1.2-1.2,3-0.6,5.5
	c-1.2,0-1.8,0-2.4-0.6c-0.6,0-1.2-0.6-1.8-0.6l-8.5-12.7c0,0-0.6-0.6-0.6,0c0,0-0.6,0.6,0,0.6l7.3,10.3c-1.2-0.6-2.4-1.2-3-1.2
	c-0.6,0-0.6,0-0.6,0l-8.5-7.3H422v0.6l8.5,7.3c0,0.6,0,1.2,0.6,2.4l-13.9-3h-0.6v0.6l13.3,6.1c0,0.6,0.6,0.6,0.6,1.2
	c1.2,1.2,1.8,1.8,3,1.8c0.6,0.6,1.2,0.6,1.2,1.8c0,0.6-1.8,3-3,4.2c-2.4,2.4-3,3.6-3,4.2v0.6c-1.8,0-3.6,0.6-4.2,1.8
	c-1.2,1.2-1.2,3-0.6,6.1c-0.6,0-1.2,0.6-1.8,0.6c-0.6,0.6-1.8,1.2-3,1.2c-0.6,0-1.2,0-1.8,0l-10.9-6.7h-0.6v0.6l9.1,5.5
	c-1.8,0-3,0.6-3,1.2l-9.7-2.4c0,0-0.6,0-0.6,0.6c0,0,0,0.6,0.6,0.6l9.7,2.4c0,0.6,0.6,1.2,1.8,1.8l-12.1,0.6c0,0-0.6,0-0.6,0.6
	c0,0,0,0.6,0.6,0.6l0,0l13.9-0.6c0.6,0,0.6,0.6,1.2,0.6c1.8,0.6,3,0.6,3.6,0.6s1.2,0,1.8,1.2c0.6,0.6,0,2.4-0.6,3.6
	c-0.6,1.8-0.6,3,0,3.6c-3.6,0.6-6.1,1.2-6.7,3c-0.6,1.8,0.6,3.6,3,5.5c-1.2,0.6-1.2,0.6-2.4,1.2c-0.6,0-1.2,0-1.8,0.6
	c-1.8,0-3,0.6-3.6,0.6l-11.5-1.8c-0.6,0-0.6,0-0.6,0.6c0,0,0,0.6,0.6,0.6l10.3,1.8c-0.6,0.6-0.6,0.6-0.6,1.2c0,0.6,0,0.6,0.6,0.6
	l-12.1,1.8l-0.6,0.6c0,0,0,0.6,0.6,0.6l0,0l12.7-1.8c0.6,0,0.6,0.6,1.2,0.6l-12.7,5.5c0,0-0.6,0.6,0,0.6c0,0,0,0.6,0.6,0.6l0,0
	l13.9-6.1h0.6c1.8,0,2.4,0,3-0.6c0.6,0,0.6,0,0.6,0s0.6,0,1.2,0.6c0.6,0.6,0.6,2.4,0.6,3.6c0,0.6,0,1.8,0,2.4
	c-2.4,0.6-3.6,1.8-4.2,3.6c-0.6,1.8,0,3.6,2.4,6.7c-0.6,0-1.2,0.6-1.2,1.8c-0.6,0.6-1.2,1.8-1.8,2.4l0,0l-15.8-0.6l0,0
	c0,0-0.6,0-0.6,0.6c0,0,0,0.6,0.6,0.6l13.3,0.6c-1.2,0.6-2.4,1.2-2.4,1.8l-11.5,3l-0.6,0.6c0,0,0,0.6,0.6,0.6l0,0l10.9-3l0,0
	c0,0.6,0.6,0.6,0.6,1.2l-9.7,6.1c0,0-0.6,0.6,0,0.6c0,0,0,0,0.6,0l0,0l10.9-6.1c0.6,0,1.2,0,1.8,0c0.6,0,1.8,0,2.4,0
	c1.8,0,3-0.6,3.6-1.2c1.2-0.6,1.2-0.6,2.4,0c0.6,0.6,1.2,2.4,1.8,3.6c0.6,1.2,0.6,2.4,1.2,3v0.6c0,0.6,0.6,1.8,2.4,3.6
	c1.2,1.2,3,3,3,3.6c0,1.2,0,1.2-1.2,1.2c-0.6,0-1.8,0.6-3,1.8c-1.2-0.6-1.8,0.6-1.8,1.2l-10.9,3.6l-0.6,0.6c0,0,0,0.6,0.6,0.6l0,0
	l10.3-3.6c0,0.6,0,0.6,0,1.2c0,0,0,0.6,0.6,0.6L413,495v0.6c0,0,0,0,0.6,0c0,0,0,0,0.6,0l10.3-7.3c0,0,0,0,0.6,0l0,0h0.6l-8.5,10.3
	v0.6c0,0,0,0,0.6,0h0.6l9.7-12.1c0.6,0,1.2-0.6,2.4-1.2c1.2,0,1.8-0.6,1.8-0.6c0.6-0.6,1.2-0.6,3,0c0,3,0.6,4.8,1.8,6.1
	c0.6,0.6,1.8,1.2,3,1.2c0.6,0,0.6,0,1.2,0c-0.6,0.6-1.2,1.8-1.2,2.4c0,0.6,1.2,1.8,3,3c1.2,1.2,3.6,2.4,3.6,3c0.6,1.2,0,1.2-0.6,1.8
	c-0.6,0.6-1.8,0.6-2.4,1.8c-0.6,0.6-0.6,1.2-0.6,1.8l-8.5,4.2c0,0-0.6,0.6,0,0.6c0,0,0,0,0.6,0l0,0l7.3-3.6c0,0.6,0,1.2,0,1.8
	c0,0,0,0,0.6,0.6l-6.7,6.1v0.6c0,0,0,0,0.6,0c0,0,0,0,0.6,0l6.7-6.1c0,0,0,0,0.6,0c0.6,0,0.6,0,1.2-0.6l-5.5,9.1v0.6l0,0h0.6
	l6.1-10.3c0.6-0.6,1.2-0.6,1.8-1.2c1.2-0.6,1.2-0.6,1.8-1.2c0.6-0.6,1.2-0.6,2.4-0.6c0.6,4.2,2.4,6.7,4.8,6.7c0.6,0,1.8-0.6,3-0.6
	c0,0.6,0,1.2,0,1.8c0,0.6,1.2,1.2,3.6,2.4c1.8,0.6,3.6,1.8,3.6,2.4c0.6,1.2,0.6,1.2,0,1.8c-0.6,0.6-1.2,1.2-1.8,2.4
	c0,0.6,0,1.2-0.6,2.4l-7.9,7.3v0.6c0,0,0,0,0.6,0c0,0,0,0,0.6,0l7.3-6.7c0,0.6,0,1.2,0.6,1.2c0,0,0,0,0.6,0l-4.8,9.1v0.6l0,0h0.6
	l4.8-9.1l0,0c0.6,0,0.6,0,1.2-0.6l-3,10.9c0,0,0,0.6,0.6,0.6l0,0c0,0,0.6,0,0.6-0.6l3-12.1c0.6-0.6,1.2-1.2,1.8-1.8
	c0.6-0.6,1.2-1.2,1.2-1.2c0.6-0.6,0.6-0.6,1.8-1.2c1.2,3.6,3,5.5,4.8,5.5c1.2,0,3-1.2,4.2-3c0,1.2,0,1.8,0.6,3
	c0.6,0.6,1.8,0.6,5.5,1.2c2.4,0,4.8,0.6,5.5,0.6c1.2,0.6,0.6,0.6,0.6,1.8c0,0.6-0.6,1.2-0.6,1.8l-6.7,8.5v0.6c0,0,0,0,0.6,0h0.6
	l5.5-7.3c0,0.6,0.6,1.2,0.6,1.8l-2.4,7.9c0,0,0,0.6,0.6,0.6l0,0c0,0,0.6,0,0.6-0.6l3-8.5c0,0.6,0.6,0.6,1.2,0.6l-0.6,8.5
	c0,0,0,0.6,0.6,0.6l0,0c0,0,0.6,0,0.6-0.6l0.6-8.5c1.2,0,1.8-1.8,2.4-4.8c0.6-0.6,0.6-1.2,0.6-1.8c0-0.6,0-1.2,1.2-1.8
	c3,3,5.5,3.6,7.3,1.8c0.6-0.6,0.6-1.2,1.2-1.8h0.6c0.6,0,1.2,0,1.2,0c0.6,0,1.2,0,1.8,0c1.2,0,1.8,0,1.8,0c1.2,0.6,0.6,0.6,0.6,1.2
	c0,0.6,0,1.2,0,2.4l-4.2,12.7c0,0,0,0.6,0.6,0.6l0,0c0,0,0.6,0,0.6-0.6l3-9.7c0,0.6,0.6,1.2,0.6,1.2v10.3c0,0,0,0.6,0.6,0.6l0,0
	c0,0,0.6,0,0.6-0.6v-9.1c0.6,0,0.6,0.6,1.2,0.6l0,0l2.4,8.5c0,0,0,0.6,0.6,0.6l0,0l0.6-0.6l-2.4-9.1c0.6-0.6,0.6-2.4,0-4.2
	c0-0.6,0.6-1.2,0.6-1.8c0-0.6,0.6-0.6,0.6-1.2c1.8,0.6,3,0.6,4.2,0l0,0c0.6,0.6,1.2,0.6,1.8,0.6c0.6,0,1.2-0.6,1.2-0.6
	c0.6,0,0.6-0.6,0.6,0c0.6,0,0.6,0.6,1.2,1.2l-1.2,10.3c0,0,0,0.6,0.6,0.6l0,0c0,0,0.6,0,0.6-0.6l1.2-8.5c0,0.6,0.6,1.2,0.6,1.8
	l1.2,7.9c0,0,0,0.6,0.6,0.6l0,0l0.6-0.6l-1.2-6.1c0.6,0,0.6,0.6,1.2,0.6l2.4,4.2c0,0,0,0,0.6,0l0,0c0,0,0.6-0.6,0-0.6l-2.4-4.8
	c0.6-1.2,0.6-1.8,0-3c0-0.6-0.6-1.2-0.6-1.8c0-1.2,0-1.2,0-1.2l0,0c0.6,0,1.2,0,1.8-0.6c0,0,0.6-0.6,0.6-1.2l0,0
	c0.6,0.6,1.2,0.6,1.8,0.6c0.6,0,1.2-0.6,1.2-0.6s0.6-0.6,0.6,0c1.2,0.6,1.2,1.8,1.8,3v0.6l-1.2,7.9c0,0,0,0.6,0.6,0.6l0,0
	c0,0,0.6,0,0.6-0.6l0.6-6.1c0.6,0.6,0.6,0.6,1.2,1.2l1.2,6.1c0,0,0,0.6,0.6,0.6l0,0l0.6-0.6l-0.6-4.8l0,0l0,0l0.6-0.6l2.4,5.5
	c0,0,0,0,0.6,0l0,0c0,0,0.6-0.6,0-0.6l-3.6-7.3c0,0,0,0,0-0.6c0-0.6-0.6-1.2-0.6-1.8c0-0.6,0-1.2,0-1.2l0,0c0.6,0,1.2,0,1.8-0.6
	c0.6-1.2,1.2-2.4,1.2-3.6h0.6c0.6,0,0.6-0.6,1.2-0.6c0,0,0,0,0.6,0c0.6,0,1.2,1.2,1.2,1.8v9.1c0,0,0,0.6,0.6,0.6l0,0
	c0,0,0.6,0,0.6-0.6l0.6-7.3c0,0.6,0.6,0.6,0.6,1.2l1.2,7.3c0,0,0,0.6,0.6,0.6l0,0l0.6-0.6l-1.2-6.7l0,0l0,0l0,0l0,0l3,6.1
	c0,0,0,0,0.6,0l0,0c0,0,0.6-0.6,0-0.6L562,532l0,0l0,0c0,0,0.6,0,0.6-0.6l1.2-7.3c0,0.6,0.6,0.6,0.6,0.6l1.2,7.9c0,0,0,0.6,0.6,0.6
	l0,0l0.6-0.6l-1.2-7.3v-0.6l1.8,4.2v1.8c0,0,0,0.6,0.6,0.6l0,0c0,0,0.6,0,0.6-0.6v-0.6l0.6,1.2c0,0,0,0,0.6,0l0,0c0,0,0.6-0.6,0-0.6
	l-1.2-2.4l0.6-4.8c0,0.6,0.6,0.6,0.6,1.2l1.2,7.3c0,0,0,0.6,0.6,0.6l0,0l0.6-0.6l-1.2-7.3c0,0,0-0.6,0.6-0.6l1.2,2.4v1.2
	c0,0,0,0.6,0.6,0.6l0,0c0,0,0.6,0,0.6-0.6l1.2,3c0,0,0,0,0.6,0l0,0c0,0,0.6-0.6,0-0.6l-1.2-4.2l0.6-5.5c0,0.6,0.6,0.6,0.6,1.2
	l1.2,7.3c0,0,0,0.6,0.6,0.6l0,0l0.6-0.6l-0.6-7.9v-0.6l3.6,7.3c0,0,0,0,0.6,0l0,0c0,0,0.6-0.6,0-0.6l-4.2-9.1l0,0
	c0.6-1.2,0-2.4,0-4.2v-0.6v-0.6c-1.2-4.2-2.4-6.7-3.6-6.7h-0.6l0.6-11.5c0,0,0-0.6-0.6-0.6c0,0-0.6,0-0.6,0.6l-0.6,9.7l0,0
	l-2.4-10.3l-0.6-0.6l-0.6,0.6l2.4,9.1l-3-5.5v-3c0,0,0-0.6-0.6-0.6l0,0c0,0-0.6,0-0.6,0.6v1.8l-0.6-1.2c0,0-0.6-0.6-0.6,0
	c0,0-0.6,0.6,0,0.6l1.2,2.4v4.8l0,0l0,0l-2.4-9.1l-0.6-0.6l-0.6,0.6l2.4,9.1l-3-5.5v-3.6c0,0,0-0.6-0.6-0.6c0,0-0.6,0-0.6,0.6v2.4
	l-0.6-1.2c0,0-0.6-0.6-0.6,0c0,0-0.6,0.6,0,0.6l1.2,2.4v5.5l0,0l-2.4-10.3l-0.6-0.6l-0.6,0.6l2.4,9.1l-4.8-7.9c0,0-0.6-0.6-0.6,0
	c0,0-0.6,0.6,0,0.6l5.5,9.7c0,0.6,0,0.6,0,1.2l0,0v0.6l0,0h-0.6H559l0,0c-0.6-1.8-1.8-2.4-3-2.4c-0.6,0-1.2,0-1.2,0.6
	c-0.6-0.6-0.6-1.2-1.2-1.8l1.2-9.1c0,0,0-0.6-0.6-0.6c-0.6,0-0.6,0-0.6,0.6l-0.6,7.3c-0.6-0.6-0.6-0.6-1.2-1.2l-1.2-7.3l-0.6-0.6
	l-0.6,0.6l1.2,6.7c0,0,0,0-0.6,0c0,0,0,0,0,0.6l-3-6.1c0,0-0.6-0.6-0.6,0c0,0-0.6,0.6,0,0.6l3.6,7.9c0,0.6,0,0.6,0,1.2v0.6
	c0,0.6,0,0.6,0,0.6c0,0.6,0,0.6-0.6,0.6h-0.6c-0.6,0-0.6,0-1.2,0h-0.6c0,0,0,0-0.6,0c-0.6,0-1.2,0-1.8,0.6c-1.2-1.2-1.8-3-1.8-4.8
	l0,0l0,0c0,0,0-0.6-0.6-0.6l0.6-7.3c0,0,0-0.6-0.6-0.6c-0.6,0-0.6,0-0.6,0.6l-0.6,6.7c-0.6,0-0.6-0.6-1.2-0.6l0,0l-1.2-6.7l-0.6-0.6
	l-0.6,0.6l1.2,7.9v0.6l-3.6-7.3c0,0-0.6-0.6-0.6,0c0,0-0.6,0.6,0,0.6l4.2,9.1v0.6v0.6c0,0.6,0,0.6,0,1.2c0,0.6,0,0.6-0.6,1.2
	c0,0-0.6,0-1.2,0c-0.6,0-0.6,0-1.2,0s-0.6,0-0.6,0.6l0,0c-0.6,0-0.6-0.6-1.2-0.6c-0.6,0-1.2,0-1.8,0.6c-1.2-1.2-1.8-3.6-1.8-4.8l0,0
	l0,0l0,0l0.6-6.7c0,0,0-0.6-0.6-0.6c-0.6,0-0.6,0-0.6,0.6l-0.6,5.5c-0.6-0.6-1.2-0.6-1.2-0.6l0,0l-1.2-5.5l-0.6-0.6l-0.6,0.6
	l1.2,6.1c0,0.6,0,0.6-0.6,1.2l-3-6.7c0,0-0.6-0.6-0.6,0c0,0-0.6,0.6,0,0.6l4.2,8.5v0.6v0.6c0,0.6,0,0.6,0,1.2c0,0.6,0,0.6-0.6,1.2
	l0,0c-0.6,0-0.6,0-1.2,0c-0.6,0-0.6,0-1.2,0h-0.6c-0.6-1.2-1.2-1.8-2.4-2.4c-0.6-0.6-1.2-0.6-1.8-0.6c-0.6,0-0.6,0-1.2-1.2
	c0-0.6-0.6-1.2-0.6-1.2v-0.6l1.2-10.3c0,0,0-0.6-0.6-0.6c-0.6,0-0.6,0-0.6,0.6l-1.2,9.1c0-0.6-0.6-0.6-1.2-0.6l0,0l0,0l-1.8-9.7
	l-0.6-0.6l-0.6,0.6l1.8,9.7c0,0-0.6,0-0.6,0.6l0,0l-3.6-8.5l1.2-2.4v-0.6h-0.6l-1.2,1.8c0,0,0,0-0.6,0c0,0-0.6,0.6,0,0.6v0.6
	l-2.4,4.8c0-0.6-0.6-1.2-1.2-1.8l1.8-8.5c0,0,0-0.6-0.6-0.6c-0.6,0-0.6,0-0.6,0.6l-1.8,7.9l0,0c-0.6,0-0.6,0-1.2,0l-0.6-8.5
	c0,0,0-0.6-0.6-0.6c0,0-0.6,0-0.6,0.6l0.6,9.1c-1.2,1.2-1.2,3-1.2,4.2c0,0.6,0,1.8-0.6,1.8c-0.6,0-0.6,0-1.2-0.6
	c0,0-0.6-0.6-1.2-0.6c0-1.2,0-2.4-1.2-3.6c-0.6-1.2-1.2-1.2-1.8-1.8c-0.6,0-0.6-0.6-0.6-1.8c0-0.6,0-1.2,0.6-1.8
	c0-0.6,0-0.6,0.6-1.2l8.5-8.5v-0.6h-0.6l-7.9,7.3c0-0.6,0-1.2-0.6-1.8l5.5-9.7v-0.6h-0.6l-5.5,9.7c-0.6,0-0.6,0-1.2,0l2.4-10.9
	c0,0,0-0.6-0.6-0.6c-0.6,0-0.6,0-0.6,0.6l-2.4,11.5c-1.8,0.6-3,2.4-4.2,3.6c-0.6,0.6-1.2,1.8-1.8,1.8c-0.6,0-0.6-0.6-1.2-1.2
	c0-0.6-0.6-0.6-1.2-1.2c0-0.6,0-1.2-0.6-2.4c-0.6-1.2-1.2-1.8-1.8-2.4c-0.6-0.6-0.6-0.6,0-1.8c0-0.6,0.6-1.2,1.2-1.8
	c0.6-0.6,0.6-1.2,1.2-1.8l9.1-4.8c0,0,0.6-0.6,0-0.6c0,0-0.6-0.6-0.6,0l-6.1,1.2c0-0.6,0-1.2-0.6-1.8l0,0l0,0l0,0l6.7-7.3V466h-0.6
	l-7.3,7.3c-0.6,0-0.6,0-1.2,0l5.5-9.7v-0.6h-0.6l-5.5,10.3c-1.8,0.6-3,1.8-4.2,2.4c-1.2,0.6-1.8,1.2-2.4,1.2c-0.6,0-0.6-0.6-1.2-1.2
	c-0.6-0.6-1.2-1.8-3-1.8l0,0c-0.6,0-0.6,0-1.2,0c1.2-1.2,1.8-3,1.2-5.5c-0.6-1.2-0.6-1.8-1.2-2.4c-0.6-0.6-0.6-0.6,0-1.8
	c0-0.6,0.6-1.2,1.2-1.2l0.6-0.6l11.5-2.4l0.6-0.6l-0.6-0.6l-10.3,1.8c0.6-0.6,0.6-1.2,0.6-2.4l9.7-5.5c0,0,0.6-0.6,0-0.6
	c0,0-0.6-0.6-0.6,0l-9.7,5.5c-0.6,0-0.6-0.6-1.2-0.6l8.5-8.5v-0.6h-0.6l-2.4,1.8l0,0c0,0,0-0.6-0.6-0.6l-11.5-0.6
	c0.6-0.6,1.2-1.2,1.2-1.8l11.5-2.4l0.6-0.6l-0.6-0.6l-11.5,2.4l0,0l0,0c-0.6,0-0.6-0.6-1.2-0.6l9.7-5.5l1.8,0.6l0,0
	c0,0,0.6,0,0.6-0.6c0,0,0-0.6-0.6-0.6l-1.2-0.6l0,0c0,0,0.6-0.6,0-0.6c0,0-0.6-0.6-0.6,0l-1.2,0.6l-6.1-1.8c0.6-0.6,1.2-1.2,1.2-1.8
	h10.9l0,0c0,0,0.6,0,0.6-0.6c0,0,0-0.6-0.6-0.6h-10.9c-0.6-0.6-0.6-0.6-1.2-1.2l9.1-2.4l2.4,1.2l0,0h0.6v-0.6l-1.2-0.6l1.2-0.6
	l0.6-0.6l-0.6-0.6l-2.4,0.6l-8.5-4.2c1.2,0,1.8-0.6,2.4-1.2l7.3,1.2l1.2,1.2c0,0,0,0,0.6,0c0,0,0,0,0.6,0v-0.6h-1.2l2.4,0.6l0,0
	c0,0,0.6,0,0.6-0.6c0,0,0-0.6-0.6-0.6l-3.6-0.6l-2.4-3l4.8-0.6l3.6,3c0,0,0,0,0.6,0h0.6v-0.6l-3-2.4c0,0,0.6,0,0.6-0.6
	c0,0,0-0.6-0.6-0.6l0,0h-1.2l-4.2-3c0-0.6,0-1.2-0.6-1.8l10.9,4.2l0,0c0,0,0.6,0,0.6-0.6v-0.6l-12.1-4.8c-0.6-0.6-0.6-0.6-1.2-1.2
	c-0.6-0.6-1.2-1.2-1.8-1.8c-0.6-1.2-0.6-1.2-0.6-1.8c0-0.6,0.6-1.2,1.2-2.4c0-0.6,0-1.2,0-1.8l0,0l0,0c1.8,0,3-1.2,3.6-4.2
	c1.8,0.6,4.8,2.4,5.5,4.8l0,0l0,0c0.6,0,1.2,0.6,1.2,0.6l6.7,10.3c0,0,0,0,0.6,0l0,0c0,0,0.6-0.6,0-0.6l-6.1-9.1l0,0
	c0.6,0,1.2-0.6,1.2-0.6s0-0.6,0-1.2l11.5,9.1c0,0,0,0,0.6,0h0.6v-0.6l-10.9-9.1c0-0.6-0.6-1.2-0.6-1.2l13.9,6.7l0,0
	c0,0,0.6,0,0.6-0.6v-0.6l-15.1-6.7c0-0.6-0.6-1.2-0.6-1.8v-0.6c-0.6-0.6-0.6-1.2-0.6-1.2c-0.6-0.6-0.6-1.2-0.6-2.4
	c0-0.6,1.2-1.2,1.8-1.2c1.2-0.6,1.8-1.2,1.8-1.8c0-0.6,0-1.2-0.6-1.2c0.6-0.6,1.2-1.8,1.8-3.6c1.8,0.6,4.2,2.4,5.5,4.8l4.2,10.9
	c0,0,0,0.6,0.6,0.6l0,0l0.6-0.6l-3-9.1c0.6,0.6,1.8,0.6,2.4,0.6c0.6,0,1.2-0.6,1.2-0.6l6.1,7.9c0,0,0,0,0.6,0c0,0,0,0,0.6,0v-0.6
	l-6.1-8.5c0-0.6-0.6-1.8-0.6-3l10.9,8.5c0,0,0,0,0.6,0h0.6v-0.6l-12.1-9.1c0-0.6-0.6-0.6-0.6-1.2v-0.6c-0.6-0.6-0.6-1.2-0.6-1.8
	c-0.6-1.2-0.6-1.2,0-3c0-0.6,1.2-1.2,1.8-1.2c1.2-0.6,1.8-0.6,1.8-1.8v-0.6c1.8,0,3-1.2,3.6-4.2c1.2,0,1.8,1.2,3,1.8l6.7,15.1
	c0,0,0,0.6,0.6,0.6l0,0c0,0,0.6-0.6,0-0.6l-4.8-10.3c1.2,0.6,2.4,1.2,3,1.2c0.6,0,0.6,0,0.6,0l6.7,7.3c0,0,0,0,0.6,0c0,0,0,0,0.6,0
	v-0.6l-6.7-7.9c0-0.6,0-1.8,0-2.4l10.3,6.7l0,0h0.6V383l-11.5-7.3c-0.6-1.2-0.6-1.8-1.2-3v-0.6c-0.6-0.6-0.6-1.2-0.6-1.8
	c-0.6-1.2-0.6-1.2,0-2.4c0-0.6,1.2-1.2,1.8-1.2c1.2-0.6,1.8-0.6,1.8-1.8v-0.6c1.2-1.2,1.8-3,1.8-6.1c1.2,0,1.8,0.6,2.4,1.2
	c0.6,0.6,0.6,0.6,1.8,1.2c1.2,1.2,1.8,1.8,2.4,2.4l5.5,10.3c0,0,0,0,0.6,0l0,0c0,0,0.6-0.6,0-0.6l-4.8-9.1h0.6c0.6,0,1.2,0,1.2-0.6
	c0,0,0-0.6,0-1.2l8.5,8.5c0,0,0,0,0.6,0c0.6,0,0,0,0.6,0v-0.6l-9.1-9.1c0-0.6,0-1.2-0.6-1.8l12.1,7.3l0,0h0.6v-0.6l-13.3-7.9l0,0
	c-0.6-1.8-1.8-2.4-2.4-2.4c-0.6-0.6-1.2-0.6-0.6-2.4c0-0.6,1.8-2.4,3-3.6c0.6-0.6,0.6-0.6,1.2-1.2l0,0c1.8,0,3.6-1.8,5.5-4.8
	c0.6,0.6,1.2,0.6,1.8,0.6c1.2,0,2.4,0,3,0.6c0.6,0.6,1.2,1.2,1.8,1.8l8.5,10.9c0,0,0,0,0.6,0c0,0,0,0,0.6,0v-0.6l-10.9-10.9
	c0.6,0,0.6,0,1.2,0s1.2,0,1.2-0.6v-0.6l9.7,6.7c0,0,0,0,0.6,0h0.6v-0.6l-10.3-7.3c0-0.6-0.6-1.2-0.6-1.8l13.3,4.8l0,0
	c0,0,0.6,0,0.6-0.6c0,0,0-0.6-0.6-0.6l-15.1-5.5c0,0,0,0,0-0.6c-1.2-1.2-1.8-1.8-3-2.4c-0.6-0.6-1.2-0.6-1.2-1.8
	c0-0.6,1.2-1.8,2.4-3c1.2-1.2,2.4-2.4,2.4-3c0-0.6-0.6-1.2-1.2-1.8c1.8,0.6,3.6,1.2,4.8,1.2s2.4-0.6,3-1.2c0.6-1.2,0.6-3,0-6.1
	c1.2,0,1.8,0,2.4,0c0.6,0,1.2,0.6,1.8,0.6l12.1,10.9c0,0,0,0,0.6,0c0,0,0,0,0.6,0v-0.6l-10.3-9.1c1.2,0.6,1.8,0.6,2.4,0.6
	c0.6,0,1.2,0,1.2-0.6l10.9,4.8l0,0c0,0,0.6,0,0.6-0.6V326l-10.9-4.8c0-0.6,0-1.2-0.6-1.8l12.7,1.8l0,0c0,0,0.6,0,0.6-0.6
	c0,0,0-0.6-0.6-0.6l-13.9-2.4c-0.6-0.6-0.6-0.6-1.2-1.2c-1.2-1.2-2.4-1.2-3-1.2c-0.6,0-1.2,0-1.2-1.2c0-0.6,1.2-3,2.4-4.8
	c1.8-3,2.4-4.2,1.8-4.8c0,0,0-0.6-0.6-0.6c1.8-0.6,3-1.2,3.6-1.8c1.2-1.2,0.6-3.6,0-6.1c0.6,0,1.2-0.6,1.8-1.2
	c0.6-0.6,1.8-1.2,2.4-1.8l15.1,4.2l0,0c0,0,0.6,0,0.6-0.6c0,0,0-0.6-0.6-0.6l-12.1-3.6c2.4,0,3.6-0.6,3.6-1.8H582
	C583.2,290.9,583.2,290.2,582.6,289.6C583.2,289.6,583.2,289.6,582.6,289.6z M408.7,229c0,1.2,0,2.4,0.6,3.6c0,1.2,0.6,1.8,0.6,2.4
	c0,0-0.6,0-1.2,0c0,0-0.6,0-1.2,0c-0.6,0-1.2,0.6-1.8,1.2c0,0,0,0,0,0.6h-0.6c-0.6,0-0.6,0-1.2-1.2c0-0.6,0-1.2-0.6-2.4
	c0-0.6,0-0.6,0-1.2l2.4-6.1L408.7,229z M556,246L556,246L556,246L556,246z M520.8,207.2L520.8,207.2L520.8,207.2L520.8,207.2z
	 M397.2,234.5c0,1.2,0,2.4-0.6,3c-0.6,0-0.6,0-1.2,0s-0.6-0.6-1.2-0.6s-1.2,0-1.8,0.6l0,0c-0.6,0-0.6,0-0.6-1.8
	c0-0.6,0.6-1.2,0.6-1.8v-0.6l5.5-4.8v1.2C397.8,231.5,397.2,233.3,397.2,234.5z M283.9,97.6c-1.8,0-3.6,1.8-5.5,3l-0.6,0.6
	c-0.6,0.6-0.6,0.6-1.2,1.2s-0.6,0.6-1.2,0.6h-0.6c-0.6,0-1.2-0.6-1.8-1.8c-0.6-0.6-1.2-1.2-2.4-1.2l0,0c-1.2,0-2.4,1.2-3,1.8
	c-0.6-2.4-1.2-4.2-3-5.5c1.2-0.6,3-0.6,5.5-0.6c3,0,6.7,0.6,10.3,0.6c1.2,0,2.4,0,3.6,0.6L283.9,97.6L283.9,97.6z M285.1,97.6
	L285.1,97.6V97h0.6L285.1,97.6z M495.4,241.8c0-0.6,0-1.8,0.6-2.4c0.6-1.2,0.6-1.2,1.2-1.2c0.6,0,0.6,0,1.2-0.6c0,0.6,0,1.2,0,1.8
	c0.6,1.2,1.2,1.2,1.8,1.2c0.6,0,0.6,0,0.6,0c0.6,0,0.6,0,1.2,0c0,0.6,0,1.8-0.6,2.4c0,0.6-0.6,1.2-0.6,2.4l-3,4.2l-3.6-5.5
	C494.8,243.6,494.8,243,495.4,241.8z M501.4,247.8c0,1.2,0.6,1.8,1.2,2.4l-1.2,3.6l-1.8-3L501.4,247.8z M506.3,247.2L506.3,247.2
	c0.6-1.2,0.6-1.8,1.2-2.4c0.6-0.6,1.2-1.2,1.2-1.2s0,0,0.6,0l0,0c0,1.8,1.2,2.4,1.8,2.4c0.6,0,0.6,0,1.2,0.6c0,0.6-0.6,1.2-1.8,2.4
	c-0.6,0.6-1.2,1.2-1.8,1.8l-3,1.8L506.3,247.2z M513.6,255.7c0.6-0.6,1.2-1.2,1.8-1.2c0.6,0,1.2-0.6,1.2-0.6s0,0,0.6,0
	c0,0,0.6,0,0.6,0.6c0,0,0,0,0,0.6c-0.6,1.8,0.6,2.4,1.2,3c0.6,0,0.6,0.6,0.6,0.6c0,0.6-1.2,1.2-1.8,1.2c-0.6,0.6-1.2,0.6-1.8,1.2
	l-6.7,0.6l3-4.8C512.3,256.3,512.9,256.3,513.6,255.7z M517.2,291.5c0.6,0,1.8,0,1.8,0.6c1.2,0.6,1.2,0.6,1.2,1.2l0,0
	c-1.8,0.6-1.8,1.8-1.8,2.4c0,0.6,0,0.6-0.6,1.2c-0.6,0-1.8-0.6-2.4-0.6c-1.2-0.6-1.8-0.6-3-1.2l-3-2.4l6.7-1.2
	C516.6,291.5,516.6,291.5,517.2,291.5z M509.3,299.3c0.6,0.6,1.2,0.6,1.2,1.2c0.6,0.6,1.2,0.6,1.8,1.2c1.2,1.2,0.6,1.2,0.6,1.8v0.6
	c0,0,0,0-0.6,0c-1.8,0-2.4,1.2-2.4,1.8c0,0.6,0,0.6-0.6,0.6c-0.6,0-1.2-0.6-1.8-1.8c-0.6-0.6-1.8-1.8-3-2.4l-2.4-3.6L509.3,299.3z
	 M419,456.9L419,456.9L419,456.9L419,456.9z M523.9,529.6L523.9,529.6L523.9,529.6L523.9,529.6z M467.5,419.9
	c-0.6-0.6-1.2-0.6-1.8-0.6c-0.6,0-1.2-0.6-1.8-0.6c-1.2-0.6-1.2-1.2-1.2-1.2l0,0c1.8-0.6,2.4-1.2,2.4-2.4c0-0.6,0-0.6,0.6-1.2
	c0.6,0,1.8,0.6,2.4,1.2c0.6,0.6,1.8,1.2,3,1.8l2.4,3L467.5,419.9L467.5,419.9z M559,293.9L559,293.9L559,293.9L559,293.9z
	 M419.6,221.8c0,1.8,1.2,3,1.8,4.2c0.6,1.2,1.2,1.8,1.2,2.4s-0.6,0.6-1.2,0.6c-1.2,0-2.4,0-2.4,2.4c0,0,0,0.6,0,1.2l-0.6-0.6
	c-1.2-0.6-1.8,0-2.4,0l0,0c0,0-0.6,0-1.2-1.2c-0.6-0.6-0.6-1.2-0.6-1.8l-0.6-12.7L419.6,221.8z M407.5,221.2l1.8,4.8
	c-0.6,0.6-0.6,0.6-0.6,1.2l-2.4-3L407.5,221.2z M402.1,220l3,4.2l-2.4,5.5c0-0.6-0.6-1.2-1.2-1.8v-2.4l1.2-1.2v-0.6h-0.6h-0.6
	L402.1,220z M400.2,226.6v1.2c-0.6,0-0.6,0.6-1.2,0.6v-0.6L400.2,226.6z M397.8,227.2l-4.8,4.2c0-0.6,0-1.2-0.6-2.4l4.2-6.7
	L397.8,227.2z M380.9,212.1l-3.6,8.5c-1.8,0.6-3,2.4-4.2,3.6c-0.6,0.6-1.2,1.8-1.8,1.8s-0.6-0.6-0.6-1.2c0-0.6-0.6-0.6-0.6-1.2
	c0-0.6,0-1.2,0-2.4s-0.6-1.8-1.2-2.4s-0.6-0.6,0.6-1.8c0.6-0.6,1.2-1.2,1.8-1.8c0,0,0.6-0.6,0.6-1.2L380.9,212.1z M285.7,98.8
	L285.7,98.8l1.2-1.8h0.6L285.7,98.8z M239.1,112.1h0.6c3,0,4.8,0.6,5.5,1.8c0.6,0.6,0.6,1.2,0.6,1.2c-3.6,1.2-5.5,3-6.7,5.5
	c0-0.6,0-0.6,0-1.2C240.3,117.6,239.7,114.5,239.1,112.1z M482,245.4c0-0.6,0-1.2,0-1.2c0-0.6,0-1.8,0-2.4c0.6-1.8,0.6-1.8,1.2-1.8
	c0.6,0,1.2-0.6,2.4-1.2c0.6-0.6,0.6-0.6,1.2-1.2h0.6c0.6,0,1.2,0,1.2-0.6c0.6,0,0.6-0.6,1.2-0.6c0,0,0,0,0,0.6v20L482,245.4z
	 M493.6,246c0.6,0,0.6-0.6,0.6-1.2l3.6,5.5l-1.8,3L493.6,246z M497.2,258.1l-1.2-3.6l2.4-3l2.4,3.6l-0.6,1.2L497.2,258.1z
	 M502,255.1L502,255.1l1.2-4.8c0.6,0,1.2-0.6,1.8-1.2l-0.6,4.8L502,255.1z M505.7,254.5l2.4-1.2c-0.6,0.6-0.6,1.8,0,2.4l-2.4,2.4
	V254.5z M504.5,261.2v1.2h-1.2L504.5,261.2z M505.1,262.4v-2.4l3-3l0,0l0,0c0.6,0,0.6,0,1.2,0h0.6l-2.4,4.8L505.1,262.4z M508.1,263
	l6.1-0.6c-0.6,0.6-0.6,1.2-0.6,1.8l-7.9,3.6L508.1,263z M507.5,273.3l9.1-7.3c0.6,0,1.2-0.6,1.8-0.6c0.6,0,1.2-0.6,1.8-0.6
	c0.6,0,0.6,0,0.6,0c0.6,0,0.6,0,0.6,0.6c0,0,0.6,0.6,1.2,1.2c-1.2,0.6-2.4,0.6-2.4,1.8c-1.2,1.8,0,2.4,0.6,3
	c0.6,0.6,0.6,0.6,0.6,1.2c0,0-1.2,0-2.4,0.6c-0.6,0-1.8,0.6-2.4,0.6L507.5,273.3z M502.6,281.8C502.6,281.8,503.3,281.8,502.6,281.8
	l10.9-3c0.6,0.6,1.2,0.6,2.4,0.6l-7.3,4.2L502.6,281.8z M509.9,284.2l8.5-4.8l0,0c0.6,0,1.8,0,2.4,0c1.8,0,1.8,0.6,1.8,0.6
	c0,0.6,0,0.6,0.6,1.2c-0.6,0-1.2,0.6-1.8,0.6c-1.2,1.2-0.6,2.4-0.6,3s0.6,0.6,0,1.2c-0.6,0-1.8,0-2.4,0c-1.2,0-1.8,0-3,0
	L509.9,284.2z M505.7,289.6l7.3,0.6c0.6,0.6,0.6,0.6,1.2,1.2l-5.5,1.2L505.7,289.6z M508.1,293.3l1.8,1.8c-1.2,0-1.8,0.6-2.4,1.2
	l-4.2-1.8L508.1,293.3z M500.2,293.9H499l0,0l-0.6-0.6L500.2,293.9z M500.2,295.1l1.8-0.6l5.5,2.4c0,0.6,0,1.2,0.6,1.8l-6.7-1.2
	L500.2,295.1z M500.8,298.7l2.4,4.2h-0.6c-0.6,0-0.6,0-1.2,0l-6.1-5.5L500.8,298.7z M562.6,530.8L562,529c0-0.6,0-1.2-0.6-1.2
	c0-0.6-0.6-0.6-0.6-1.2c0-0.6,0-0.6,0-0.6l0,0c0,0,0.6,0,1.2-0.6c0.6-1.2,0.6-2.4,0.6-3.6l0,0l0,0l0.6,0.6L562.6,530.8z
	 M566.3,521.1L566.3,521.1c0,0,0.6,0,0.6-0.6l0,0c0.6,0.6,1.2,0,1.8,0l0,0c0,0,0,0,0.6,0.6l-0.6,5.5L566.3,521.1z M572.9,521.1
	c0,0,0.6,0,0.6-0.6c0.6-0.6,0.6-1.2,0.6-1.8c0.6,0,0.6,0,0.6-0.6l0,0l-0.6,5.5L572.9,521.1z M570.5,504.1c0,0.6,0,0.6,0,1.2l0,0v0.6
	l0,0l0,0c0,0,0,0-0.6,0h-0.6l0,0l0,0c0,0-0.6,0-0.6,0.6c-0.6-0.6-0.6-1.8-0.6-1.8l0,0l0,0l0,0v-4.2L570.5,504.1z M565.7,506
	L565.7,506c0,0.6,0,0.6,0,0.6l0,0l0,0h-0.6c-0.6,0-0.6,0-1.2,0h-0.6c-0.6,0-0.6,0-0.6,0.6c-0.6-0.6-0.6-1.8-0.6-2.4l0,0l0,0v-4.8
	L565.7,506z M508.7,490.2l4.2,9.1c0,0.6,0,1.2,0,1.8c0,0.6,0,1.2,0,1.2h-0.6c0,0-0.6,0-0.6-0.6c-0.6-0.6-1.2-1.8-1.8-2.4
	c-1.2-0.6-1.8-0.6-2.4-1.2c-0.6,0-0.6,0-1.2-1.2c0-0.6,0-1.2-0.6-1.8l0,0L508.7,490.2z M474.8,450.2L474.8,450.2L474.8,450.2
	l-6.7,6.1c-1.8,0-3.6,1.2-4.8,1.8c-1.2,0.6-1.8,1.2-2.4,1.2c-0.6-0.6-0.6-0.6-0.6-1.2c0-0.6-0.6-1.8-1.8-2.4l0.6-0.6
	c0.6-1.8,0-2.4-0.6-3c-0.6-0.6-0.6-0.6-0.6-0.6c0.6-0.6,1.2-0.6,2.4-1.2c0.6-0.6,1.8-0.6,2.4-1.2L474.8,450.2z M471.7,439.3
	l-10.3,5.5c-0.6,0-1.2,0-1.8,0c-0.6,0-1.2,0.6-2.4,0c-1.2,0-1.2,0-1.8-0.6c0,0-0.6-0.6-0.6-1.2c1.2,0,2.4-0.6,3-1.2
	c1.2-1.8,0.6-2.4,0-3c-0.6-0.6-0.6-0.6-0.6-1.2c0.6,0,1.8-0.6,3-0.6s2.4,0,3.6-0.6L471.7,439.3z M463.3,431.4c-0.6,0-1.2,0-1.8,0
	c-0.6,0-1.8,0-2.4-0.6c-1.8-0.6-1.8-0.6-1.8-1.2c0-0.6,0-0.6-0.6-1.2l0,0c0.6,0,1.2,0,1.8-0.6c1.8-1.2,1.2-2.4,1.2-3
	c0-0.6,0-0.6,0-1.2c0,0,1.2,0,2.4,0c0.6,0,1.2,0,1.8,0l8.5,4.2L463.3,431.4z M475.4,423.6l-6.1-1.2l0,0l0,0c0-0.6-0.6-0.6-0.6-1.2
	l4.8-0.6L475.4,423.6z M474.2,419.9l-1.8-2.4h0.6c0.6,0,1.2,0,1.8-0.6l3,2.4L474.2,419.9z"/>
</svg>
