<?xml version="1.0" encoding="utf-8"?>
<!-- Generator: Adobe Illustrator 17.1.0, SVG Export Plug-In . SVG Version: 6.00 Build 0)  -->
<!DOCTYPE svg PUBLIC "-//W3C//DTD SVG 1.1//EN" "http://www.w3.org/Graphics/SVG/1.1/DTD/svg11.dtd">
<svg version="1.1" id="Layer_1" xmlns="http://www.w3.org/2000/svg" xmlns:xlink="http://www.w3.org/1999/xlink" x="0px" y="0px"
	 viewBox="166.3 67.9 463.6 472.1" enable-background="new 166.3 67.9 463.6 472.1" xml:space="preserve">
<path fill="#E96057" d="M616,307.8c-1.8,6.1-7.3,12.7-12.7,9.7c-3.6-2.4-3.6-8.5-0.6-11.5c2.4-3.6,6.7-6.1,9.7-9.1
	c3-3,4.8-8.5,2.4-12.1c-9.1,1.8-15.8,10.3-19.4,18.8s-5.5,17.6-9.7,26.1c-4.2,8.5-11.5,15.8-21.2,16.4c1.2-4.2,1.8-9.1,0.6-13.3
	c-1.2-4.2-6.1-7.9-10.3-6.7c-4.8,1.2-6.1,7.3-6.1,12.1c0,4.8,0.6,10.3-2.4,14.5c-3,3.6-7.9,4.2-12.7,5.5
	c-20,4.2-37.6,17.6-47.3,35.1c-6.7,12.7-9.7,26.7-13.3,40c-4.2,13.3-9.7,26.7-20.6,35.8c-1.2-4.8-4.2-9.1-3.6-14.5
	c0.6-6.7,5.5-12.7,9.1-18.2c5.5-8.5,9.7-18.2,12.7-27.9c3-10.9,4.2-23,10.9-32.7c3-4.2,6.7-7.9,10.9-11.5c7.9-7.3,15.1-14.5,23-21.8
	c3-2.4,6.1-5.5,7.9-9.1c2.4-3.6,3.6-7.9,6.1-12.1s6.1-7.3,9.7-9.7c15.1-0.6,29.7-7.3,43-14.5c8.5-4.2,17-9.7,23-17
	c4.8-6.7,7.9-13.9,10.3-21.8c3-9.1,5.5-18.8,3-27.3c-1.8-1.2-3.6,1.2-4.8,3c-5.5,9.7-9.7,20-12.7,30.9c-0.6,3-1.8,6.1-3.6,8.5
	c-1.2,1.8-3,3.6-4.8,4.8c-2.4,1.8-4.8,4.2-7.3,6.1c-6.1,5.5-13.3,10.9-20.6,11.5c19.4-16.4,20.6-46.7,36.4-67.3
	c2.4-3,5.5-6.7,6.7-10.3c0.6-3,0.6-6.1,1.2-9.1c1.2-6.7,6.7-11.5,11.5-17c4.8-4.8,9.1-12.1,6.7-18.2c-4.2-3-10.9,0-13.9,4.2
	s-4.2,10.3-7.3,14.5c-3.6,5.5-9.1,10.3-10.9,16.4c-1.2,6.1,1.2,13.9-3,18.2c-2.4,2.4-6.1,3-7.9,5.5c-3,3-3,7.9-3.6,12.1
	c-1.2,12.7-9.1,23.6-18.8,32.7c3-21.2,6.1-42.4,9.1-63.6c1.8-14.5,4.2-29.1,5.5-43.6c0.6-6.1-1.8-12.7-1.2-18.8
	c0.6-9.1,3.6-18.2,3.6-27.3c-4.8-0.6-7.9,4.8-9.1,9.7c-4.8,20.6-6.1,42.4-6.1,64.2c0,16.4,1.8,32.1-4.2,47.3
	c-3.6,8.5-9.1,17-9.7,26.1c-0.6,5.5,0,11.5-1.2,17c-5.5,4.2-11.5,8.5-16.4,12.7c0.6-1.2,1.8-2.4,2.4-3.6c2.4-4.8,0-4.2,1.2-11.5
	s2.4-11.5,2.4-17.6c0-1.8-0.6-4.2-1.2-6.1c-1.2-6.1,0-12.1,1.8-17.6c4.2-15.8,9.7-32.1,10.3-48.5c0-17-4.8-33.9-2.4-50.9
	c-1.8-1.8-4.8-1.2-6.7,1.2c-1.2,1.8-1.8,4.8-1.8,7.3c-1.2,17,0.6,37.6-1.8,57.6c-1.8,15.1-7.3,30.3-9.1,44.2
	c-1.2,11.5,0.6,22.4-1.2,32.1c-3.6,16.4-10.3,29.7-15.1,38.2c-9.1,20-19.4,16.4-29.1,29.7l9.7-33.3c0,0,4.8-13.3,4.2-35.1
	c4.2-4.2,7.9-10.3,10.9-15.8c7.9-13.9,16.4-30.3,10.3-45.4c-8.5,5.5-10.9,17-14.5,26.7c-1.8,5.5-4.8,10.3-8.5,14.5
	c-1.8-13.9-4.2-17.6-3.6-23.6c0.6-7.9,3.6-21.8,5.5-27.3c1.8-5.5,6.1-13.9,0-15.1s-9.7,5.5-11.5,8.5c-1.2,3-8.5,16.4-6.7,29.7
	c1.8,10.3,1.8,28.5,3.6,39.4c-4.2,3-8.5,4.8-13.3,6.7c-1.2,0.6-2.4,0.6-3.6,1.2c-0.6-3-1.8-6.1-2.4-8.5c-2.4-11.5-2.4-24.2-2.4-36.4
	c0-11.5,0-23,0-34.5c0-8.5,0-17,3-24.8c2.4-6.1,5.5-10.9,7.9-17c1.8-4.2-0.6-8.5,0-13.3c0.6-5.5,3-11.5,3-17c0-4.2-0.6-8.5-3-12.1
	s-8.5-4.2-10.9,0c0.6,6.1-1.2,12.1-6.1,16.4c-9.1-15.1-13.9-32.7-13.9-50.3c0-7.9,0-17.6-7.3-21.2c-4.2,13.9-2.4,28.5,1.8,42.4
	s9.1,27.3,12.1,41.2c4.2,23,0,47.3,1.2,70.9c0.6,22.4,6.1,44.8,7.3,67.3c-1.8,0.6-4.2,1.8-6.1,2.4c-8.5,4.8-13.3,14.5-20,22.4
	c-4.8,5.5-10.3,10.9-16.4,15.1c1.2-20.6,2.4-40.6,3.6-61.2c0.6-10.9,1.2-22.4,2.4-33.3c1.2-11.5,2.4-22.4,3.6-33.3
	c-3.6-3.6-8.5,1.8-9.7,6.7c-1.2,4.8-4.2,10.9-8.5,9.7c1.8-10.9,1.2-23-1.8-33.9c-5.5,0.6-9.7,4.8-11.5,9.7
	c-1.8,4.8-1.8,10.3-2.4,15.8c0,10.9-0.6,22.4-0.6,33.3c0,9.7,0,19.4,2.4,28.5c2.4,7.9,6.1,14.5,8.5,22.4c4.2,13.9,1.8,29.7-0.6,44.2
	c-5.5,3-10.9,6.1-13.9,10.9c-4.8,6.7-4.8,15.8-5.5,24.2c0,12.1-0.6,23.6,1.2,35.8c-1.2-0.6-2.4-1.8-3.6-2.4
	c-10.3-7.9-12.7-22.4-14.5-35.8c-0.6-5.5-1.8-11.5-0.6-17c0.6-5.5,2.4-10.3,1.8-15.8c-0.6-6.7-5.5-12.1-7.3-18.2
	c-0.6-3-1.2-5.5-1.8-8.5c-2.4-7.9-8.5-14.5-16.4-16.4c-1.2,3.6,2.4,6.7,4.8,9.1c2.4,2.4,4.8,7.3,1.8,9.7c-2.4,1.8-5.5,0-6.7-2.4
	s-1.2-5.5-1.8-7.9c-0.6-2.4-3-4.8-5.5-4.2c-1.2,5.5,1.2,11.5,4.8,15.8c3.6,4.2,7.9,7.9,11.5,12.1c3.6,4.2,5.5,10.9,3,16.4
	c-1.8-1.8-4.2-3.6-6.7-3.6s-6.1,1.2-6.7,4.2c-0.6,3,2.4,5.5,4.8,6.7s6.1,2.4,7.3,4.8s0,6.1-0.6,8.5c-3,12.7-1.2,26.1,6.1,36.4
	c4.8,7.3,11.5,12.1,17.6,18.2c6.1,5.5,11.5,12.7,13.3,21.2c-3-0.6-6.1,0-8.5-1.8c-3.6-2.4-5.5-6.7-7.3-9.7
	c-3-5.5-6.7-10.3-11.5-14.5c-4.8-4.8-10.9-8.5-14.5-14.5c-1.8-3-2.4-6.1-3-9.1c-1.8-6.1-3.6-12.7-5.5-18.8c-0.6-2.4-1.2-4.8-2.4-6.7
	c-1.2-2.4-3-4.2-4.8-6.7c-1.2-2.4-2.4-5.5-2.4-7.9c3.6-9.1,4.2-18.8,4.2-28.5c0-6.1-0.6-12.1-3-17.6c-1.8-4.2-5.5-7.9-9.1-11.5
	c-3.6-4.2-7.9-7.9-13.9-8.5c-1.2,0.6-0.6,2.4,0,3.6c3.6,5.5,7.9,10.9,12.7,15.1c1.2,1.2,3,2.4,3.6,4.2c0.6,1.2,1.2,3,1.2,4.2
	c0.6,1.8,0.6,3.6,1.2,6.1c1.2,4.8,1.8,10.3,0.6,15.1c-3.6-15.1-19.4-23.6-26.1-38.2c-1.2-2.4-1.8-4.8-3.6-6.7c-1.2-1.2-3-1.8-4.2-3
	c-3-2.4-4.2-6.7-5.5-10.9s-3.6-7.9-7.9-8.5c-3,1.8-3,6.1-1.2,9.1s4.2,4.8,6.1,7.9c1.8,3.6,3,7.9,6.1,10.3s7.9,2.4,9.1,6.1
	c0.6,1.8,0,4.2,0.6,6.1c0.6,2.4,3.6,3.6,5.5,4.8c6.7,4.2,10.3,11.5,12.1,18.8c-10.3-7.3-21.2-14.5-31.5-21.2
	c-7.3-4.8-14.5-9.7-21.8-14.5c-3-1.8-7.3-2.4-10.3-4.2c-4.8-2.4-8.5-6.7-13.3-9.1c-1.8,2.4,0.6,6.1,3,7.9c9.7,7.9,21.2,14.5,32.7,20
	c8.5,4.2,17.6,7.3,23.6,14.5c3.6,4.2,6.7,9.7,11.5,12.7c3,1.8,6.1,3,8.5,4.8c0.6,4.2,1.2,8.5,2.4,12.7c-0.6-0.6-0.6-1.8-1.2-2.4
	c-1.8-3-2.4-1.2-6.1-3.6c-3.6-2.4-5.5-4.8-8.5-6.1c-1.2-0.6-2.4-0.6-3.6-0.6c-3.6-0.6-6.1-3-9.1-5.5c-7.3-6.7-14.5-13.9-23-18.2
	c-9.1-4.2-19.4-6.1-27.9-11.5c-1.2,0.6-1.8,2.4-1.2,4.2c0.6,1.2,1.8,2.4,3.6,3c9.1,4.8,20,9.1,30.3,15.8
	c7.3,4.8,13.9,12.1,21.2,16.4c5.5,3.6,12.1,4.8,17,9.1c7.9,6.1,13.3,13.3,16.4,18.2c7.9,10.3,3.6,15.8,7.9,24.2l-15.8-13.3
	c0,0-5.5-6.1-17.6-11.5c-1.2-3.6-3-7.3-5.5-10.3c-5.5-8.5-11.5-17.6-21.2-17.6c0.6,6.7,6.1,10.3,10.3,15.1c2.4,2.4,4.2,5.5,5.5,8.5
	c-7.9-2.4-10.3-1.8-13.3-3.6c-4.2-2.4-10.3-7.9-13.3-10.3c-2.4-2.4-5.5-7.3-7.9-3.6c-2.4,3,0,7.3,1.2,8.5c1.2,1.8,6.1,9.1,13.9,11.5
	c6.1,1.8,15.8,6.1,21.8,7.9c0.6,3,0.6,6.1,0,9.7c0,0.6,0,1.8-0.6,2.4c-1.8,0-3.6-0.6-5.5-1.2c-7.3-1.8-13.3-4.8-20-7.9
	c-6.1-3-12.1-6.1-18.2-9.1c-4.2-1.8-9.1-4.2-12.1-7.9c-2.4-3-4.2-6.1-6.7-9.1c-1.8-1.8-4.8-1.8-7.3-3.6c-3-1.8-4.8-4.8-7.9-6.1
	c-2.4-1.2-4.8-1.8-7.3-1.2c-2.4,0.6-4.2,4.2-3,6.1c3.6,1.2,6.1,3.6,7.3,7.3c-10.3,1.2-21.2-0.6-30.3-4.8c-4.2-1.8-9.7-4.2-13.3-1.2
	c6.1,6.1,14.5,8.5,23,9.7c8.5,1.2,17,1.8,25.4,3.6c13.3,3.6,25.4,11.5,38.2,17.6c12.1,5.5,25.4,7.9,37.6,12.7c0,1.2,0,3,0,4.2
	c0.6,6.1,4.2,11.5,6.7,17c1.8,4.2,3,8.5,3.6,13.3c-10.3-6.1-21.2-11.5-31.5-17.6c-6.1-3-11.5-6.7-17.6-9.7
	c-5.5-3.6-11.5-6.7-17-10.9c-3,1.2-1.2,5.5,0.6,7.3c2.4,1.8,41.2,21.2,27.3,20c-13.9-1.2-42.4-25.4-43-20c-1.2,3,0,6.7,2.4,9.1
	c1.8,2.4,4.8,3.6,7.9,5.5c6.1,3,12.1,6.1,17.6,8.5c4.8,2.4,10.3,4.8,15.8,5.5c4.8,0.6,9.7,0,13.9,0.6c8.5,1.2,16.4,6.1,23.6,11.5
	c0,3.6,0.6,7.9,1.8,10.9c2.4,4.2,7.3,6.7,11.5,9.1c6.1,3,12.7,6.1,19.4,8.5c3.6,1.2,7.9,1.8,12.1,1.8h0.6
	c10.3,3.6,21.8,1.8,32.7,4.8c1.2,0.6,2.4,0.6,3.6,0.6c1.8,0,3.6-1.2,5.5-1.8c4.2-1.8,7.9,0,12.1,1.8c0.6,3,1.8,6.1,1.8,9.1
	c0,1.8,0.6,4.2,1.2,6.1c1.2,3,4.2,4.8,6.7,6.7c9.1,9.7,2.4,27.3,9.7,38.8c1.2,1.8,2.4,3.6,4.8,4.8c7.3,4.2,17-3,19.4-10.9
	c2.4-8.5,0.6-17,1.8-25.4c0.6-6.1,3.6-10.9,6.7-16.4c4.2-5.5,8.5-10.9,9.7-11.5c10.9-7.9,26.1-11.5,31.5-24.2
	c2.4-5.5,2.4-11.5,3.6-17.6c3.6-21.2,23-35.8,40.6-48.5c7.3-5.5,15.1-10.3,23.6-13.9c7.9-3,16.4-3.6,23.6-8.5
	c9.1-6.1,13.3-17,21.2-24.8c3.6-3,7.3-6.1,10.9-9.1c9.7-9.1,14.5-23.6,12.1-37C619.6,294.5,617.8,301.8,616,307.8z M300.3,378.7
	c3.6,1.8,6.7,4.2,6.7,4.2c5.5,3,9.7,8.5,13.3,13.3c3,4.2,6.1,9.1,9.1,13.3c0.6,1.2,1.8,3,0.6,4.2c-5.5-2.4-10.9-6.1-14.5-10.9
	c-3-3.6-5.5-7.3-9.1-9.7c-2.4-1.8-4.8-3-7.9-3.6C299,386,300.3,382.3,300.3,378.7z M309.4,451.4c-1.8-1.8-3-4.2-3.6-7.3
	c6.1,4.2,11.5,8.5,17.6,12.7C318.4,456.3,313,455.1,309.4,451.4z M353,452.6c-10.3-2.4-17-9.7-27.3-10.9c-5.5-0.6-10.3-3.6-14.5-6.1
	c-1.8-1.2-3.6-1.8-5.5-3c0-3,0-5.5,0-7.9c-1.2-9.1-6.1-17-7.3-25.5c3.6,1.8,6.7,4.2,9.7,6.7c5.5,4.8,9.7,10.9,15.1,15.1
	c10.9,7.9,25.5,9.1,38.2,12.7c2.4,3.6,15.1,18.2,17,22.4C375.4,452.6,357.2,453.9,353,452.6z M459.6,337.5
	c2.4-6.7,6.7-13.3,7.9-20.6c0.6-4.8,0.6-9.7-0.6-14.5c6.1-1.8,12.1-2.4,17.6-4.8c0,6.7-1.8,12.7-1.8,12.7c0,10.9-4.8,20.6-10.3,30.3
	c-4.2,7.9-8.5,15.8-12.7,23.6c-1.2,1.8-3,4.8-5.5,3.6C454.2,357.5,456,347.2,459.6,337.5z M387.5,364.2c1.8-4.2,4.2-7.3,7.9-10.3
	c-1.8,12.1-4.2,24.2-6.1,35.8C386.9,380.5,384.5,372,387.5,364.2z M436,449.6c1.8-6.7,2.4-13.9,0.6-20.6
	c-3.6-17.6-19.4-29.7-24.2-46.7c-2.4-8.5-1.8-17.6-1.2-26.7c0-3.6,0.6-7.3,0.6-10.9c3.6-1.8,7.9-4.2,10.9-6.1
	c12.1-7.9,20-21.2,31.5-29.7c-0.6,6.7-1.2,13.3-3,20c-3,11.5-8.5,22.4-10.9,34.5c-4.2,22.4,4.2,44.8,7.9,67.9
	C444.5,436.9,440.8,443.5,436,449.6z"/>
</svg>
